<?xml version="1.0" encoding="UTF-8" standalone="no"?>
<svg width="14px" height="14px" viewBox="0 0 14 14" version="1.1" xmlns="http://www.w3.org/2000/svg" xmlns:xlink="http://www.w3.org/1999/xlink">
    <!-- Generator: Sketch 39.1 (31720) - http://www.bohemiancoding.com/sketch -->
    <title>Group</title>
    <desc>Created with Sketch.</desc>
    <defs></defs>
    <g id="Page-1" stroke="none" stroke-width="1" fill="none" fill-rule="evenodd">
        <g id="2.1-Unregistered-payment-search" transform="translate(-974.000000, -316.000000)">
            <g id="service-search" transform="translate(30.000000, 264.000000)">
                <g id="button-/-small" transform="translate(935.000000, 43.000000)">
                    <g id="Group" transform="translate(4.000000, 4.000000)">
                        <g id="ico-/-add">
                            <g id="ico-/-small-bound">
                                <rect x="0" y="0" width="24" height="24"></rect>
                            </g>
                            <path d="M13.4583333,10.8333333 C13.2833333,10.8333333 13.1666667,10.7166667 13.1666667,10.5416667 L13.1666667,5.58333333 C13.1666667,5.23333333 12.9333333,5 12.5833333,5 L11.4166667,5 C11.0666667,5 10.8333333,5.23333333 10.8333333,5.58333333 L10.8333333,10.5416667 C10.8333333,10.7166667 10.7166667,10.8333333 10.5416667,10.8333333 L5.58333333,10.8333333 C5.23333333,10.8333333 5,11.0666667 5,11.4166667 L5,12.5833333 C5,12.9333333 5.23333333,13.1666667 5.58333333,13.1666667 L10.5416667,13.1666667 C10.7166667,13.1666667 10.8333333,13.2833333 10.8333333,13.4583333 L10.8333333,18.4166667 C10.8333333,18.7666667 11.0666667,19 11.4166667,19 L12.5833333,19 C12.9333333,19 13.1666667,18.7666667 13.1666667,18.4166667 L13.1666667,13.4583333 C13.1666667,13.2833333 13.2833333,13.1666667 13.4583333,13.1666667 L18.4166667,13.1666667 C18.7666667,13.1666667 19,12.9333333 19,12.5833333 L19,11.4166667 C19,11.0666667 18.7666667,10.8333333 18.4166667,10.8333333 L13.4583333,10.8333333 Z" id="Shape" fill="#FFFFFF"></path>
                        </g>
                    </g>
                </g>
            </g>
        </g>
    </g>
</svg>