<?xml version="1.0" encoding="UTF-8" standalone="no"?>
<svg width="24px" height="24px" viewBox="0 0 24 24" version="1.1" xmlns="http://www.w3.org/2000/svg" xmlns:xlink="http://www.w3.org/1999/xlink">
    <!-- Generator: Sketch 39.1 (31720) - http://www.bohemiancoding.com/sketch -->
    <title>Group</title>
    <desc>Created with Sketch.</desc>
    <defs></defs>
    <g id="Page-1" stroke="none" stroke-width="1" fill="none" fill-rule="evenodd">
        <g id="Group" fill="#00427A">
            <path d="M23,10 L14.5,10 C14.2,10 14,9.8 14,9.5 L14,1 C14,0.4 13.6,0 13,0 L11,0 C10.4,0 10,0.4 10,1 L10,9.5 C10,9.8 9.8,10 9.5,10 L1,10 C0.4,10 0,10.4 0,11 L0,13 C0,13.6 0.4,14 1,14 L9.5,14 C9.8,14 10,14.2 10,14.5 L10,23 C10,23.6 10.4,24 11,24 L13,24 C13.6,24 14,23.6 14,23 L14,14.5 C14,14.2 14.2,14 14.5,14 L23,14 C23.6,14 24,13.6 24,13 L24,11 C24,10.4 23.6,10 23,10 L23,10 Z" id="Shape"></path>
        </g>
    </g>
</svg>