<?xml version="1.0" encoding="UTF-8" standalone="no"?>
<svg width="28px" height="22px" viewBox="0 0 28 22" version="1.1" xmlns="http://www.w3.org/2000/svg" xmlns:xlink="http://www.w3.org/1999/xlink">
    <!-- Generator: Sketch 40.3 (33839) - http://www.bohemiancoding.com/sketch -->
    <title>Page 1</title>
    <desc>Created with Sketch.</desc>
    <defs></defs>
    <g id="Page-1" stroke="none" stroke-width="1" fill="none" fill-rule="evenodd">
        <g fill="#074C7F">
            <path d="M16.0028559,16.11796 L3.75047322,16.11796 C3.24696975,16.117504 2.79367715,15.9182184 2.45707834,15.5894201 C2.12233919,15.2597097 1.91870621,14.8146234 1.91824129,14.3198297 L1.91824129,3.6778901 C1.91870621,3.18492057 2.12233919,2.74029034 2.45707834,2.41012389 C2.79367715,2.08178156 3.24696975,1.88203998 3.75047322,1.88203998 L24.2495268,1.88203998 C24.7530303,1.88203998 25.2063229,2.08178156 25.5429217,2.41012389 C25.8776608,2.74029034 26.0812938,3.18492057 26.0817587,3.6778901 L26.0817587,11.3611006 L28,11.3611006 L28,3.6778901 C27.9962807,1.64900813 26.3188656,0.00364824808 24.2495268,0 L3.75047322,0 C1.68113439,0.00364824808 0.0032544084,1.64900813 0,3.6778901 L0,14.3198297 C0.0032544084,16.3509919 1.68113439,17.9963518 3.75047322,18 L16.0028559,18 L16.0028559,16.11796 L16.0028559,16.11796 Z" id="Fill-1"></path>
            <polyline id="Fill-3" points="1 7 27 7 27 5 1 5"></polyline>
            <polygon id="Fill-5" points="18 16.5674488 20.9305545 19 24 16.4994798 22.8607369 15 20.9412728 16.5632875 19.152661 15.079066"></polygon>
            <path d="M21,21.0823634 L21,22 C24.3142561,21.9995552 26.9995552,19.3142561 27,16 C26.9995552,12.6857439 24.3142561,10.0004448 21,10 C17.6857439,10.0004448 15.0004448,12.6857439 15,16 C15.0004448,19.3142561 17.6857439,21.9995552 21,22 L21,21.0823634 L21,20.1647268 C19.8470606,20.164282 18.8115502,19.6999036 18.0553785,18.9446215 C17.3000964,18.1884498 16.835718,17.1529394 16.8352732,16 C16.835718,14.8470606 17.3000964,13.8115502 18.0553785,13.0553785 C18.8115502,12.3000964 19.8470606,11.835718 21,11.8352732 C22.1529394,11.835718 23.1884498,12.3000964 23.9446215,13.0553785 C24.6999036,13.8115502 25.164282,14.8470606 25.1647268,16 C25.164282,17.1529394 24.6999036,18.1884498 23.9446215,18.9446215 C23.1884498,19.6999036 22.1529394,20.164282 21,20.1647268 L21,21.0823634 Z" id="Fill-7"></path>
        </g>
    </g>
</svg>