<?xml version="1.0" encoding="UTF-8" standalone="no"?>
<svg width="100px" height="30px" viewBox="0 0 100 30" version="1.1" xmlns="http://www.w3.org/2000/svg" xmlns:xlink="http://www.w3.org/1999/xlink">
    <!-- Generator: Sketch 39.1 (31720) - http://www.bohemiancoding.com/sketch -->
    <title>Appstore</title>
    <desc>Created with Sketch.</desc>
    <defs>
        <rect id="path-1" x="0" y="0" width="100" height="30" rx="2.8672"></rect>
        <mask id="mask-2" maskContentUnits="userSpaceOnUse" maskUnits="objectBoundingBox" x="0" y="0" width="100" height="30" fill="white">
            <use xlink:href="#path-1"></use>
        </mask>
    </defs>
    <g id="Symbols" stroke="none" stroke-width="1" fill="none" fill-rule="evenodd">
        <g id="footer" transform="translate(-138.000000, -92.000000)">
            <g id="Group-23">
                <g transform="translate(29.000000, 92.000000)">
                    <g id="Appstore" transform="translate(109.000000, 0.000000)">
                        <use id="backfround-copy" stroke="#94A0AF" mask="url(#mask-2)" stroke-width="1.6" xlink:href="#path-1"></use>
                        <path d="M39.6614216,21.887025 L41.1111475,21.887025 L37.9375877,13.7078879 L36.4695879,13.7078879 L33.2960281,21.887025 L34.6970238,21.887025 L35.5071648,19.7161244 L38.8573719,19.7161244 L39.6614216,21.887025 Z M37.133538,15.1929426 L37.2370899,15.1929426 L38.5101686,18.6505127 L35.8543681,18.6505127 L37.133538,15.1929426 Z M44.9551201,15.6123855 C44.0536098,15.6123855 43.2739252,16.0318285 42.8719004,16.7346788 L42.7744398,16.7346788 L42.7744398,15.7144122 L41.5135437,15.7144122 L41.5135437,23.8878811 L42.8231701,23.8878811 L42.8231701,20.9517806 L42.926722,20.9517806 C43.2739252,21.6036176 44.0231534,21.9890517 44.9673026,21.9890517 C46.6424062,21.9890517 47.7083812,20.7590636 47.7083812,18.7978845 C47.7083812,16.8367054 46.6424062,15.6123855 44.9551201,15.6123855 L44.9551201,15.6123855 Z M44.5835516,20.8950992 C43.4871202,20.8950992 42.798805,20.0902222 42.798805,18.8035527 C42.798805,17.511215 43.4871202,16.706338 44.5896429,16.706338 C45.6982569,16.706338 46.362207,17.4942106 46.362207,18.7978845 C46.362207,20.1072266 45.6982569,20.8950992 44.5835516,20.8950992 L44.5835516,20.8950992 Z M51.7472748,15.6123855 C50.8457645,15.6123855 50.06608,16.0318285 49.6640551,16.7346788 L49.5665946,16.7346788 L49.5665946,15.7144122 L48.3056984,15.7144122 L48.3056984,23.8878811 L49.6153248,23.8878811 L49.6153248,20.9517806 L49.7188767,20.9517806 C50.06608,21.6036176 50.8153081,21.9890517 51.7594574,21.9890517 C53.4345609,21.9890517 54.5005359,20.7590636 54.5005359,18.7978845 C54.5005359,16.8367054 53.4345609,15.6123855 51.7472748,15.6123855 L51.7472748,15.6123855 Z M51.3757064,20.8950992 C50.279275,20.8950992 49.5909597,20.0902222 49.5909597,18.8035527 C49.5909597,17.511215 50.279275,16.706338 51.3817977,16.706338 C52.4904116,16.706338 53.1543618,17.4942106 53.1543618,18.7978845 C53.1543618,20.1072266 52.4904116,20.8950992 51.3757064,20.8950992 L51.3757064,20.8950992 Z M57.2728134,19.6877837 C57.370274,21.1501658 58.6799004,22.0854102 60.6291118,22.0854102 C62.7123315,22.0854102 64.0158666,21.1048206 64.0158666,19.5404119 C64.0158666,18.3104238 63.2727298,17.6302461 61.4697092,17.2391439 L60.5011948,17.0180862 C59.3560331,16.7686877 58.8930954,16.434267 58.8930954,15.8504477 C58.8930954,15.1135885 59.6118671,14.631796 60.6900247,14.631796 C61.7133606,14.631796 62.4199498,15.1022522 62.5478668,15.8561159 L63.875767,15.8561159 C63.7965803,14.478756 62.4930452,13.5095028 60.7082985,13.5095028 C58.7895436,13.5095028 57.5103736,14.478756 57.5103736,15.93547 C57.5103736,17.1371173 58.2352366,17.8513039 59.8250621,18.1970609 L60.9580412,18.4521275 C62.1214768,18.7071942 62.6331448,19.0812919 62.6331448,19.7047882 C62.6331448,20.4303111 61.8290951,20.9574488 60.7326637,20.9574488 C59.5570455,20.9574488 58.7408133,20.4643199 58.6250788,19.6877837 L57.2728134,19.6877837 Z M65.1431257,14.2180212 L65.1431257,15.7427529 L64.0527856,15.7427529 L64.0527856,16.7686877 L65.1431257,16.7686877 L65.1431257,20.2545985 C65.1431257,21.4449095 65.7217979,21.9210339 67.1776151,21.9210339 C67.4334491,21.9210339 67.6710093,21.8926932 67.878113,21.8586843 L67.878113,20.8440858 C67.6953744,20.8610903 67.5918226,20.8724266 67.3908101,20.8724266 C66.7390426,20.8724266 66.4527521,20.5890192 66.4527521,19.9428504 L66.4527521,16.7686877 L67.9390258,16.7686877 L67.9390258,15.7427529 L66.4527521,15.7427529 L66.4527521,14.2180212 L65.1431257,14.2180212 Z M71.1860524,20.9234399 C70.0469819,20.9234399 69.407397,20.1469037 69.407397,18.7978845 C69.407397,17.4602017 70.0469819,16.6779973 71.1860524,16.6779973 C72.3190315,16.6779973 72.9647078,17.4602017 72.9647078,18.7978845 C72.9647078,20.1412355 72.3190315,20.9234399 71.1860524,20.9234399 L71.1860524,20.9234399 Z M71.1860524,22.0060561 C73.1230812,22.0060561 74.3108819,20.7987407 74.3108819,18.7978845 C74.3108819,16.8083647 73.1169899,15.5953811 71.1860524,15.5953811 C69.2490235,15.5953811 68.0551316,16.8083647 68.0551316,18.7978845 C68.0551316,20.7987407 69.2429322,22.0060561 71.1860524,22.0060561 L71.1860524,22.0060561 Z M74.9081992,21.887025 L76.2178256,21.887025 L76.2178256,18.2424061 C76.2178256,17.3751795 76.9183234,16.7913603 77.9051117,16.7913603 C78.124398,16.7913603 78.5264228,16.8310373 78.6299747,16.8650462 L78.6299747,15.6633989 C78.4898751,15.62939 78.2401324,15.6123855 78.0513025,15.6123855 C77.18634,15.6123855 76.4553857,16.0545011 76.2665558,16.6609929 L76.1690953,16.6609929 L76.1690953,15.7144122 L74.9081992,15.7144122 L74.9081992,21.887025 Z M81.5785282,16.6326521 C82.5470426,16.6326521 83.1805363,17.2618165 83.2109927,18.2310698 L79.8607857,18.2310698 C79.9338811,17.2674847 80.6100138,16.6326521 81.5785282,16.6326521 L81.5785282,16.6326521 Z M83.2049014,20.2205896 C82.96125,20.7023821 82.4191256,20.9687851 81.6272585,20.9687851 C80.5795574,20.9687851 79.9034247,20.2829392 79.8607857,19.200323 L79.8607857,19.1323052 L84.5449843,19.1323052 L84.5449843,18.7071942 C84.5449843,16.7686877 83.430279,15.5953811 81.5846195,15.5953811 C79.7145948,15.5953811 78.5267941,16.8480417 78.5267941,18.8205571 C78.5267941,20.7930725 79.6902297,22.0060561 81.5907108,22.0060561 C83.1074409,22.0060561 84.1673246,21.3258784 84.4657976,20.2205896 L83.2049014,20.2205896 Z" id="App-Store" fill="#94A0AF"></path>
                        <path d="M34.6610352,7.85168076 L34.6610352,11.5103127 L36.1719757,11.5103127 C37.4190092,11.5103127 38.1411285,10.8384226 38.1411285,9.66958727 C38.1411285,8.51850003 37.413209,7.85168076 36.1719757,7.85168076 L34.6610352,7.85168076 Z M35.3106526,8.36890939 L36.0994737,8.36890939 C36.966597,8.36890939 37.4799108,8.85064194 37.4799108,9.67719357 C37.4799108,10.5164224 36.9752972,10.9930841 36.0994737,10.9930841 L35.3106526,10.9930841 L35.3106526,8.36890939 Z M40.4269699,11.0792888 C39.8846553,11.0792888 39.5801471,10.7319343 39.5801471,10.1285009 C39.5801471,9.53013837 39.8846553,9.18024842 40.4269699,9.18024842 C40.9663843,9.18024842 41.2737926,9.53013837 41.2737926,10.1285009 C41.2737926,10.7293989 40.9663843,11.0792888 40.4269699,11.0792888 L40.4269699,11.0792888 Z M40.4269699,11.5635568 C41.3491946,11.5635568 41.9147098,11.0235093 41.9147098,10.1285009 C41.9147098,9.23856341 41.3462945,8.69598044 40.4269699,8.69598044 C39.5047451,8.69598044 38.9363299,9.23856341 38.9363299,10.1285009 C38.9363299,11.0235093 39.501845,11.5635568 40.4269699,11.5635568 L40.4269699,11.5635568 Z M46.8019209,8.74922456 L46.1784042,8.74922456 L45.6157891,10.8561706 L45.5664877,10.8561706 L44.9168703,8.74922456 L44.3194543,8.74922456 L43.6698369,10.8561706 L43.6234356,10.8561706 L43.0579204,8.74922456 L42.4257035,8.74922456 L43.2957268,11.5103127 L43.936644,11.5103127 L44.5862614,9.47689425 L44.6355628,9.47689425 L45.2880803,11.5103127 L45.9347976,11.5103127 L46.8019209,8.74922456 Z M47.5942222,11.5103127 L48.2177389,11.5103127 L48.2177389,9.89524094 C48.2177389,9.46421708 48.5251471,9.19546103 49.0268606,9.19546103 C49.490873,9.19546103 49.7170791,9.41604382 49.7170791,9.85974485 L49.7170791,11.5103127 L50.3405958,11.5103127 L50.3405958,9.72283139 C50.3405958,9.06615387 49.9432852,8.69598044 49.2385663,8.69598044 C48.7629535,8.69598044 48.3946436,8.88106715 48.2409395,9.18785472 L48.1945383,9.18785472 L48.1945383,8.74922456 L47.5942222,8.74922456 L47.5942222,11.5103127 Z M51.3939041,11.5103127 L52.0174208,11.5103127 L52.0174208,7.67166492 L51.3939041,7.67166492 L51.3939041,11.5103127 Z M54.4337657,11.0792888 C53.8914511,11.0792888 53.5869429,10.7319343 53.5869429,10.1285009 C53.5869429,9.53013837 53.8914511,9.18024842 54.4337657,9.18024842 C54.9731801,9.18024842 55.2805884,9.53013837 55.2805884,10.1285009 C55.2805884,10.7293989 54.9731801,11.0792888 54.4337657,11.0792888 L54.4337657,11.0792888 Z M54.4337657,11.5635568 C55.3559904,11.5635568 55.9215056,11.0235093 55.9215056,10.1285009 C55.9215056,9.23856341 55.3530903,8.69598044 54.4337657,8.69598044 C53.5115409,8.69598044 52.9431257,9.23856341 52.9431257,10.1285009 C52.9431257,11.0235093 53.5086408,11.5635568 54.4337657,11.5635568 L54.4337657,11.5635568 Z M57.8506373,11.0970369 C57.5113282,11.0970369 57.2648216,10.9525171 57.2648216,10.7040445 C57.2648216,10.4606428 57.4620269,10.3313357 57.8970386,10.3059813 L58.6684593,10.2628789 L58.6684593,10.4936035 C58.6684593,10.8358871 58.3204499,11.0970369 57.8506373,11.0970369 L57.8506373,11.0970369 Z M57.691133,11.5559505 C58.1058442,11.5559505 58.4509534,11.3987536 58.6394585,11.1223912 L58.6887598,11.1223912 L58.6887598,11.5103127 L59.2890759,11.5103127 L59.2890759,9.62394945 C59.2890759,9.04079952 58.8424639,8.69598044 58.0507427,8.69598044 C57.3344235,8.69598044 56.8240098,9.00023257 56.7602081,9.47435882 L57.3634243,9.47435882 C57.4330261,9.27913036 57.6737326,9.16757125 58.0217419,9.16757125 C58.4480534,9.16757125 58.6684593,9.33237449 58.6684593,9.62394945 L58.6684593,9.86228029 L57.8129363,9.90538267 C57.0618162,9.94594962 56.6384048,10.2324537 56.6384048,10.7293989 C56.6384048,11.2339503 57.0821167,11.5559505 57.691133,11.5559505 L57.691133,11.5559505 Z M61.4792147,11.5559505 C61.9142264,11.5559505 62.2825362,11.3759347 62.4710413,11.074218 L62.5203426,11.074218 L62.5203426,11.5103127 L63.1177586,11.5103127 L63.1177586,7.67166492 L62.4942419,7.67166492 L62.4942419,9.18785472 L62.4478407,9.18785472 C62.2767361,8.88360259 61.9113263,8.70358674 61.4792147,8.70358674 C60.6816933,8.70358674 60.1683795,9.25631145 60.1683795,10.1285009 C60.1683795,11.0032258 60.6758931,11.5559505 61.4792147,11.5559505 L61.4792147,11.5559505 Z M61.6561194,9.19292559 C62.1781334,9.19292559 62.5058422,9.55549272 62.5058422,10.1310363 C62.5058422,10.7091154 62.1810335,11.0666117 61.6561194,11.0666117 C61.1283053,11.0666117 60.8121968,10.7141863 60.8121968,10.1285009 C60.8121968,9.54788641 61.1312053,9.19292559 61.6561194,9.19292559 L61.6561194,9.19292559 Z M67.306631,11.0792888 C66.7643165,11.0792888 66.4598083,10.7319343 66.4598083,10.1285009 C66.4598083,9.53013837 66.7643165,9.18024842 67.306631,9.18024842 C67.8460455,9.18024842 68.1534538,9.53013837 68.1534538,10.1285009 C68.1534538,10.7293989 67.8460455,11.0792888 67.306631,11.0792888 L67.306631,11.0792888 Z M67.306631,11.5635568 C68.2288558,11.5635568 68.7943709,11.0235093 68.7943709,10.1285009 C68.7943709,9.23856341 68.2259557,8.69598044 67.306631,8.69598044 C66.3844063,8.69598044 65.815991,9.23856341 65.815991,10.1285009 C65.815991,11.0235093 66.3815062,11.5635568 67.306631,11.5635568 L67.306631,11.5635568 Z M69.691075,11.5103127 L70.3145917,11.5103127 L70.3145917,9.89524094 C70.3145917,9.46421708 70.622,9.19546103 71.1237134,9.19546103 C71.5877259,9.19546103 71.813932,9.41604382 71.813932,9.85974485 L71.813932,11.5103127 L72.4374487,11.5103127 L72.4374487,9.72283139 C72.4374487,9.06615387 72.040138,8.69598044 71.3354191,8.69598044 C70.8598064,8.69598044 70.4914965,8.88106715 70.3377924,9.18785472 L70.2913911,9.18785472 L70.2913911,8.74922456 L69.691075,8.74922456 L69.691075,11.5103127 Z M75.4546896,8.07986986 L75.4546896,8.76190173 L74.9355757,8.76190173 L74.9355757,9.22081537 L75.4546896,9.22081537 L75.4546896,10.7801076 C75.4546896,11.3125488 75.730197,11.5255253 76.4233156,11.5255253 C76.5451189,11.5255253 76.6582219,11.5128481 76.7568246,11.4976355 L76.7568246,11.0437927 C76.6698222,11.051399 76.6205209,11.0564699 76.5248184,11.0564699 C76.21451,11.0564699 76.0782064,10.9296982 76.0782064,10.6406587 L76.0782064,9.22081537 L76.7858254,9.22081537 L76.7858254,8.76190173 L76.0782064,8.76190173 L76.0782064,8.07986986 L75.4546896,8.07986986 Z M77.6738292,11.5103127 L78.2973459,11.5103127 L78.2973459,9.89777637 C78.2973459,9.47942968 78.6134544,9.19799646 79.1238681,9.19799646 C79.5936807,9.19799646 79.828587,9.42111469 79.828587,9.86228029 L79.828587,11.5103127 L80.4521037,11.5103127 L80.4521037,9.72790226 C80.4521037,9.07122474 80.0460928,8.69851587 79.3355738,8.69851587 C78.859961,8.69851587 78.4945512,8.88360259 78.3408471,9.19292559 L78.2915458,9.19292559 L78.2915458,7.67166492 L77.6738292,7.67166492 L77.6738292,11.5103127 Z M82.7756461,9.15996494 C83.2367584,9.15996494 83.5383665,9.44139817 83.5528669,9.87495746 L81.9578241,9.87495746 C81.9926251,9.4439336 82.3145337,9.15996494 82.7756461,9.15996494 L82.7756461,9.15996494 Z M83.5499668,10.764895 C83.4339637,10.9804069 83.1758568,11.0995723 82.7988467,11.0995723 C82.3000333,11.0995723 81.9781247,10.7927847 81.9578241,10.3085168 L81.9578241,10.2780915 L84.187984,10.2780915 L84.187984,10.087934 C84.187984,9.22081537 83.6572697,8.69598044 82.7785461,8.69598044 C81.8882223,8.69598044 81.3227071,9.25631145 81.3227071,10.1386426 C81.3227071,11.0209738 81.8766219,11.5635568 82.7814462,11.5635568 C83.5035656,11.5635568 84.0081791,11.2593047 84.1502829,10.764895 L83.5499668,10.764895 Z" id="Download-on-the" fill="#94A0AF"></path>
                        <g id="logo_apple" transform="translate(8.730159, 6.486486)" fill="#94A0AF">
                            <path d="M11.2438185,8.5965491 C11.2251035,6.55436951 12.9468874,5.56084249 13.0256197,5.51458772 C12.0505014,4.1187076 10.5391003,3.92798589 10.0079803,3.91277884 C8.73858414,3.78161807 7.50726338,4.65855774 6.86062638,4.65855774 C6.20108245,4.65855774 5.20531309,3.92545138 4.13210218,3.9469947 C2.75106107,3.96790439 1.45907776,4.75296815 0.750487512,5.97206636 C-0.711867227,8.4577848 0.378768037,12.110644 1.77981488,14.119875 C2.48066097,15.1045313 3.29960544,16.2026068 4.37152566,16.1639555 C5.42021341,16.1221361 5.81193862,15.507518 7.07746274,15.507518 C8.33137062,15.507518 8.69921801,16.1639555 9.79243466,16.1386104 C10.9179186,16.1221361 11.6265089,15.150786 12.3028318,14.157259 C13.1127414,13.0306703 13.437996,11.9186551 13.4509029,11.8616287 C13.425089,11.8533915 11.2657603,11.0442499 11.2438185,8.5965491" id="Fill-2"></path>
                            <path d="M9.17871032,2.59103307 C9.742743,1.89847884 10.1286601,0.956275595 10.0215326,0.00013255973 C9.20516952,0.0356156677 8.18423166,0.554556122 7.59632117,1.23190331 C7.07617204,1.82877988 6.6115227,2.80709985 6.73155711,3.72712615 C7.64859422,3.79429061 8.59015449,3.27281565 9.17871032,2.59103307" id="Fill-3"></path>
                        </g>
                    </g>
                </g>
            </g>
        </g>
    </g>
</svg>