<?xml version="1.0" encoding="UTF-8" standalone="no"?>
<svg width="23px" height="23px" viewBox="0 0 23 23" version="1.1" xmlns="http://www.w3.org/2000/svg" xmlns:xlink="http://www.w3.org/1999/xlink">
    <!-- Generator: Sketch 40.3 (33839) - http://www.bohemiancoding.com/sketch -->
    <title>Page 1</title>
    <desc>Created with Sketch.</desc>
    <defs>
        <path d="M0.369,1.31528571 C0.369,2.02757143 0.872625,2.607 1.497375,2.607 C2.12025,2.607 2.62725,2.02757143 2.62725,1.31528571 C2.62725,0.603428571 2.12025,0.0244285714 1.497375,0.0244285714 C0.872625,0.0244285714 0.369,0.603428571 0.369,1.31528571 L0.369,1.31528571 Z" id="path-1"></path>
    </defs>
    <g id="Page-1" stroke="none" stroke-width="1" fill="none" fill-rule="evenodd">
        <g>
            <polygon id="Fill-1" fill="#074C7F" points="15.9626752 0 12.9389296 1.77709522 12 4.81670589 13.4185607 5.34604492 14.1675986 2.92193546 15.0829279 2.38382065 15.4078861 3.50113686 13.2344783 9.38050979 14.6225401 10 17 3.567753"></polygon>
            <polygon id="Fill-2" fill="#074C7F" points="15.6048047 13 21.4580965 10.2918543 23 7.02285238 19.6726573 6 17.0421786 7.41634696 17.7269393 8.84865165 19.824867 7.71915485 20.8327526 8.02896858 20.3500825 9.05221018 15 11.5276063"></polygon>
            <polygon id="Fill-3" fill="#074C7F" points="18.1940144 13.4165457 20.3739824 14.1694485 20.8563049 15.0859942 19.8496409 15.4085631 14.5609737 13.2231495 14 14.6092163 19.7857143 17 23 15.9698839 21.4075818 12.9444848 18.6738228 12"></polygon>
            <polygon id="Fill-4" fill="#074C7F" points="11 15.5617337 13.5898813 21.3994933 16.8686829 23 18 19.7414378 16.6340305 17.1133783 15.1596382 17.7547392 16.2490107 19.8507442 15.9063313 20.8373976 14.8802713 20.3364702 12.5131713 15"></polygon>
            <polygon id="Fill-5" fill="#074C7F" points="6 19.7228339 6.88711418 23 9.95064393 21.5214596 11 18.8110432 9.61680696 18.269611 8.77969638 20.4309998 7.85157206 20.8791191 7.57385423 19.8530381 9.95927765 14.6220865 8.60989999 14"></polygon>
            <polygon id="Fill-6" fill="#074C7F" points="8.38956266 11 2.53472988 13.7208192 1 16.9898429 4.33627343 18 6.96765895 16.5776211 6.27710401 15.1501915 4.1786108 16.2846756 3.16795296 15.9785203 3.64865858 14.9543764 9 12.4678359"></polygon>
            <polygon id="Fill-7" fill="#074C7F" points="0 7.25783844 1.7692064 10.2205828 4.53492793 11 4.92162997 9.53116931 2.71511167 8.90962744 2.17943133 8.0125415 3.15598764 7.61822206 8.53168066 9.48727407 9 8.04426411 3.11856487 6"></polygon>
            <polygon id="Fill-8" fill="#074C7F" points="13 7.35662908 10.1930104 1.49204139 6.93169474 0 6 3.38837069 7.45783727 6.02088264 8.85537938 5.29806488 7.69210512 3.19792102 7.97437867 2.17216576 8.99594009 2.63919439 11.5617491 8"></polygon>
            <g id="Group-11" transform="translate(11.000000, 11.000000)">
                <mask id="mask-2" fill="white">
                    <use xlink:href="#path-1"></use>
                </mask>
                <g id="Clip-10"></g>
                <polygon id="Fill-9" fill="#074C7F" mask="url(#mask-2)" points="-1.506375 4.74985714 4.501875 4.74985714 4.501875 -2.118 -1.506375 -2.118"></polygon>
            </g>
        </g>
    </g>
</svg>