<svg width="250" height="120" xmlns="http://www.w3.org/2000/svg" xmlns:xlink="http://www.w3.org/1999/xlink" preserveAspectRatio="xMidYMid meet">
 <defs>
  <path id="d2bobwjEDn" d="m385.46,177.78c0.34,0.4 0.48,0.93 0.7,1.41c3.16,6.93 6.33,13.84 9.49,20.77c0.27,0.6 0.51,1.21 0.85,1.77c-0.32,-1.22 -0.82,-2.38 -1.22,-3.57c-1.37,-3.76 -2.71,-7.52 -4.09,-11.27c-0.34,-1.01 -0.76,-1.98 -1.04,-3.01c0.89,0.24 1.74,0.6 2.61,0.91c3.57,1.32 7.14,2.64 10.72,3.93c0.34,0.09 0.47,0.46 0.61,0.77c0.85,2.16 1.78,4.29 2.7,6.42c0.18,0.46 0.4,0.95 0.26,1.46c-0.23,0.92 -0.55,1.8 -0.84,2.69c-0.95,2.86 -1.85,5.72 -2.8,8.58c-0.24,0.72 -0.41,1.49 -0.84,2.12c-0.49,0.71 -1.16,1.29 -1.95,1.58c-0.94,0.39 -2.02,0.3 -2.94,-0.1c-3.61,-1.53 -7.2,-3.13 -10.79,-4.69c-0.32,-0.15 -0.66,-0.28 -0.88,-0.58c-0.22,-0.33 -0.36,-0.71 -0.52,-1.08c-2.98,-7.15 -6.03,-14.27 -9.03,-21.41c-0.24,-0.63 -0.75,-1.3 -0.48,-2.01c0.39,-1.02 0.8,-2.04 1.18,-3.06c0.17,-0.41 0.29,-0.85 0.53,-1.22c1.24,0.17 2.49,0.48 3.75,0.36c0.79,-0.08 1.58,-0.14 2.34,-0.34c0,0 0,0 0,0c0.74,-0.24 1.3,-0.39 1.68,-0.43z"/>
  <path id="e4eGeN5liw" d="m417.69,179.27c-1.32,-0.39 -2.63,-0.86 -3.92,-1.36c0.16,-0.03 0.32,-0.07 0.49,-0.1c-0.41,-0.2 -0.81,-0.42 -1.18,-0.7c0,0 0,0 0,0c2.05,0.96 3.59,1.68 4.61,2.16z"/>
  <path id="jnvOf4ig9" d="m369.37,171.63c1.38,2.41 3.41,4.36 5.79,5.58c-2.52,7.98 -5.11,15.93 -7.66,23.89c-0.21,0.73 -0.47,1.43 -0.64,2.17c2.56,-6.04 5.01,-12.15 7.56,-18.2c2.08,4.53 4.14,9.07 6.22,13.59c0.09,0.18 0.1,0.39 0.02,0.58c-0.87,2.48 -1.75,4.96 -2.63,7.44c-0.2,0.74 -0.97,0.96 -1.54,1.27c-3.36,1.72 -6.71,3.47 -10.06,5.21c-0.59,0.33 -1.27,0.36 -1.93,0.33c-1.53,0.05 -2.92,-1.11 -3.49,-2.59c-1.52,-3.83 -3,-7.67 -4.53,-11.49c-0.15,-0.38 -0.32,-0.79 -0.22,-1.21c0.13,-0.57 0.37,-1.11 0.56,-1.67c1.72,-4.91 3.46,-9.81 5.19,-14.72c0.98,-2.72 1.9,-5.47 2.9,-8.18c0,0 0,0 0,0c1.99,-0.89 3.47,-1.56 4.46,-2z"/>
  <path id="b1MWPOju5F" d="m414.4,164.7c2.1,0.85 4.19,1.73 6.31,2.55c0.45,0.15 0.65,0.64 0.85,1.05c1.67,3.74 3.37,7.46 5.05,11.19c0.26,0.61 0.45,1.27 0.48,1.95c-0.04,1.15 -0.46,2.33 -1.27,3.12c-0.7,0.7 -1.61,1.1 -2.5,1.47c-3.05,1.36 -6.1,2.73 -9.15,4.1c-0.39,0.17 -0.76,0.41 -1.18,0.46c-0.57,-0.07 -1.08,-0.37 -1.61,-0.57c-3.97,-1.52 -7.89,-3.18 -11.83,-4.77c-1.13,-0.52 -2.33,-0.87 -3.47,-1.38c-1.99,-0.85 -4.01,-1.61 -6,-2.43c-0.45,-0.16 -0.58,-0.69 -0.75,-1.1c-0.48,-1.28 -1.03,-2.54 -1.46,-3.84c0.75,-0.57 1.52,-1.13 2.18,-1.82c0.92,-0.97 1.82,-2 2.43,-3.24c0.19,-0.39 0.43,-0.76 0.66,-1.13c1.2,0.4 2.35,0.9 3.55,1.29c2.74,1 5.47,2.05 8.22,3.02c2.94,1.12 5.92,2.15 8.86,3.29c1.29,0.5 2.6,0.97 3.92,1.36c-1.54,-0.72 -3.04,-1.53 -4.61,-2.16c-2.25,-1.06 -4.49,-2.18 -6.76,-3.18c-1.21,-0.61 -2.44,-1.17 -3.66,-1.75c-0.72,-0.33 -1.45,-0.66 -2.11,-1.1c2.33,-1.37 4.76,-2.55 7.16,-3.78c1.72,-0.97 3.48,-1.82 5.21,-2.76c0,0 0,0 0,0c0.67,-0.01 1.16,0.04 1.48,0.16z"/>
  <path id="b2bWqS4YOT" d="m363.85,158.94c1.32,0.62 2.65,1.18 3.98,1.77c-0.59,2.76 -0.49,5.69 0.42,8.36c-4.26,2.27 -8.55,4.46 -12.82,6.72c-2.32,1.2 -4.63,2.43 -6.95,3.62c-1.11,0.57 -2.23,1.14 -3.3,1.77c1.22,-0.45 2.41,-0.96 3.61,-1.47c4.57,-1.89 9.13,-3.8 13.72,-5.67c-1.48,4.76 -3.05,9.48 -4.54,14.23c-0.06,0.29 -0.27,0.48 -0.52,0.58c-2.23,1.08 -4.46,2.15 -6.68,3.24c-0.37,0.21 -0.81,0.16 -1.19,0c-3.69,-1.39 -7.38,-2.74 -11.07,-4.12c-0.77,-0.28 -1.5,-0.73 -2,-1.43c-0.9,-1.17 -1.12,-2.86 -0.61,-4.27c1.49,-3.94 3,-7.87 4.49,-11.81c0.15,-0.39 0.35,-0.8 0.74,-0.97c7.31,-3.54 14.64,-7.07 21.95,-10.63c0,0 0,0 0,0c0.35,-0.01 0.61,0.01 0.77,0.08z"/>
  <path id="ckSQdpYr7" d="m385.91,155.5c1.71,1.11 3.05,2.82 3.81,4.79c0.79,2.04 0.91,4.35 0.4,6.48c-0.52,2.26 -1.84,4.28 -3.6,5.65c-2.99,2.39 -7.34,2.63 -10.52,0.52c-1.62,-1.01 -2.93,-2.56 -3.73,-4.38c-0.9,-2.02 -1.16,-4.37 -0.7,-6.56c0.45,-2.27 1.66,-4.35 3.35,-5.79c1.4,-1.21 3.13,-1.96 4.92,-2.18c0,0 0,0 0,0c2.85,0.17 4.88,0.66 6.07,1.47z"/>
  <path id="c1U8SDAqWV" d="m349.19,137.87c0.81,0.23 1.57,0.62 2.35,0.92c6.45,2.6 12.89,5.22 19.35,7.8c0.36,0.15 0.75,0.27 1.08,0.5c0.25,0.23 0.34,0.59 0.47,0.91c0.45,1.3 1.07,2.54 1.43,3.88c-0.63,0.48 -1.28,0.92 -1.84,1.49c-0.87,0.89 -1.74,1.8 -2.38,2.9c-0.35,0.54 -0.56,1.16 -0.94,1.68c-0.43,0.03 -0.83,-0.18 -1.24,-0.32c-3.38,-1.26 -6.76,-2.5 -10.15,-3.74c-1.3,-0.52 -2.66,-0.9 -3.95,-1.45c-1.66,-0.61 -3.3,-1.23 -4.96,-1.82c-1.26,-0.47 -2.52,-0.97 -3.81,-1.36c0.84,0.46 1.71,0.88 2.58,1.28c3.76,1.78 7.5,3.56 11.27,5.32c0.95,0.48 1.93,0.87 2.87,1.39c-1.78,1.04 -3.65,1.91 -5.46,2.89c-2.33,1.17 -4.62,2.43 -6.93,3.63c-0.32,0.18 -0.7,0.25 -1.04,0.08c-1.91,-0.79 -3.83,-1.56 -5.74,-2.33c-0.67,-0.27 -1.5,-0.47 -1.82,-1.24c-1.54,-3.45 -3.11,-6.89 -4.67,-10.33c-0.38,-0.83 -0.81,-1.66 -0.91,-2.59c-0.15,-1.34 0.34,-2.72 1.26,-3.62c0.65,-0.65 1.51,-0.97 2.31,-1.33c1.24,-0.52 2.45,-1.11 3.68,-1.65c1.93,-0.9 3.9,-1.73 5.83,-2.63c0,0 0,0 0,0c0.6,-0.27 1.05,-0.36 1.36,-0.26z"/>
  <path id="f2CDP4IArY" d="m412.26,136.3c3.52,1.32 7.04,2.62 10.56,3.92c0.7,0.26 1.39,0.56 1.96,1.07c1.25,1.15 1.72,3.15 1.09,4.78c-1.46,3.92 -2.99,7.8 -4.45,11.72c-0.18,0.49 -0.49,0.95 -0.96,1.15c-2,1.01 -4.03,1.93 -6.03,2.92c-5.19,2.54 -10.4,5.02 -15.6,7.55c-0.41,0.21 -0.86,0.02 -1.24,-0.16c-1.19,-0.57 -2.41,-1.04 -3.6,-1.61c0.14,-1.1 0.38,-2.19 0.33,-3.31c0.06,-1.72 -0.28,-3.42 -0.76,-5.05c4.21,-2.22 8.42,-4.42 12.64,-6.61c3.43,-1.83 6.91,-3.57 10.32,-5.45c-2.06,0.76 -4.06,1.67 -6.1,2.48c-2.84,1.2 -5.7,2.34 -8.53,3.54c-0.85,0.35 -1.69,0.74 -2.56,1.02c0.33,-1.34 0.8,-2.64 1.22,-3.95c1.05,-3.38 2.18,-6.73 3.23,-10.11c0.08,-0.26 0.17,-0.55 0.44,-0.65c2.27,-1.09 4.54,-2.16 6.8,-3.28c0,0 0,0 0,0c0.56,-0.08 0.97,-0.07 1.24,0.03z"/>
  <path id="a1s4YZPQto" d="m362.73,115.78c0.84,0.04 1.6,0.45 2.37,0.78c3.06,1.33 6.11,2.66 9.17,4c0.48,0.23 1.03,0.35 1.42,0.75c0.35,0.48 0.51,1.07 0.75,1.6c3.02,7.13 6.03,14.26 9.05,21.39c0.14,0.38 0.35,0.73 0.42,1.14c-0.05,0.28 -0.17,0.55 -0.27,0.82c-0.53,1.31 -0.99,2.64 -1.55,3.94c-2.56,-0.68 -5.29,-0.51 -7.77,0.44c-1.43,-3.07 -2.81,-6.17 -4.23,-9.25c-2.15,-4.71 -4.31,-9.42 -6.46,-14.14c-0.17,-0.37 -0.34,-0.74 -0.55,-1.09c0.11,0.47 0.27,0.92 0.43,1.36c1.96,5.38 3.9,10.78 5.86,16.16c0.09,0.26 0.17,0.53 0.25,0.79c-4.39,-1.54 -8.74,-3.2 -13.11,-4.78c-0.28,-0.08 -0.57,-0.23 -0.66,-0.55c-0.99,-2.36 -1.99,-4.72 -2.99,-7.07c-0.2,-0.41 -0.24,-0.89 -0.07,-1.31c1.34,-4.07 2.64,-8.16 3.98,-12.23c0,0 0,0 0,0c1.51,-1.92 2.83,-2.84 3.96,-2.75z"/>
  <path id="a1LmJ4VcAz" d="m397.72,114.78c0.67,0.22 1.33,0.51 1.88,0.98c0.61,0.53 1,1.27 1.31,2.03c1.47,3.78 2.96,7.56 4.45,11.34c0.19,0.44 0.23,0.95 0.06,1.4c-2.63,7.45 -5.26,14.91 -7.89,22.36c-0.19,0.52 -0.33,1.07 -0.57,1.56c-0.21,0.43 -0.69,0.57 -1.07,0.76c-1.18,0.47 -2.32,1.04 -3.49,1.51c-1.11,-1.9 -2.58,-3.58 -4.38,-4.74c-0.45,-0.29 -0.95,-0.49 -1.34,-0.87c0.08,-0.79 0.44,-1.52 0.66,-2.27c1.84,-5.75 3.69,-11.51 5.54,-17.26c0.68,-2.18 1.43,-4.34 2.06,-6.54c-0.73,1.61 -1.37,3.26 -2.05,4.9c-1.84,4.42 -3.64,8.87 -5.51,13.28c-0.67,-1.21 -1.18,-2.5 -1.77,-3.76c-1.45,-3.14 -2.86,-6.29 -4.32,-9.43c-0.21,-0.39 -0.22,-0.86 -0.05,-1.27c0.83,-2.33 1.65,-4.66 2.47,-6.99c0.18,-0.58 0.67,-0.93 1.17,-1.17c2.96,-1.49 5.91,-3.03 8.85,-4.57c0.92,-0.47 1.83,-1 2.83,-1.25c0,0 0,0 0,0c0.7,0 1.09,0 1.16,0z"/>
  <path id="fhTfI80NX" d="m534.13,45.56c0,0 0,0 0,0c0,154.58 0,240.47 0,257.64c0,0 0,0 0,0c-199.06,0 -309.64,0 -331.76,0c0,0 0,0 0,0c0,-154.58 0,-240.47 0,-257.64c0,0 0,0 0,0c199.06,0 309.65,0 331.76,0z"/>
  <clipPath id="clipc3caY8M1To">
   <use x="-254" y="-103" id="svg_1" xlink:href="#fhTfI80NX"/>
  </clipPath>
 </defs>
 <g>
  <title>background</title>
  <rect fill="none" id="canvas_background" height="122" width="252" y="-1" x="-1"/>
 </g>
 <g>
  <title>Layer 1</title>
  <g stroke="null" id="svg_2">
   <g stroke="null" id="svg_3">
    <g stroke="null" id="svg_4">
     <use stroke="null" x="-254" y="-103" id="svg_5" fill="#eeee16" xlink:href="#d2bobwjEDn"/>
    </g>
    <g stroke="null" id="svg_6">
     <use stroke="null" x="-254" y="-103" id="svg_7" fill="#0e7002" xlink:href="#e4eGeN5liw"/>
    </g>
    <g stroke="null" id="svg_8">
     <use stroke="null" x="-254" y="-103" id="svg_9" fill="#25b133" xlink:href="#jnvOf4ig9"/>
    </g>
    <g stroke="null" id="svg_10">
     <use stroke="null" x="-254" y="-103" id="svg_11" fill="#ffc706" xlink:href="#b1MWPOju5F"/>
    </g>
    <g stroke="null" id="svg_12">
     <use stroke="null" x="-254" y="-103" id="svg_13" fill="#009fe3" xlink:href="#b2bWqS4YOT"/>
    </g>
    <g stroke="null" id="svg_14">
     <use stroke="null" x="-254" y="-103" id="svg_15" fill="#aeafa9" xlink:href="#ckSQdpYr7"/>
    </g>
    <g stroke="null" id="svg_16">
     <use stroke="null" x="-254" y="-103" id="svg_17" fill="#9eddfc" xlink:href="#c1U8SDAqWV"/>
    </g>
    <g stroke="null" id="svg_18">
     <use stroke="null" x="-254" y="-103" id="svg_19" fill="#f7a832" xlink:href="#f2CDP4IArY"/>
    </g>
    <g stroke="null" id="svg_20">
     <use stroke="null" x="-254" y="-103" id="svg_21" fill="#e8428e" xlink:href="#a1s4YZPQto"/>
    </g>
    <g stroke="null" id="svg_22">
     <use stroke="null" x="-254" y="-103" id="svg_23" fill="#f187b7" xlink:href="#a1LmJ4VcAz"/>
    </g>
    <g stroke="null" id="svg_24">
     <use stroke="null" x="-254" y="-103" id="svg_25" fill-opacity="0" fill="#000000" xlink:href="#fhTfI80NX"/>
     <g stroke="null" id="svg_26" clip-path="url(#clipc3caY8M1To)">
      <use stroke="#000000" x="-254" y="-103" id="svg_27" stroke-opacity="0" stroke-width="0" fill-opacity="0" xlink:href="#fhTfI80NX"/>
     </g>
    </g>
   </g>
  </g>
 </g>
</svg>