<?xml version="1.0" encoding="UTF-8" standalone="no"?>
<svg width="18px" height="23px" viewBox="0 0 18 23" version="1.1" xmlns="http://www.w3.org/2000/svg" xmlns:xlink="http://www.w3.org/1999/xlink">
    <!-- Generator: Sketch 40.3 (33839) - http://www.bohemiancoding.com/sketch -->
    <title>Page 1</title>
    <desc>Created with Sketch.</desc>
    <defs></defs>
    <g id="Page-1" stroke="none" stroke-width="1" fill="none" fill-rule="evenodd">
        <g fill="#074C7F">
            <path d="M0,0 L0,0.733709603 L0.735362812,0.733709603 L0,0.733709603 L0,23 L18,23 L18,0 L0,0 Z M1.47036934,21.5325808 L16.5299869,21.5325808 L16.5299869,1.46777486 L1.47036934,1.46777486 L1.47036934,21.5325808 Z" id="Fill-1"></path>
            <polygon id="Fill-2" points="10.614307 8.79569989 10.614307 10.5214782 6.38569304 10.5214782 6.38569304 5.47852184 10.4151514 5.47852184 10.4151514 4 5 4 5 12 12 12 12 8.79569989"></polygon>
            <polygon id="Fill-3" points="8 7.59714051 9.7533557 10 13 5.90881105 11.9810274 5 9.79659267 7.75277056 9.05317501 6.73347927"></polygon>
            <polyline id="Fill-4" points="6 16 12 16 12 15 6 15"></polyline>
            <polyline id="Fill-5" points="4 19 15 19 15 18 4 18"></polyline>
        </g>
    </g>
</svg>