<?xml version="1.0" encoding="UTF-8" standalone="no"?>
<svg width="13px" height="16px" viewBox="0 0 13 16" version="1.1" xmlns="http://www.w3.org/2000/svg" xmlns:xlink="http://www.w3.org/1999/xlink">
    <!-- Generator: Sketch 39.1 (31720) - http://www.bohemiancoding.com/sketch -->
    <title>notifications-button</title>
    <desc>Created with Sketch.</desc>
    <defs></defs>
    <g id="Page-1" stroke="none" stroke-width="1" fill="none" fill-rule="evenodd">
        <g id="1.6-Personal-Cabinet-settings" transform="translate(-532.000000, -721.000000)" fill="#B3C0CA">
            <g id="Group-2" transform="translate(517.000000, 177.000000)">
                <g id="filter-/-normal-copy" transform="translate(0.000000, 507.000000)">
                    <g id="notifications-button" transform="translate(15.000000, 37.000000)">
                        <g id="Capa_1">
                            <g id="notifications">
                                <path d="M6.5,16 C7.34020737,16 8.02764977,15.28 8.02764977,14.4 L4.97235023,14.4 C4.97235023,15.28 5.65979263,16 6.5,16 L6.5,16 Z M11.4648618,11.2 L11.4648618,6.8 C11.4648618,4.32 9.86082949,2.32 7.64573733,1.76 L7.64573733,1.2 C7.64573733,0.56 7.11105991,0 6.5,0 C5.88894009,0 5.35426267,0.56 5.35426267,1.2 L5.35426267,1.76 C3.13917051,2.32 1.53513825,4.32 1.53513825,6.8 L1.53513825,11.2 L0.00748847926,12.8 L0.00748847926,13.6 L12.9925115,13.6 L12.9925115,12.8 L11.4648618,11.2 L11.4648618,11.2 Z" id="Shape"></path>
                            </g>
                        </g>
                    </g>
                </g>
            </g>
        </g>
    </g>
</svg>