<?xml version="1.0" encoding="UTF-8" standalone="no"?>
<svg width="16px" height="16px" viewBox="0 0 16 16" version="1.1" xmlns="http://www.w3.org/2000/svg" xmlns:xlink="http://www.w3.org/1999/xlink">
    <!-- Generator: Sketch 39.1 (31720) - http://www.bohemiancoding.com/sketch -->
    <title>Group 2</title>
    <desc>Created with Sketch.</desc>
    <defs></defs>
    <g id="info-pages" stroke="none" stroke-width="1" fill="none" fill-rule="evenodd">
        <g id="login" transform="translate(-764.000000, -20.000000)" fill="#172430">
            <g id="ico-/-remove" transform="translate(760.000000, 16.000000)">
                <g id="Group-2" transform="translate(4.000000, 4.000000)">
                    <path d="M10.5815014,8.01298665 L15.6791384,2.91526507 C16.1069539,2.48762582 16.1069539,1.79139123 15.6791384,1.35853687 L14.6408205,0.320729434 C14.2129369,-0.106909811 13.5164281,-0.106909811 13.0833608,0.320729434 L7.98568975,5.41851919 L2.91669886,0.352020111 C2.48884929,-0.0756191349 1.79227227,-0.0756191349 1.35923913,0.352020111 L0.320887176,1.38982755 C-0.106962392,1.81746679 -0.106962392,2.51370139 0.320887176,2.94655575 L5.38987807,8.01302074 L0.326138956,13.0717142 C-0.101710612,13.4993534 -0.101710612,14.1955539 0.326138956,14.6284083 L1.36445681,15.6662157 C1.79230638,16.093855 2.48888339,16.093855 2.92191654,15.6662157 L7.98568975,10.6075564 L13.0598642,15.6792706 C13.4877479,16.1069098 14.1843249,16.1069098 14.6173239,15.6792706 L15.6556418,14.6414631 C16.0835255,14.2138239 16.0835255,13.5175893 15.6556418,13.0847349 L10.5815014,8.01298665 L10.5815014,8.01298665 Z" id="Shape"></path>
                </g>
            </g>
        </g>
    </g>
</svg>