<?xml version="1.0" encoding="UTF-8" standalone="no"?>
<svg width="28px" height="28px" viewBox="0 0 28 28" version="1.1" xmlns="http://www.w3.org/2000/svg" xmlns:xlink="http://www.w3.org/1999/xlink">
    <!-- Generator: Sketch 40.3 (33839) - http://www.bohemiancoding.com/sketch -->
    <title>white_close_icon</title>
    <desc>Created with Sketch.</desc>
    <defs></defs>
    <g id="Page-1" stroke="none" stroke-width="1" fill="none" fill-rule="evenodd">
        <g id="white_close_icon" fill="#00427A">
            <g id="Page-1">
                <g id="Services-modal2">
                    <g id="ico-/-close">
                        <g id="close">
                            <path d="M26.869687,28 C26.5806728,28 26.2913475,27.8895559 26.0707758,27.6689787 L0.331090803,1.92896131 C-0.110363601,1.48811809 -0.110363601,0.7719423 0.331090803,0.33109908 C0.772545207,-0.11036636 1.48776978,-0.11036636 1.92922419,0.33109908 L27.6689092,26.0711165 C28.1103636,26.5119597 28.1103636,27.2281355 27.6689092,27.6689787 C27.4480264,27.889867 27.1587011,28 26.869687,28 L26.869687,28 L26.869687,28 Z" id="Shape"></path>
                            <path d="M1.1300145,28 C0.840997094,28 0.551668583,27.8895571 0.331094482,27.6689824 C-0.110364827,27.2281441 -0.110364827,26.5119762 0.331094482,26.0711379 L26.0707544,0.331095401 C26.5122137,-0.110365134 27.2274462,-0.110365134 27.6689055,0.331095401 C28.1103648,0.771933723 28.1103648,1.48810155 27.6689055,1.92893988 L1.92893452,27.6689824 C1.70836042,27.8898682 1.41903191,28 1.1300145,28 L1.1300145,28 L1.1300145,28 Z" id="Shape"></path>
                        </g>
                    </g>
                </g>
            </g>
        </g>
    </g>
</svg>