<?xml version="1.0" encoding="UTF-8" standalone="no"?>
<svg width="15px" height="13px" viewBox="0 0 15 13" version="1.1" xmlns="http://www.w3.org/2000/svg" xmlns:xlink="http://www.w3.org/1999/xlink">
    <!-- Generator: Sketch 39.1 (31720) - http://www.bohemiancoding.com/sketch -->
    <title>Group</title>
    <desc>Created with Sketch.</desc>
    <defs></defs>
    <g id="Page-1" stroke="none" stroke-width="1" fill="none" fill-rule="evenodd">
        <g id="1.6-Personal-Cabinet-settings" transform="translate(-532.000000, -452.000000)" fill="#B3C0CA">
            <g id="Group-2" transform="translate(517.000000, 177.000000)">
                <g id="filter-/-normal-copy-3" transform="translate(0.000000, 237.000000)">
                    <g id="Capa_1" transform="translate(15.000000, 38.000000)">
                        <g id="Group">
                            <path d="M11.4412077,5.46512121 C11.4408691,5.46242929 11.4406659,5.45970455 11.4402596,5.45704545 C11.4382957,5.44378283 11.4356885,5.43055303 11.4319977,5.41748737 C11.4319639,5.41735606 11.4318962,5.41722475 11.4318623,5.41706061 C11.4284086,5.40484848 11.4240068,5.39280051 11.4190293,5.38088384 C11.4176072,5.3774697 11.4160497,5.37418687 11.414526,5.37083838 C11.4105982,5.36223737 11.4062302,5.35376768 11.4014898,5.34542929 C11.3994244,5.34178535 11.3974266,5.33814141 11.3951919,5.33456313 C11.3940068,5.33262626 11.3930587,5.33062374 11.3918059,5.32868687 C11.3867946,5.32097222 11.3813093,5.31371717 11.3757562,5.30652778 C11.3747065,5.30518182 11.37386,5.3037702 11.3728104,5.30245707 C11.3643454,5.29182071 11.3552032,5.28193939 11.3456208,5.27258333 C11.3438262,5.27081061 11.3418623,5.26916919 11.34,5.26746212 C11.3316704,5.25968182 11.3230361,5.25239394 11.3140293,5.24553283 C11.3117269,5.24379293 11.3094921,5.24205303 11.3071219,5.24037879 C11.2950677,5.23171212 11.2826411,5.22363636 11.2696727,5.21664394 L6.28124153,2.46750505 L9.15341986,0.714015152 L13.9685553,3.36759091 L11.9406433,4.60564394 C11.7823815,4.70222475 11.7348758,4.90493939 11.834526,5.05834596 C11.9341422,5.21178535 12.1431941,5.25784343 12.301456,5.1612298 L14.8079797,3.63100505 C14.9087472,3.56951768 14.968781,3.46121717 14.9660722,3.34579293 C14.9633973,3.23036869 14.8984199,3.12485859 14.7948758,3.06780303 L9.31181716,0.0460909091 C9.20336343,-0.0137222222 9.06971783,-0.0107676768 8.96407449,0.0536742424 L5.44411964,2.20264646 C5.44340858,2.20307323 5.44266366,2.20353283 5.4419526,2.2039596 L3.68302483,3.27780556 C3.68221219,3.27829798 3.68139955,3.2787904 3.68062077,3.27928283 L0.158261851,5.42973232 C0.0574943567,5.4912197 -0.00253950339,5.5995202 0.000169300225,5.71494444 C0.00284424379,5.83036869 0.0678216704,5.93587879 0.171365688,5.99293434 L5.65445824,9.01464646 C5.70639955,9.04330556 5.76409707,9.05755303 5.82176072,9.05755303 C5.88450339,9.05755303 5.94714447,9.04064646 6.00216704,9.00706313 L8.50869074,7.47680556 C8.6669526,7.38022475 8.71445824,7.1775101 8.61480813,7.02410354 C8.51522573,6.87066414 8.30610609,6.82457323 8.1478781,6.9212197 L5.81285553,8.34675505 L0.99772009,5.69311364 L3.86993228,3.93959091 L9.00548533,6.76978283 L9.00548533,10.5181818 C9.00548533,10.6377424 9.07249436,10.7478157 9.18044018,10.8055934 C9.23146727,10.8329066 9.28781038,10.8464646 9.34408578,10.8464646 C9.4068623,10.8464646 9.46950339,10.8295581 9.5244921,10.7959747 L11.2856885,9.72075 C11.3841535,9.66064141 11.4438826,9.55575505 11.4438826,9.44295707 L11.4438826,5.50356313 C11.4438826,5.50162626 11.443544,5.49978788 11.4434763,5.49785101 C11.4432731,5.48695202 11.4425282,5.47605303 11.4412077,5.46512121 L11.4412077,5.46512121 Z M9.68268623,9.92356313 L9.68268623,6.57882071 C9.68268623,6.46073737 9.61726862,6.3517803 9.51138826,6.29344444 L4.52004515,3.5427298 L5.63109481,2.86439899 L10.4461964,5.51800758 L10.024605,5.77538131 C9.86634312,5.87196212 9.81883747,6.07467677 9.91848758,6.22808333 C9.98282167,6.32722475 10.092833,6.3814899 10.2053499,6.3814899 C10.2669752,6.3814899 10.3294131,6.36517424 10.3854176,6.33096717 L10.7666479,6.09824747 L10.7666479,9.26177778 L9.68268623,9.92356313 L9.68268623,9.92356313 Z" id="Shape"></path>
                            <path d="M14.4472009,4.38851768 L11.9406772,5.91874242 C11.7824153,6.01532323 11.7349097,6.21803788 11.8345598,6.37144444 C11.8988939,6.47058586 12.0089052,6.52485101 12.1214221,6.52485101 C12.1830474,6.52485101 12.2454853,6.50853535 12.3014898,6.47432828 L14.8080135,4.94410354 C14.9662754,4.84752273 15.013781,4.64480808 14.9141309,4.49140152 C14.8145147,4.33796212 14.6054289,4.29187121 14.4472009,4.38851768 L14.4472009,4.38851768 Z" id="Shape"></path>
                            <path d="M8.14784424,8.23431818 L5.81282167,9.65985354 L0.505970655,6.7352803 C0.343510158,6.64572475 0.136693002,6.70074495 0.0442889391,6.85845202 C-0.0481151242,7.01606061 0.00873589165,7.21647727 0.171331828,7.30606566 L5.65442438,10.3277778 C5.70636569,10.3564369 5.76406321,10.3706843 5.82172686,10.3706843 C5.88446953,10.3706843 5.94711061,10.3537778 6.00213318,10.3201944 L8.50865688,8.78993687 C8.66691874,8.69335606 8.71442438,8.49064141 8.61477427,8.33723485 C8.51519187,8.18376263 8.30607223,8.13767172 8.14784424,8.23431818 L8.14784424,8.23431818 Z" id="Shape"></path>
                            <path d="M14.4472009,5.70164899 L11.9406772,7.23187374 C11.7824153,7.32845455 11.7349097,7.53116919 11.8345598,7.68457576 C11.8988939,7.78371717 12.0089052,7.83798232 12.1214221,7.83798232 C12.1830474,7.83798232 12.2454853,7.82166667 12.3014898,7.7874596 L14.8080135,6.25723485 C14.9662754,6.16065404 15.013781,5.95793939 14.9141309,5.80453283 C14.8145147,5.65106061 14.6054289,5.60500253 14.4472009,5.70164899 L14.4472009,5.70164899 Z" id="Shape"></path>
                            <path d="M8.14784424,9.54744949 L5.81282167,10.9729848 L0.505970655,8.04841162 C0.343510158,7.95885606 0.136693002,8.01387626 0.0442889391,8.17158333 C-0.0481151242,8.32919192 0.00873589165,8.52960859 0.171331828,8.61919697 L5.65442438,11.6409091 C5.70636569,11.6695682 5.76406321,11.6838157 5.82172686,11.6838157 C5.88446953,11.6838157 5.94711061,11.6669091 6.00213318,11.6333258 L8.50865688,10.1030682 C8.66691874,10.0064874 8.71442438,9.80377273 8.61477427,9.65036616 C8.51519187,9.49686111 8.30607223,9.45080303 8.14784424,9.54744949 L8.14784424,9.54744949 Z" id="Shape"></path>
                            <path d="M14.4472009,7.0147803 L11.9406772,8.54500505 C11.7824153,8.64158586 11.7349097,8.84430051 11.8345598,8.99770707 C11.8988939,9.09684848 12.0089052,9.15111364 12.1214221,9.15111364 C12.1830474,9.15111364 12.2454853,9.13479798 12.3014898,9.10059091 L14.8080135,7.57036616 C14.9662754,7.47378535 15.013781,7.27107071 14.9141309,7.11766414 C14.8145147,6.96422475 14.6054289,6.91816667 14.4472009,7.0147803 L14.4472009,7.0147803 Z" id="Shape"></path>
                            <path d="M8.14784424,10.8605808 L5.81282167,12.2861162 L0.505970655,9.36154293 C0.343510158,9.27198737 0.136693002,9.32700758 0.0442889391,9.48471465 C-0.0481151242,9.64232323 0.00873589165,9.8427399 0.171331828,9.93232828 L5.65442438,12.9540404 C5.70636569,12.9826995 5.76406321,12.996947 5.82172686,12.996947 C5.88446953,12.996947 5.94711061,12.9800404 6.00213318,12.9464571 L8.50865688,11.4161995 C8.66691874,11.3196187 8.71442438,11.116904 8.61477427,10.9634975 C8.51519187,10.8100253 8.30607223,10.7639343 8.14784424,10.8605808 L8.14784424,10.8605808 Z" id="Shape"></path>
                        </g>
                    </g>
                </g>
            </g>
        </g>
    </g>
</svg>