<?xml version="1.0" encoding="UTF-8" standalone="no"?>
<svg width="29px" height="18px" viewBox="0 0 29 18" version="1.1" xmlns="http://www.w3.org/2000/svg" xmlns:xlink="http://www.w3.org/1999/xlink">
    <!-- Generator: Sketch 39.1 (31720) - http://www.bohemiancoding.com/sketch -->
    <title>calendar</title>
    <desc>Created with Sketch.</desc>
    <defs></defs>
    <g id="Page-1" stroke="none" stroke-width="1" fill="none" fill-rule="evenodd">
        <g id="1.5-Personal-Cabinet-archive" transform="translate(-707.000000, -177.000000)">
            <g id="Group" transform="translate(383.000000, 142.000000)">
                <g id="field-/-calendar-copy" transform="translate(192.000000, 0.000000)">
                    <g id="calendar" transform="translate(132.000000, 35.000000)">
                        <rect id="Rectangle" fill-opacity="0.00999999978" fill="#FFFFFF" x="9" y="8" width="20" height="5"></rect>
                        <path d="M15.5357143,2.41411765 L13.1357143,2.41411765 L13.1357143,0.656470588 C13.1357143,0.317647059 12.8571429,0.0423529412 12.5142857,0.0423529412 C12.1714286,0.0423529412 11.8928571,0.317647059 11.8928571,0.656470588 L11.8928571,2.41411765 L6.10714286,2.41411765 L6.10714286,0.656470588 C6.10714286,0.317647059 5.82857143,0.0423529412 5.48571429,0.0423529412 C5.14285714,0.0423529412 4.86428571,0.317647059 4.86428571,0.656470588 L4.86428571,2.41411765 L2.46428571,2.41411765 C1.17857143,2.41411765 0.128571429,3.45176471 0.128571429,4.72235294 L0.128571429,15.6070588 C0.128571429,16.8776471 1.17857143,17.9152941 2.46428571,17.9152941 L15.5357143,17.9152941 C16.8214286,17.9152941 17.8714286,16.8776471 17.8714286,15.6070588 L17.8714286,4.72235294 C17.8714286,3.45176471 16.8214286,2.41411765 15.5357143,2.41411765 L15.5357143,2.41411765 Z M16.6285714,15.6070588 C16.6285714,16.2 16.1357143,16.6870588 15.5357143,16.6870588 L2.46428571,16.6870588 C1.86428571,16.6870588 1.37142857,16.2 1.37142857,15.6070588 L1.37142857,4.72235294 C1.37142857,4.12941176 1.86428571,3.64235294 2.46428571,3.64235294 L4.86428571,3.64235294 L4.86428571,4.48941176 C4.86428571,4.82823529 5.14285714,5.10352941 5.48571429,5.10352941 C5.82857143,5.10352941 6.10714286,4.82823529 6.10714286,4.48941176 L6.10714286,3.64235294 L11.8714286,3.64235294 L11.8714286,4.48941176 C11.8714286,4.82823529 12.15,5.10352941 12.4928571,5.10352941 C12.8357143,5.10352941 13.1142857,4.82823529 13.1142857,4.48941176 L13.1142857,3.64235294 L15.5142857,3.64235294 C16.1142857,3.64235294 16.6071429,4.12941176 16.6071429,4.72235294 L16.6071429,15.6070588 L16.6285714,15.6070588 Z" id="Shape" fill="#00427A"></path>
                        <g id="Group-2" transform="translate(2.000000, 7.000000)" fill="#00427A">
                            <path d="M3.74285714,0.92 L1.45,0.92 C1.10714286,0.92 0.828571429,1.19529412 0.828571429,1.53411765 C0.828571429,1.87294118 1.10714286,2.14823529 1.45,2.14823529 L3.74285714,2.14823529 C4.08571429,2.14823529 4.36428571,1.87294118 4.36428571,1.53411765 C4.36428571,1.19529412 4.08571429,0.92 3.74285714,0.92 L3.74285714,0.92 Z" id="Shape"></path>
                            <path d="M3.74285714,6.63764706 L1.45,6.63764706 C1.10714286,6.63764706 0.828571429,6.91294118 0.828571429,7.25176471 C0.828571429,7.59058824 1.10714286,7.86588235 1.45,7.86588235 L3.74285714,7.86588235 C4.08571429,7.86588235 4.36428571,7.59058824 4.36428571,7.25176471 C4.36428571,6.91294118 4.08571429,6.63764706 3.74285714,6.63764706 L3.74285714,6.63764706 Z" id="Shape"></path>
                            <path d="M3.74285714,3.77882353 L1.45,3.77882353 C1.10714286,3.77882353 0.828571429,4.05411765 0.828571429,4.39294118 C0.828571429,4.73176471 1.10714286,5.00705882 1.45,5.00705882 L3.74285714,5.00705882 C4.08571429,5.00705882 4.36428571,4.73176471 4.36428571,4.39294118 C4.36428571,4.05411765 4.08571429,3.77882353 3.74285714,3.77882353 L3.74285714,3.77882353 Z" id="Shape"></path>
                            <path d="M8.15714286,0.92 L5.84285714,0.92 C5.5,0.92 5.22142857,1.19529412 5.22142857,1.53411765 C5.22142857,1.87294118 5.5,2.14823529 5.84285714,2.14823529 L8.13571429,2.14823529 C8.47857143,2.14823529 8.75714286,1.87294118 8.75714286,1.53411765 C8.75714286,1.19529412 8.5,0.92 8.15714286,0.92 L8.15714286,0.92 Z" id="Shape"></path>
                            <path d="M8.15714286,6.63764706 L5.84285714,6.63764706 C5.5,6.63764706 5.22142857,6.91294118 5.22142857,7.25176471 C5.22142857,7.59058824 5.5,7.86588235 5.84285714,7.86588235 L8.13571429,7.86588235 C8.47857143,7.86588235 8.75714286,7.59058824 8.75714286,7.25176471 C8.75714286,6.91294118 8.5,6.63764706 8.15714286,6.63764706 L8.15714286,6.63764706 Z" id="Shape"></path>
                            <path d="M8.15714286,3.77882353 L5.84285714,3.77882353 C5.5,3.77882353 5.22142857,4.05411765 5.22142857,4.39294118 C5.22142857,4.73176471 5.5,5.00705882 5.84285714,5.00705882 L8.13571429,5.00705882 C8.47857143,5.00705882 8.75714286,4.73176471 8.75714286,4.39294118 C8.75714286,4.05411765 8.5,3.77882353 8.15714286,3.77882353 L8.15714286,3.77882353 Z" id="Shape"></path>
                            <path d="M12.55,0.92 L10.2571429,0.92 C9.91428571,0.92 9.63571429,1.19529412 9.63571429,1.53411765 C9.63571429,1.87294118 9.91428571,2.14823529 10.2571429,2.14823529 L12.55,2.14823529 C12.8928571,2.14823529 13.1714286,1.87294118 13.1714286,1.53411765 C13.1714286,1.19529412 12.8928571,0.92 12.55,0.92 L12.55,0.92 Z" id="Shape"></path>
                            <path d="M12.55,6.63764706 L10.2571429,6.63764706 C9.91428571,6.63764706 9.63571429,6.91294118 9.63571429,7.25176471 C9.63571429,7.59058824 9.91428571,7.86588235 10.2571429,7.86588235 L12.55,7.86588235 C12.8928571,7.86588235 13.1714286,7.59058824 13.1714286,7.25176471 C13.1714286,6.91294118 12.8928571,6.63764706 12.55,6.63764706 L12.55,6.63764706 Z" id="Shape"></path>
                            <path d="M12.55,3.77882353 L10.2571429,3.77882353 C9.91428571,3.77882353 9.63571429,4.05411765 9.63571429,4.39294118 C9.63571429,4.73176471 9.91428571,5.00705882 10.2571429,5.00705882 L12.55,5.00705882 C12.8928571,5.00705882 13.1714286,4.73176471 13.1714286,4.39294118 C13.1714286,4.05411765 12.8928571,3.77882353 12.55,3.77882353 L12.55,3.77882353 Z" id="Shape"></path>
                        </g>
                    </g>
                </g>
            </g>
        </g>
    </g>
</svg>