<?xml version="1.0" encoding="UTF-8" standalone="no"?>
<svg width="25px" height="19px" viewBox="0 0 25 19" version="1.1" xmlns="http://www.w3.org/2000/svg" xmlns:xlink="http://www.w3.org/1999/xlink">
    <!-- Generator: Sketch 40.3 (33839) - http://www.bohemiancoding.com/sketch -->
    <title>Page 1</title>
    <desc>Created with Sketch.</desc>
    <defs>
        <path d="M0,0.499654776 C0,0.775604143 0.22281106,1 0.5,1 C0.775806452,1 1,0.775604143 1,0.499654776 C1,0.224395857 0.775806452,0 0.5,0 C0.22281106,0 0,0.224395857 0,0.499654776 L0,0.499654776 Z" id="path-1"></path>
    </defs>
    <g id="Page-1" stroke="none" stroke-width="1" fill="none" fill-rule="evenodd">
        <g>
            <g id="Group-5" fill="#074C7F">
                <path d="M24.0575746,16.0370431 L23.2877985,16.0370431 C23.2874254,16.4285922 23.1288433,16.7813961 22.8676493,17.043298 C22.6053358,17.3040824 22.2519776,17.4624157 21.8594403,17.4627882 L2.96802239,17.4627882 C2.57548507,17.4624157 2.22212687,17.3040824 1.95981343,17.043298 C1.6986194,16.7813961 1.54003731,16.4289647 1.53966418,16.0370431 L1.53966418,3.0552 C1.54003731,2.66365098 1.6986194,2.31047451 1.95981343,2.04857255 C2.22212687,1.78778824 2.57548507,1.6294549 2.96802239,1.62908235 L21.8594403,1.62908235 C22.2516045,1.6294549 22.6053358,1.78778824 22.8676493,2.04857255 C23.1288433,2.31047451 23.2874254,2.66327843 23.2877985,3.0552 L23.2877985,16.0370431 L24.0575746,16.0370431 L24.8273507,16.0370431 L24.8273507,3.0552 C24.8247388,1.42008235 23.4967537,0.0945529412 21.8594403,0.091945098 L2.96802239,0.091945098 C1.33033582,0.0945529412 0.0027238806,1.4204549 0.000111940299,3.0552 L0.000111940299,16.0370431 C0.0027238806,17.6725333 1.33070896,18.9973176 2.96802239,18.9999255 L21.8594403,18.9999255 C23.4971269,18.9973176 24.8247388,17.6717882 24.8273507,16.0370431 L24.0575746,16.0370431 Z" id="Fill-1"></path>
                <path d="M24.0575746,10.8417353 L18.7258582,10.8417353 C18.3657836,10.8413627 18.0467537,10.6979314 17.8094403,10.4624804 C17.5736194,10.2259118 17.4299627,9.9070098 17.4295896,9.54712745 C17.4299627,9.18687255 17.5736194,8.86759804 17.8098134,8.63065686 C18.0467537,8.39483333 18.3657836,8.25177451 18.7258582,8.25140196 L24.0575746,8.25140196 L24.0575746,6.71389216 L18.7258582,6.71389216 C17.1590672,6.71463725 15.8904104,7.98242157 15.8900373,9.54712745 C15.8904104,11.1114608 17.1594403,12.3785 18.7258582,12.3792451 L24.0575746,12.3792451 L24.0575746,10.8417353 L24.0575746,10.8417353 Z" id="Fill-3"></path>
            </g>
            <g id="Group-8" transform="translate(18.000000, 9.000000)">
                <mask id="mask-2" fill="white">
                    <use xlink:href="#path-1"></use>
                </mask>
                <g id="Clip-7"></g>
                <polygon id="Fill-6" fill="#074C7F" mask="url(#mask-2)" points="-1 2 2 2 2 -1 -1 -1"></polygon>
            </g>
        </g>
    </g>
</svg>