<?xml version="1.0" encoding="UTF-8" standalone="no"?>
<svg width="14px" height="11px" viewBox="0 0 14 11" version="1.1" xmlns="http://www.w3.org/2000/svg" xmlns:xlink="http://www.w3.org/1999/xlink">
    <!-- Generator: Sketch 39.1 (31720) - http://www.bohemiancoding.com/sketch -->
    <title>Shape</title>
    <desc>Created with Sketch.</desc>
    <defs></defs>
    <g id="Symbols" stroke="none" stroke-width="1" fill="none" fill-rule="evenodd">
        <g id="step-/-done" transform="translate(-9.000000, -11.000000)" fill="#FFFFFF">
            <g id="Shape">
                <path d="M9.16153846,17.05 C9.05384615,16.94 9,16.775 9,16.665 C9,16.555 9.05384615,16.39 9.16153846,16.28 L9.91538462,15.51 C10.1307692,15.29 10.4538462,15.29 10.6692308,15.51 L10.7230769,15.565 L13.6846154,18.81 C13.7923077,18.92 13.9538462,18.92 14.0615385,18.81 L21.2769231,11.165 L21.3307692,11.165 L21.3307692,11.165 C21.5461538,10.945 21.8692308,10.945 22.0846154,11.165 L22.8384615,11.935 C23.0538462,12.155 23.0538462,12.485 22.8384615,12.705 L22.8384615,12.705 L14.2230769,21.835 C14.1153846,21.945 14.0076923,22 13.8461538,22 C13.6846154,22 13.5769231,21.945 13.4692308,21.835 L9.26923077,17.215 L9.16153846,17.05 L9.16153846,17.05 Z"></path>
            </g>
        </g>
    </g>
</svg>