<?xml version="1.0" encoding="UTF-8" standalone="no"?>
<svg width="14px" height="11px" viewBox="0 0 14 11" version="1.1" xmlns="http://www.w3.org/2000/svg" xmlns:xlink="http://www.w3.org/1999/xlink">
    <!-- Generator: Sketch 39.1 (31720) - http://www.bohemiancoding.com/sketch -->
    <title>Group</title>
    <desc>Created with Sketch.</desc>
    <defs></defs>
    <g id="Symbols" stroke="none" stroke-width="1" fill="none" fill-rule="evenodd">
        <g id="button-/-checked" transform="translate(-9.000000, -11.000000)" fill="#FFFFFF">
            <g id="ico-/-checked">
                <g transform="translate(4.000000, 4.000000)">
                    <g id="Group" transform="translate(5.000000, 7.000000)">
                        <path d="M0.161538462,6.05 C0.0538461538,5.94 0,5.775 0,5.665 C0,5.555 0.0538461538,5.39 0.161538462,5.28 L0.915384615,4.51 C1.13076923,4.29 1.45384615,4.29 1.66923077,4.51 L1.72307692,4.565 L4.68461538,7.81 C4.79230769,7.92 4.95384615,7.92 5.06153846,7.81 L12.2769231,0.165 L12.3307692,0.165 L12.3307692,0.165 C12.5461538,-0.055 12.8692308,-0.055 13.0846154,0.165 L13.8384615,0.935 C14.0538462,1.155 14.0538462,1.485 13.8384615,1.705 L13.8384615,1.705 L5.22307692,10.835 C5.11538462,10.945 5.00769231,11 4.84615385,11 C4.68461538,11 4.57692308,10.945 4.46923077,10.835 L0.269230769,6.215 L0.161538462,6.05 L0.161538462,6.05 Z" id="Shape"></path>
                    </g>
                </g>
            </g>
        </g>
    </g>
</svg>