<?xml version="1.0" encoding="UTF-8" standalone="no"?>
<svg width="18px" height="18px" viewBox="0 0 18 18" version="1.1" xmlns="http://www.w3.org/2000/svg" xmlns:xlink="http://www.w3.org/1999/xlink">
    <!-- Generator: Sketch 39.1 (31720) - http://www.bohemiancoding.com/sketch -->
    <title>Group 2</title>
    <desc>Created with Sketch.</desc>
    <defs></defs>
    <g id="Page-1" stroke="none" stroke-width="1" fill="none" fill-rule="evenodd">
        <g id="1.1-Personal-Cabinet" transform="translate(-919.000000, -176.000000)">
            <g id="button-/-edit" transform="translate(906.000000, 163.000000)">
                <g id="Group-2" transform="translate(10.000000, 10.000000)">
                    <g id="ico-/-edit">
                        <g id="ico-/-small-bound">
                            <rect x="0" y="0" width="24" height="24"></rect>
                        </g>
                        <path d="M20.3418031,8.43228939 L19.546265,9.22820952 L14.7726283,4.45517423 L15.5681664,3.6591799 C16.4469494,2.78027337 17.872018,2.78027337 18.7508752,3.6591799 L20.3418031,5.25053791 C21.219399,6.12896219 21.219399,7.55345705 20.3418031,8.43228939 L20.3418031,8.43228939 Z M9.20378747,17.9777664 C8.98410099,18.197456 8.98410099,18.5532551 9.20378747,18.7729817 C9.42358524,18.9938955 9.77956489,18.9938955 9.99925137,18.7729817 L18.7508752,10.0236474 L17.9544468,9.22765307 L9.20378747,17.9777664 L9.20378747,17.9777664 Z M5.22580022,14.0006513 C5.00600245,14.2205263 5.00600245,14.576177 5.22580022,14.7960149 C5.4454867,15.0157416 5.80146635,15.0157416 6.02126412,14.7960149 L14.7726283,6.04601288 L13.9774241,5.25053791 L5.22580022,14.0006513 L5.22580022,14.0006513 Z M15.5671277,6.84089429 L6.81654254,15.5914157 C6.37713248,16.0299786 6.37824538,16.7429495 6.81654254,17.1823656 C7.25613808,17.6218189 7.96794899,17.6238593 8.40850905,17.1811785 L17.1590942,8.43228939 L15.5671277,6.84089429 L15.5671277,6.84089429 Z M8.40624615,19.5664163 C8.137184,19.2970166 8.00749404,18.9556112 7.95923127,18.6038185 C7.84486224,18.6214768 7.72967708,18.6379109 7.61200644,18.6379109 C7.01096619,18.6379109 6.44646616,18.4029744 6.02126412,17.9777664 C5.59606209,17.5514827 5.36205629,16.9877538 5.36205629,16.3867794 C5.36205629,16.2771943 5.37849011,16.1703915 5.39392233,16.0639226 C5.03026367,16.0143978 4.69413074,15.8551025 4.43044761,15.5914157 C4.40514768,15.5663009 4.39642996,15.5322086 4.37339293,15.5046825 L3,21 L8.48095885,19.6279235 C8.45680891,19.6059248 8.42946867,19.5894537 8.40624615,19.5664163 L8.40624615,19.5664163 Z" id="Shape" fill="#00427A"></path>
                    </g>
                </g>
            </g>
        </g>
    </g>
</svg>