<?xml version="1.0" encoding="UTF-8" standalone="no"?>
<svg width="33px" height="37px" viewBox="0 0 33 37" version="1.1" xmlns="http://www.w3.org/2000/svg" xmlns:xlink="http://www.w3.org/1999/xlink">
    <!-- Generator: Sketch 39.1 (31720) - http://www.bohemiancoding.com/sketch -->
    <title>Emblem_of_Azerbaijan</title>
    <desc>Created with Sketch.</desc>
    <defs></defs>
    <g id="Symbols" stroke="none" stroke-width="1" fill="none" fill-rule="evenodd">
        <g id="footer" transform="translate(-1138.000000, -28.000000)">
            <g id="Group">
                <g transform="translate(979.000000, 28.000000)">
                    <g id="Emblem_of_Azerbaijan" transform="translate(159.000000, 0.000000)">
                        <g id="Layer_1">
                            <path d="M16.9463196,17.9152838 C23.9856588,18.4763529 32.2858548,13.8549191 29.9006928,22.1234335 C30.271104,22.8160896 31.24437,20.4782285 31.3132572,20.2444429 C31.3392336,20.1922323 31.6147812,19.1360378 31.7352372,19.5517868 C31.4339052,20.2009343 31.3475076,20.8593638 31.2183936,21.2577089 C31.2010752,21.3095323 31.1666316,21.7771048 31.2183936,21.7078774 C31.2872808,21.5866336 31.3736772,21.3093394 31.4079288,21.14478 C31.5974628,20.7033134 31.7437032,20.2009343 31.8299076,19.9068162 C31.855692,19.829081 31.8986028,19.6382239 31.9503636,19.5169789 C31.9503636,19.2744913 32.2432284,19.2054581 32.1141144,19.4479457 C32.1141144,19.5865934 31.9247712,20.1841104 31.8643512,20.3569847 C31.9332384,20.6168762 31.97634,20.4091953 32.0450352,20.2879515 C32.0538912,20.2705476 32.157216,19.9673416 32.217444,19.724854 C32.2863312,19.4392437 32.4069792,19.1277229 32.4931836,18.6945712 C32.5362864,18.4694863 32.6655936,18.1749811 32.6655936,18.4868903 C32.5880472,18.9631635 32.3811948,19.7078372 32.2865232,20.1754097 C32.2865232,20.2705476 32.2520796,20.3917914 32.3467512,20.3917914 C32.4327636,20.1144971 32.5965144,19.5517868 32.6654004,19.4827523 C32.94114,19.413332 32.39832,20.4956324 32.4156384,20.9115744 C32.4156384,20.7729267 32.7169704,20.3053554 32.7947076,20.1841104 C33.0358116,20.1841104 32.7427548,20.3743886 32.7427548,20.5217371 C32.7256284,20.5735606 32.2690128,21.8809459 32.3810028,21.8809459 C32.4929916,21.7339833 32.8460844,20.7294181 32.9753916,20.6946114 C33.0787212,20.8071533 32.5620708,21.959067 32.5620708,22.1924667 C32.4673992,22.3657281 32.4069792,22.5910047 32.3467512,22.78167 C32.2865232,22.8421943 32.2778652,22.9286314 32.3121156,23.0237705 C32.3121156,22.9116146 32.5534116,22.6948458 32.6049804,22.5561981 C32.6909928,22.4179375 32.7169704,22.26208 32.8634028,22.365921 C32.6825268,22.8938248 32.329434,23.3704851 32.1139212,23.898583 C31.9501716,24.1410705 31.674816,24.6434496 31.9332384,24.3835581 C32.1658752,24.1497725 32.157216,24.097949 32.277672,23.9333896 L32.5274352,23.5180277 C32.5876632,23.4745191 32.6480832,23.4050988 32.7342876,23.4050988 C32.5876632,23.7518145 32.3552184,24.1151588 32.1830004,24.4531726 C31.7610216,24.9377607 31.5112584,25.5352789 31.0719612,25.9771326 C30.942654,26.1674096 30.6068784,26.4098984 31.1495064,26.1848135 C31.6834752,25.725943 32.1141144,25.007181 32.4929916,24.4183648 C32.5274352,24.4270715 32.5963212,24.4444706 32.630958,24.4531726 C32.2087848,25.2840893 31.6317144,25.924922 31.1062116,26.6697887 C30.95112,26.8254532 30.6066864,27.1199572 30.520674,27.2930257 C30.6153456,27.3365343 30.589368,27.3278323 30.701358,27.2586049 C30.9253356,26.9987134 31.2097344,26.7388231 31.4850888,26.5224402 L31.553976,26.6001754 C31.0371324,27.258412 30.5462664,27.8298243 29.9001156,28.3322034 C29.7021144,28.4878667 29.4781356,28.6524262 29.2712832,28.7823719 C29.5383636,28.9210196 30.5116308,28.0897158 30.7356084,27.9249634 C30.770052,27.8385263 30.8044956,27.8385263 30.8647236,27.7776137 C30.8993592,27.6998785 31.1491212,27.5181093 31.1491212,27.7431942 C30.8218128,28.0288033 30.5031636,28.36643 30.1756632,28.6435313 C29.6416944,29.1198057 29.0473044,29.5786762 28.4098128,29.9337056 C28.6251324,30.0375454 29.6072508,29.4313265 29.7879336,29.2758561 C29.9343672,29.1803299 30.0806064,29.0677881 30.2099136,28.9639482 C30.2099136,28.9987548 30.3565392,29.0594732 30.3823236,29.0594732 C30.0723324,29.3276796 29.684604,29.5614652 29.3401704,29.795252 C28.9611,30.0551423 28.5133356,30.3840683 28.108482,30.5834331 C27.7036272,30.7477996 27.2729892,31.0423036 26.8596684,31.1461447 C26.8596684,31.2586865 27.5314104,31.0423036 27.626082,31.0423036 C28.177368,30.9036571 28.719996,30.6611683 29.1766116,30.3148409 C29.314578,30.4621893 29.2799424,30.4705042 29.1077256,30.5834331 C28.8752808,30.7565016 28.6081992,30.8516395 28.410006,31.0423036 C28.1431176,31.1374427 27.8244684,31.3538257 27.5485356,31.4576655 C26.9716572,31.7695734 26.2824048,32.0464818 25.6535724,32.2541627 C25.4728884,32.2541627 25.2658428,32.3928104 25.1024772,32.3928104 C24.9733632,32.3928104 25.0078068,32.4709327 25.137114,32.4709327 C25.5246492,32.4709327 25.8432996,32.4448268 26.2050516,32.3583897 C26.4550068,32.3061803 26.7220872,32.2284439 26.9285544,32.1507087 C27.2818404,32.0294649 27.7036272,31.7865903 28.0742304,31.6309269 C28.0913568,31.6744355 28.1259924,31.726066 28.1431176,31.7695734 C27.8158092,32.0984994 27.264522,32.1764275 26.894112,32.3583897 C26.885448,32.3583897 26.8165656,32.4361249 26.7907812,32.4361249 C26.6183724,32.4361249 26.1361644,32.6873144 25.9983912,32.7047183 C25.5848772,32.7737516 25.0335912,33.0854665 24.6202704,33.0854665 C24.9216012,33.1809928 25.4213196,33.051047 25.7226516,32.9903274 C25.7226516,33.0771517 25.93797,33.1463791 25.929312,33.1896935 C25.817322,33.5360222 25.5846852,33.9080684 25.3782168,34.2373803 C24.9216012,34.4624651 24.4651788,34.7393722 23.999904,34.9648442 C23.8448124,34.9648442 23.7588,34.9561374 23.8534716,34.7567762 C23.8534716,34.7567762 24.2067564,34.3414143 24.0343476,34.3414143 C23.879256,34.3414143 23.7499488,34.3066076 23.7499488,34.5144815 C23.7328236,34.5666921 23.7241644,34.6100065 23.6897208,34.6444273 C23.6897208,34.9043188 23.586198,35.3978018 23.336436,35.5190468 C23.1728772,35.692114 22.7076036,35.7615344 22.4751588,35.8653742 C21.9152124,35.8653742 21.226152,36.2117029 20.683332,35.8653742 C20.5368996,35.8653742 20.3302392,35.9088828 20.442228,35.692114 C20.5455588,35.692114 20.5715352,35.692114 20.6488884,35.6576933 C20.8901844,35.6576933 22.0443276,35.3544873 21.9236796,35.0949829 C21.8203488,35.0949829 21.656598,35.1207005 21.5792448,35.0342645 C21.467064,35.0342645 21.4499376,34.9994567 21.3379488,34.9652301 C21.2432772,34.7919699 20.9159688,34.9217215 20.7781956,34.7919699 C20.6662068,34.7397593 20.5195812,34.6881288 20.74356,34.8613902 C20.74356,35.0516673 20.7695364,35.2508404 20.5798092,35.3459783 C20.4937968,35.3894869 20.3904672,35.4502065 20.2954104,35.4502065 C20.1403188,35.4502065 19.6840884,35.484626 19.6840884,35.3115588 C19.5461232,35.380592 19.6494528,35.380592 19.6494528,35.484626 C19.7527836,35.484626 19.5719076,35.7358156 19.5461232,35.7619203 C19.3823724,36.0908462 18.5470716,36.0475305 18.2282304,36.0475305 C18.1075812,36.0218118 17.9869332,35.9610934 17.8837956,35.9353746 C17.4100548,35.6924999 16.875894,35.4587143 16.4365956,35.1732982 C16.281504,35.1732982 16.0404012,35.3722771 15.911286,35.4505924 C15.4719888,35.7534124 15.0584748,36.1776692 14.4727452,36.1776692 C14.2745508,36.1776692 14.0936748,36.186376 14.0249808,36.0477235 C13.9043328,36.0477235 13.921458,35.8313406 13.921458,35.7621144 C13.921458,35.7621144 14.1885384,35.4761182 13.9559016,35.597362 C13.7319228,35.7621144 13.2410568,35.8224457 12.9568512,35.7273078 C12.6724524,35.4413104 12.7328724,35.3548744 12.9568512,35.1384915 C12.9224076,35.1384915 12.7242132,34.982827 12.707088,34.9654243 C12.707088,34.887302 12.6813036,34.8354785 12.64686,34.7573562 C12.3713124,34.8960039 12.0784476,34.8960039 11.8113677,34.7229355 C11.6218328,34.9132137 11.398047,35.0344575 11.0965229,35.0344575 C11.0276362,34.9996509 10.9414314,34.9567223 10.8812035,34.9306164 C10.3643602,34.9306164 10.433247,34.9045117 10.433247,35.3117517 C10.433247,35.4068908 10.4676904,35.4761182 10.433247,35.5629413 C10.433247,35.6493784 10.3557012,35.8311476 10.26103,35.8311476 C10.0886206,36.004409 9.67529988,36.1256528 9.434196,36.0475305 C9.18443328,36.0475305 9.08110308,35.9610934 8.91735264,35.7967281 C8.77957908,35.7967281 8.81402244,35.7099038 8.81402244,35.6234667 C8.61582864,35.4678034 8.63314656,34.8008648 8.91735264,34.5844819 C8.95179612,34.5496753 9.1068876,34.3419943 8.98623948,34.3419943 C8.98623948,34.2207505 9.02068284,34.1946459 8.88290928,34.1946459 C8.77092012,34.1946459 8.831148,34.0908048 8.7020334,34.0908048 C8.45227056,33.9869649 8.3920428,34.1256114 8.15093904,34.1256114 C7.9096428,34.4893428 7.52210652,34.9308106 7.05683196,34.9308106 C6.93637632,34.9308106 6.80706924,34.7057257 6.80706924,34.5844819 C6.7208646,34.3245904 6.78128484,33.9436493 6.8415126,33.6754429 C6.67776216,33.6754429 6.6090678,33.5886186 6.49688628,33.5106905 C6.45378396,33.5106905 6.39355608,33.3459381 6.39355608,33.2943076 C6.39355608,33.060522 6.25578252,33.1123454 6.25578252,33.0257153 C6.25578252,32.8441391 5.88537168,33.060522 5.77338252,33.060522 L5.25653916,33.060522 C5.25653916,33.0518152 5.28232356,33.0083114 5.29098252,32.9911016 C4.94635608,32.9911016 4.67946792,32.437092 4.84321836,32.1168693 C4.78299048,32.1168693 4.84321836,32.038747 4.84321836,31.9869235 C4.963674,31.735734 5.446074,31.5624738 5.70449568,31.4242131 C5.55806316,31.4242131 5.58384756,31.2509517 5.46339192,31.2509517 C5.4202896,31.2074431 5.39450508,31.1904263 5.39450508,31.112304 C5.14474236,31.112304 5.48070984,30.6621355 5.05007112,30.6621355 C4.93808196,30.5669976 4.93808196,30.5495937 4.80896736,30.5495937 L4.73142168,30.5495937 C4.4212386,30.5495937 3.62884812,30.1168278 3.62884812,29.8308317 C3.6806094,29.7182898 3.7839396,29.6318527 3.87861084,29.5452226 C4.11105564,29.3458565 3.65463252,29.4235917 3.60287124,29.1985068 C3.39621084,29.1379826 3.35310852,28.9128977 3.35310852,28.7139187 C3.35310852,28.4453253 3.69773484,28.2981697 3.83531604,28.0902959 C3.61999668,27.9429462 3.44777976,28.0554892 3.18089148,27.9947696 L2.90515188,27.9947696 C2.724276,27.9516481 2.45719536,27.8131946 2.38830852,27.6745469 C2.30210388,27.5014796 2.2676604,27.2243783 2.3194218,27.0166974 C2.3194218,26.7394032 2.93959536,26.652966 2.93959536,26.4278811 C2.7500604,26.3671628 2.6467302,26.0380451 2.53474104,25.8734856 C2.46585432,25.6226832 2.42275188,25.3020733 2.42275188,25.0334798 C2.061,25.0334798 1.80257832,25.0077611 1.5612822,24.6527316 C1.28573496,24.3754374 1.21665576,24.0204068 1.21665576,23.6481664 C1.21665576,23.2413135 0.8635629,23.5095199 0.69134592,23.3366456 C0.536254416,23.3366456 0.725789316,23.0164228 0.527787888,22.9555103 C0.260707248,22.782443 0.0109445112,22.5053418 0.0109445112,22.1590131 C0.0109445112,21.656634 0.59667468,22.0982947 0.59667468,21.6392313 C0.59667468,20.9639779 0.665561472,21.1455542 1.1048591,20.8427341 C1.15662041,20.5828426 0.96708552,20.6437551 0.906665256,20.4528968 C0.725789316,20.3059355 0.743107224,20.046044 0.622459128,19.9335021 C0.622459128,19.3446859 0.77755062,19.1453198 1.21665576,18.8941302 L1.38906516,18.8941302 C1.63882788,18.8941302 1.6646124,19.1714245 1.80257832,19.1714245 C1.940352,19.4574207 1.92303408,19.1714245 1.8370218,19.1714245 C1.8370218,19.0762854 1.8628062,18.7645716 1.7336916,18.7645716 C1.7336916,18.6433278 1.7336916,18.5046801 1.69924812,18.3834363 C1.63902036,18.3834363 1.66480476,18.2186839 1.66480476,18.1755612 L16.9463196,17.9152838 L16.9463196,17.9152838 Z" id="path7" fill="#000000"></path>
                            <polygon id="polygon9" fill="#496E6E" points="14.5089207 35.6228868 14.6207174 35.6228868 14.7155811 35.6228868 14.8191037 35.6228868 14.9222414 35.6685092 15.0255716 35.7138767 15.1375608 35.8053763 15.2668678 35.8512535 15.1720042 35.9424983 15.068674 35.9881206 14.9568773 35.9881206 14.8533547 36.0339979 14.7500245 36.0339979 14.6553532 36.0339979 14.5433641 36.0339979 14.4400339 36.0339979 14.3365113 36.0339979 14.3020679 36.0339979 14.3020679 36.0339979 14.1987377 35.896621 14.1987377 35.8053763 14.2331811 35.7597539 14.2676245 35.7597539 14.3020679 35.7138767 14.3365113 35.6685092 14.4055905 35.6228868"></polygon>
                            <polygon id="polygon11" fill="#496E6E" points="18.2988489 35.605633 18.3675432 35.5685058 18.4366225 35.5685058 18.5055093 35.5217839 18.5742036 35.5217839 18.6519418 35.4842395 18.7119772 35.4842395 18.7810564 35.4842395 18.8499432 35.4842395 18.9532734 35.4842395 19.0221602 35.4842395 19.1343418 35.4842395 19.229013 35.4842395 19.3323432 35.4842395 19.40123 35.5685058 19.3667866 35.605633 19.3323432 35.6337913 19.2978998 35.6711271 19.229013 35.7082543 19.2032286 35.7457987 19.1343418 35.7457987 19.056796 35.7831345 18.9879092 35.7831345 18.91883 35.8206789 18.8154998 35.8578062 18.7119772 35.8578062 18.6088394 35.8953506 18.5055093 35.8953506 18.4021791 35.8953506 18.2988489 35.8953506 18.2039852 35.8953506 18.0919961 35.8953506 18.0919961 35.8953506 17.9884735 35.8206789 18.0919961 35.7082543 18.1264395 35.7082543 18.1608829 35.7082543 18.2039852 35.6711271 18.2297697 35.6711271 18.2644055 35.6337913"></polygon>
                            <path d="M8.47093548,33.6052496 C8.47093548,32.9561008 9.07379112,33.0854665 9.46998636,32.9561008 C9.71974908,32.9561008 10.1159444,32.6875086 10.2625693,32.5059323 C10.3745585,31.9948513 9.95238636,32.2286381 9.95238636,31.8045742 C9.95238636,31.4578597 10.2883538,31.5446827 10.5036732,31.5616995 C10.6156622,31.5704063 10.5983444,31.6311199 10.7103335,31.6311199 C10.4176609,31.7867844 10.4692297,31.8910114 10.4692297,32.1509029 C10.4692297,32.2543557 10.210808,32.7741387 10.5036732,32.7741387 C10.5036732,32.8692778 10.693208,32.8089453 10.5381166,32.8866805 C10.5381166,33.2330092 9.64239576,33.6918797 9.50442984,33.7870188 C9.58197552,33.9430692 9.99529632,33.6226523 10.0901599,33.5449171 C10.1503878,33.5967405 9.88349964,34.0902247 9.84905616,34.159838 C9.75419256,34.480062 9.60776004,34.8524953 9.60776004,35.2075247 C9.60776004,35.4152057 9.71109024,35.2245416 9.71109024,35.1381044 C9.71109024,34.8956168 10.1072855,33.7614929 10.3312638,33.54511 C10.3743661,33.6141445 10.425935,33.9952798 10.4690374,33.9952798 C10.4690374,34.1339263 10.6325953,34.3242045 10.6756978,34.4454483 C10.9599038,34.5840948 10.5723676,33.8131235 10.5723676,33.6750558 C10.4172761,33.5190054 10.598152,33.1900806 10.6756978,33.0601349 C10.6756978,33.0858536 10.882358,33.4412702 10.882358,33.155274 C10.882358,33.1987826 11.2441099,33.155274 11.3560991,33.155274 C11.3647583,33.155274 12.5964456,33.2330092 12.5964456,33.2330092 C12.8288904,33.4929007 12.5104332,33.8131235 12.3553416,33.8131235 C11.9764651,33.8131235 11.4596218,33.336849 11.3303147,33.4410772 C10.8392557,33.8392281 11.8816014,34.480062 11.3992015,34.7225496 C11.2096666,34.7225496 10.7014822,34.774373 10.5723676,34.5492882 C9.73687464,34.7569691 10.4517194,35.7269207 9.469794,35.7269207 C8.89272276,35.7269207 8.84962044,35.0603692 9.1855878,34.7227425 C9.40956612,34.4976589 9.42669168,33.8566321 8.98758648,33.8566321 C8.86713072,33.8563909 8.47093548,33.7955266 8.47093548,33.6052496 L8.47093548,33.6052496 L8.47093548,33.6052496 Z" id="path13" fill="#009E49"></path>
                            <polygon id="polygon15" fill="#009E49" points="22.165938 35.4150125 22.2350172 35.4150125 22.303904 35.4740236 22.303904 35.5323791 22.3383474 35.5323791 22.3729832 35.5323791 22.4072342 35.5323791 22.4416776 35.5323791 22.4763134 35.5323791 22.5105644 35.5323791 22.5794512 35.4740236 22.4763134 35.5913903 22.4072342 35.5913903 22.3383474 35.6648264 22.2692682 35.6648264 22.2092327 35.7231819 22.0972436 35.7674403 22.0628002 35.7674403 21.9592776 35.7674403 21.9248342 35.7674403 21.821504 35.8261236 21.7870606 35.8261236 21.6839228 35.8261236 21.649287 35.8261236 21.6148436 35.8261236 21.6148436 35.8261236 21.649287 35.8261236 21.7181738 35.7674403 21.7870606 35.7674403 21.8559474 35.7231819 21.9248342 35.7231819 21.9939134 35.5913903 22.0628002 35.5323791"></polygon>
                            <polygon id="polygon17" fill="#496E6E" points="12.958583 35.5725103 12.958583 35.4592094 13.0963566 35.3455921 13.1652434 35.3455921 13.1910278 35.3455921 13.2685735 35.3455921 13.3030169 35.3455921 13.3719037 35.3455921 13.4407905 35.3455921 13.5098697 35.3455921 13.5098697 35.402559 13.5441207 35.402559 13.5785641 35.402559 13.5785641 35.4592094 13.6131999 35.4592094 13.6474509 35.4592094 13.7165301 35.4592094 13.7165301 35.5725103 13.6734278 35.6294772 13.6474509 35.6294772 13.6131999 35.6294772 13.5785641 35.7003693 13.5441207 35.7003693 13.5098697 35.7567032 13.4407905 35.7567032 13.4063471 35.7567032 13.3719037 35.7567032 13.3374603 35.7567032 13.2685735 35.7567032 13.2254712 35.7567032 13.1910278 35.7567032 13.1652434 35.7567032 13.1308 35.7567032 13.1308 35.7567032 13.0963566 35.7567032 13.0619132 35.7567032 13.0274698 35.7567032 13.0274698 35.7003693 12.992834 35.7003693 12.992834 35.6294772 12.958583 35.6294772"></polygon>
                            <polygon id="polygon19" fill="#496E6E" points="19.6856285 35.1129463 19.711413 35.1129463 19.745664 35.1129463 19.7802998 35.1129463 19.8147432 35.1129463 19.8491866 35.0672673 19.8834376 35.0672673 19.9523243 34.9759093 20.0300625 34.9759093 20.0989493 34.9302303 20.1678361 34.9302303 20.2280639 34.9302303 20.2626998 34.9302303 20.3313941 34.9302303 20.3658375 34.9302303 20.4433833 34.9302303 20.4433833 34.9759093 20.4433833 35.0213331 20.4433833 35.0672673 20.4433833 35.1129463 20.4433833 35.147397 20.4433833 35.2043044 20.2967583 35.2959176 20.2280639 35.3413414 20.2020871 35.3413414 20.1333927 35.3413414 20.0989493 35.3413414 20.0300625 35.3413414 19.9956191 35.3413414 19.9180734 35.3413414 19.8834376 35.3413414 19.8491866 35.3413414 19.8491866 35.3413414 19.8147432 35.3413414 19.7802998 35.3413414 19.745664 35.3413414 19.711413 35.3413414 19.6856285 35.2959176 19.6509927 35.2502386 19.6509927 35.2043044"></polygon>
                            <polygon id="polygon23" fill="#FFFFFF" points="14.2016675 33.9602791 14.2400247 33.995086 14.2783818 34.0296995 14.316739 34.0641196 14.3550961 34.0641196 14.3936675 34.0902247 14.4320247 34.1250316 14.4703818 34.1596451 14.5854532 34.1596451 14.5854532 34.2375738 14.508739 34.2718005 14.4703818 34.2718005 14.3936675 34.3066074 14.3550961 34.3066074 14.2783818 34.3414142 14.2400247 34.3414142 14.2016675 34.3760277 14.1729532 34.3760277 14.1729532 34.3760277 14.1729532 34.3414142 14.1729532 34.3066074 14.1729532 34.2718005 14.1729532 34.1940652 14.1729532 34.1596451 14.1729532 34.0902247 14.1729532 34.0641196"></polygon>
                            <path d="M15.4735272,34.0641201 C15.3013104,34.0641201 15.0255708,33.3453581 15.1033092,33.1898877 C14.9568768,33.1898877 14.853546,32.9212942 14.6897964,32.9212942 C14.2936008,33.0773446 13.6734276,33.5878456 13.3030164,33.3714627 C13.1996868,33.3109373 13.0101516,33.1550798 13.2254712,32.9212942 C13.285698,32.8690836 13.156584,32.3585838 13.3719036,32.3585838 C13.3719036,32.4711257 13.5874152,32.3498771 13.6131996,32.323776 C13.81986,32.124797 14.0782812,32.5401589 14.1987372,32.6701047 C14.4400332,32.5488609 14.0265204,32.2630576 14.0265204,32.1507087 C14.1385092,32.0377798 15.4735272,32.020763 15.4735272,32.4709327 C15.637278,32.4709327 15.6199608,32.9123993 15.6199608,33.0597478 C15.8006436,33.1983955 15.7404156,32.7304371 15.7404156,32.6699117 C15.7404156,32.2197432 16.0504068,32.7824535 16.0935084,32.8431719 C16.1710548,32.9731177 16.730808,33.8127364 16.8858996,33.5097233 C16.549932,33.2759377 16.3261464,32.7132262 16.0246224,32.4359319 C15.9817116,32.3837214 15.7921776,32.2456549 15.9559272,32.3233901 C16.2918948,32.3233901 16.6534548,32.5136671 16.851648,32.1157092 C16.6965564,32.1762346 14.9911272,32.1070024 14.9911272,31.9076411 L14.2331808,31.9076411 C14.422716,31.7776954 15.1117764,31.206283 15.0686736,31.1111439 C14.7673416,31.3014221 14.422908,31.5355949 14.12985,31.7347668 C13.1823684,32.4792476 13.7336556,31.214985 13.7509728,31.214985 C13.8629616,31.214985 13.8887472,31.0419177 13.81986,30.9724974 C13.9920768,30.7994289 14.2331808,30.6522734 14.4400332,30.5484336 C14.5002612,30.5223277 14.9911272,30.4358917 14.9911272,30.4877152 C15.0686736,30.4877152 15.1806624,30.5832402 15.2668668,30.5832402 C15.2668668,30.6870813 15.4392768,30.9208669 15.4392768,31.1111439 C15.4392768,31.7347668 16.1456556,31.6394347 16.5761016,31.5355949 C16.782762,31.6825574 17.2220592,31.7086621 17.2220592,32.0809025 C17.1271956,32.2972842 17.0756268,32.3059862 16.9207272,32.4707386 C16.9207272,32.522562 16.8774324,32.6089992 16.8518412,32.6351051 C16.8518412,33.1287822 17.506458,33.1461849 17.506458,33.5097233 C17.506458,33.6912996 17.5582188,34.0898376 17.2565028,34.0898376 C17.0585016,34.2975186 16.4383272,34.2110814 16.4383272,33.8212454 C16.3694412,33.8212454 16.2230088,33.7348082 16.2230088,33.6742828 C15.8697228,33.6746446 15.7923696,34.0641201 15.4735272,34.0641201 L15.4735272,34.0641201 L15.4735272,34.0641201 Z" id="path25" fill="#009E49"></path>
                            <polygon id="polygon27" fill="#009E49" points="14.5778075 33.6746695 14.5433641 33.640056 14.5089207 33.640056 14.5089207 33.6052492 14.5089207 33.579144 14.4744773 33.579144 14.4400339 33.579144 14.4055905 33.5449173 14.4055905 33.5101104 14.3711471 33.5101104 14.3365113 33.4753036 14.3365113 33.4408834 14.3020679 33.4408834 14.3020679 33.40627 14.2676245 33.40627 14.2676245 33.3714631 14.2676245 33.2937278 14.3020679 33.2937278 14.3365113 33.2937278 14.3711471 33.2937278 14.4055905 33.2937278 14.4400339 33.2937278 14.4744773 33.2937278 14.5433641 33.2589209 14.5433641 33.2937278 14.6207174 33.3366562 14.6553532 33.3714631 14.7500245 33.3714631 14.7844679 33.40627 14.8533547 33.4408834 14.887798 33.4753036 14.9568773 33.5101104 14.9568773 33.579144 14.9568773 33.6052492 14.9568773 33.640056 14.9568773 33.6746695 14.9568773 33.7438965 14.9568773 33.8216318 14.9911282 33.8216318 14.9568773 33.8564387 14.9568773 33.8564387 14.9911282 33.7870183 14.9222414 33.7870183 14.8533547 33.7870183 14.7844679 33.7438965 14.7500245 33.7090896 14.6897966 33.7090896 14.6553532 33.6746695"></polygon>
                            <path d="M21.6492864,33.4062694 C21.1668864,33.4927065 20.4004728,33.5793378 19.8834372,33.5793378 C19.3410012,33.5793378 19.1256828,33.3198334 19.1341488,32.9561008 C19.1428128,32.3065662 20.6327256,32.8692778 21.0979992,32.9212942 C21.6490944,32.9903274 22.0883916,33.0856595 22.6138944,33.0856595 C23.139396,33.0856595 22.3210284,33.2589209 22.2692676,33.2589209 C22.1832552,33.3111315 21.7870596,33.3801647 21.6492864,33.4062694 L21.6492864,33.4062694 L21.6492864,33.4062694 Z" id="path29" fill="#FFF200"></path>
                            <path d="M6.498618,32.8864876 C6.46417464,32.8864876 6.24019632,32.6178941 6.05066148,32.7049113 C5.73201192,32.7049113 5.05161048,33.0599419 5.05161048,32.436319 C5.05161048,31.916536 5.25827088,31.9687466 5.56845396,31.734961 C5.6889096,31.8475028 6.25751424,31.7697676 6.25751424,31.4924722 C6.41260572,31.3364217 6.01641048,30.6785723 6.84324444,31.0767244 C7.40319012,31.0767244 7.73896524,31.1722494 7.73896524,30.5227148 C7.73896524,30.0377396 8.54001468,29.795252 8.66912928,30.1763873 C8.83287972,30.1763873 9.28930284,30.6787652 9.22022364,30.8000102 C9.22022364,31.2414768 9.1255524,31.1637416 9.18578028,31.4236331 C8.73782364,31.4236331 8.6258346,31.1376357 8.22117276,31.0078841 C8.134968,30.8779383 8.16941148,30.904043 8.02297884,30.9388509 C8.02297884,31.1378298 8.47093548,31.3370018 8.6431524,31.3890194 C8.55694776,31.423826 7.7043294,31.5533847 7.60946568,31.6663136 C7.37702088,31.7181371 6.81688272,31.5450698 6.6361992,31.3544057 C6.6104148,31.4151241 6.57597132,31.4669475 6.57597132,31.5363679 C6.7395294,31.5363679 7.1185992,31.8049613 7.2219294,31.8049613 C6.97216668,31.93452 6.48110772,31.9432219 6.18824268,31.9432219 C6.1537992,31.9867306 5.6713992,32.0818685 6.29157288,32.0818685 C6.69642708,32.0818685 7.04086104,32.1253771 7.39395396,31.9432219 C7.3077492,32.0818685 6.89442852,32.5927566 6.94599732,32.7052984 C7.12687332,32.7052984 7.385295,32.2029193 7.54019412,32.0213442 C7.88482044,31.7353469 8.01393504,31.631507 8.539245,31.631507 C8.88387144,31.5276659 7.7986158,32.2893565 8.25503892,32.2893565 C8.3325846,32.1162892 9.021645,31.4580526 9.021645,31.631507 L9.4349658,31.631507 C9.04723704,31.813082 9.47806812,32.0126423 9.46940916,32.0213442 C10.3995733,32.2721467 9.59852376,32.7745258 8.81479212,32.7745258 C8.65970064,32.7745258 8.59947288,32.8870676 8.4701658,33.1208532 C8.29794876,33.2856056 7.91022,32.5494409 7.54000164,32.9218743 C7.23001104,33.2246943 7.23867,33.4416573 6.7389522,33.4416573 C6.532869,33.4409337 6.56731248,32.8864876 6.498618,32.8864876 L6.498618,32.8864876 L6.498618,32.8864876 Z" id="path31" fill="#009E49"></path>
                            <polygon id="polygon33" fill="#FFF200" points="17.8853357 33.1550805 17.9884735 33.1202736 18.1264395 33.0599417 18.2297697 33.0251349 18.3675432 32.9561012 18.5055093 32.8864875 18.6519418 32.7739454 18.7810564 32.7739454 18.8843866 32.8435591 18.746613 32.9561012 18.6088394 32.990328 18.5055093 33.0251349 18.4021791 33.0599417 18.2644055 33.1202736 18.1608829 33.1550805 18.0231093 33.2241141 17.9195867 33.2589209 17.8853357 33.2937278 17.8508923 33.3366562 17.8164489 33.3714631 17.7818131 33.40627 17.7818131 33.4408834 17.7044597 33.4408834 17.7044597 33.4408834 17.6784829 33.4408834 17.6784829 33.40627 17.6784829 33.3714631 17.6784829 33.3366562 17.6784829 33.2937278 17.6784829 33.2241141 17.7818131 33.2241141"></polygon>
                            <path d="M17.575152,33.0599419 C17.4115944,33.0599419 17.4029352,32.9212942 17.2994124,32.9212942 C17.2994124,32.8864876 17.2391844,32.7913484 17.2220592,32.7739457 C17.2220592,32.2460408 17.8249152,31.6914524 18.1608828,31.3538257 C18.6259644,30.998795 19.091046,30.7046769 19.5821052,30.4186807 C19.1516592,30.9123579 18.6950436,31.5098761 18.5055084,32.1507087 C18.3246324,32.4622308 18.0144504,33.0597478 17.6095956,33.0597478 L17.575152,33.0597478 L17.575152,33.0599889 L17.575152,33.0599419 Z" id="path35" fill="#FFF200"></path>
                            <path d="M11.0980622,32.9212942 C10.6674236,32.7565418 10.9429708,32.2199361 11.2618127,32.0209571 C11.4342221,31.7523637 11.3995864,31.830293 11.3995864,31.5616995 C11.3995864,31.0941271 10.228126,31.3195991 10.1592392,31.3195991 C9.90081744,31.3195991 9.43573548,31.1809513 9.43573548,30.8346227 C9.43573548,30.7565016 9.80595384,30.81722 9.9870222,30.7303957 C10.6158547,30.4447866 9.92679432,29.8300587 9.5046222,29.8300587 C9.45305328,29.7778481 9.1946316,29.6397804 9.18597264,29.6136757 C9.08264256,29.1635072 9.11708592,28.8949137 9.47017884,28.7133387 C9.54772452,28.7910739 10.2970128,29.0422634 10.2970128,29.1287006 C10.2970128,29.2238385 10.5640934,29.4315194 10.6501057,29.48373 C10.7534359,29.5701671 11.3907349,29.284751 11.3995864,29.6136757 L11.6493491,29.682709 C12.1057716,29.682709 11.477132,30.3496475 12.3297504,30.3496475 C12.6570588,30.3496475 12.8637192,30.1071599 13.1307996,30.3148409 C13.7767572,30.7911141 12.8983548,31.6914524 12.8208084,32.2889694 C12.60549,31.9426419 12.5795124,31.206476 12.5795124,30.799816 C12.424614,30.799816 12.4503984,30.7563074 12.4072956,30.9036571 C12.4072956,31.0597076 12.372852,31.3538257 12.4417392,31.4924722 C12.3297504,31.4234389 12.252204,31.3108971 12.1661916,31.2151779 C12.1057716,31.1200388 11.6149056,30.7389047 11.6149056,30.695782 C11.4342221,30.695782 11.3393585,29.4400284 11.1669491,29.682516 C11.1669491,29.7689532 11.1756083,30.3668573 11.2960637,30.4877152 C10.8138562,30.3925761 10.0557166,29.5960789 9.917943,29.1285064 L9.78016944,29.1285064 C9.90062508,29.682516 10.4432528,30.202299 10.8825505,30.4877152 C11.4769397,30.8514466 10.3657072,30.608959 10.3657072,30.7650094 C10.3657072,31.0336029 11.2443024,30.8601485 11.3993939,30.8344297 C11.8300326,31.016006 12.2091024,31.5789093 12.4759896,31.9424477 C12.2864556,31.9424477 11.6318387,31.8906243 11.5802699,32.0549908 C11.6233722,32.2539698 12.493308,32.0723935 12.613764,32.323583 C12.613764,32.4100202 12.622428,32.7998575 12.673992,32.8862946 C12.493116,32.947013 12.2260344,32.8950014 12.0624768,32.9557149 C12.002442,32.9816267 11.0980622,32.9212942 11.0980622,32.9212942 L11.0980622,32.9212942 L11.0980622,32.9212942 Z" id="path37" fill="#009E49"></path>
                            <path d="M25.4132376,32.635298 C24.59487,33.042345 23.6906832,32.9472059 22.8205548,32.8085582 C22.596768,32.7737516 22.8636564,32.7391379 22.9927716,32.7047183 C23.3289312,32.6008773 23.682024,32.5747726 23.9577636,32.3583897 C24.465948,32.4885296 24.9052464,32.6875086 25.4132376,32.635298 L25.4132376,32.635298 L25.4132376,32.635298 Z" id="path39" fill="#FFF200"></path>
                            <path d="M20.77935,31.9080282 C21.080682,31.9080282 21.3995244,31.9080282 21.68373,31.9861505 C22.5450072,32.1851295 22.8205548,32.2025322 23.4062844,32.2889694 C23.4751716,32.3063733 23.7853548,32.3583897 23.55291,32.3583897 C23.5267404,32.3757936 23.018748,32.5057394 22.958328,32.5057394 C22.6312116,32.6614027 20.9686932,32.8603829 20.77935,32.6701047 C20.296758,32.6701047 20.417598,31.9080282 20.77935,31.9080282 L20.77935,31.9080282 L20.77935,31.9080282 Z" id="path41" fill="#FFF200"></path>
                            <path d="M18.9532728,32.6701047 C17.9455632,32.1764275 20.228064,30.3753663 20.6155992,30.1328787 C20.1247332,30.799816 19.8232092,31.5791035 19.50456,32.323776 C19.3152168,32.5227562 19.2980916,32.6701047 18.9879084,32.6701047 L18.9532728,32.6701047 L18.9532728,32.6701047 L18.9532728,32.6701047 Z" id="path43" fill="#FFF200"></path>
                            <path d="M24.104196,32.0812884 C23.914662,32.0812884 23.613138,32.0551837 24.03531,31.9080282 C24.5692788,31.734961 25.0516788,31.5529976 25.5167604,31.2847924 C25.6805112,31.2847924 25.8094332,31.3886323 25.9300812,31.3886323 C26.3778456,31.3886323 26.8086768,31.3886323 27.248166,31.3195991 C26.9121996,31.518578 25.8180924,31.9861505 25.4480664,32.0553767 C24.827508,32.1764275 25.1719416,32.0638905 24.104196,32.0812884 L24.104196,32.0812884 L24.104196,32.0812884 Z" id="path45" fill="#FFF200"></path>
                            <path d="M20.296758,31.9426419 C20.1332004,31.9426419 20.2451892,31.8736075 20.1676428,31.8736075 C19.5819132,31.2847924 21.6061836,29.7521293 21.7181736,29.8646723 C21.2184552,30.6178539 21.3133188,31.5702086 20.3313936,31.9426419 L20.296758,31.9426419 L20.296758,31.9426419 L20.296758,31.9426419 Z" id="path47" fill="#FFF200"></path>
                            <path d="M24.2333112,31.5616995 C24.4744152,31.5616995 24.1730832,31.6311199 24.1730832,31.6311199 C24.0612864,31.7436617 22.9242696,31.9080282 22.7520528,31.9080282 C22.3729824,31.9080282 21.925026,32.0296591 21.925026,31.4926663 C21.925026,30.8690434 23.2082832,31.1985482 23.5098072,31.3540186 C23.7078084,31.4491577 24.0093324,31.5616995 24.2333112,31.5616995 L24.2333112,31.5616995 L24.2333112,31.5616995 Z" id="path49" fill="#FFF200"></path>
                            <polygon id="polygon51" fill="#FFF200" points="17.0929451 31.4578593 17.1876164 31.3540189 17.3684923 31.2153715 17.5064583 31.1115311 17.6784829 30.9728838 17.8508923 30.8690433 18.0575527 30.7652028 18.2644055 30.6959759 18.5055093 30.5834337 18.4366225 30.6959759 18.3675432 30.730396 18.2988489 30.8346232 18.2297697 30.8690433 18.1264395 30.9384636 18.0575527 31.0076906 17.9884735 31.0767242 17.9542225 31.1461446 17.8853357 31.1809514 17.7818131 31.2847919 17.7473697 31.3540189 17.7044597 31.3886324 17.6784829 31.4234392 17.6440395 31.4578593 17.6440395 31.4924728 17.5751527 31.5359814 17.5407093 31.5963133 17.5064583 31.6311201 17.4720149 31.665927 17.4373791 31.7003471 17.4373791 31.7349606 17.3684923 31.7349606 17.3684923 31.7349606 17.3340489 31.7003471 17.2994131 31.665927 17.2565032 31.6311201 17.2220598 31.5963133 17.1618319 31.5963133 17.1618319 31.5616998 17.0929451 31.5359814"></polygon>
                            <path d="M5.43048792,30.6611683 C5.43048792,30.401278 6.08510484,30.2284037 6.08510484,29.7950579 C6.08510484,29.5699742 5.54247708,29.2843639 5.46493128,28.963754 C5.46493128,28.4874808 5.98177464,28.7560731 5.84400108,28.262396 C5.84400108,28.1411522 5.559795,27.8812607 5.43048792,27.8812607 C5.4047034,27.8207364 5.06007708,27.2406209 5.22382752,27.0847647 C5.29271436,26.9722216 5.5080336,26.7040153 5.67178404,26.7040153 C5.93020584,26.5827715 5.9646492,26.8422759 6.15418404,26.738436 C6.49881048,27.0934654 6.34352652,27.9767869 7.22231424,27.3620589 C7.39453116,27.4397941 7.37740572,27.5523359 7.47207696,27.6389672 C7.72164732,27.6389672 7.5667482,28.4097456 7.80785196,28.4097456 C8.02317132,28.6174266 8.53135572,28.2281694 8.64334488,28.4787789 C8.82422076,28.4787789 8.9706534,28.6435313 9.02241468,28.7819848 C9.0739836,28.9032286 8.918892,29.0157716 8.918892,29.1283135 C8.918892,29.1283135 8.6949138,29.4398355 8.73801612,29.5181507 C9.03954012,29.9770212 7.91118216,29.682516 8.22117276,29.4487304 C8.22117276,29.3535913 8.21251356,29.2671541 8.25561612,29.1631201 C7.9283076,29.1631201 8.17807044,29.7950579 7.8767388,29.7950579 C7.8680796,29.8037646 7.80785196,29.8298657 7.80785196,29.8644782 C7.60119156,29.8209696 7.8767388,30.297244 7.60985052,29.8988989 C7.32545196,29.4661331 7.04124588,28.8599142 7.22231424,28.2972026 C7.27388316,28.1498541 7.20499632,27.9160685 7.2567576,27.7431942 C7.03277928,27.7431942 7.0243128,28.4184464 7.0243128,28.6089176 C7.0243128,28.9552462 6.40413924,28.0201013 6.36103692,27.95977 C6.16303548,27.7085805 5.87863692,27.4140753 5.70641988,27.1545709 C5.43933924,27.2845166 6.50746944,28.4534472 6.6710274,28.678532 C6.90366468,28.9726489 6.8434368,28.9297216 6.57635616,28.8601071 C6.36103692,28.8601071 5.97350052,28.8430903 5.80975008,28.7823719 C5.69776092,29.0248595 6.7485732,29.0074568 6.946767,29.0938939 C7.01565384,29.3106627 7.26541656,29.8039528 7.429167,29.9685122 C7.48092828,30.1417736 7.68758868,29.9511095 7.429167,30.2109998 C7.16208636,30.4795933 6.78320904,30.1587904 6.610992,30.2458076 C6.24924012,30.2458076 7.17940428,30.5747324 6.80899344,30.6611683 C6.6885378,30.6872742 6.76589112,30.6872742 6.63677652,30.7302028 C6.47302608,30.7909211 6.59367408,30.704484 6.36103692,30.8170258 C6.24058116,30.8775512 6.007944,31.2845983 6.08529732,31.2845983 C5.7922398,31.2848395 5.43048792,30.9210598 5.43048792,30.6611683 L5.43048792,30.6611683 L5.43048792,30.6611683 Z" id="path53" fill="#009E49"></path>
                            <path d="M24.0006732,30.3840683 C24.586596,30.3840683 25.1205648,30.5834331 25.6889772,30.5834331 C25.1205648,31.016199 23.191158,31.6224179 23.372034,30.6611683 C23.4151356,30.4360847 23.8715592,30.3840683 24.0006732,30.3840683 L24.0006732,30.3840683 L24.0006732,30.3840683 Z" id="path55" fill="#FFF200"></path>
                            <path d="M21.8559468,31.111531 C21.7870596,31.111531 21.6492864,31.0076911 21.6148428,30.9728833 C21.6148428,30.0725462 22.2003804,29.8387606 22.8207468,29.3798901 C22.9154184,29.3108557 22.9671792,29.1635072 23.1051456,29.1635072 C22.9758384,29.4146968 22.8207468,29.7610254 22.7260752,30.003513 C22.5709836,30.3929632 22.4416776,31.111531 21.8905824,31.111531 L21.8559468,31.111531 L21.8559468,31.111531 L21.8559468,31.111531 Z" id="path57" fill="#FFF200"></path>
                            <path d="M26.94645,30.8516395 C26.5760388,30.9902872 25.6889772,31.0767244 25.6889772,31.0076911 C25.5252276,30.8777454 25.5165684,30.921254 25.6889772,30.8346227 C26.1196164,30.5660304 26.5071528,30.3409456 27.2737584,30.2802272 C27.618192,30.2541225 27.8852736,30.3063319 28.1436948,30.2458076 C27.8594892,30.4534886 27.2135304,30.799816 26.94645,30.8516395 L26.94645,30.8516395 L26.94645,30.8516395 Z" id="path59" fill="#FFF200"></path>
                            <path d="M23.0618508,30.4534886 C22.6829736,30.4534886 23.0360664,29.8385665 23.1051456,29.682709 C23.4151356,29.2845581 23.8199904,28.9465443 24.2333112,28.6437242 C23.8028652,29.1112967 23.8455828,30.4534886 23.1051456,30.4534886 L23.0618508,30.4534886 L23.0618508,30.4534886 L23.0618508,30.4534886 Z" id="path61" fill="#FFF200"></path>
                            <path d="M25.551012,30.4188749 C25.7836488,30.4188749 26.3262768,30.0986509 26.515812,29.9687064 C26.5591056,29.9861091 26.877756,30.0209157 26.9895528,30.0377396 C26.7828924,30.2628233 25.9991604,30.4188749 25.792308,30.4188749 L25.5854544,30.4188749 L25.551012,30.4188749 L25.551012,30.4188749 L25.551012,30.4188749 Z" id="path63" fill="#FFF200"></path>
                            <path d="M24.6554832,30.1328787 C24.586596,30.1328787 24.4572888,29.7260246 24.6899268,29.7260246 C24.8363592,29.5699742 26.0249448,29.7950579 26.4124812,29.7950579 C26.0853648,30.1158619 24.827508,30.5140128 24.6554832,30.1328787 L24.6554832,30.1328787 L24.6554832,30.1328787 Z" id="path65" fill="#FFF200"></path>
                            <path d="M29.3840424,28.9987548 C29.0309496,29.48373 27.6441696,30.4621893 27.0928824,29.9164958 C26.9982108,29.8213567 27.00687,29.6653063 27.1704288,29.5788691 C27.4030656,29.4402214 27.6872712,29.3015749 28.212582,29.1635072 C28.6176288,29.0677881 28.9878468,29.1287006 29.3840424,28.9987548 L29.3840424,28.9987548 L29.3840424,28.9987548 Z" id="path67" fill="#FFF200"></path>
                            <path d="M24.2677548,29.682709 C23.8111392,29.3193647 24.6726084,28.4876738 24.9652812,28.1935557 C24.9741372,28.2022625 24.8534844,28.886213 24.8534844,28.9639482 C24.7930644,29.2758561 24.646632,29.682709 24.2677548,29.682709 L24.2677548,29.682709 L24.2677548,29.682709 Z" id="path69" fill="#FFF200"></path>
                            <path d="M27.1444512,28.9295274 C27.308202,28.9295274 27.4631016,28.9121247 27.6268512,28.8947208 C27.4115316,29.1633143 25.5252276,29.9337056 25.4821248,29.379696 C25.309908,28.6263215 26.7397896,28.9295274 27.1444512,28.9295274 L27.1444512,28.9295274 L27.1444512,28.9295274 Z" id="path71" fill="#FFF200"></path>
                            <path d="M3.6992742,28.9639482 C3.62172852,28.9639482 3.55284168,28.6089176 3.66483084,28.6089176 C3.81126336,28.5398843 3.91459356,28.5483921 4.0525596,28.4099386 C4.19033316,28.2625901 4.1558898,27.9423661 3.98367276,27.8472282 C3.98367276,27.6824758 3.3377148,27.7433871 3.18262332,27.7433871 C2.87244036,27.6656519 2.3729148,27.5096015 2.60535972,27.050731 C2.7604512,26.9552048 3.35484024,26.6866125 3.35484024,26.3924944 C3.17396436,26.2109182 2.83799688,25.9423259 2.70022332,25.734645 C2.66577996,25.4747535 2.63999544,25.1976522 2.80374588,24.9725673 C2.88129168,24.9725673 3.05350872,24.7387817 3.11373648,24.8339208 C3.26882796,24.8339208 3.39794268,24.8687274 3.5701596,24.8687274 C3.69946668,25.128619 4.078344,25.7951704 4.4316294,25.6221031 C4.54361856,25.6221031 4.67273316,25.3535097 4.9140294,25.3535097 C5.3188836,25.3535097 5.49110064,25.734645 5.74086336,25.9771326 C5.95637508,26.0983763 5.75818128,26.340478 5.87863692,26.4617218 C5.61155628,26.4617218 5.0173596,26.5916664 5.0173596,26.8774696 C4.95713172,26.8861764 4.8364836,27.0161173 4.8106992,27.0161173 C4.64694876,27.1717819 4.8106992,26.946697 4.6298232,26.946697 C4.6298232,26.5659488 4.5349596,26.236637 4.6298232,25.838679 C4.49204964,25.414228 4.4316294,26.6699828 4.4316294,26.6699828 C4.560744,27.1027474 4.224969,26.6786776 4.1216388,26.5661418 C3.80298924,26.2024104 3.38947608,25.6741195 3.14817996,25.2498627 C2.8553148,25.4059132 4.08700296,26.8171383 4.3282992,27.0163103 C4.10432088,27.0681337 3.57901104,27.0853447 3.35503272,27.0163103 C3.32058936,27.1375541 3.28614588,27.154958 3.38947608,27.154958 C3.38947608,27.1719748 4.50917508,27.2932186 4.6298232,27.2932186 L4.6298232,27.5705128 C4.6298232,28.06419 4.87958592,27.5444082 4.87958592,27.9255435 C4.87958592,28.0988037 4.86226812,28.0988037 4.98291612,28.2631702 C4.64694876,28.2631702 4.77625572,28.4795519 4.94847276,28.4795519 C5.27578128,28.4795519 4.94847276,28.7568473 4.94847276,28.8262676 C5.2413378,28.8262676 5.03467752,28.981931 4.9140294,29.0600532 C5.00870064,29.4582054 4.4574138,29.2764362 4.2507534,29.2764362 C4.0868106,29.2758332 3.84551436,28.9639482 3.6992742,28.9639482 L3.6992742,28.9639482 L3.6992742,28.9639482 Z" id="path73" fill="#009E49"></path>
                            <path d="M25.2410208,28.9987548 C24.6726084,28.7131445 25.6374084,27.6824758 25.9300812,27.4747949 C25.9300812,27.6737739 25.6458756,28.8165985 25.551012,28.8949137 C25.551012,28.8949137 25.2410208,29.085192 25.2410208,28.9987548 L25.2410208,28.9987548 L25.2410208,28.9987548 Z" id="path75" fill="#FFF200"></path>
                            <path d="M29.0827104,28.0897158 C29.4960312,27.9771728 29.7115428,27.8646309 30.0388512,27.8124204 C30.0732948,27.9771728 28.4107752,29.48373 28.1783304,28.8256876 C28.1954556,28.7044438 27.9370344,28.4445523 28.4710032,28.2368713 C29.004972,28.0288033 28.8414144,28.158749 29.0827104,28.0897158 L29.0827104,28.0897158 L29.0827104,28.0897158 Z" id="path77" fill="#FFF200"></path>
                            <path d="M29.004972,27.5096015 C28.9703364,27.4314792 29.3322804,26.9726087 29.6253384,26.842663 C29.9180112,26.7127172 30.142182,26.643684 30.4177284,26.6001754 C30.6157296,26.6001754 30.8310492,26.5224402 31.003266,26.4615277 C30.5814792,27.050731 30.3142056,27.5183035 29.7113508,27.561425 C29.5733844,27.6308453 29.5131564,27.6565641 29.2807116,27.6391602 C29.0309496,27.6221433 29.0394156,27.5699328 29.004972,27.5096015 L29.004972,27.5096015 L29.004972,27.5096015 Z" id="path79" fill="#FFF200"></path>
                            <path d="M27.8594892,28.0201013 C28.1438868,28.0201013 28.3847988,28.0201013 28.6603464,27.9939966 C27.9541596,28.36643 27.549306,28.7995817 26.7567228,28.6435313 C26.71362,28.6348245 26.4898344,28.5309894 26.6535852,28.262396 C26.7744252,28.0897158 27.6614868,27.9771728 27.8594892,28.0201013 L27.8594892,28.0201013 L27.8594892,28.0201013 Z" id="path81" fill="#FFF200"></path>
                            <path d="M26.2058208,28.2973967 C26.033412,28.2973967 26.0680476,28.1848537 26.0680476,28.0201013 C26.0680476,27.5612308 26.5933572,27.0762557 26.8948812,26.7734356 C26.69688,27.1974994 26.5848912,27.6480551 26.5848912,28.1239424 C26.4469248,28.2625901 26.2489236,28.4099386 26.2489236,28.2972026 L26.2058208,28.2972026 L26.2058208,28.2974438 L26.2058208,28.2973967 Z" id="path83" fill="#FFF200"></path>
                            <path d="M29.5733844,26.4097042 C29.2976448,26.6957004 27.7817508,28.461955 27.308202,27.7431942 C27.308202,27.3533569 28.1781384,27.1630799 28.4192424,27.1108693 C28.70364,27.059433 29.2633944,26.7127172 29.5733844,26.4097042 L29.5733844,26.4097042 L29.5733844,26.4097042 Z" id="path85" fill="#FFF200"></path>
                            <path d="M29.6424636,26.2020233 C29.659782,25.621909 30.1764324,25.3533167 30.6588324,25.3533167 C30.9774816,25.3533167 31.2790056,25.0934252 31.5545532,24.9721814 C31.0979376,25.5524887 30.5295252,26.7044024 29.6424636,26.2020233 L29.6424636,26.2020233 L29.6424636,26.2020233 Z" id="path87" fill="#FFF200"></path>
                            <path d="M26.9982108,27.6737739 C26.4040152,27.3709538 27.9887952,25.820888 28.273002,25.517682 C28.33323,25.5784004 27.7992612,26.6347891 27.7648176,26.7473309 C27.6872712,26.9550119 27.4719528,27.5612308 27.0326544,27.6737739 L26.9982108,27.6737739 L26.9982108,27.6737739 L26.9982108,27.6737739 Z" id="path89" fill="#FFF200"></path>
                            <path d="M27.971478,27.050731 C27.6441696,26.5831586 28.3847988,26.1846206 28.5052548,26.0548677 C28.6174356,25.924922 29.12562,25.6563297 29.23761,25.4921574 C29.23761,25.5872953 28.9878468,26.0722717 28.9276188,26.1848135 C28.5656748,26.9209782 28.39365,26.9465041 28.0059216,27.050924 L27.971478,27.050924 L27.971478,27.0506828 L27.971478,27.050731 Z" id="path91" fill="#FFF200"></path>
                            <path d="M29.3753832,23.5522543 C29.3753832,23.889881 29.3667192,24.695466 29.2116324,25.0069881 C29.0911764,25.2668796 28.7983116,25.6393129 28.64322,25.4658586 C28.3761396,25.1543365 28.4708112,25.1108279 28.7292324,24.60845 C28.8929832,24.2710163 29.1687228,23.881179 29.3753832,23.5522543 L29.3753832,23.5522543 L29.3753832,23.5522543 Z" id="path93" fill="#FFF200"></path>
                            <path d="M30.6241968,25.0675135 C30.0990792,25.0675135 30.3744336,24.4355757 30.9341868,24.3487515 C31.2788136,24.2882261 31.5027924,24.201403 31.7698728,24.0285287 C31.537428,24.3922601 31.123914,25.0675135 30.6241968,25.0675135 L30.6241968,25.0675135 L30.6241968,25.0675135 Z" id="path95" fill="#FFF200"></path>
                            <path d="M1.01191966,21.7771048 C0.89127156,21.7771048 0.744839016,21.3700578 0.908397048,21.2921296 C1.05482959,21.1364651 1.7181054,20.9196963 1.35635352,20.5563508 C1.1065909,20.3138632 0.874146072,20.0887784 0.874146072,19.6902403 C0.874146072,19.309105 1.09812436,19.2052652 1.42543284,19.2052652 C1.57186536,19.326509 1.68385452,19.6293278 1.80450264,19.6902403 C2.03694744,19.9327279 2.00250396,19.5082782 2.11449312,20.0713756 C2.26939224,20.7033134 2.63133648,21.4998106 2.9844294,22.0455041 C2.90688372,22.3396222 2.80355352,22.0890127 2.80355352,21.9760838 C2.5795752,21.5866336 2.43314268,21.1364651 2.1489366,20.8071533 C2.01982188,20.5646657 1.83028704,20.339582 1.70097996,20.1057952 C1.68385452,20.114502 1.64075208,20.1406018 1.62343428,20.1406018 C1.79584368,20.5907716 2.11449312,20.9719056 2.32115352,21.3963566 C2.8895658,22.3572191 2.69156436,22.2446773 1.9765272,21.5259153 C1.89032244,21.7165794 2.45007576,22.0369963 2.49337056,22.1924667 C2.71734876,22.4092355 2.82067896,22.7729681 3.05331624,22.989351 C2.94132708,23.0931909 3.1653054,23.1192955 2.9844294,23.3008718 C2.7086898,23.578166 3.27729456,23.2747671 3.05331624,23.5085527 C3.0361908,23.5433594 2.24360784,23.6818129 2.73466668,23.6818129 C2.83799688,23.785654 2.99308836,23.7512345 2.87244036,23.9330025 C2.75179224,23.8030579 2.78642808,23.8030579 2.70003096,23.8981959 C2.53647288,24.0629482 2.60535972,24.1406834 2.60535972,24.2706292 C2.74313328,24.2706292 2.3038356,24.6774833 2.08851624,24.3483644 C1.993845,24.5303278 2.22628992,24.7294997 2.35540452,24.79892 C2.17452852,24.79892 2.12295972,24.5821512 2.04541392,24.5821512 C2.04541392,24.5647473 1.74408228,24.4957141 1.7007876,24.3831722 C1.5199116,24.2880331 1.30459224,23.6040778 1.4941272,23.4045187 C2.34674556,22.5561981 1.51144512,22.3140976 1.01191966,21.7771048 L1.01191966,21.7771048 L1.01191966,21.7771048 Z" id="path97" fill="#009E49"></path>
                            <path d="M30.1764324,22.4353414 C29.9006928,23.2057327 30.5984124,24.0370365 29.8318056,24.5133109 C28.884324,24.5135521 30.09042,22.6519172 30.1764324,22.4353414 L30.1764324,22.4353414 L30.1764324,22.4353414 Z" id="path99" fill="#FFF200"></path>
                            <path d="M31.5201096,22.9895439 C31.72677,22.8683001 31.9767252,22.6693212 32.1491352,22.4958668 C32.261124,22.7383544 31.41678,24.3400495 30.9690156,23.898583 C30.7623552,23.6822 30.9690156,23.5696582 30.9690156,23.5087457 C30.9774876,23.4223085 31.425246,23.0585772 31.5201096,22.9895439 L31.5201096,22.9895439 L31.5201096,22.9895439 Z" id="path101" fill="#FFF200"></path>
                            <polygon id="polygon103" fill="#D2AB67" points="0.245121079 22.2620805 0.245121079 22.1926601 0.391746043 22.0890131 0.391746043 22.1234332 0.460632837 22.1234332 0.495076234 22.1234332 0.563963027 22.1234332 0.598406424 22.1234332 0.658634264 22.1234332 0.727521058 22.1234332 0.805259227 22.1234332 0.942840394 22.15824 0.942840394 22.1926601 0.977283791 22.1926601 1.01191961 22.1926601 1.01191961 22.2272736 1.04636301 22.2272736 1.08061398 22.2620805 1.10659085 22.2620805 1.10659085 22.3311141 1.04636301 22.4007278 1.01191961 22.4610597 0.977283791 22.5393751 0.942840394 22.6084087 0.908396997 22.7122492 0.874146021 22.7470561 0.839510203 22.8160897 0.805259227 22.8508965 0.770623409 22.8508965 0.770623409 22.8508965 0.658634264 22.8160897 0.598406424 22.7470561 0.529519631 22.7122492 0.495076234 22.6084087 0.391746043 22.5393751 0.357110225 22.4610597 0.279756897 22.365921"></polygon>
                            <path d="M31.3652112,22.7470563 C30.6415152,22.4525511 31.7527476,21.1969905 32.0454192,20.5909645 C32.0454192,21.2230952 32.0454192,23.0154557 31.3652112,22.7470563 L31.3652112,22.7470563 L31.3652112,22.7470563 Z" id="path105" fill="#FFF200"></path>
                            <path d="M3.86283228,23.6560954 C3.86283228,23.6560954 3.53552376,23.898583 3.69908184,24.1758772 C3.86283228,24.4444706 3.93152664,24.3145249 4.18148184,24.4786972 C4.43971104,24.6519586 3.87995772,24.9462697 4.18148184,25.1974592 C4.49147244,25.4399468 4.52610816,24.8337267 4.68966624,24.9636724 C4.78452984,24.9895841 3.79394544,23.6822 3.86283228,23.6560954 L3.86283228,23.6560954 L3.86283228,23.6560954 Z" id="path107" fill="#009E49"></path>
                            <polygon id="polygon109" fill="#009E49" points="17.0929451 34.8002847 17.316731 34.6359189 17.316731 34.6359189 18.8412843 35.2591551 18.1608829 35.3716973"></polygon>
                            <polygon id="polygon111" fill="#FFF200" points="15.0515485 35.4929412 14.3711471 35.4324159 14.3711471 35.4324159 16.5674428 34.289204 16.7656367 34.4278513"></polygon>
                            <polygon id="polygon113" fill="#FFF200" points="15.4995051 34.3240108 13.8887471 35.2073316 13.604541 35.2073316 13.3461193 35.1812264 13.3461193 35.1812264 15.3013112 34.2979057"></polygon>
                            <polygon id="polygon115" fill="#009E49" points="18.3590767 34.2375738 18.281531 34.350116 18.281531 34.350116 19.6336748 34.9215286 19.9696423 34.7741795"></polygon>
                            <polygon id="polygon117" stroke="#000000" stroke-width="0.5" fill="#009E49" points="22.131687 33.9776826 21.6406281 33.6139509 21.6406281 33.6139509 25.6027732 33.2937278 25.2410214 34.0380145"></polygon>
                            <polygon id="polygon119" stroke="#000000" stroke-width="0.5" fill="#009E49" points="23.4926822 34.2979057 23.2771705 35.1812264 23.2771705 35.1812264 18.2382362 33.7264931 18.4795324 33.5014087"></polygon>
                            <path d="M11.5027241,33.6661609 C11.5027241,33.6661609 11.7182358,34.055611 11.7267024,34.1337333 C11.7353616,34.2027666 11.855817,34.6444273 12.2693292,34.4887627 C12.8206164,34.2806959 12.5104332,34.0037876 12.1400232,33.9169633 C11.5027241,33.7613 11.5027241,33.6661609 11.5027241,33.6661609" id="path121" stroke="#000000" stroke-width="0.21600001"></path>
                            <path d="M16.4957664,30.5099259 C24.8585712,30.5099259 31.68,23.6548822 31.68,15.2593115 C31.68,6.8550448 24.8587644,0 16.4957664,0 C8.14142796,0 1.32000012,6.8550448 1.32000012,15.2593115 C1.32000012,23.6548822 8.14123548,30.5099259 16.4957664,30.5099259 L16.4957664,30.5099259 L16.4957664,30.5099259 Z" id="path123" fill="#FFCB05"></path>
                            <path d="M30.5986044,22.3055886 C30.6072684,22.26208 30.9430392,21.5348102 30.8312424,21.9936807 C30.8312424,22.1926596 31.0896636,23.4832211 30.6417072,23.6388856 C30.2972736,23.7518145 30.3490344,23.1368924 30.4006032,22.9982459 C30.4606392,22.8073876 30.5468436,22.5132695 30.5986044,22.3055886 L30.5986044,22.3055886 L30.5986044,22.3055886 Z" id="path125" fill="#FFF200"></path>
                            <path d="M16.495776,29.4245926 C24.2654268,29.4245926 30.6,23.0501441 30.6,15.2593019 C30.6,7.45110107 24.2656176,1.08533333 16.495776,1.08533333 C8.74321452,1.08533333 2.40000012,7.45090824 2.40000012,15.2593019 C2.40000012,23.0501441 8.74302252,29.4245926 16.495776,29.4245926 L16.495776,29.4245926 L16.495776,29.4245926 Z" id="path127" fill="#00BCF2"></path>
                            <path d="M16.500096,27.3745185 C23.1415404,27.3745185 28.56,21.9206655 28.56,15.2550594 C28.56,8.58056092 23.1415404,3.13540741 16.500096,3.13540741 C9.8671206,3.13540741 4.44000024,8.58056092 4.44000024,15.2550594 C4.43980824,21.9206655 9.8671206,27.3745185 16.500096,27.3745185 L16.500096,27.3745185 L16.500096,27.3745185 Z" id="path129" fill="#E81123"></path>
                            <path d="M16.4957664,25.022963 C21.8530716,25.022963 26.22,20.6348289 26.22,15.2595045 C26.22,9.87548321 21.8532636,5.48696296 16.4957664,5.48696296 C11.1469288,5.48696296 6.78,9.87548321 6.78,15.2595045 C6.78,20.6348289 11.1469288,25.022963 16.4957664,25.022963 L16.4957664,25.022963 L16.4957664,25.022963 Z" id="path131" fill="#009E49"></path>
                            <polygon id="polygon133" fill="#FFCB05" points="13.4407905 8.09607552 6.57597138 5.2904493 9.43573543 12.2090861 2.56225731 15.1185527 9.34087177 17.9673008 6.59328928 24.8770425 13.4925518 22.0195927 16.4296692 29.492432 19.3667866 22.0195927 19.3667866 22.0195927 26.2660492 24.8770425 23.5184667 17.9673008 30.4521726 15.1185527 23.423603 12.2003843 26.2831746 5.2904493 19.4183555 8.09607552 16.4296692 1.17743876"></polygon>
                            <polygon id="polygon135" fill="#FFFFFF" points="16.4296692 2.52833165 13.7251891 8.78873202 7.55789682 6.26890878 10.1334547 12.494889 3.94037803 15.1185527 10.0299321 17.6729895 7.55789682 23.898583 13.7940759 21.3182345 16.4296692 28.0288036 16.4296692 28.0288036 19.0652626 21.3182345 25.3012492 23.898583 22.8294063 17.6729895 29.048075 15.1185527 22.7260761 12.494889 25.3012492 6.26890878 19.1343418 8.78873202"></polygon>
                            <path d="M17.928438,19.421841 C17.8422324,19.5778915 17.454696,20.0541659 17.2478436,20.0541659 C17.1014112,20.0541659 16.782762,20.0624868 16.7054088,19.9847455 C16.5158736,19.9847455 16.6709652,19.8547998 16.4298612,19.8547998 C15.7923696,20.322371 15.1119684,20.1146901 14.603784,19.5084711 C14.3798052,19.2833863 14.0180532,18.6684653 13.9922688,18.3569445 C13.9838088,18.2705074 13.5874152,16.9629291 13.5874152,16.7550552 C13.5787512,16.8329834 13.4927436,18.3221379 13.6907448,18.3221379 C12.4712388,16.9673211 13.2032736,14.4617616 14.060964,13.1440367 C13.9747584,14.3649836 13.9920768,15.5772298 14.2676244,16.7894748 C14.2676244,17.1098917 14.6896032,18.3828562 14.905116,18.3828562 C14.905116,18.4692934 15.215298,18.5215028 15.215298,18.2877171 C15.215298,18.0365276 15.1979808,17.9585994 15.1117764,17.7076028 C14.7099228,17.0079608 14.4241656,16.2057511 14.3711472,15.3956535 C14.2822164,14.0368451 14.552022,11.8194427 15.447936,10.7630545 C15.6459372,10.5033566 15.6717216,10.3215875 15.6201528,10.728441 C15.6201528,11.7415139 15.8525976,12.8756373 15.9903708,13.8627987 C16.1368032,14.6074724 16.3090212,14.6941025 16.4641116,15.3608469 C16.5158736,15.767701 16.5158736,16.2006597 16.4641116,16.6164075 C16.3865664,17.2744511 16.2316668,17.9673002 16.2316668,18.6253438 C16.360782,18.8935502 16.2316668,18.9629705 16.5676344,18.9629705 C16.9122612,18.9629705 17.0498424,17.8199517 16.972296,17.5343426 C16.972296,16.876299 16.9207272,15.863033 16.6365216,15.2914265 C16.5503172,15.1011495 16.360974,14.529543 16.300746,14.3390719 C16.2232008,14.0880765 16.180098,13.8627987 16.1627808,13.7589576 C15.9130176,12.5380106 15.7752444,10.6936341 16.300746,9.53340544 C16.352316,9.3862498 16.3781004,9.18688383 16.4643048,9.05713163 C16.4643048,9.3862498 16.3867584,9.74998154 16.5329988,10.0440995 C16.5329988,10.8320881 18.0662112,13.9494288 18.2126436,14.5641567 C18.2126436,14.5728635 18.3935196,15.0837456 18.4279632,15.2914265 C18.5141676,16.1921507 18.5486112,17.2137328 18.4279632,18.0796491 C18.3848604,18.4346797 18.1264392,19.0583026 17.928438,19.421841 L17.928438,19.421841 L17.928438,19.421841 Z" id="path137" fill="#E81123"></path>
                            <path d="M18.0144504,19.413332 C18.1695408,19.2489667 18.567072,18.3223164 18.6346236,17.8114439 C18.747948,16.9544068 18.8599068,16.0541518 18.7381464,15.2223933 C18.6405636,14.5557961 18.4039908,13.90052 18.1264392,13.2828773 C17.9121948,12.8061157 17.3684916,11.6289717 17.3769588,10.5205668 C17.5407084,10.6851258 17.632326,10.9465799 17.7215844,11.100681 C18.0887496,11.7345684 18.6230724,12.3404896 19.0048416,12.9709694 C19.3465764,13.5353319 19.8864756,14.4688584 19.9178808,15.1183593 C20.080182,16.8546575 19.3307952,18.3930837 18.0229164,19.5082782 L18.0144564,19.413332 L18.0144564,19.413332 L18.0144504,19.413332 Z" id="path139" fill="#E81123"></path>
                            <path d="M11.3995864,26.9637138 C11.6493491,26.9637138 11.8560095,27.1713948 11.8560095,27.4138824 C11.8560095,27.665459 11.6493491,27.8731399 11.3995864,27.8731399 C11.1496312,27.8731399 10.9516297,27.665459 10.9516297,27.4138824 C10.9516297,27.1715877 11.1496312,26.9637138 11.3995864,26.9637138 L11.3995864,26.9637138 L11.3995864,26.9637138 Z" id="path143" fill="#FFCB05"></path>
                            <path d="M21.1066584,27.1632729 C21.2788752,26.9813107 21.563082,26.9813107 21.743958,27.1632729 C21.9163668,27.3363401 21.9163668,27.6221433 21.743958,27.8039126 C21.563274,27.9771728 21.2788752,27.9771728 21.1066584,27.8039126 C20.9257824,27.6221433 20.9257824,27.3361472 21.1066584,27.1632729 L21.1066584,27.1632729 L21.1066584,27.1632729 Z" id="path147" fill="#FFCB05"></path>
                            <path d="M28.1092512,20.4004933 C28.1092512,20.1493038 28.3072524,19.9416228 28.5572076,19.9416228 C28.8069708,19.9416228 29.0136312,20.1493038 29.0136312,20.4004933 C29.0136312,20.6429809 28.8069708,20.8506619 28.5572076,20.8506619 C28.3072524,20.8506619 28.1092512,20.6429809 28.1092512,20.4004933 L28.1092512,20.4004933 L28.1092512,20.4004933 Z" id="path151" fill="#FFCB05"></path>
                            <path d="M28.2987864,10.6418105 C28.1263764,10.4685497 28.1263764,10.1827467 28.2987864,10.0009777 C28.4794704,9.82771685 28.763868,9.82771685 28.936278,10.0009777 C29.1169608,10.1827467 29.1169608,10.4685497 28.936278,10.6418105 C28.763868,10.8235798 28.4796624,10.8235798 28.2987864,10.6418105 L28.2987864,10.6418105 L28.2987864,10.6418105 Z" id="path155" fill="#FFCB05"></path>
                            <path d="M11.8711686,3.48821334 C11.6992006,3.66096584 11.4072775,3.66096584 11.2353096,3.48821334 C11.0548968,3.30697738 11.0548968,3.02201275 11.2353096,2.84926024 C11.4070855,2.66802428 11.6992006,2.66802428 11.8711686,2.84926024 C12.0429444,3.02201275 12.0429444,3.30678456 11.8711686,3.48821334 L11.8711686,3.48821334 L11.8711686,3.48821334 Z" id="path163" fill="#FFCB05"></path>
                            <path d="M4.87054212,10.1742385 C4.87054212,10.425428 4.66388184,10.6246005 4.4225856,10.6246005 C4.17282288,10.6246005 3.96597,10.425428 3.96597,10.1742385 C3.96597,9.92324234 4.17282288,9.71536797 4.4225856,9.71536797 C4.66388184,9.71536797 4.87054212,9.92304891 4.87054212,10.1742385 L4.87054212,10.1742385 L4.87054212,10.1742385 Z" id="path167" fill="#FFCB05"></path>
                            <path d="M4.6725408,19.9242201 C4.85341668,20.0972874 4.85341668,20.3917914 4.6725408,20.5648598 C4.5001314,20.746822 4.2159252,20.746822 4.03504932,20.5648598 C3.86283228,20.3917914 3.86283228,20.0972874 4.03504932,19.9242201 C4.2159252,19.7422567 4.5001314,19.7422567 4.6725408,19.9242201 L4.6725408,19.9242201 L4.6725408,19.9242201 Z" id="path171" fill="#FFCB05"></path>
                            <path d="M4.95674688,29.48373 L4.96540608,30.2198947 C4.96540608,30.2198947 4.05236736,30.2111879 4.03524192,29.9513024 C4.00926504,29.682709 4.48300608,29.5096417 4.95674712,29.48373 L4.95674712,29.48373 L4.95674688,29.48373 Z" id="path173" fill="#D2AB67"></path>
                            <path d="M7.1185992,33.6400562 L7.81631856,34.0298923 C7.81631856,34.0298923 7.42878216,34.7656711 7.17036048,34.679041 C6.92059776,34.5926038 6.95504112,34.0902247 7.1185992,33.6400562 L7.1185992,33.6400562 L7.1185992,33.6400562 Z" id="path175" fill="#D2AB67"></path>
                            <path d="M17.0583084,31.4317538 L16.5932268,30.8864461 C16.5932268,30.8864461 17.144514,30.392769 17.32539,30.5401187 C17.514732,30.6959762 17.334042,31.1028291 17.0583084,31.4317538 L17.0583084,31.4317538 L17.0583084,31.4317538 Z" id="path177" fill="#D2AB67"></path>
                            <path d="M13.1134812,33.8999477 L13.7336556,34.4019397 C13.7336556,34.4019397 13.2341292,35.0601763 13.0014924,34.9302305 C12.7603884,34.8089867 12.8808444,34.3153096 13.1134812,33.8999477 L13.1134812,33.8999477 L13.1134812,33.8999477 Z" id="path179" fill="#D2AB67"></path>
                            <path d="M23.7509112,32.3063733 C23.7509112,32.3063733 25.24968,32.0812884 25.9300812,31.7436617 M24.405528,31.5963132 C24.405528,31.5963132 26.033412,31.1635474 26.825802,30.6176609" id="path181" stroke="#000000" stroke-width="2.01600003"></path>
                            <path d="M26.46405,29.8039528 C26.46405,29.8039528 27.6528288,29.3193647 28.4452188,28.77367 M27.790602,28.877511 C27.790602,28.877511 28.6776636,28.3925347 29.4702468,27.8472282 M28.7380836,27.9941896 C28.7380836,27.9941896 29.5822356,27.6826688 30.3228648,26.9120833 M29.4529284,26.5483519 C29.547792,26.4702296 29.7802368,26.3923015 30.142182,25.8295899" id="path183" stroke="#000000" stroke-width="1.80000007"></path>
                            <path d="M28.1265696,25.5350859 C28.2212412,25.4573495 28.453878,25.3794214 28.81563,24.8163239 M28.2987864,25.5784004 C28.393458,25.5006652 28.6259028,25.42235 28.9878468,24.8596384 M28.4105832,25.6909422 C28.5052548,25.613207 28.7378916,25.5348918 29.0996436,24.9721814" id="path185" stroke="#000000" stroke-width="1.00800002"></path>
                            <path d="M26.8086768,30.2802272 C26.8086768,30.2802272 27.2306568,30.1589834 28.0232388,29.682709" id="path187" stroke="#000000" stroke-width="1.80000007"></path>
                            <g id="use3324" transform="translate(21.060000, 2.653037)" fill="#FFCB05">
                                <path d="M0.8311686,0.8351763 C0.65920056,1.00792881 0.36727752,1.00792881 0.1953096,0.8351763 C0.0148968,0.653940346 0.0148968,0.368975708 0.1953096,0.196223202 C0.36708552,0.0149872474 0.65920056,0.0149872474 0.8311686,0.196223202 C1.0029444,0.368975708 1.0029444,0.653747519 0.8311686,0.8351763 L0.8311686,0.8351763 L0.8311686,0.8351763 Z" id="path163"></path>
                            </g>
                        </g>
                    </g>
                </g>
            </g>
        </g>
    </g>
</svg>