<?xml version="1.0" encoding="UTF-8" standalone="no"?>
<svg width="74px" height="74px" viewBox="0 0 74 74" version="1.1" xmlns="http://www.w3.org/2000/svg" xmlns:xlink="http://www.w3.org/1999/xlink">
    <!-- Generator: Sketch 39.1 (31720) - http://www.bohemiancoding.com/sketch -->
    <title>Group</title>
    <desc>Created with Sketch.</desc>
    <defs></defs>
    <g id="Symbols" stroke="none" stroke-width="1" fill="none" fill-rule="evenodd">
        <g id="header-/-unregistered" transform="translate(-7.000000, -7.000000)" fill="#084379">
            <g transform="translate(0.000000, 7.000000)" id="Group">
                <g transform="translate(7.000000, 0.000000)">
                    <g id="logo">
                        <path d="M29.4730803,8.11647399 C32.1353579,5.47086705 34.8959219,2.91722543 37.3274403,0.0513294798 C39.9683514,2.69907514 42.6220824,5.33184971 45.2501735,7.99242775 C43.1135141,8.00739884 40.974718,7.98601156 38.8380586,8.00312139 C38.2013341,7.39144509 37.5881128,6.75624277 36.9599349,6.13601156 C34.6074729,8.85647399 32.015705,11.3523699 29.4794902,13.8974566 C28.2487744,15.2042197 26.902679,16.579422 26.4838937,18.3887861 C26.1612581,19.680578 26.5287636,20.9937572 26.889859,22.2342197 C25.5843601,20.0548555 24.4562039,17.5140462 24.9647289,14.9154913 C25.5373536,12.1586705 27.58,10.0648555 29.4730803,8.11647399 L29.4730803,8.11647399 Z" id="Shape"></path>
                        <path d="M41.4447831,12.3704046 C43.1541106,11.2154913 45.222397,10.7513873 47.2522234,10.603815 C45.1262473,11.0080347 43.0301844,11.9832948 41.6990456,13.7434682 C39.6863124,16.350578 39.0880477,19.7062428 38.6543059,22.8908092 C40.0153579,22.3989017 41.37641,21.9027168 42.7395987,21.4172254 C40.8123319,26.1480925 38.917115,30.8917919 36.9577983,35.6076879 C35.0091649,30.8875145 33.1054013,26.1480925 31.1781345,21.4172254 C32.7656725,21.9818497 34.3403905,22.5721387 35.9300651,23.1260694 C36.3979935,20.7863006 36.9877115,18.4422543 38.0859544,16.3099422 C38.8765184,14.7615029 39.9854447,13.3392486 41.4447831,12.3704046 L41.4447831,12.3704046 Z" id="Shape"></path>
                        <path d="M11.0892625,10.6187861 C14.8262798,10.6166474 18.5632972,10.6080925 22.3003145,10.6230636 C20.7875597,12.1458382 19.2662581,13.6621965 17.7492299,15.1806936 C16.8838829,15.1828324 16.0185358,15.1785549 15.1531887,15.1849711 C15.3839479,18.6710983 15.3668547,22.1636416 15.3497614,25.6540462 C15.3882213,27.6024277 15.3668547,29.7219075 16.4907375,31.4072254 C17.1872885,32.465896 18.3111714,33.1117919 19.4030043,33.6892486 C17.2684816,33.1567052 15.0677223,32.3653757 13.5293275,30.7185549 C12.0956291,29.1893642 11.5614642,27.0634682 11.3819848,25.0295376 C11.029436,20.2323699 11.5892408,15.4095376 11.0892625,10.6187861 L11.0892625,10.6187861 Z" id="Shape"></path>
                        <path d="M51.9250976,11.2989017 C55.7262148,11.2860694 59.5358785,11.4593064 63.3305857,11.1363584 C63.3391323,14.870578 63.341269,18.602659 63.328449,22.3368786 C61.7964642,20.8312139 60.285846,19.3041618 58.7730911,17.7813873 C58.7795011,16.9152023 58.7773644,16.0468786 58.7752278,15.1806936 C55.9954338,15.3774566 53.2092299,15.413815 50.423026,15.390289 C48.5149892,15.4095376 46.5813124,15.2876301 44.6967787,15.6640462 C43.5985358,15.8821965 42.5344794,16.3805202 41.758872,17.2017919 C41.1584707,17.8091908 40.7781453,18.5834104 40.3294469,19.2998844 C40.9170282,16.8253757 41.9896312,14.2204046 44.2288503,12.8109827 C46.5150759,11.3887283 49.3140998,11.3245665 51.9250976,11.2989017 L51.9250976,11.2989017 Z" id="Shape"></path>
                        <path d="M22.5652603,18.5919653 C22.3900542,15.8522543 23.6656399,13.2408671 25.4326573,11.2219075 C24.3493709,12.9649711 23.5908568,15.0053179 23.8622126,17.0884393 C24.2553579,20.3949133 26.199718,23.2415607 28.1846746,25.8123121 C28.8449024,24.4157225 29.4901735,23.0127168 30.152538,21.6161272 C32.116128,26.4304046 34.073308,31.2489595 36.0176681,36.0696532 C31.2016377,34.1212717 26.3834707,32.1750289 21.5802603,30.1924277 C23.1977115,29.4395954 24.8151627,28.6846243 26.4240672,27.9168208 C24.5480803,25.1172254 22.7853362,22.0310405 22.5652603,18.5919653 L22.5652603,18.5919653 Z" id="Shape"></path>
                        <path d="M43.7737419,21.6289595 C44.5301193,23.2436994 45.2822234,24.860578 46.0471475,26.4710405 C48.8995879,24.5632948 52.0532972,22.7389595 55.5702386,22.6084971 C58.2325163,22.4865896 60.7516377,23.7527168 62.7173644,25.4679769 C61.0251302,24.4328324 59.0764967,23.6735838 57.0594902,23.8874566 C53.6750217,24.2125434 50.7670282,26.2165318 48.1410738,28.2312139 C49.4529826,28.8407514 50.7584816,29.4631214 52.0725271,30.0705202 C47.3547831,32.0659538 42.643449,34.0742197 37.9107484,36.0354335 C39.8636551,31.2318497 41.7909219,26.4175723 43.7737419,21.6289595 Z" id="Shape"></path>
                        <path d="M51.7627115,26.9201734 C53.7839913,25.6989595 56.1022668,24.6531214 58.523102,24.9268786 C60.8136009,25.2027746 62.732321,26.6421387 64.3925054,28.1478035 C67.6145879,31.1676879 70.5097614,34.5319075 73.8899566,37.3849711 C71.2426356,40.0241618 68.6124078,42.6783237 65.9586768,45.313237 C65.9437202,43.1745087 65.9629501,41.0357803 65.9501302,38.897052 C66.5590781,38.259711 67.1958026,37.6501734 67.8090239,37.0149711 C65.123243,34.685896 62.657538,32.1236994 60.1448265,29.6128324 C58.8030043,28.3509827 57.4077657,26.9543931 55.5531453,26.5245087 C54.2796963,26.2122543 52.9870174,26.569422 51.7627115,26.9201734 L51.7627115,26.9201734 Z" id="Shape"></path>
                        <path d="M12.2686985,32.4209827 C11.1960954,30.7591908 10.7153471,28.7765896 10.5935575,26.8196532 C11.0059328,28.9519653 12.0293926,31.0436416 13.8113666,32.3504046 C16.4074078,34.2902312 19.7,34.9040462 22.8451627,35.3039884 C22.3580043,33.9480347 21.864436,32.5942197 21.3794143,31.2382659 C26.1249349,33.1524277 30.8619089,35.0815607 35.5967462,37.023526 C30.8319957,39.0553179 26.0544252,41.0593064 21.281128,43.069711 C21.8729826,41.3908092 22.4862039,39.7204624 23.0908785,38.0458382 C20.6593601,37.5560694 18.2171584,36.9379769 16.0206725,35.7509827 C14.5378308,34.9510983 13.187462,33.8496532 12.2686985,32.4209827 L12.2686985,32.4209827 Z" id="Shape"></path>
                        <path d="M0.0299132321,36.63 C2.68150759,34.0057803 5.2989154,31.3452023 7.95264642,28.7231214 C7.95478308,30.859711 7.94196312,32.9963006 7.9590564,35.1328902 C7.35438178,35.7723699 6.71979393,36.3819075 6.10229935,37.0106936 C8.90559653,39.4317341 11.4653145,42.1115607 14.0934056,44.7165318 C15.3860846,45.9377457 16.7984165,47.2380925 18.614577,47.5482081 C19.8217896,47.777052 21.0247289,47.4220231 22.1763883,47.0947977 C20.1380152,48.3160116 17.8133297,49.3768208 15.377538,49.0945087 C12.9802061,48.8036416 11.0059328,47.2466474 9.28805857,45.659711 C6.17067245,42.6826012 3.31182213,39.4360116 0.0299132321,36.63 L0.0299132321,36.63 Z" id="Shape"></path>
                        <path d="M39.6136659,36.4439306 C43.9596312,34.6174566 48.2970499,32.7738728 52.6408785,30.9516763 C52.0426139,32.6284393 51.4336659,34.3030636 50.8289913,35.9776879 C53.7070716,36.5636994 56.6385683,37.3250867 59.0914534,39.0104046 C61.8370607,40.7962428 63.2387093,44.0920231 63.3134924,47.2915607 C62.9652169,45.0501734 61.8242408,42.8921965 59.9546638,41.5640462 C57.3778525,39.7033526 54.1557701,39.1301734 51.0747072,38.7067052 C51.5533189,40.0733526 52.0575705,41.4314451 52.5404555,42.7980925 C47.8248482,40.8775145 43.1049675,38.9719075 38.3979067,37.0320809 C38.7654121,36.7668786 39.1970174,36.6150289 39.6136659,36.4439306 L39.6136659,36.4439306 Z" id="Shape"></path>
                        <path d="M21.8409328,43.9465896 C26.5672234,41.9661272 31.2742842,39.9386127 36.0133948,37.9880925 C34.0562148,42.7916763 32.1204013,47.6059538 30.1504013,52.4052601 C29.3812039,50.792659 28.6483297,49.162948 27.8663124,47.556763 C25.0758351,49.4281503 22.0033189,51.1883237 18.5782538,51.4150289 C15.8390564,51.5989595 13.2195119,50.3285549 11.2003688,48.5576879 C12.9438829,49.6356069 14.982256,50.3927168 17.0633623,50.1189595 C20.3602278,49.7211561 23.1977115,47.777052 25.7659761,45.7965896 C24.4604772,45.1699422 23.144295,44.5689595 21.8409328,43.9465896 L21.8409328,43.9465896 Z" id="Shape"></path>
                        <path d="M37.932115,37.9624277 C42.737462,39.9150867 47.5428091,41.8634682 52.3438829,43.8268208 C50.724295,44.5839306 49.1047072,45.336763 47.4915293,46.1088439 C49.3952928,48.9597688 51.21359,52.1101156 51.3567462,55.6240462 C51.4828091,58.3017341 50.2029501,60.8211561 48.4957592,62.8037572 C49.5256291,61.0991908 50.2926898,59.1443931 50.0726139,57.1168786 C49.745705,53.7334104 47.7415184,50.8332948 45.7351952,48.2069364 C45.1198373,49.5179769 44.5087527,50.8290173 43.8933948,52.1379191 C41.8998915,47.4156069 39.895705,42.6975723 37.932115,37.9624277 L37.932115,37.9624277 Z" id="Shape"></path>
                        <path d="M36.9214751,38.5120809 C36.9492516,38.5142197 37.0048048,38.5142197 37.0325813,38.5163584 C39.0367679,43.2408092 41.0259978,47.973815 43.0152278,52.7046821 C41.3379501,52.1079769 39.6649458,51.4963006 37.9919414,50.8931792 C37.5218764,53.2265318 36.9364317,55.5663006 35.842462,57.6943353 C35.0348048,59.2812717 33.8938286,60.7356069 32.3874837,61.7108671 C30.6973861,62.8230058 28.6696963,63.2721387 26.6783297,63.4218497 C28.7978959,63.0112139 30.8896855,62.0380925 32.2186876,60.2800578 C34.2314208,57.6750867 34.8339588,54.319422 35.2634273,51.1369942 C33.9023753,51.6139306 32.5498698,52.1208092 31.1888178,52.5977457 C33.088308,47.8989595 34.9835249,43.195896 36.9214751,38.5120809 L36.9214751,38.5120809 Z" id="Shape"></path>
                        <path d="M54.6301085,40.3642197 C56.627885,40.8753757 58.6683948,41.6110983 60.172603,43.0846821 C61.2046095,44.0920231 61.8562907,45.4351445 62.1853362,46.8295954 C62.657538,48.7908092 62.6532646,50.8247399 62.657538,52.8308671 C62.631898,56.3576301 62.5229284,59.8908092 62.8135141,63.4111561 C59.0807701,63.4239884 55.348026,63.4239884 51.615282,63.4111561 C53.1301735,61.8755491 54.657885,60.3527746 56.1877332,58.8321387 C57.0466703,58.8385549 57.9034707,58.8364162 58.7624078,58.8364162 C58.6192516,56.4068208 58.5380586,53.9750867 58.5658351,51.5433526 C58.5444685,49.6056647 58.6491649,47.659422 58.4440456,45.730289 C58.3072993,44.4342197 57.9291106,43.1060694 57.042397,42.1179769 C56.3864425,41.3480347 55.4698156,40.8924855 54.6301085,40.3642197 L54.6301085,40.3642197 Z" id="Shape"></path>
                        <path d="M10.5807375,51.6780925 C12.1127223,53.1923121 13.6297505,54.7215029 15.1510521,56.2464162 L15.1510521,58.8342775 C17.6466703,58.6867052 20.1465618,58.609711 22.6464534,58.633237 C24.3643275,58.6310983 26.0843384,58.6824277 27.8000759,58.5605202 C29.1931779,58.4493064 30.648243,58.1306358 31.7422126,57.2067052 C32.5861931,56.5308671 33.0861714,55.5534682 33.6288829,54.6445087 C33.0861714,56.7490173 32.310564,58.9176879 30.6888395,60.4404624 C29.3534273,61.7023121 27.5372668,62.286185 25.7510195,62.5214451 C22.7361931,62.9 19.69359,62.6711561 16.6659436,62.679711 C14.6339805,62.6647399 12.597744,62.7203468 10.5743275,62.9021387 C10.5743275,59.1593642 10.5593709,55.4187283 10.5807375,51.6780925 L10.5807375,51.6780925 Z" id="Shape"></path>
                        <path d="M47.0406941,51.8256647 C48.1538937,53.6820809 49.1282104,55.7545087 49.0769306,57.9702312 C49.0470174,59.9186127 48.0791106,61.7087283 46.8932646,63.2015607 C45.1625705,65.3680925 43.0814642,67.213815 41.1221475,69.166474 C39.5410195,70.7020809 38.0346746,72.3104046 36.5860195,73.9700578 C33.9493818,71.3244509 31.2999241,68.693815 28.671833,66.0396532 C30.8063557,66.0375145 32.9408785,66.0482081 35.077538,66.033237 C35.7185358,66.6384971 36.3232104,67.2801156 36.9599349,67.8896532 C39.2803471,65.1948555 41.8443384,62.7289017 44.3527766,60.2116185 C45.5706725,58.9262428 46.8932646,57.5916763 47.3846963,55.8400578 C47.7778416,54.5033526 47.4252928,53.1174566 47.0406941,51.8256647 L47.0406941,51.8256647 Z" id="Shape"></path>
                    </g>
                </g>
            </g>
        </g>
    </g>
</svg>