<?xml version="1.0" encoding="UTF-8" standalone="no"?>
<svg width="101px" height="30px" viewBox="0 0 101 30" version="1.1" xmlns="http://www.w3.org/2000/svg" xmlns:xlink="http://www.w3.org/1999/xlink">
    <!-- Generator: Sketch 39.1 (31720) - http://www.bohemiancoding.com/sketch -->
    <title>Playstore</title>
    <desc>Created with Sketch.</desc>
    <defs>
        <rect id="path-1" x="0" y="0" width="100.992366" height="29.1358578" rx="3.36"></rect>
        <mask id="mask-2" maskContentUnits="userSpaceOnUse" maskUnits="objectBoundingBox" x="0" y="0" width="100.992366" height="29.1358578" fill="white">
            <use xlink:href="#path-1"></use>
        </mask>
        <linearGradient x1="50%" y1="0%" x2="50%" y2="38.9125982%" id="linearGradient-3">
            <stop stop-color="#FBDA09" offset="0%"></stop>
            <stop stop-color="#FFBC00" offset="100%"></stop>
        </linearGradient>
        <path d="M7.55308501,2.71537873 C8.14136403,1.70510575 9.09263763,1.70076275 9.68346273,2.71537873 L17.9637694,16.9350378 C18.5520655,17.9453108 18.080229,18.7642989 16.9179508,18.7642989 L0.318868358,18.7642989 C-0.847017424,18.7642989 -1.31778914,17.9496538 -0.7269812,16.9350378 L7.55308501,2.71537873 Z" id="path-4"></path>
        <linearGradient x1="0%" y1="58.4755255%" x2="69.3064856%" y2="39.0830098%" id="linearGradient-6">
            <stop stop-color="#01E2FF" offset="0%"></stop>
            <stop stop-color="#01C4FF" offset="100%"></stop>
        </linearGradient>
        <linearGradient x1="20.2810876%" y1="20.1019903%" x2="83.820166%" y2="83.6214476%" id="linearGradient-7">
            <stop stop-color="#28D781" offset="0%"></stop>
            <stop stop-color="#02F076" offset="100%"></stop>
        </linearGradient>
        <linearGradient x1="74.4881466%" y1="17.4301299%" x2="10.1079427%" y2="91.1838038%" id="linearGradient-8">
            <stop stop-color="#F2414E" offset="0%"></stop>
            <stop stop-color="#E02554" offset="100%"></stop>
        </linearGradient>
    </defs>
    <g id="Symbols" stroke="none" stroke-width="1" fill="none" fill-rule="evenodd">
        <g id="footer" transform="translate(-29.000000, -92.000000)">
            <g id="Group-23">
                <g transform="translate(29.000000, 92.000000)">
                    <g id="Playstore" transform="translate(0.000000, 0.810811)">
                        <use id="background" stroke="#94A0AF" mask="url(#mask-2)" stroke-width="1.6" xlink:href="#path-1"></use>
                        <g id="Group-22" transform="translate(30.425954, 4.791155)" fill="#94A0AF">
                            <path d="M23.0925291,4.89434889 C24.4428691,4.89434889 25.537536,3.82511247 25.537536,2.50614251 C25.537536,1.18717254 24.4428691,0.117936118 23.0925291,0.117936118 C21.7421891,0.117936118 20.6475223,1.18717254 20.6475223,2.50614251 C20.6475223,3.82511247 21.7421891,4.89434889 23.0925291,4.89434889 Z M23.0925291,4.16461916 C24.0302653,4.16461916 24.7904506,3.42209387 24.7904506,2.50614251 C24.7904506,1.59019114 24.0302653,0.847665848 23.0925291,0.847665848 C22.154793,0.847665848 21.3946077,1.59019114 21.3946077,2.50614251 C21.3946077,3.42209387 22.154793,4.16461916 23.0925291,4.16461916 Z" id="o"></path>
                            <path d="M6.52081603,2.77149877 L6.52081603,4.23095823 L8.49040488,4.23095823 L8.49040488,4.76167076 L5.7737306,4.76167076 L5.7737306,4.23095823 L6.52081603,4.23095823 L6.52081603,4.76167076 L5.7737306,4.76167076 L5.7737306,0.615479115 L5.7737306,0.316953317 L8.49040488,0.316953317 L8.49040488,0.847665848 L6.52081603,0.847665848 L6.52081603,2.24078624 L8.28665431,2.24078624 L8.28665431,2.77149877 L6.52081603,2.77149877 Z" id="e"></path>
                            <path d="M11.1391623,0.847665848 L11.1391623,4.76167076 L10.3920769,4.76167076 L10.3920769,0.847665848 L9.23749031,0.847665848 L9.23749031,0.316953317 L12.2937489,0.316953317 L12.2937489,0.847665848 L11.1391623,0.847665848 Z" id="t"></path>
                            <path d="M17.7950143,0.847665848 L17.7950143,4.76167076 L17.0479289,4.76167076 L17.0479289,0.847665848 L15.8933423,0.847665848 L15.8933423,0.316953317 L18.9496009,0.316953317 L18.9496009,0.847665848 L17.7950143,0.847665848 Z" id="t"></path>
                            <rect id="i" x="14.4670883" y="0.316953317" width="0.747085427" height="4.44471744"></rect>
                            <path d="M26.8958731,1.292623 L26.8958731,0.316953317 L26.1487877,0.316953317 L26.1487877,4.76167076 L26.8958731,4.76167076 L26.8958731,1.292623 L29.0692126,4.76167076 L29.4427553,4.76167076 L29.816298,4.76167076 L29.816298,0.316953317 L29.0692126,0.316953317 L29.0692126,3.56918559 L27.0317069,0.316953317 L26.2846214,0.316953317 L26.8958731,1.292623 Z" id="n"></path>
                            <polygon id="Rectangle-1" points="2.97441929 2.31841033 5.01991057 2.31841033 4.99965818 2.95074667 2.97441929 2.95074667"></polygon>
                            <path d="M5.19072792,2.31841033 C5.19079571,2.3262292 5.19082966,2.33406396 5.19082966,2.34191453 C5.41558371,3.95216458 4.29161568,4.87936479 2.9440407,4.8675162 C1.61860934,4.86566186 0.54413261,3.81913699 0.54413261,2.52589569 C0.54413261,1.2326544 1.61860806,0.184275184 2.9440407,0.184275184 C3.63685076,0.184275184 4.21925894,0.42044632 4.61739062,0.830585443 L4.14932494,1.28728302 C3.85737832,0.99603638 3.44272706,0.836372035 2.96429309,0.836372035 C2.00796827,0.836372035 1.23271383,1.59279754 1.23271383,2.52589569 C1.23271383,3.45899384 2.00796827,4.21541935 2.96429309,4.21541935 C3.92061791,4.21541935 4.59959439,3.67598057 4.59817039,2.52589569 C4.59978784,2.4548212 4.59809152,2.38563633 4.59322675,2.31841033 L5.19072792,2.31841033 Z" id="Oval-1"></path>
                            <path d="M42.9242514,8.27764151 L46.7746545,8.27764128 C46.7746545,8.27764128 48.9912255,8.64600449 48.9912253,11.1321979 C48.9912252,13.6183914 46.7746545,13.9867546 46.7746545,13.9867546 L42.9242514,13.9867548 L42.9242514,8.27764151 Z M43.6713368,9.65861583 L46.2851786,9.65861583 C46.2851786,9.65861583 47.4746808,9.65861583 47.4746808,11.1904873 C47.4746808,12.7223587 46.2851786,12.7223587 46.2851786,12.7223587 L43.6713368,12.7223587 L43.6713368,9.65861583 Z" id="Combined-Shape"></path>
                            <rect id="Rectangle-6" x="42.5846671" y="8.27764128" width="1.35833714" height="9.28746929"></rect>
                            <rect id="y" x="49.783854" y="8.27764128" width="1.35833714" height="9.28746929"></rect>
                            <path d="M56.1767332,16.9010653 L56.1767332,17.5621305 L57.5350703,17.5621305 L57.5350703,13.5307793 C57.5351641,13.5282039 57.5352113,13.5256119 57.5352113,13.5230029 C57.5352113,12.9870105 57.1330679,11.3955774 54.7709073,11.3955774 C52.8711526,11.3955774 52.2380197,12.6704665 52.2380197,12.6704665 L53.3694589,13.3236213 C53.3694589,13.3236213 53.6425914,12.6704665 54.8794151,12.6704665 C55.7796753,12.6704665 56.0799664,13.3345208 56.1767332,13.6959246 L56.1767332,13.9688068 C55.7821333,13.7814759 54.9282943,13.4864397 53.709209,13.6635118 C51.9875763,13.913579 52.0943265,15.4867673 52.0943265,15.616854 C52.0943265,15.7469406 52.0954541,17.6760213 54.2597401,17.5439909 C55.2044529,17.4863595 55.8025992,17.2025821 56.1767332,16.9010653 Z M56.0796996,14.9117423 C56.0796996,14.9117423 53.4628445,14.2227943 53.3718797,15.658737 C53.2809149,17.0946797 55.8823826,16.4051811 56.1148187,15.3872586 C56.1148187,15.0635641 56.0796996,14.9117423 56.0796996,14.9117423 Z" id="a"></path>
                            <path d="M60.0838974,17.2127453 L58.8167959,20.1523342 L60.1751331,20.1523342 L63.8500718,11.6267276 L62.4917346,11.6267276 L60.763066,15.6371207 L59.0205465,11.5945946 L57.6622094,11.5945946 L60.0838974,17.2127453 Z" id="y"></path>
                            <path d="M39.5437134,13.7655841 C39.5437134,13.7655841 38.9481528,11.3955774 36.6708322,11.3955774 C34.3935116,11.3955774 33.619642,13.3987239 33.619642,14.5817195 C33.619642,15.809563 34.5946047,17.7002022 36.8081963,17.7002022 C38.6095307,17.7002022 39.489065,16.3107728 39.489065,16.3107728 L38.3991095,15.5897708 C38.3991095,15.5897708 37.8281731,16.4704337 36.8167815,16.4653997 C35.5251551,16.4589709 35.2477029,15.4997863 35.2477029,15.4997863 L39.5437134,13.7655841 Z M37.9091723,13.2743099 C37.9091723,13.2743099 37.3686745,12.4710602 36.5397421,12.6191972 C34.786287,12.932554 35.0069444,14.4313565 35.0069444,14.4313565 L37.9091723,13.2743099 Z" id="e"></path>
                            <rect id="i" x="31.5821363" y="8.27764128" width="1.43703908" height="9.2679578"></rect>
                            <path d="M29.2824644,11.5970002 L29.2824644,12.1753739 C29.2824644,12.1753739 28.7049826,11.363563 27.5035424,11.3965565 C26.0035999,11.4377474 24.4508663,12.5701358 24.4508663,14.5498746 C24.4508663,16.5296133 26.0998538,17.6908855 27.4874864,17.6908836 C28.7673493,17.6908819 29.2826295,16.9031474 29.2826295,16.9031474 L29.2826295,17.5377689 C29.2826295,17.9907648 29.1087782,19.3141422 27.6195672,19.3141439 C26.3118434,19.3141454 25.9397471,18.1706131 25.9397471,18.1706131 L24.7197333,18.6717827 C24.7197333,18.6717827 25.4121668,20.5272649 27.5561684,20.5272649 C29.7001699,20.5272649 30.610867,18.950103 30.610867,17.4560069 L30.610867,11.6082096 L29.2824644,11.5970002 Z M27.6009108,16.5025416 C28.5696364,16.5025416 29.3549438,15.6357767 29.3549438,14.5665682 C29.3549438,13.4973596 28.5696364,12.6305947 27.6009108,12.6305947 C26.6321851,12.6305947 25.8468778,13.4973596 25.8468778,14.5665682 C25.8468778,15.6357767 26.6321851,16.5025416 27.6009108,16.5025416 Z" id="g"></path>
                            <path d="M20.6208511,17.6977887 C22.4065743,17.6977887 23.854189,16.2869906 23.854189,14.546683 C23.854189,12.8063755 22.4065743,11.3955774 20.6208511,11.3955774 C18.8351279,11.3955774 17.3875132,12.8063755 17.3875132,14.546683 C17.3875132,16.2869906 18.8351279,17.6977887 20.6208511,17.6977887 Z M20.5997182,16.462061 C21.603458,16.462061 22.4171499,15.6045171 22.4171499,14.546683 C22.4171499,13.488849 21.603458,12.6313051 20.5997182,12.6313051 C19.5959783,12.6313051 18.7822864,13.488849 18.7822864,14.546683 C18.7822864,15.6045171 19.5959783,16.462061 20.5997182,16.462061 Z" id="o"></path>
                            <path d="M13.6254148,17.6977887 C15.411138,17.6977887 16.8587527,16.2869906 16.8587527,14.546683 C16.8587527,12.8063755 15.411138,11.3955774 13.6254148,11.3955774 C11.8396916,11.3955774 10.3920769,12.8063755 10.3920769,14.546683 C10.3920769,16.2869906 11.8396916,17.6977887 13.6254148,17.6977887 Z M13.6042819,16.462061 C14.6080217,16.462061 15.4217137,15.6045171 15.4217137,14.546683 C15.4217137,13.488849 14.6080217,12.6313051 13.6042819,12.6313051 C12.600542,12.6313051 11.7868501,13.488849 11.7868501,14.546683 C11.7868501,15.6045171 12.600542,16.462061 13.6042819,16.462061 Z" id="o"></path>
                            <polygon id="Rectangle-1" points="5.27645095 12.3945657 9.54530233 12.3945657 9.50303648 13.7126752 5.27645095 13.7126752"></polygon>
                            <path d="M9.90179071,12.3945657 C9.90193218,12.4108642 9.90200304,12.4271958 9.90200304,12.4435604 C10.371055,15.8001379 8.02538255,17.7328933 5.21305217,17.7081948 C2.44693454,17.7043294 0.204548325,15.522841 0.204548325,12.8270704 C0.204548325,10.1312998 2.44693188,7.94594595 5.21305217,7.94594595 C6.65891663,7.94594595 7.87437718,8.43824634 8.7052607,9.29318423 L7.72842797,10.2451735 C7.11914807,9.63806787 6.25378892,9.30524642 5.25531803,9.30524642 C3.25950971,9.30524642 1.6415874,10.8820207 1.6415874,12.8270704 C1.6415874,14.7721201 3.25950971,16.3488943 5.25531803,16.3488943 C7.25112634,16.3488943 8.66812073,15.2244304 8.66514892,12.8270704 C8.66852445,12.6789151 8.66498432,12.5346988 8.65483174,12.3945657 L9.90179071,12.3945657 Z" id="Oval-1"></path>
                        </g>
                        <g id="logo_play" transform="translate(7.402937, 4.174447)">
                            <mask id="mask-5" fill="white">
                                <use xlink:href="#path-4"></use>
                            </mask>
                            <use id="yellow" fill="url(#linearGradient-3)" transform="translate(8.617518, 10.360172) rotate(-270.000000) translate(-8.617518, -10.360172) " xlink:href="#path-4"></use>
                            <polygon id="blue" fill="url(#linearGradient-6)" mask="url(#mask-5)" points="4.4408921e-16 0.993458231 9.49388311 10.2102997 -0.122627659 19.791436"></polygon>
                            <polygon id="green" fill="url(#linearGradient-7)" mask="url(#mask-5)" points="-1.95229521 -0.903961437 9.4927564 10.2129957 12.8955036 7.04224365"></polygon>
                            <polygon id="red" fill="url(#linearGradient-8)" mask="url(#mask-5)" points="9.49431545 10.2108747 14.7035803 15.3395897 -0.85860323 20.4683047"></polygon>
                        </g>
                    </g>
                </g>
            </g>
        </g>
    </g>
</svg>