<?xml version="1.0" encoding="UTF-8" standalone="no"?>
<svg width="8px" height="14px" viewBox="0 0 8 14" version="1.1" xmlns="http://www.w3.org/2000/svg" xmlns:xlink="http://www.w3.org/1999/xlink">
    <!-- Generator: Sketch 39.1 (31720) - http://www.bohemiancoding.com/sketch -->
    <title>Shape</title>
    <desc>Created with Sketch.</desc>
    <defs></defs>
    <g id="Symbols" stroke="none" stroke-width="1" fill="none" fill-rule="evenodd">
        <g id="header-/-unregistered" transform="translate(-936.000000, -40.000000)" fill="#00427A">
            <g id="right">
                <g transform="translate(841.000000, 35.000000)">
                    <g id="help" transform="translate(95.000000, 1.000000)">
                        <path d="M5,16.5 C5,16.2956989 4.96208234,16.1021505 4.88648548,15.9194339 C4.81080914,15.7365855 4.70264708,15.5780361 4.56215829,15.4435484 C4.42161651,15.3091398 4.25945292,15.2016129 4.07566751,15.1210468 C3.8918821,15.0403226 3.69731229,15 3.49190507,15 C3.28649785,15 3.09190154,15.0403226 2.90811613,15.1210468 C2.72433072,15.201692 2.56486985,15.3092188 2.42973353,15.4435484 C2.2945972,15.5780361 2.18919086,15.7365591 2.11351452,15.9194339 C2.03783817,16.1022296 2,16.2956989 2,16.5 C2,16.7043274 2.03783817,16.8979285 2.11351452,17.0806452 C2.18919086,17.2634936 2.2945972,17.422043 2.42973353,17.556478 C2.56486985,17.6909393 2.72433072,17.7984662 2.90811613,17.8790323 C3.09190154,17.9597565 3.28649785,18 3.49190507,18 C3.69731229,18 3.8919086,17.9597565 4.07566751,17.8790323 C4.25950591,17.7983871 4.42169601,17.6908602 4.56215829,17.556478 C4.70270008,17.422043 4.81080914,17.2635199 4.88648548,17.0806452 C4.96213533,16.8978495 5,16.7043011 5,16.5 L5,16.5 Z M3.80651816,15 L3.68627355,15 C3.36562124,14.9573048 3.10258614,14.8025346 2.89716826,14.5356894 C2.69175037,14.2689227 2.60407201,13.9646407 2.63413316,13.6230789 C2.69425547,13.0360718 2.83203576,12.4676393 3.04747403,11.9179382 C3.2629123,11.368211 3.54097797,10.8798844 3.88167105,10.4529321 C3.99189528,10.3034988 4.11211533,10.1674078 4.24238033,10.044659 C4.37271901,9.92191019 4.50291033,9.80182986 4.63317533,9.68441799 C4.96384802,9.38555139 5.21693641,9.11870622 5.39221947,8.88388247 C5.56750252,8.64905871 5.65525456,8.36086593 5.65525456,8.01930411 C5.65525456,7.72043751 5.59763735,7.47493995 5.48240293,7.28281143 C5.36724218,7.0906829 5.22690768,6.93858115 5.06154677,6.82650618 C4.89618587,6.71443121 4.72333423,6.63437766 4.54299187,6.58634553 C4.36262495,6.53831339 4.20229879,6.51429733 4.06201341,6.51429733 L4.03195226,6.51429733 C3.75138149,6.51429733 3.52091264,6.5543241 3.34054572,6.63437766 C3.1601788,6.71443121 3.00736793,6.82650618 2.88211312,6.97060258 C2.75685831,7.11469897 2.65164428,7.28814833 2.56647101,7.49095066 C2.48129774,7.69375299 2.39361937,7.91256604 2.30343591,8.14738979 C2.1831913,8.4782778 2.03789572,8.7104331 1.86754918,8.84385569 C1.69720264,8.97727828 1.5268561,9.05466338 1.35650957,9.07601099 C1.16612226,9.11870622 0.970724759,9.10269551 0.770317067,9.02797886 C0.569909374,8.94258841 0.409583221,8.81983963 0.289338605,8.65973252 C0.179114375,8.52097303 0.0939411057,8.34218677 0.033818798,8.12337372 C-0.0263035096,7.90456068 -0.00626274038,7.63504706 0.0939411057,7.31483285 C0.154063413,7.11203052 0.259277452,6.82116928 0.409583221,6.44224913 C0.55988899,6.06332899 0.78785274,5.6924142 1.09347447,5.32950476 C1.3990962,4.96659532 1.7923963,4.65171802 2.27337476,4.38487285 C2.75435322,4.11802767 3.35557629,3.98994199 4.07701943,4.0006158 C4.55799789,4.0112896 5.03146106,4.10468541 5.49740894,4.28080323 C5.96335683,4.45692104 6.38170789,4.71576086 6.75246212,5.05732268 C7.12329003,5.3988845 7.42382789,5.81783143 7.65437041,6.31416345 C7.88483926,6.81049547 8,7.37887569 8,8.01930411 C8,8.48895161 7.93995137,8.90523008 7.81963308,9.26813952 C7.69938846,9.63104895 7.5465776,9.95660006 7.36120048,10.2447929 C7.17582337,10.5329856 6.97541567,10.7838201 6.76000196,10.9972962 C6.5445637,11.2107724 6.3466611,11.4029009 6.16629418,11.573708 C6.06609033,11.6697722 5.97089668,11.7578311 5.88063954,11.8378847 C5.79045607,11.9180167 5.72038706,11.9954018 5.67028514,12.07004 C5.48991822,12.3049422 5.33710735,12.5797143 5.21185254,12.8946701 C5.08652406,13.2095474 5.00893975,13.5377669 4.9788786,13.8793288 C4.94881745,14.2102168 4.82105754,14.4797304 4.59564801,14.6878696 C4.37014024,14.8959304 4.1071297,15 3.80651816,15 L3.80651816,15 Z" id="Shape"></path>
                    </g>
                </g>
            </g>
        </g>
    </g>
</svg>