<?xml version="1.0" encoding="UTF-8" standalone="no"?>
<svg width="21px" height="23px" viewBox="0 0 21 23" version="1.1" xmlns="http://www.w3.org/2000/svg" xmlns:xlink="http://www.w3.org/1999/xlink">
    <!-- Generator: Sketch 40.3 (33839) - http://www.bohemiancoding.com/sketch -->
    <title>Page 1</title>
    <desc>Created with Sketch.</desc>
    <defs></defs>
    <g id="Page-1" stroke="none" stroke-width="1" fill="none" fill-rule="evenodd">
        <g fill="#074C7F">
            <polygon id="Fill-1" points="16.5045645 10 16.5045645 21.5692718 3.4954355 21.5692718 3.4954355 10 2 10 2 23 18 23 18 10"></polygon>
            <polygon id="Fill-2" points="10.3729317 0 0 8.90740023 0.999409671 9.99365996 10.3853286 1.93406361 20.0144457 10 21 8.90176464"></polygon>
            <path d="M13,19.7812308 L13,16.5769467 C12.9996654,15.15397 11.8818255,14.0003449 10.5003346,14 C9.11884368,14.0003449 8.00033458,15.1536251 8,16.5769467 L8,23 L12.3097564,23 L12.3097564,21.5770233 L9.38048715,21.5770233 L9.38048715,16.5769467 C9.38082173,16.2565527 9.50461724,15.9723712 9.70837794,15.7613044 C9.9131424,15.5512722 10.1888383,15.4233216 10.5003346,15.4229767 C10.8114963,15.4233216 11.0868576,15.5512722 11.2916221,15.7609595 C11.4950482,15.9720264 11.6188437,16.2562078 11.6195128,16.5769467 L11.6195128,19.7812308 L13,19.7812308 L13,19.7812308 Z" id="Fill-3"></path>
        </g>
    </g>
</svg>