<?xml version="1.0" encoding="UTF-8" standalone="no"?>
<svg width="14px" height="10px" viewBox="0 0 14 10" version="1.1" xmlns="http://www.w3.org/2000/svg" xmlns:xlink="http://www.w3.org/1999/xlink">
    <!-- Generator: Sketch 39.1 (31720) - http://www.bohemiancoding.com/sketch -->
    <title>Capa_1</title>
    <desc>Created with Sketch.</desc>
    <defs></defs>
    <g id="Page-1" stroke="none" stroke-width="1" fill="none" fill-rule="evenodd">
        <g id="1.6-Personal-Cabinet-settings" transform="translate(-532.000000, -545.000000)" fill="#B3C0CA">
            <g id="Group-2" transform="translate(517.000000, 177.000000)">
                <g id="field-/-normal" transform="translate(0.000000, 327.000000)">
                    <g id="key-in-diagonal-position" transform="translate(15.000000, 41.000000)">
                        <g id="Capa_1">
                            <g id="envelope-back-black-interface-symbol">
                                <g id="Capa_1">
                                    <g id="Group">
                                        <path d="M0.96096,0.686 L6.04016,4.314 C6.56824,4.69133333 7.43288,4.69133333 7.96096,4.314 L13.04016,0.686 C13.56824,0.308666667 13.49712,0 12.88056,0 L1.12056,0 C0.50456,0 0.43288,0.308666667 0.96096,0.686 L0.96096,0.686 Z" id="Shape"></path>
                                        <path d="M13.8488,0.678666667 C13.75808,0.866 13.5996,1.06333333 13.32744,1.25733333 L8.52544,4.688 L11.984,6.96133333 C12.11952,7.05 12.1688,7.25333333 12.0932,7.414 C12.04224,7.524 11.94648,7.586 11.84792,7.586 C11.802,7.586 11.75552,7.572 11.71296,7.544 L7.93744,5.062 C7.65576,5.19133333 7.33432,5.264 7,5.264 C6.66624,5.264 6.34424,5.192 6.06256,5.062 L2.28704,7.544 C2.24392,7.57266667 2.19744,7.586 2.15208,7.586 C2.05352,7.586 1.95776,7.524 1.9068,7.414 C1.83176,7.25266667 1.88104,7.05 2.01656,6.96133333 L5.474,4.688 L0.67256,1.25733333 C0.40096,1.06333333 0.24248,0.866 0.1512,0.678666667 C0.05768,0.873333333 0,1.09466667 0,1.33333333 L0,8.66666667 C0,9.4 0.504,10 1.12,10 L12.88,10 C13.496,10 14,9.4 14,8.66666667 L14,1.33333333 C14.00056,1.09466667 13.94288,0.873333333 13.8488,0.678666667 L13.8488,0.678666667 Z" id="Shape"></path>
                                    </g>
                                </g>
                            </g>
                        </g>
                    </g>
                </g>
            </g>
        </g>
    </g>
</svg>