<?xml version="1.0" encoding="UTF-8" standalone="no"?>
<svg width="221px" height="91px" viewBox="0 0 221 91" version="1.1" xmlns="http://www.w3.org/2000/svg" xmlns:xlink="http://www.w3.org/1999/xlink">
    <!-- Generator: Sketch 39.1 (31720) - http://www.bohemiancoding.com/sketch -->
    <title>logo</title>
    <desc>Created with Sketch.</desc>
    <defs>
        <path d="M43.5231342,0.00427518428 C47.76143,4.22388206 52.0146719,8.43066339 56.2380215,12.6652334 C110.146582,12.7079853 164.055142,12.7079853 217.963702,12.7314988 L217.963702,74.2193366 C164.061548,74.2385749 110.161528,74.2535381 56.2593732,74.2770516 C52.0168071,78.5052088 47.7635651,82.7205405 43.5231342,86.9486978 C39.2784329,82.7248157 35.0294613,78.5052088 30.7868952,74.2770516 C24.7977669,74.2514005 18.8086386,74.2364373 12.8173751,74.2150614 C12.7981587,68.2233907 12.7768071,62.2317199 12.7618609,56.2379115 C8.54491675,51.979828 4.31943193,47.7302948 0.100352595,43.4764865 C4.31943193,39.2226781 8.54278159,34.9710074 12.7597258,30.717199 C12.7768071,24.7233907 12.8002938,18.7295823 12.8173751,12.735774 C18.8043683,12.7165356 24.7913614,12.6951597 30.7783546,12.678059 C35.0294613,8.4541769 39.2720274,4.22601966 43.5231342,0.00427518428 Z" id="path-1"></path>
        <mask id="mask-2" maskContentUnits="userSpaceOnUse" maskUnits="objectBoundingBox" x="-1" y="-1" width="219.86335" height="88.9444226">
            <rect x="-0.899647405" y="-0.995724816" width="219.86335" height="88.9444226" fill="white"></rect>
            <use xlink:href="#path-1" fill="black"></use>
        </mask>
    </defs>
    <g id="Symbols" stroke="none" stroke-width="1" fill="none" fill-rule="evenodd">
        <g id="header-/-unregistered" transform="translate(2.000000, 2.000000)">
            <g id="logo">
                <g>
                    <g id="Path">
                        <use fill="#FCFDFF" fill-rule="evenodd" xlink:href="#path-1"></use>
                        <use stroke="#E4EAF1" mask="url(#mask-2)" stroke-width="2" xlink:href="#path-1"></use>
                    </g>
                    <path d="M36.4984525,14.7386978 C34.6066993,16.6860442 32.5654848,18.7787469 31.9932615,21.5341032 C31.485093,24.1312776 32.6124584,26.6707371 33.9170421,28.8489435 C33.5561998,27.60914 33.188952,26.2966585 33.5113614,25.0055528 C33.9298531,23.1971499 35.2750049,21.8226781 36.504858,20.5166093 C39.0392948,17.9728747 41.6292458,15.4783047 43.9800588,12.7592875 C44.6077963,13.3791892 45.2205877,14.0140541 45.8568658,14.6254054 C47.9920274,14.6083047 50.1293242,14.6296806 52.2644858,14.6147174 C49.638237,11.9555528 46.9863663,9.3241769 44.3473066,6.67783784 C41.9174927,9.5422113 39.1588639,12.0944963 36.4984525,14.7386978 L36.4984525,14.7386978 Z M48.461763,18.9903686 C47.0034476,19.9586978 45.8952987,21.3801966 45.1052889,22.9278133 C44.0078159,25.0589926 43.4185113,27.4017936 42.9509109,29.7403194 C41.3623506,29.186683 39.7887365,28.5967076 38.2023115,28.0323833 C40.1282272,32.7607371 42.0306562,37.4976413 43.9779236,42.2153071 C45.9358668,37.5019165 47.8297551,32.7607371 49.7556709,28.0323833 C48.3934378,28.5176167 47.0333399,29.0135381 45.6732419,29.5051843 C46.1066797,26.3223096 46.704525,22.9684275 48.7158472,20.3627027 C50.0460529,18.6034644 52.1406464,17.6287224 54.2651322,17.2247174 C52.2367287,17.3722113 50.1698923,17.8360688 48.461763,18.9903686 L48.461763,18.9903686 Z M18.127522,17.2396806 C18.6271499,22.027887 18.0677375,26.8481572 18.4200392,31.6427764 C18.5993928,33.6756265 19.1331832,35.8003931 20.5658766,37.3287715 C22.1031929,38.9747174 24.3024094,39.7656265 26.4354358,40.297887 C25.3443683,39.7207371 24.2212733,39.0751843 23.5252106,38.0170762 C22.4021156,36.3326536 22.4234672,34.2142998 22.3850343,32.2669533 C22.4021156,28.7784029 22.4191969,25.287715 22.1885994,21.8034398 C23.0533399,21.797027 23.9180803,21.8013022 24.7828208,21.7991646 C26.2987855,20.2814742 27.8190206,18.7659214 29.330715,17.2439558 C25.5963173,17.2289926 21.8619197,17.237543 18.127522,17.2396806 L18.127522,17.2396806 Z M58.9347307,17.9194349 C56.3255632,17.945086 53.5285015,18.0092138 51.2438786,19.4307125 C49.0062292,20.8393857 47.9343781,23.442973 47.3472086,25.9161671 C47.7955926,25.2000737 48.1756513,24.4262654 48.7756317,23.8191892 C49.5506954,22.9983538 50.6140059,22.5002948 51.7114789,22.2822604 C53.5946915,21.9060442 55.5270127,22.027887 57.433712,22.0086486 C60.2179628,22.0321622 63.0022135,21.9958231 65.7800588,21.7991646 C65.7821939,22.6648894 65.7843291,23.5327518 65.7779236,24.3984767 C67.289618,25.9204423 68.7991773,27.446683 70.3300881,28.9515479 C70.3428991,25.219312 70.340764,21.4892138 70.3322233,17.7569779 C66.5401763,18.0797543 62.7331832,17.9066093 58.9347307,17.9194349 L58.9347307,17.9194349 Z M29.595475,25.2086241 C29.8153967,28.6458722 31.576905,31.7304177 33.4515769,34.5285258 C31.8438002,35.2959214 30.2274829,36.0504914 28.6111655,36.8029238 C33.4110088,38.7844717 38.2257982,40.7296806 43.0384525,42.677027 C41.0954554,37.8588943 39.1396474,33.0428993 37.1774339,28.2311794 C36.5155338,29.627027 35.870715,31.0292875 35.21095,32.4251351 C33.2273849,29.8557494 31.2843879,27.0106143 30.8915181,23.7058968 C30.6203526,21.6238821 31.378335,19.5846192 32.4608619,17.8424816 C30.6950833,19.8603686 29.4203918,22.4703686 29.595475,25.2086241 L29.595475,25.2086241 Z M112.809128,23.9324816 C113.601273,23.9324816 114.395553,23.9324816 115.189833,23.9346192 C115.185563,23.1885995 115.185563,22.4447174 115.187698,21.7008354 C114.395553,21.7008354 113.603408,21.7008354 112.813399,21.6986978 C112.811263,22.4447174 112.813399,23.1885995 112.809128,23.9324816 L112.809128,23.9324816 Z M117.65381,21.6986978 C117.65381,22.4447174 117.655945,23.1907371 117.651675,23.9367568 C118.44382,23.9324816 119.235965,23.9324816 120.030245,23.9324816 L120.030245,21.702973 C119.235965,21.7008354 118.445955,21.7008354 117.65381,21.6986978 L117.65381,21.6986978 Z M114.54715,26.0294595 C112.860372,26.367199 111.293164,27.3504914 110.330206,28.7890909 C109.160137,30.4884767 108.701077,32.5854545 108.692537,34.626855 C108.645563,36.9589681 109.083271,39.4321622 110.550127,41.3132432 C111.585681,42.677027 113.172106,43.5619902 114.854613,43.824914 C116.917179,44.1199017 119.178315,43.871941 120.894985,42.5979361 C122.464329,41.4650123 123.412341,39.6523342 123.803075,37.7862162 C124.178864,35.9649877 124.185269,34.0710811 123.854319,32.2434398 C123.46572,30.2341032 122.47714,28.2290418 120.724172,27.0811548 C118.937042,25.8499017 116.635338,25.6511057 114.54715,26.0294595 L114.54715,26.0294595 Z M176.372889,26.9657248 C176.372889,27.8677887 176.362214,28.7719902 176.3857,29.6740541 C177.291009,29.0562899 178.211263,28.4128747 179.300196,28.1691892 C181.00619,27.7609091 183.028188,27.72457 184.458746,28.8916953 C185.769736,29.9433907 186.339824,31.6278133 186.576827,33.2395577 C182.283017,33.2502457 177.989207,33.2416953 173.695397,33.2438329 C173.712478,34.8491646 173.735965,36.4673219 174.051969,38.04914 C174.46192,39.9366339 175.518825,41.7450369 177.167169,42.8010074 C178.497375,43.6838329 180.130774,43.9916462 181.706523,43.9275184 C183.630304,43.929656 185.577571,43.1708108 186.882155,41.7343489 C188.404525,40.124742 189.004505,37.8674447 189.096317,35.7020639 C189.20094,33.3357494 188.893477,30.8112531 187.505622,28.8232924 C186.512772,27.352629 184.915671,26.3329975 183.177649,26.0102211 C180.87808,25.5998034 178.505916,26.0764865 176.372889,26.9657248 L176.372889,26.9657248 Z M93.5478355,26.1897789 C93.5478355,31.9933415 93.5521058,37.7969042 93.5457003,43.6004668 C94.3314398,43.5983292 95.1171792,43.5983292 95.9029187,43.5983292 C95.9029187,40.7489189 95.9007835,37.8995086 95.9029187,35.0479607 C98.5676004,35.0650614 101.232282,35.0180344 103.894829,35.0736118 C103.858531,37.9144717 103.892693,40.7574693 103.877747,43.6004668 C104.659216,43.5983292 105.440686,43.5983292 106.222155,43.6004668 C106.217884,37.7969042 106.22002,31.9933415 106.22002,26.1897789 L103.879882,26.1897789 L103.879882,33.0300737 C101.219471,33.0300737 98.5611949,33.0322113 95.9029187,33.0300737 L95.9029187,26.1919165 C95.1171792,26.1897789 94.3314398,26.1897789 93.5478355,26.1897789 L93.5478355,26.1897789 Z M126.555299,26.1897789 C126.555299,31.9933415 126.557434,37.7969042 126.555299,43.5983292 C127.332498,43.6004668 128.111832,43.6004668 128.891166,43.5983292 C128.878355,41.2940049 128.897571,38.9896806 128.882625,36.6853563 C129.21144,36.3005897 129.548795,35.9222359 129.886151,35.5438821 C131.993555,38.2244226 134.09669,40.9092383 136.193418,43.5983292 C137.21189,43.6004668 138.232498,43.5983292 139.253105,43.6026044 C136.714398,40.391941 134.179961,37.1770025 131.639119,33.9684767 C134.03904,31.3755774 136.434691,28.7784029 138.838883,26.1897789 L135.971361,26.1897789 C133.607738,28.8446683 131.237708,31.4952826 128.88476,34.1629975 C128.88903,31.5038329 128.886895,28.8468059 128.886895,26.1876413 C128.107561,26.1897789 127.332498,26.1897789 126.555299,26.1897789 L126.555299,26.1897789 Z M140.433849,26.1897789 C140.435984,29.9968305 140.429579,33.8038821 140.435984,37.6087961 C140.482958,39.26543 140.796827,41.0674201 142.028815,42.2772973 C143.322723,43.6410811 145.306288,44.0151597 147.112635,43.9253808 C148.861332,43.9488943 150.686895,43.2990663 151.788639,41.8925307 C152.873301,40.518059 153.022762,38.6882801 153.041978,37.0038575 C153.037708,33.3977396 153.044114,29.7916216 153.037708,26.1876413 C152.251969,26.1897789 151.466229,26.1897789 150.682625,26.1897789 C150.68049,29.9327027 150.68476,33.6777641 150.682625,37.420688 C150.669814,38.6091892 150.494731,39.9002948 149.666288,40.8173219 C148.799412,41.7322113 147.454261,41.9416953 146.252165,41.8561916 C145.173908,41.8241278 144.063624,41.3410319 143.47859,40.402629 C142.814554,39.3958231 142.791068,38.1431941 142.769716,36.9782064 C142.761175,33.3806388 142.769716,29.7852088 142.765446,26.1876413 C141.986112,26.1897789 141.211048,26.1897789 140.433849,26.1897789 L140.433849,26.1897789 Z M156.234045,26.1897789 C156.234045,31.9933415 156.23618,37.7969042 156.234045,43.5983292 C156.95573,43.5983292 157.679549,43.5983292 158.403369,43.6004668 C158.394829,38.6091892 158.403369,33.6179115 158.399099,28.6244963 C159.883036,32.016855 161.384055,35.402801 162.872262,38.7930221 L164.322037,38.7930221 C165.81238,35.4199017 167.321939,32.0574693 168.801606,28.6822113 C168.820823,33.6542506 168.805877,38.6262899 168.808012,43.5983292 C169.593751,43.6004668 170.379491,43.5983292 171.167365,43.5983292 C171.158825,37.7947666 171.167365,31.9912039 171.163095,26.1876413 C170.074163,26.1940541 168.98523,26.1833661 167.898433,26.1961916 C166.523389,29.417543 165.105642,32.6217936 163.741273,35.8474201 C162.310715,32.6239312 160.85667,29.4111302 159.419706,26.1897789 L156.234045,26.1897789 L156.234045,26.1897789 Z M189.781704,26.1919165 C189.779569,26.8631204 189.779569,27.5343243 189.781704,28.2076658 C191.731107,28.2098034 193.680509,28.2098034 195.629912,28.2076658 C195.629912,33.337887 195.636317,38.4702457 195.627777,43.6004668 C196.404976,43.5983292 197.18431,43.6004668 197.963643,43.5983292 L197.963643,28.2076658 C199.908776,28.2076658 201.853908,28.2076658 203.79904,28.2098034 C203.79477,27.5364619 203.79477,26.8631204 203.796905,26.1897789 C199.125171,26.1897789 194.453438,26.1897789 189.781704,26.1919165 L189.781704,26.1919165 Z M44.9302057,42.6428256 C49.6595886,40.6826536 54.36762,38.6754545 59.0820568,36.6810811 C57.7689324,36.0740049 56.4643487,35.4519656 55.1533595,34.8427518 C57.7774731,32.82914 60.683428,30.8262162 64.065524,30.5013022 C66.0811166,30.287543 68.0283839,31.0463882 69.7194319,32.0809828 C67.7550833,30.3666339 65.2377277,29.1011794 62.5773164,29.2230221 C59.0628404,29.3534152 55.9113418,31.1767813 53.0609011,33.0835135 C52.2965132,31.4739066 51.5449363,29.857887 50.7890891,28.2440049 C48.8076592,33.0300737 46.8817434,37.8417936 44.9302057,42.6428256 L44.9302057,42.6428256 Z M58.7724584,33.5324079 C59.995906,33.1818428 61.2876787,32.8248649 62.5602351,33.1369533 C64.4135553,33.5666093 65.8078159,34.962457 67.1486974,36.2236364 C69.6596474,38.7331695 72.1236239,41.2940049 74.807522,43.6218428 C74.1947307,44.2567076 73.5584525,44.8659214 72.9499314,45.5029238 C72.9627424,47.640516 72.943526,49.7781081 72.9584721,51.9157002 C75.6103428,49.2821867 78.2387267,46.6294349 80.884192,43.9916462 C77.5063663,41.1400983 74.6132223,37.7776658 71.3933986,34.7593857 C69.7343781,33.2545209 67.8170029,31.8159214 65.5281097,31.540172 C63.1089716,31.2665602 60.7923213,32.3118428 58.7724584,33.5324079 L58.7724584,33.5324079 Z M19.3061312,39.0302948 C20.2242507,40.4582064 21.5736729,41.5590663 23.055475,42.3585258 C25.2504212,43.5448894 27.6909109,44.1626536 30.1207248,44.6521622 C29.516474,46.3258968 28.9036827,47.9953563 28.3122429,49.6733661 C33.0821939,47.6640295 37.8564153,45.6611057 42.6178257,43.6303931 C37.8863075,41.6894595 33.1526543,39.7613514 28.4104603,37.8482064 C28.895142,39.2034398 29.3883643,40.5565356 29.8751812,41.911769 C26.7322233,41.5120393 23.4419393,40.8985504 20.8477179,38.9597543 C19.0669931,37.6536855 18.0442507,35.5631204 17.6321645,33.431941 C17.7538688,35.3878378 18.2342801,37.3693857 19.3061312,39.0302948 L19.3061312,39.0302948 Z M7.07592556,43.2370762 C10.3555338,46.0415971 13.21238,49.2864619 16.3275808,52.2619902 C18.0442507,53.8480835 20.0171401,55.4042506 22.4127914,55.6949631 C24.8468756,55.9771253 27.1699314,54.9168796 29.2068756,53.6963145 C28.0560235,54.0233661 26.8539275,54.3782064 25.6475612,54.149484 C23.8326738,53.8395332 22.421332,52.5398771 21.1295593,51.319312 C18.5033105,48.7157248 15.9453869,46.0373219 13.1440548,43.6175676 C13.7611166,42.9891155 14.3952595,42.3799017 14.9995103,41.7407617 C14.982429,39.6053071 14.99524,37.4698526 14.9931048,35.334398 C12.3412341,37.955086 9.72566112,40.6142506 7.07592556,43.2370762 L7.07592556,43.2370762 Z M46.6319295,43.0511057 C46.215573,43.222113 45.7842703,43.3738821 45.4170225,43.6389435 C50.1207835,45.5777396 54.8373555,47.4823342 59.5496572,49.4018919 C59.0671107,48.0359705 58.5632125,46.6785995 58.0849363,45.3126781 C61.1638394,45.7359214 64.3836631,46.3087961 66.958668,48.1685012 C68.8269344,49.4959459 69.9671107,51.6527764 70.315142,53.892973 C70.2404114,50.6951351 68.8397453,47.4011057 66.0960627,45.6162162 C63.6448972,43.9317936 60.7154554,43.1708108 57.8393928,42.5851106 C58.4436435,40.9113759 59.0521645,39.2376413 59.6500098,37.561769 C55.3092262,39.3829975 50.9748482,41.225602 46.6319295,43.0511057 L46.6319295,43.0511057 Z M28.8716552,50.5497789 C30.1741038,51.1718182 31.4893634,51.7724816 32.7939471,52.3987961 C30.2274829,54.3782064 27.3919882,56.3212776 24.0974339,56.7188698 C22.0177865,56.9924816 19.9808423,56.235774 18.2385504,55.1584275 C20.2562782,56.9283538 22.8739863,58.1980835 25.6112635,58.0142506 C29.0339275,57.7876658 32.1042899,56.0284275 34.892811,54.1580344 C35.6742801,55.7633661 36.4066405,57.3922113 37.1752987,59.0039558 C39.1439177,54.207199 41.0783741,49.3954791 43.0341822,44.5944472 C38.2983937,46.5439312 33.5946327,48.5703686 28.8716552,50.5497789 L28.8716552,50.5497789 Z M44.9515573,44.5687961 C46.9137708,49.3014251 48.9165524,54.0169533 50.9086582,58.7367568 C51.5235847,57.4285504 52.1342409,56.1182064 52.7491675,54.8078624 C54.7540842,57.4328256 56.7568658,60.3314005 57.0835455,63.7130713 C57.3034672,65.7395086 56.5369442,67.6932678 55.5077963,69.3969287 C57.2137904,67.4153808 58.4927522,64.8972973 58.3667777,62.2210319 C58.2237218,58.7089681 56.4066993,55.5602948 54.5042703,52.7108845 C56.1163173,51.9392138 57.7347698,51.1867813 59.3532223,50.4300737 C54.5555142,48.4677641 49.7535357,46.5204177 44.9515573,44.5687961 L44.9515573,44.5687961 Z M43.9416259,45.1181572 C42.0050343,49.799484 40.1111459,54.5000491 38.2129873,59.1963391 C39.5730852,58.719656 40.9246425,58.2130467 42.2847405,57.7363636 C41.855573,60.9171007 41.2534574,64.2709828 39.2421352,66.87457 C37.9140646,68.6316708 35.8237414,69.6042752 33.7056611,70.0146929 C35.6956317,69.8650614 37.7219001,69.4161671 39.4108129,68.3046192 C40.9161019,67.3298771 42.0562782,65.8763145 42.8633692,64.2902211 C43.956572,62.163317 44.5416063,59.8247912 45.0113418,57.4926781 C46.6831734,58.0954791 48.3550049,58.7068305 50.0311068,59.3032187 C48.0432713,54.5748649 46.0554358,49.8443735 44.0526543,45.1224324 C44.0248972,45.1202948 43.969383,45.1202948 43.9416259,45.1181572 L43.9416259,45.1181572 Z M61.6378452,46.969312 C62.4769638,47.4972973 63.3929481,47.9526044 64.0484427,48.7221376 C64.9345348,49.7097052 65.3124584,51.0371499 65.4491087,52.3325307 C65.6540842,54.2606388 65.5494613,56.2058477 65.5708129,58.1425061 C65.5430558,60.5729484 65.624192,63.0033907 65.7672478,65.4316953 C64.9089128,65.4316953 64.052713,65.4338329 63.1943781,65.4274201 C61.6656024,66.9472482 60.1389618,68.4692138 58.6251322,70.0040049 C62.3552595,70.0168305 66.0853869,70.0168305 69.8155142,70.0040049 C69.5251322,66.4855283 69.6340255,62.954226 69.6596474,59.4293366 C69.6553771,57.4242752 69.6596474,55.3914251 69.1877767,53.4312531 C68.8589618,52.037543 68.2077375,50.6951351 67.1764545,49.6883292 C65.6733007,48.2155283 63.6342214,47.4801966 61.6378452,46.969312 L61.6378452,46.969312 Z M95.7662684,49.0620147 C95.7641332,49.5215971 95.7641332,49.9811794 95.7641332,50.4407617 C96.2360039,50.4386241 96.7100098,50.4386241 97.1840157,50.4386241 C97.1840157,49.9790418 97.1818805,49.5215971 97.1840157,49.0620147 L95.7662684,49.0620147 L95.7662684,49.0620147 Z M98.5846817,49.0620147 C98.5825465,49.5215971 98.5825465,49.9790418 98.5825465,50.4386241 L100.008834,50.4386241 C100.006699,49.9790418 100.004564,49.5215971 100.006699,49.0620147 L98.5846817,49.0620147 L98.5846817,49.0620147 Z M133.626954,49.0641523 C133.624819,49.5215971 133.624819,49.9790418 133.626954,50.4386241 C134.132987,50.4386241 134.641156,50.4407617 135.151459,50.4428993 C135.147189,49.9811794 135.147189,49.5194595 135.147189,49.0598771 C134.639021,49.0620147 134.132987,49.0620147 133.626954,49.0641523 L133.626954,49.0641523 Z M96.4132223,51.6912531 C94.7456611,52.1380098 93.6674045,53.7497543 93.4197258,55.3957002 C93.2104799,56.885602 93.2425073,58.4823833 93.9044074,59.8632678 C94.4360627,61.004742 95.5079138,61.8832924 96.7548482,62.1162899 C98.1,62.3385995 99.6223702,62.2039312 100.694221,61.2762162 C101.983859,60.2181081 102.415162,58.4567322 102.383134,56.8535381 C102.410891,55.2952334 102.003075,53.6022604 100.800979,52.5291892 C99.6223702,51.4774939 97.8928893,51.3128993 96.4132223,51.6912531 L96.4132223,51.6912531 Z M114.408364,52.1380098 C114.408364,52.6617199 114.4105,53.1832924 114.416905,53.7070025 C115.60192,52.8327273 117.205426,52.4073464 118.623173,52.9353317 C119.759079,53.4141523 120.273653,54.6539558 120.453007,55.7975676 C117.9143,55.8018428 115.377728,55.79543 112.841156,55.7997052 C112.864643,57.524742 112.875318,59.4549877 114.090225,60.8230467 C115.243213,62.2231695 117.288697,62.4711302 118.945583,61.9944472 C120.602468,61.4835627 121.659373,59.8461671 121.857943,58.1788452 C122.137649,56.1609582 121.879295,53.7518919 120.190382,52.3902457 C118.548443,51.0863145 116.229657,51.4261916 114.408364,52.1380098 L114.408364,52.1380098 Z M138.6638,52.2406143 C137.284486,53.2089435 137.156376,55.4790663 138.452419,56.5649631 C139.562703,57.4734398 141.114966,57.3494595 142.353359,57.9779115 C143.030206,58.3455774 143.160451,59.2583292 142.917042,59.9295332 C142.605309,60.7054791 141.702135,61.0175676 140.924936,61.004742 C139.643839,61.0688698 138.45669,60.4511057 137.478786,59.6772973 C137.470245,60.2587224 137.46811,60.842285 137.461704,61.4258477 C138.648854,62.0393366 139.985465,62.2851597 141.315671,62.199656 C141.290049,62.7148157 141.418159,63.4031204 140.888639,63.7173464 C140.305739,64.0379853 139.620353,63.8391892 139.020372,63.6938329 C139.024643,64.0828747 139.031048,64.4740541 139.037453,64.8652334 C139.923546,64.9977641 140.980451,65.1602211 141.702135,64.484742 C142.425955,63.8798034 142.419549,62.87086 142.385387,62.0115479 C143.403859,61.6246437 144.260059,60.7674693 144.433007,59.6644717 C144.672145,58.5636118 144.236572,57.268231 143.179667,56.7637592 C142.105681,56.2015725 140.841665,56.2037101 139.759138,55.6821376 C138.738531,55.1627027 138.783369,53.463317 139.833869,52.9973219 C141.247346,52.3197052 142.893555,52.9225061 144.065759,53.8160197 C144.070029,53.2516953 144.072165,52.6895086 144.0743,52.1273219 C142.389657,51.4518428 140.220333,51.0820393 138.6638,52.2406143 L138.6638,52.2406143 Z M160.660235,51.644226 C159.650304,51.8879115 158.740725,52.535602 158.211205,53.4355283 C157.301626,54.92543 157.241841,56.7765848 157.513007,58.4567322 C157.777767,60.0086241 158.787698,61.5049386 160.337826,61.9880344 C161.896494,62.4326536 163.779706,62.268059 164.983937,61.0838329 C166.166817,59.9466339 166.506308,58.2130467 166.467875,56.6290909 C166.440118,55.0985749 165.987463,53.441941 164.759745,52.4372727 C163.63665,51.492457 162.050225,51.3513759 160.660235,51.644226 L160.660235,51.644226 Z M103.922586,51.7382801 L103.922586,61.9816216 C105.154574,61.9645209 106.388697,62.0222359 107.61855,61.9495577 C108.910323,61.8661916 110.193555,61.2740786 110.979295,60.2245209 C112.085309,58.8008845 112.277473,56.8364373 111.831224,55.1306388 C111.451166,53.6642506 110.298178,52.420172 108.833457,52.0076167 C107.238492,51.5458968 105.555984,51.8045455 103.922586,51.7382801 L103.922586,51.7382801 Z M123.352556,51.7382801 L123.352556,61.9816216 C123.788129,61.9816216 124.227973,61.9816216 124.667816,61.9837592 C124.659275,59.0573956 124.665681,56.1310319 124.663546,53.2046683 C126.164564,56.1288943 127.659177,59.0573956 129.160196,61.9816216 L130.731675,61.9816216 C130.72954,58.567887 130.72954,55.1520147 130.731675,51.7382801 C130.291832,51.7361425 129.854123,51.7361425 129.416415,51.7361425 C129.427091,54.4188206 129.412145,57.1014988 129.424956,59.7841769 C128.060588,57.1036364 126.70903,54.416683 125.338257,51.7382801 C124.676357,51.7361425 124.012321,51.7361425 123.352556,51.7382801 L123.352556,51.7382801 Z M132.38429,51.7340049 C132.38429,52.0867076 132.38429,52.4394103 132.386425,52.7942506 C132.817728,52.792113 133.253301,52.7899754 133.688874,52.7899754 C133.691009,55.5025799 133.691009,58.2173219 133.688874,60.9299263 C133.253301,60.9277887 132.817728,60.9277887 132.386425,60.9256511 C132.38429,61.2783538 132.38429,61.6310565 132.386425,61.9858968 C133.718766,61.979484 135.053242,61.9837592 136.389853,61.9837592 C136.385583,61.6310565 136.385583,61.2783538 136.387718,60.9277887 C135.952145,60.9277887 135.514437,60.9277887 135.080999,60.9299263 C135.078864,58.2173219 135.078864,55.5025799 135.080999,52.7899754 C135.514437,52.7899754 135.952145,52.7899754 136.387718,52.792113 C136.385583,52.4394103 136.385583,52.0867076 136.387718,51.7361425 C135.053242,51.7361425 133.718766,51.7404177 132.38429,51.7340049 L132.38429,51.7340049 Z M150.148834,51.7361425 C150.15524,55.1520147 150.15524,58.567887 150.148834,61.9837592 C150.6143,61.9816216 151.079765,61.9816216 151.5495,61.9837592 C151.543095,60.6990663 151.54523,59.4165111 151.547365,58.1339558 C152.7943,58.1296806 154.167209,58.2814496 155.249736,57.5226044 C157.000568,56.4538084 157.214084,53.510344 155.448306,52.3539066 C153.872556,51.3449631 151.906072,51.8686732 150.148834,51.7361425 L150.148834,51.7361425 Z M167.870676,51.7361425 C167.877081,55.1520147 167.877081,58.567887 167.870676,61.9837592 C168.336141,61.9816216 168.801606,61.9816216 169.271342,61.9837592 C169.264936,60.6285258 169.267071,59.27543 169.269207,57.9201966 L170.789442,57.9201966 C171.869833,59.27543 172.950225,60.6285258 174.030617,61.9837592 C174.641273,61.9816216 175.251929,61.9816216 175.864721,61.9837592 C174.641273,60.5237838 173.454123,59.0317445 172.230676,57.5739066 C173.475475,57.095086 174.423487,55.8809337 174.32954,54.5085995 C174.434163,53.1234398 173.249148,51.932801 171.918942,51.7938575 C170.57379,51.6720147 169.220098,51.7660688 167.870676,51.7361425 L167.870676,51.7361425 Z M175.155847,51.7382801 C175.155847,52.1251843 175.157982,52.514226 175.162253,52.9032678 C176.31097,52.8989926 177.459687,52.9011302 178.610539,52.9011302 C178.608404,55.9279607 178.612674,58.9547912 178.608404,61.9816216 C179.067463,61.9816216 179.528658,61.9837592 179.989853,61.9858968 C179.981312,58.9569287 179.989853,55.9300983 179.985583,52.9011302 C181.136435,52.8989926 182.289422,52.9011302 183.444545,52.8989926 C183.440274,52.5120885 183.442409,52.1251843 183.444545,51.7382801 C180.681645,51.7361425 177.918746,51.7382801 175.155847,51.7382801 L175.155847,51.7382801 Z M186.021685,51.7404177 C184.866562,55.1541523 183.732791,58.5742998 182.564858,61.9837592 C183.040999,61.9816216 183.51714,61.9816216 183.997551,61.979484 C184.300744,61.0175676 184.614613,60.0577887 184.924212,59.0980098 C186.211714,59.102285 187.501352,59.0980098 188.788854,59.1001474 C189.100588,60.0599263 189.410186,61.0197052 189.719785,61.9816216 C190.213007,61.9816216 190.706229,61.9816216 191.201587,61.9837592 C190.050735,58.5914005 188.925504,55.1883538 187.759706,51.8024079 C187.221645,51.644226 186.591773,51.7724816 186.021685,51.7404177 L186.021685,51.7404177 Z M192.10476,51.7382801 L192.10476,61.9816216 C194.101136,61.9837592 196.097512,61.9816216 198.096024,61.9837592 C198.091753,61.5947174 198.089618,61.2056757 198.091753,60.8166339 C196.560842,60.8209091 195.032067,60.8187715 193.505426,60.8187715 C193.505426,57.791941 193.503291,54.7651106 193.505426,51.7382801 C193.03569,51.7361425 192.570225,51.7361425 192.10476,51.7382801 L192.10476,51.7382801 Z M198.642625,51.7382801 C198.64049,52.0867076 198.64049,52.4372727 198.642625,52.7878378 C199.080333,52.7899754 199.520176,52.792113 199.96429,52.7963882 C199.96002,55.506855 199.962155,58.2194595 199.962155,60.9299263 C199.520176,60.9277887 199.080333,60.9277887 198.642625,60.9277887 C198.64049,61.2783538 198.64049,61.6310565 198.642625,61.9816216 C199.981371,61.9816216 201.320118,61.9837592 202.660999,61.9816216 C202.658864,61.6310565 202.658864,61.2804914 202.660999,60.9299263 C202.219021,60.9277887 201.777042,60.9277887 201.339334,60.9277887 C201.337199,58.2151843 201.337199,55.5047174 201.339334,52.792113 C201.777042,52.7899754 202.216885,52.7899754 202.660999,52.7899754 C202.658864,52.4394103 202.658864,52.0888452 202.660999,51.7382801 C201.322253,51.7361425 199.981371,51.7361425 198.642625,51.7382801 L198.642625,51.7382801 Z M17.6193536,58.2771744 C17.598002,62.0158231 17.6129481,65.7544717 17.6129481,69.495258 C19.6349461,69.3135627 21.6697551,69.2579853 23.7002938,69.2729484 C26.7258178,69.264398 29.766288,69.4931204 32.779001,69.1147666 C34.5639961,68.8796314 36.3788834,68.2960688 37.7133595,67.0348894 C39.3339471,65.5129238 40.1090108,63.3454054 40.6513418,61.2420147 C40.1090108,62.1504914 39.609383,63.127371 38.7659941,63.8028501 C37.6727914,64.7262899 36.2187463,65.0447912 34.826621,65.1559459 C33.1120862,65.2777887 31.3932811,65.2264865 29.6766112,65.2286241 C27.1784721,65.2051106 24.680333,65.2820639 22.1864643,65.4295577 L22.1864643,62.8430713 C20.6662292,61.3189681 19.1502644,59.7905897 17.6193536,58.2771744 L17.6193536,58.2771744 Z M54.0537512,58.4246683 C54.4380803,59.715774 54.790382,61.1009337 54.3975122,62.4369287 C53.9064251,64.1876167 52.58476,65.5214742 51.3677179,66.8061671 C48.8610382,69.322113 46.2988443,71.7867568 43.9800588,74.4801229 C43.3437806,73.8709091 42.7395299,73.2296314 42.0989814,72.6246929 C39.9638198,72.639656 37.8307933,72.6289681 35.6977669,72.6311057 C38.3240157,75.2838575 40.9716161,77.9130958 43.6064055,80.5572973 C45.0540451,78.8985258 46.559334,77.2910565 48.1393536,75.7562654 C50.0972968,73.8046437 52.1769442,71.9599017 53.9064251,69.7945209 C55.0914398,68.3024816 56.058668,66.513317 56.0885602,64.5659705 C56.1398041,62.3514251 55.1661704,60.2800983 54.0537512,58.4246683 L54.0537512,58.4246683 Z" id="Shape" fill="#FCFDFF"></path>
                    <path d="M114.747855,28.1371253 C116.475201,27.6540295 118.542037,27.9084029 119.83808,29.244398 C121.213124,30.6616216 121.61667,32.7286732 121.646562,34.6396806 C121.67859,36.6019902 121.392478,38.7353071 120.066543,40.2722359 C118.226033,42.4825061 114.337904,42.4162408 112.591342,40.1204668 C111.068972,38.1602948 110.975024,35.4904423 111.24619,33.1241278 C111.481058,31.0335627 112.606288,28.7826781 114.747855,28.1371253 L114.747855,28.1371253 Z" id="Shape" fill="#FCFDFF"></path>
                    <path d="M176.129481,35.3044717 C179.646092,35.3044717 183.162703,35.3023342 186.679314,35.3066093 C186.613124,37.0701229 186.237336,38.9319656 185.062997,40.3107125 C183.134946,42.6000737 178.969246,42.3841769 177.37855,39.8062408 C176.486053,38.4852088 176.199941,36.8691892 176.129481,35.3044717 L176.129481,35.3044717 Z" id="Shape" fill="#FCFDFF"></path>
                    <path d="M96.964094,52.8177641 C97.9633497,52.571941 99.144094,52.7237101 99.8785896,53.5039312 C100.67287,54.3311794 100.909873,55.5303686 100.93763,56.6397789 C100.965387,57.8453808 100.800979,59.1664128 99.9704016,60.1026781 C98.8643879,61.3852334 96.5754946,61.3061425 95.5805093,59.9231204 C94.6816063,58.6811794 94.638903,57.026683 94.8609598,55.56457 C95.0424486,54.3824816 95.7363761,53.1448157 96.964094,52.8177641 L96.964094,52.8177641 Z" id="Shape" fill="#FCFDFF"></path>
                    <path d="M161.021077,52.8220393 C162.020333,52.5698034 163.201077,52.7237101 163.944114,53.4932432 C164.787502,54.3846192 165.011694,55.6714496 165.01383,56.8556757 C165.01383,57.9950123 164.81953,59.2305405 164.03379,60.1090909 C162.921371,61.3937838 160.628208,61.2954545 159.637493,59.9081572 C158.749265,58.6640786 158.710833,57.0159951 158.932889,55.5560197 C159.114378,54.3824816 159.80617,53.1533661 161.021077,52.8220393 L161.021077,52.8220393 Z" id="Shape" fill="#FCFDFF"></path>
                    <path d="M105.325387,60.8273219 C105.321117,58.1831204 105.323252,55.5389189 105.325387,52.8947174 C106.61716,52.9310565 108.037042,52.8305897 109.151596,53.6108108 C110.362233,54.3824816 110.682507,55.9536118 110.582155,57.2938821 C110.537316,58.3797789 110.103879,59.5212531 109.160137,60.1304668 C108.043448,60.910688 106.615024,60.7738821 105.325387,60.8273219 L105.325387,60.8273219 Z" id="Shape" fill="#FCFDFF"></path>
                    <path d="M151.54523,52.896855 C152.437728,52.9310565 153.377199,52.8263145 154.224858,53.1683292 C155.663957,53.788231 155.482468,56.178059 154.071126,56.7252826 C153.2619,57.0181327 152.386484,56.9390418 151.54523,56.9775184 L151.54523,52.896855 L151.54523,52.896855 Z" id="Shape" fill="#FCFDFF"></path>
                    <path d="M169.267071,52.8989926 C170.165975,52.9289189 171.107581,52.8199017 171.972321,53.127715 C173.332419,53.7176904 173.103957,55.9878133 171.81859,56.5328993 C171.000823,56.817199 170.116866,56.7338329 169.267071,56.7616216 L169.267071,52.8989926 L169.267071,52.8989926 Z" id="Shape" fill="#FCFDFF"></path>
                    <path d="M185.29573,57.9372973 C185.82525,56.3554791 186.341959,54.7672482 186.850127,53.1790172 C187.373242,54.7651106 187.887816,56.3533415 188.415201,57.9372973 C187.373242,57.9351597 186.335553,57.9351597 185.29573,57.9372973 L185.29573,57.9372973 Z" id="Shape" fill="#FCFDFF"></path>
                    <path d="M114.288795,56.9988943 C116.364172,56.9946192 118.437414,56.9988943 120.512791,56.9967568 C120.440196,58.0142506 120.271518,59.0830467 119.650186,59.9231204 C118.70858,61.2762162 116.481606,61.3895086 115.379863,60.1839066 C114.577042,59.333145 114.354985,58.1254054 114.288795,56.9988943 L114.288795,56.9988943 Z" id="Shape" fill="#FCFDFF"></path>
                    <path d="M36.4730803,15.116474 C39.1353579,12.4708671 41.8959219,9.91722543 44.3274403,7.05132948 C46.9683514,9.69907514 49.6220824,12.3318497 52.2501735,14.9924277 C50.1135141,15.0073988 47.974718,14.9860116 45.8380586,15.0031214 C45.2013341,14.3914451 44.5881128,13.7562428 43.9599349,13.1360116 C41.6074729,15.856474 39.015705,18.3523699 36.4794902,20.8974566 C35.2487744,22.2042197 33.902679,23.579422 33.4838937,25.3887861 C33.1612581,26.680578 33.5287636,27.9937572 33.889859,29.2342197 C32.5843601,27.0548555 31.4562039,24.5140462 31.9647289,21.9154913 C32.5373536,19.1586705 34.58,17.0648555 36.4730803,15.116474 L36.4730803,15.116474 Z" id="Shape" fill="#084379"></path>
                    <path d="M48.4447831,19.3704046 C50.1541106,18.2154913 52.222397,17.7513873 54.2522234,17.603815 C52.1262473,18.0080347 50.0301844,18.9832948 48.6990456,20.7434682 C46.6863124,23.350578 46.0880477,26.7062428 45.6543059,29.8908092 C47.0153579,29.3989017 48.37641,28.9027168 49.7395987,28.4172254 C47.8123319,33.1480925 45.917115,37.8917919 43.9577983,42.6076879 C42.0091649,37.8875145 40.1054013,33.1480925 38.1781345,28.4172254 C39.7656725,28.9818497 41.3403905,29.5721387 42.9300651,30.1260694 C43.3979935,27.7863006 43.9877115,25.4422543 45.0859544,23.3099422 C45.8765184,21.7615029 46.9854447,20.3392486 48.4447831,19.3704046 L48.4447831,19.3704046 Z" id="Shape" fill="#084379"></path>
                    <path d="M18.0892625,17.6187861 C21.8262798,17.6166474 25.5632972,17.6080925 29.3003145,17.6230636 C27.7875597,19.1458382 26.2662581,20.6621965 24.7492299,22.1806936 C23.8838829,22.1828324 23.0185358,22.1785549 22.1531887,22.1849711 C22.3839479,25.6710983 22.3668547,29.1636416 22.3497614,32.6540462 C22.3882213,34.6024277 22.3668547,36.7219075 23.4907375,38.4072254 C24.1872885,39.465896 25.3111714,40.1117919 26.4030043,40.6892486 C24.2684816,40.1567052 22.0677223,39.3653757 20.5293275,37.7185549 C19.0956291,36.1893642 18.5614642,34.0634682 18.3819848,32.0295376 C18.029436,27.2323699 18.5892408,22.4095376 18.0892625,17.6187861 L18.0892625,17.6187861 Z" id="Shape" fill="#084379"></path>
                    <path d="M58.9250976,18.2989017 C62.7262148,18.2860694 66.5358785,18.4593064 70.3305857,18.1363584 C70.3391323,21.870578 70.341269,25.602659 70.328449,29.3368786 C68.7964642,27.8312139 67.285846,26.3041618 65.7730911,24.7813873 C65.7795011,23.9152023 65.7773644,23.0468786 65.7752278,22.1806936 C62.9954338,22.3774566 60.2092299,22.413815 57.423026,22.390289 C55.5149892,22.4095376 53.5813124,22.2876301 51.6967787,22.6640462 C50.5985358,22.8821965 49.5344794,23.3805202 48.758872,24.2017919 C48.1584707,24.8091908 47.7781453,25.5834104 47.3294469,26.2998844 C47.9170282,23.8253757 48.9896312,21.2204046 51.2288503,19.8109827 C53.5150759,18.3887283 56.3140998,18.3245665 58.9250976,18.2989017 L58.9250976,18.2989017 Z" id="Shape" fill="#084379"></path>
                    <path d="M29.5652603,25.5919653 C29.3900542,22.8522543 30.6656399,20.2408671 32.4326573,18.2219075 C31.3493709,19.9649711 30.5908568,22.0053179 30.8622126,24.0884393 C31.2553579,27.3949133 33.199718,30.2415607 35.1846746,32.8123121 C35.8449024,31.4157225 36.4901735,30.0127168 37.152538,28.6161272 C39.116128,33.4304046 41.073308,38.2489595 43.0176681,43.0696532 C38.2016377,41.1212717 33.3834707,39.1750289 28.5802603,37.1924277 C30.1977115,36.4395954 31.8151627,35.6846243 33.4240672,34.9168208 C31.5480803,32.1172254 29.7853362,29.0310405 29.5652603,25.5919653 L29.5652603,25.5919653 Z" id="Shape" fill="#084379"></path>
                    <path d="M112.837289,24.3151445 C112.841562,23.5708671 112.839425,22.8265896 112.841562,22.0801734 C113.632126,22.0823121 114.424826,22.0823121 115.217527,22.0823121 C115.21539,22.8265896 115.21539,23.5708671 115.219664,24.3172832 C114.424826,24.3151445 113.629989,24.3151445 112.837289,24.3151445 L112.837289,24.3151445 Z" id="Shape" fill="#084379"></path>
                    <path d="M117.685369,22.0801734 C118.478069,22.0823121 119.268633,22.0823121 120.063471,22.0844509 L120.063471,24.3151445 C119.268633,24.3151445 118.475933,24.3151445 117.683232,24.319422 C117.687505,23.5730058 117.685369,22.8265896 117.685369,22.0801734 L117.685369,22.0801734 Z" id="Shape" fill="#084379"></path>
                    <path d="M114.576529,26.413237 C116.666182,26.0346821 118.969501,26.2335838 120.757885,27.4654913 C122.512082,28.6139884 123.501356,30.6201156 123.890228,32.6305202 C124.22141,34.4591329 124.215,36.3540462 123.838948,38.1762428 C123.447939,40.0433526 122.499262,41.8569942 120.928818,42.9905202 C119.210944,44.2652023 116.948221,44.5132948 114.884208,44.2181503 C113.200521,43.9550867 111.612983,43.0696532 110.576703,41.7051445 C109.108818,39.8230636 108.670803,37.3485549 108.717809,35.0152023 C108.726356,32.9727168 109.185738,30.8746243 110.356627,29.1743353 C111.32026,27.7349711 112.888568,26.7511561 114.576529,26.413237 L114.576529,26.413237 Z M114.777375,28.5220231 C112.634306,29.1679191 111.508286,31.42 111.273254,33.5116763 C111.001898,35.8792486 111.095911,38.5505202 112.619349,40.5117341 C114.367137,42.8087283 118.257993,42.8750289 120.099794,40.6635838 C121.426659,39.1258382 121.712972,36.9913873 121.680922,35.0280347 C121.651009,33.1160116 121.24718,31.0478613 119.871171,29.6298844 C118.574219,28.2931792 116.505933,28.0386705 114.777375,28.5220231 L114.777375,28.5220231 Z" id="Shape" fill="#084379"></path>
                    <path d="M176.44564,27.35 C178.580163,26.460289 180.953991,25.9833526 183.255174,26.3939884 C184.994414,26.7169364 186.592636,27.7371098 187.586182,29.2085549 C188.975011,31.1975723 189.28269,33.7234104 189.177993,36.0909827 C189.086117,38.2575145 188.485716,40.5160116 186.962278,42.126474 C185.656779,43.5636994 183.708145,44.322948 181.783015,44.3208092 C180.206161,44.3849711 178.571616,44.0769942 177.240477,43.1936994 C175.590976,42.1371676 174.53333,40.3278035 174.123091,38.4393064 C173.806866,36.8566474 173.783362,35.2376301 173.766269,33.6314451 C178.063091,33.6293064 182.359913,33.6378613 186.656735,33.6271676 C186.419566,32.0145665 185.849078,30.3292486 184.537169,29.2769942 C183.105607,28.1092486 181.082191,28.1456069 179.375,28.554104 C178.285304,28.7979191 177.364403,29.4416763 176.45846,30.0597688 C176.434957,29.1572254 176.44564,28.2525434 176.44564,27.35 L176.44564,27.35 Z M176.202061,35.6931792 C176.27257,37.2587283 176.558883,38.8756069 177.452007,40.197341 C179.043818,42.7766474 183.21244,42.992659 185.141844,40.7020809 C186.317007,39.3226012 186.693059,37.4597688 186.759295,35.6953179 C183.240217,35.6910405 179.721139,35.6931792 176.202061,35.6931792 L176.202061,35.6931792 Z" id="Shape" fill="#084379"></path>
                    <path d="M93.5624837,26.5736416 C94.3466377,26.5736416 95.1329284,26.5736416 95.9192191,26.5757803 L95.9192191,33.4175723 C98.5793601,33.419711 101.239501,33.4175723 103.901779,33.4175723 L103.901779,26.5736416 L106.243557,26.5736416 C106.243557,32.380289 106.241421,38.1869364 106.245694,43.9935838 C105.463677,43.9914451 104.681659,43.9914451 103.899642,43.9935838 C103.914599,41.1490751 103.880412,38.3045665 103.916735,35.4621965 C101.252321,35.4065896 98.5857701,35.4536416 95.9192191,35.4365318 C95.9170824,38.2895954 95.9192191,41.1405202 95.9192191,43.9914451 C95.1329284,43.9914451 94.3466377,43.9914451 93.5603471,43.9935838 C93.566757,38.1869364 93.5624837,32.380289 93.5624837,26.5736416 L93.5624837,26.5736416 Z" id="Shape" fill="#084379"></path>
                    <path d="M126.593102,26.5736416 C127.370846,26.5736416 128.146453,26.5736416 128.926334,26.5715029 C128.926334,29.2320809 128.928471,31.8905202 128.924197,34.5510983 C131.278796,31.8819653 133.650488,29.2299422 136.01577,26.5736416 L138.885304,26.5736416 C136.479425,29.1636416 134.082093,31.7621965 131.680488,34.356474 C134.223113,37.5667052 136.759328,40.7833526 139.299816,43.9957225 C138.278492,43.9914451 137.257169,43.9935838 136.237983,43.9914451 C134.139783,41.3009249 132.035174,38.6146821 129.926291,35.9327168 C129.588698,36.3112717 129.251106,36.6898266 128.922061,37.0747977 C128.937017,39.3803468 128.917787,41.685896 128.930607,43.9914451 C128.150727,43.9935838 127.370846,43.9935838 126.593102,43.9914451 C126.595239,38.1869364 126.593102,32.380289 126.593102,26.5736416 L126.593102,26.5736416 Z" id="Shape" fill="#084379"></path>
                    <path d="M140.481388,26.5736416 C141.259132,26.5736416 142.03474,26.5736416 142.81462,26.5715029 C142.818894,30.1709827 142.810347,33.7683237 142.818894,37.3678035 C142.84026,38.5334104 142.863764,39.7867052 143.528265,40.7940462 C144.113709,41.732948 145.224772,42.2163006 146.303785,42.2483815 C147.506725,42.3339306 148.85282,42.1243353 149.720304,41.2089595 C150.549328,40.2914451 150.724534,38.9996532 150.737354,37.8105202 C150.73949,34.0656069 150.735217,30.3185549 150.737354,26.5736416 C151.521508,26.5736416 152.307798,26.5736416 153.094089,26.5715029 C153.100499,30.1773988 153.094089,33.7854335 153.098362,37.3934682 C153.079132,39.0787861 152.929566,40.9095376 151.844143,42.2847399 C150.741627,43.6920231 148.914783,44.3421965 147.164859,44.3186705 C145.357245,44.4084971 143.372289,44.0342197 142.077473,42.669711 C140.84462,41.4591908 140.530531,39.6562428 140.483525,37.9987283 C140.477115,34.1917919 140.483525,30.3827168 140.481388,26.5736416 L140.481388,26.5736416 Z" id="Shape" fill="#084379"></path>
                    <path d="M156.292668,26.5736416 L159.480564,26.5736416 C160.918536,29.7967052 162.373601,33.0112139 163.805163,36.2364162 C165.170488,33.0090751 166.58923,29.8031214 167.965239,26.5800578 C169.052798,26.5672254 170.142495,26.5779191 171.232191,26.5715029 C171.236464,32.3781503 171.227918,38.1847977 171.236464,43.9914451 C170.448037,43.9914451 169.661746,43.9935838 168.875456,43.9914451 C168.873319,39.016763 168.888275,34.0420809 168.869046,29.0673988 C167.388341,32.4444509 165.877722,35.8086705 164.386334,39.1835838 L162.935542,39.1835838 C161.446291,35.7915607 159.944219,32.403815 158.459241,29.0096532 C158.463514,34.0057225 158.454967,38.9996532 158.463514,43.9935838 C157.739187,43.9914451 157.014859,43.9914451 156.292668,43.9914451 C156.294805,38.1869364 156.292668,32.380289 156.292668,26.5736416 L156.292668,26.5736416 Z" id="Shape" fill="#084379"></path>
                    <path d="M189.863861,26.5757803 C194.538872,26.5736416 199.213883,26.5736416 203.888894,26.5736416 C203.886757,27.247341 203.886757,27.9210405 203.89103,28.5947399 C201.944534,28.5926012 199.998037,28.5926012 198.05154,28.5926012 L198.05154,43.9914451 C197.271659,43.9935838 196.491779,43.9914451 195.714035,43.9935838 C195.722581,38.8606358 195.716171,33.7255491 195.716171,28.5926012 C193.765401,28.5947399 191.814631,28.5947399 189.863861,28.5926012 C189.861725,27.9189017 189.861725,27.247341 189.863861,26.5757803 L189.863861,26.5757803 Z" id="Shape" fill="#084379"></path>
                    <path d="M50.7737419,28.6289595 C51.5301193,30.2436994 52.2822234,31.860578 53.0471475,33.4710405 C55.8995879,31.5632948 59.0532972,29.7389595 62.5702386,29.6084971 C65.2325163,29.4865896 67.7516377,30.7527168 69.7173644,32.4679769 C68.0251302,31.4328324 66.0764967,30.6735838 64.0594902,30.8874566 C60.6750217,31.2125434 57.7670282,33.2165318 55.1410738,35.2312139 C56.4529826,35.8407514 57.7584816,36.4631214 59.0725271,37.0705202 C54.3547831,39.0659538 49.643449,41.0742197 44.9107484,43.0354335 C46.8636551,38.2318497 48.7909219,33.4175723 50.7737419,28.6289595 Z" id="Shape" fill="#084379"></path>
                    <path d="M58.7627115,33.9201734 C60.7839913,32.6989595 63.1022668,31.6531214 65.523102,31.9268786 C67.8136009,32.2027746 69.732321,33.6421387 71.3925054,35.1478035 C74.6145879,38.1676879 77.5097614,41.5319075 80.8899566,44.3849711 C78.2426356,47.0241618 75.6124078,49.6783237 72.9586768,52.313237 C72.9437202,50.1745087 72.9629501,48.0357803 72.9501302,45.897052 C73.5590781,45.259711 74.1958026,44.6501734 74.8090239,44.0149711 C72.123243,41.685896 69.657538,39.1236994 67.1448265,36.6128324 C65.8030043,35.3509827 64.4077657,33.9543931 62.5531453,33.5245087 C61.2796963,33.2122543 59.9870174,33.569422 58.7627115,33.9201734 L58.7627115,33.9201734 Z" id="Shape" fill="#084379"></path>
                    <path d="M19.2686985,39.4209827 C18.1960954,37.7591908 17.7153471,35.7765896 17.5935575,33.8196532 C18.0059328,35.9519653 19.0293926,38.0436416 20.8113666,39.3504046 C23.4074078,41.2902312 26.7,41.9040462 29.8451627,42.3039884 C29.3580043,40.9480347 28.864436,39.5942197 28.3794143,38.2382659 C33.1249349,40.1524277 37.8619089,42.0815607 42.5967462,44.023526 C37.8319957,46.0553179 33.0544252,48.0593064 28.281128,50.069711 C28.8729826,48.3908092 29.4862039,46.7204624 30.0908785,45.0458382 C27.6593601,44.5560694 25.2171584,43.9379769 23.0206725,42.7509827 C21.5378308,41.9510983 20.187462,40.8496532 19.2686985,39.4209827 L19.2686985,39.4209827 Z" id="Shape" fill="#084379"></path>
                    <path d="M7.02991323,43.63 C9.68150759,41.0057803 12.2989154,38.3452023 14.9526464,35.7231214 C14.9547831,37.859711 14.9419631,39.9963006 14.9590564,42.1328902 C14.3543818,42.7723699 13.7197939,43.3819075 13.1022993,44.0106936 C15.9055965,46.4317341 18.4653145,49.1115607 21.0934056,51.7165318 C22.3860846,52.9377457 23.7984165,54.2380925 25.614577,54.5482081 C26.8217896,54.777052 28.0247289,54.4220231 29.1763883,54.0947977 C27.1380152,55.3160116 24.8133297,56.3768208 22.377538,56.0945087 C19.9802061,55.8036416 18.0059328,54.2466474 16.2880586,52.659711 C13.1706725,49.6826012 10.3118221,46.4360116 7.02991323,43.63 L7.02991323,43.63 Z" id="Shape" fill="#084379"></path>
                    <path d="M46.6136659,43.4439306 C50.9596312,41.6174566 55.2970499,39.7738728 59.6408785,37.9516763 C59.0426139,39.6284393 58.4336659,41.3030636 57.8289913,42.9776879 C60.7070716,43.5636994 63.6385683,44.3250867 66.0914534,46.0104046 C68.8370607,47.7962428 70.2387093,51.0920231 70.3134924,54.2915607 C69.9652169,52.0501734 68.8242408,49.8921965 66.9546638,48.5640462 C64.3778525,46.7033526 61.1557701,46.1301734 58.0747072,45.7067052 C58.5533189,47.0733526 59.0575705,48.4314451 59.5404555,49.7980925 C54.8248482,47.8775145 50.1049675,45.9719075 45.3979067,44.0320809 C45.7654121,43.7668786 46.1970174,43.6150289 46.6136659,43.4439306 L46.6136659,43.4439306 Z" id="Shape" fill="#084379"></path>
                    <path d="M28.8409328,50.9465896 C33.5672234,48.9661272 38.2742842,46.9386127 43.0133948,44.9880925 C41.0562148,49.7916763 39.1204013,54.6059538 37.1504013,59.4052601 C36.3812039,57.792659 35.6483297,56.162948 34.8663124,54.556763 C32.0758351,56.4281503 29.0033189,58.1883237 25.5782538,58.4150289 C22.8390564,58.5989595 20.2195119,57.3285549 18.2003688,55.5576879 C19.9438829,56.6356069 21.982256,57.3927168 24.0633623,57.1189595 C27.3602278,56.7211561 30.1977115,54.777052 32.7659761,52.7965896 C31.4604772,52.1699422 30.144295,51.5689595 28.8409328,50.9465896 L28.8409328,50.9465896 Z" id="Shape" fill="#084379"></path>
                    <path d="M44.932115,44.9624277 C49.737462,46.9150867 54.5428091,48.8634682 59.3438829,50.8268208 C57.724295,51.5839306 56.1047072,52.336763 54.4915293,53.1088439 C56.3952928,55.9597688 58.21359,59.1101156 58.3567462,62.6240462 C58.4828091,65.3017341 57.2029501,67.8211561 55.4957592,69.8037572 C56.5256291,68.0991908 57.2926898,66.1443931 57.0726139,64.1168786 C56.745705,60.7334104 54.7415184,57.8332948 52.7351952,55.2069364 C52.1198373,56.5179769 51.5087527,57.8290173 50.8933948,59.1379191 C48.8998915,54.4156069 46.895705,49.6975723 44.932115,44.9624277 L44.932115,44.9624277 Z" id="Shape" fill="#084379"></path>
                    <path d="M43.9214751,45.5120809 C43.9492516,45.5142197 44.0048048,45.5142197 44.0325813,45.5163584 C46.0367679,50.2408092 48.0259978,54.973815 50.0152278,59.7046821 C48.3379501,59.1079769 46.6649458,58.4963006 44.9919414,57.8931792 C44.5218764,60.2265318 43.9364317,62.5663006 42.842462,64.6943353 C42.0348048,66.2812717 40.8938286,67.7356069 39.3874837,68.7108671 C37.6973861,69.8230058 35.6696963,70.2721387 33.6783297,70.4218497 C35.7978959,70.0112139 37.8896855,69.0380925 39.2186876,67.2800578 C41.2314208,64.6750867 41.8339588,61.319422 42.2634273,58.1369942 C40.9023753,58.6139306 39.5498698,59.1208092 38.1888178,59.5977457 C40.088308,54.8989595 41.9835249,50.195896 43.9214751,45.5120809 L43.9214751,45.5120809 Z" id="Shape" fill="#084379"></path>
                    <path d="M61.6301085,47.3642197 C63.627885,47.8753757 65.6683948,48.6110983 67.172603,50.0846821 C68.2046095,51.0920231 68.8562907,52.4351445 69.1853362,53.8295954 C69.657538,55.7908092 69.6532646,57.8247399 69.657538,59.8308671 C69.631898,63.3576301 69.5229284,66.8908092 69.8135141,70.4111561 C66.0807701,70.4239884 62.348026,70.4239884 58.615282,70.4111561 C60.1301735,68.8755491 61.657885,67.3527746 63.1877332,65.8321387 C64.0466703,65.8385549 64.9034707,65.8364162 65.7624078,65.8364162 C65.6192516,63.4068208 65.5380586,60.9750867 65.5658351,58.5433526 C65.5444685,56.6056647 65.6491649,54.659422 65.4440456,52.730289 C65.3072993,51.4342197 64.9291106,50.1060694 64.042397,49.1179769 C63.3864425,48.3480347 62.4698156,47.8924855 61.6301085,47.3642197 L61.6301085,47.3642197 Z" id="Shape" fill="#084379"></path>
                    <path d="M95.7824729,49.4580347 L97.2012148,49.4580347 C97.1990781,49.9178613 97.2012148,50.3755491 97.2012148,50.8353757 C96.7268764,50.8353757 96.252538,50.8353757 95.7803362,50.8375145 C95.7803362,50.3776879 95.7803362,49.9178613 95.7824729,49.4580347 L95.7824729,49.4580347 Z" id="Shape" fill="#084379"></path>
                    <path d="M98.6028633,49.4580347 L100.025879,49.4580347 C100.023742,49.9178613 100.025879,50.3755491 100.028015,50.8353757 L98.6007267,50.8353757 C98.6007267,50.3755491 98.6007267,49.9178613 98.6028633,49.4580347 L98.6028633,49.4580347 Z" id="Shape" fill="#084379"></path>
                    <path d="M133.669718,49.4601734 C134.176106,49.4580347 134.682495,49.4580347 135.19102,49.455896 C135.19102,49.9157225 135.19102,50.3776879 135.195293,50.8396532 C134.684631,50.8375145 134.176106,50.8353757 133.669718,50.8353757 C133.667581,50.3755491 133.667581,49.9178613 133.669718,49.4601734 L133.669718,49.4601734 Z" id="Shape" fill="#084379"></path>
                    <path d="M96.4298807,52.0886705 C97.9105857,51.7101156 99.6412798,51.8747977 100.820716,52.927052 C102.023655,54.0006936 102.431757,55.6945665 102.40398,57.2536994 C102.43603,58.8577457 102.004425,60.6200578 100.713883,61.6787283 C99.6412798,62.6069364 98.1178416,62.7416763 96.7717462,62.5192486 C95.5239371,62.2861272 94.4513341,61.4071098 93.9193059,60.2650289 C93.2569414,58.8834104 93.2248915,57.2857803 93.4342842,55.7950867 C93.6821367,54.1482659 94.7611497,52.5356647 96.4298807,52.0886705 L96.4298807,52.0886705 Z M96.9811388,53.2157803 C95.7525597,53.5430058 95.0581453,54.7813295 94.8765293,55.9640462 C94.6543167,57.4269364 94.6970499,59.0823121 95.5965835,60.3249133 C96.5922668,61.7086705 98.8827657,61.7878035 99.9895553,60.5045665 C100.820716,59.5678035 100.985239,58.2460694 100.957462,57.0398266 C100.929685,55.9298266 100.692516,54.73 99.897679,53.9023121 C99.1626681,53.1216763 97.9810954,52.9698266 96.9811388,53.2157803 L96.9811388,53.2157803 Z" id="Shape" fill="#084379"></path>
                    <path d="M114.437646,52.5356647 C116.260217,51.8234682 118.580629,51.4834104 120.22372,52.7880347 C121.913818,54.1504046 122.172354,56.5607514 121.892451,58.579711 C121.693742,60.2479191 120.636095,61.886185 118.978048,62.397341 C117.32,62.8742775 115.27308,62.626185 114.119284,61.2253179 C112.903525,59.8565318 112.892842,57.9252601 112.869338,56.1993064 C115.40769,56.1950289 117.946041,56.2014451 120.486529,56.1971676 C120.30705,55.052948 119.792115,53.8124855 118.655412,53.3334104 C117.23667,52.8051445 115.632039,53.2307514 114.446193,54.1054913 C114.439783,53.5815029 114.437646,53.0596532 114.437646,52.5356647 L114.437646,52.5356647 Z M114.317993,57.3991329 C114.38423,58.5262428 114.606443,59.7346243 115.409826,60.5858382 C116.512343,61.7920809 118.740879,61.6787283 119.683145,60.3249133 C120.304913,59.4843931 120.473709,58.4150289 120.546356,57.3969942 C118.469523,57.3991329 116.394826,57.3948555 114.317993,57.3991329 L114.317993,57.3991329 Z" id="Shape" fill="#084379"></path>
                    <path d="M138.710098,52.6383237 C140.267722,51.4791329 142.438568,51.8491329 144.124393,52.5249711 C144.122256,53.0874566 144.120119,53.6499422 144.115846,54.2145665 C142.94282,53.320578 141.295456,52.7174566 139.880987,53.3954335 C138.829751,53.8616763 138.784881,55.5619653 139.806204,56.0816763 C140.88949,56.603526 142.154393,56.6013873 143.229132,57.1638728 C144.286779,57.6686127 144.722657,58.9646821 144.483351,60.0661272 C144.310282,61.169711 143.453482,62.027341 142.434295,62.4144509 C142.468482,63.2742197 142.474892,64.2836994 141.750564,64.8889595 C141.028373,65.5647977 139.970727,65.4022543 139.084013,65.2696532 C139.077603,64.8782659 139.071193,64.4868786 139.06692,64.0976301 C139.667321,64.2430636 140.353189,64.4419653 140.936497,64.1211561 C141.466388,63.806763 141.338189,63.1180925 141.363829,62.602659 C140.03269,62.6882081 138.695141,62.4422543 137.507158,61.8284393 C137.513568,61.2445665 137.515705,60.6606936 137.524252,60.0789595 C138.502842,60.8531792 139.690824,61.4712717 140.97282,61.4071098 C141.750564,61.4199422 142.654371,61.1076879 142.966323,60.3313295 C143.209902,59.6597688 143.079566,58.7465318 142.402245,58.3786705 C141.162983,57.7498844 139.609631,57.8739306 138.498568,56.9649711 C137.201616,55.8784971 137.329816,53.6071676 138.710098,52.6383237 L138.710098,52.6383237 Z" id="Shape" fill="#084379"></path>
                    <path d="M160.721963,52.0416185 C162.112928,51.7486127 163.700466,51.8897688 164.824349,52.8350867 C166.052928,53.840289 166.5059,55.4978035 166.533677,57.0291329 C166.572137,58.6139306 166.232408,60.3484393 165.048698,61.4862428 C163.843623,62.6710983 161.959089,62.8357803 160.399328,62.3909249 C158.848113,61.9075723 157.837473,60.4104624 157.572527,58.8577457 C157.301171,57.1767052 157.360998,55.3245665 158.271215,53.8338728 C158.801106,52.9334682 159.711323,52.2854335 160.721963,52.0416185 L160.721963,52.0416185 Z M161.083059,53.2200578 C159.867299,53.5515607 159.175022,54.7813295 158.993406,55.9554913 C158.771193,57.4162428 158.809653,59.0652023 159.698503,60.3099422 C160.689913,61.6979769 162.984685,61.7963584 164.097885,60.5109827 C164.884176,59.6319653 165.078612,58.3957803 165.078612,57.2558382 C165.076475,56.0709827 164.852126,54.7834682 164.008145,53.8916185 C163.264588,53.1216763 162.083015,52.9676879 161.083059,53.2200578 L161.083059,53.2200578 Z" id="Shape" fill="#084379"></path>
                    <path d="M103.944512,52.1357225 C105.579056,52.2020231 107.262744,51.943237 108.858829,52.4052023 C110.324577,52.8179769 111.478373,54.0627168 111.858698,55.5298844 C112.30526,57.2365896 112.112961,59.2020809 111.006171,60.626474 C110.219881,61.6765896 108.935748,62.2690173 107.643069,62.3524277 C106.412354,62.4251445 105.177364,62.3673988 103.944512,62.3845087 L103.944512,52.1357225 L103.944512,52.1357225 Z M105.348297,61.2295954 C106.638839,61.1761272 108.068265,61.3130058 109.185738,60.5323699 C110.130141,59.9228324 110.563883,58.7807514 110.608753,57.6942775 C110.709176,56.3532948 110.388677,54.7813295 109.177191,54.0092486 C108.061855,53.2286127 106.640976,53.3291329 105.348297,53.2927746 C105.346161,55.9383815 105.344024,58.5839884 105.348297,61.2295954 L105.348297,61.2295954 Z" id="Shape" fill="#084379"></path>
                    <path d="M123.388113,52.1357225 C124.048341,52.1335838 124.712842,52.1335838 125.375206,52.1357225 C126.746941,54.8155491 128.099447,57.5039306 129.464772,60.185896 C129.451952,57.5017919 129.466909,54.8176879 129.456226,52.1335838 C129.894241,52.1335838 130.332256,52.1335838 130.772408,52.1357225 C130.770271,55.5512717 130.770271,58.9689595 130.772408,62.3845087 L129.199826,62.3845087 C127.697755,59.4587283 126.202093,56.5286705 124.700022,53.6028902 C124.702158,56.5308092 124.695748,59.4587283 124.704295,62.3866474 C124.264143,62.3845087 123.823991,62.3845087 123.388113,62.3845087 L123.388113,52.1357225 L123.388113,52.1357225 Z" id="Shape" fill="#084379"></path>
                    <path d="M132.426182,52.1314451 C133.761594,52.1378613 135.097007,52.1335838 136.432419,52.1335838 C136.430282,52.4843353 136.430282,52.8372254 136.432419,53.1901156 C135.99654,53.1879769 135.558525,53.1879769 135.124783,53.1879769 C135.122646,55.9020231 135.122646,58.6182081 135.124783,61.3322543 C135.558525,61.3301156 135.99654,61.3301156 136.432419,61.3301156 C136.430282,61.6808671 136.430282,62.0337572 136.434555,62.3866474 C135.097007,62.3866474 133.761594,62.3823699 132.428319,62.3887861 C132.426182,62.0337572 132.426182,61.6808671 132.428319,61.3279769 C132.859924,61.3301156 133.295803,61.3301156 133.731681,61.3322543 C133.733818,58.6182081 133.733818,55.9020231 133.731681,53.1879769 C133.295803,53.1879769 132.859924,53.1901156 132.428319,53.1922543 C132.426182,52.8372254 132.426182,52.4843353 132.426182,52.1314451 L132.426182,52.1314451 Z" id="Shape" fill="#084379"></path>
                    <path d="M150.203189,52.1335838 C151.961659,52.266185 153.929523,51.7421965 155.506377,52.7516763 C157.273395,53.9087283 157.059729,56.8537572 155.307668,57.9231214 C154.224382,58.6823699 152.85051,58.5305202 151.602701,58.5347977 C151.600564,59.8180347 151.598427,61.1012717 151.604837,62.3866474 C151.134772,62.3845087 150.66898,62.3845087 150.203189,62.3866474 C150.209599,58.9689595 150.209599,55.5512717 150.203189,52.1335838 L150.203189,52.1335838 Z M151.600564,53.2949133 L151.600564,57.3777457 C152.442408,57.3392486 153.318438,57.4183815 154.128232,57.1253757 C155.540564,56.5778613 155.72218,54.186763 154.282072,53.5665318 C153.433818,53.2243353 152.493688,53.3291329 151.600564,53.2949133 L151.600564,53.2949133 Z" id="Shape" fill="#084379"></path>
                    <path d="M167.937462,52.1335838 C169.287831,52.163526 170.642473,52.069422 171.988568,52.1913295 C173.319707,52.3303468 174.505553,53.5216185 174.400857,54.9075145 C174.49487,56.280578 173.546193,57.4953757 172.300521,57.9744509 C173.524826,59.4330636 174.712809,60.925896 175.937115,62.3866474 C175.323894,62.3845087 174.712809,62.3845087 174.101725,62.3866474 C173.020575,61.0306936 171.939425,59.6768786 170.858275,58.3209249 L169.336974,58.3209249 C169.334837,59.6768786 169.332701,61.0306936 169.339111,62.3866474 C168.869046,62.3845087 168.403254,62.3845087 167.937462,62.3866474 C167.943872,58.9689595 167.943872,55.5512717 167.937462,52.1335838 L167.937462,52.1335838 Z M169.334837,53.297052 L169.334837,57.1617341 C170.185228,57.1339306 171.069805,57.217341 171.888145,56.9328902 C173.174414,56.3875145 173.403037,54.116185 172.041985,53.525896 C171.176638,53.2179191 170.234371,53.3269942 169.334837,53.297052 L169.334837,53.297052 Z" id="Shape" fill="#084379"></path>
                    <path d="M175.227744,52.1357225 C177.992581,52.1357225 180.757419,52.1335838 183.522256,52.1357225 C183.520119,52.5228324 183.517983,52.9099422 183.522256,53.297052 C182.366323,53.2991908 181.212527,53.297052 180.060868,53.2991908 C180.065141,56.3297688 180.056594,59.3582081 180.065141,62.3887861 C179.603623,62.3866474 179.142104,62.3845087 178.682722,62.3845087 C178.686996,59.3560694 178.682722,56.3276301 178.684859,53.2991908 C177.5332,53.2991908 176.383677,53.297052 175.234154,53.3013295 C175.229881,52.9120809 175.227744,52.5228324 175.227744,52.1357225 L175.227744,52.1357225 Z" id="Shape" fill="#084379"></path>
                    <path d="M186.101204,52.1378613 C186.671692,52.1699422 187.302007,52.0416185 187.840445,52.1998844 C189.007061,55.5876301 190.13308,58.9924855 191.28474,62.3866474 C190.789035,62.3845087 190.295466,62.3845087 189.801898,62.3845087 C189.492082,61.4220809 189.182267,60.4617919 188.870315,59.5015029 C187.581909,59.4993642 186.291367,59.5036416 185.002961,59.4993642 C184.693145,60.4596532 184.379056,61.4199422 184.075651,62.3823699 C183.594902,62.3845087 183.118427,62.3845087 182.641952,62.3866474 C183.810705,58.9753757 184.945271,55.5534104 186.101204,52.1378613 L186.101204,52.1378613 Z M185.37474,58.3380347 C186.415293,58.335896 187.453709,58.335896 188.496399,58.3380347 C187.968644,56.753237 187.453709,55.1641618 186.930228,53.5772254 C186.421703,55.1663006 185.904631,56.7553757 185.37474,58.3380347 L185.37474,58.3380347 Z" id="Shape" fill="#084379"></path>
                    <path d="M192.188547,52.1357225 C192.654338,52.1335838 193.12013,52.1335838 193.590195,52.1357225 C193.588059,55.1641618 193.590195,58.1926012 193.590195,61.2210405 C195.117907,61.2210405 196.647755,61.2231792 198.17974,61.2189017 C198.177603,61.6081503 198.17974,61.9973988 198.184013,62.3866474 C196.1841,62.3845087 194.186323,62.3866474 192.188547,62.3845087 L192.188547,52.1357225 L192.188547,52.1357225 Z" id="Shape" fill="#084379"></path>
                    <path d="M198.730998,52.1357225 C200.070683,52.1335838 201.412505,52.1335838 202.752191,52.1357225 C202.750054,52.486474 202.750054,52.8372254 202.752191,53.1879769 C202.307766,53.1879769 201.867614,53.1879769 201.429599,53.1901156 C201.427462,55.9041618 201.427462,58.6160694 201.429599,61.3301156 C201.867614,61.3301156 202.309902,61.3301156 202.752191,61.3322543 C202.750054,61.6830058 202.750054,62.0337572 202.752191,62.3845087 C201.410369,62.3866474 200.070683,62.3845087 198.730998,62.3845087 C198.728861,62.0337572 198.728861,61.6808671 198.730998,61.3301156 C199.169013,61.3301156 199.609165,61.3301156 200.051453,61.3322543 C200.051453,58.6203468 200.049317,55.9063006 200.05359,53.1943931 C199.609165,53.1901156 199.169013,53.1879769 198.730998,53.1858382 C198.728861,52.8350867 198.728861,52.4843353 198.730998,52.1357225 L198.730998,52.1357225 Z" id="Shape" fill="#084379"></path>
                    <path d="M17.5807375,58.6780925 C19.1127223,60.1923121 20.6297505,61.7215029 22.1510521,63.2464162 L22.1510521,65.8342775 C24.6466703,65.6867052 27.1465618,65.609711 29.6464534,65.633237 C31.3643275,65.6310983 33.0843384,65.6824277 34.8000759,65.5605202 C36.1931779,65.4493064 37.648243,65.1306358 38.7422126,64.2067052 C39.5861931,63.5308671 40.0861714,62.5534682 40.6288829,61.6445087 C40.0861714,63.7490173 39.310564,65.9176879 37.6888395,67.4404624 C36.3534273,68.7023121 34.5372668,69.286185 32.7510195,69.5214451 C29.7361931,69.9 26.69359,69.6711561 23.6659436,69.679711 C21.6339805,69.6647399 19.597744,69.7203468 17.5743275,69.9021387 C17.5743275,66.1593642 17.5593709,62.4187283 17.5807375,58.6780925 L17.5807375,58.6780925 Z" id="Shape" fill="#084379"></path>
                    <path d="M54.0406941,58.8256647 C55.1538937,60.6820809 56.1282104,62.7545087 56.0769306,64.9702312 C56.0470174,66.9186127 55.0791106,68.7087283 53.8932646,70.2015607 C52.1625705,72.3680925 50.0814642,74.213815 48.1221475,76.166474 C46.5410195,77.7020809 45.0346746,79.3104046 43.5860195,80.9700578 C40.9493818,78.3244509 38.2999241,75.693815 35.671833,73.0396532 C37.8063557,73.0375145 39.9408785,73.0482081 42.077538,73.033237 C42.7185358,73.6384971 43.3232104,74.2801156 43.9599349,74.8896532 C46.2803471,72.1948555 48.8443384,69.7289017 51.3527766,67.2116185 C52.5706725,65.9262428 53.8932646,64.5916763 54.3846963,62.8400578 C54.7778416,61.5033526 54.4252928,60.1174566 54.0406941,58.8256647 L54.0406941,58.8256647 Z" id="Shape" fill="#084379"></path>
                </g>
            </g>
        </g>
    </g>
</svg>