<?xml version="1.0" encoding="UTF-8" standalone="no"?>
<svg width="23px" height="19px" viewBox="0 0 23 19" version="1.1" xmlns="http://www.w3.org/2000/svg" xmlns:xlink="http://www.w3.org/1999/xlink">
    <!-- Generator: Sketch 39.1 (31720) - http://www.bohemiancoding.com/sketch -->
    <title>logout</title>
    <desc>Created with Sketch.</desc>
    <defs></defs>
    <g id="Symbols" stroke="none" stroke-width="1" fill="none" fill-rule="evenodd">
        <g id="header-/-registered" transform="translate(-1098.000000, -36.000000)" fill="#00427A">
            <g id="right">
                <g transform="translate(840.000000, 13.000000)">
                    <g id="ico-/-logout" transform="translate(237.000000, 0.000000)">
                        <g id="logout" transform="translate(21.000000, 23.000000)">
                            <polygon id="Shape" points="22.6390428 9.85080047 23 9.46418997 22.6340632 9.08288517 18.7157322 5 18 5.77317593 21.9183309 9.85606114 21.9133513 9.08814585 18.0394694 13.2373454 18.7651609 14"></polygon>
                            <polygon id="Shape" points="21.455846 10 22 10 22 9 21.455846 9 10.544154 9 10 9 10 10 10.544154 10"></polygon>
                            <path d="M14.5453355,1.60415384 C14.199499,1.38221826 13.8098509,1.16088531 13.3834298,0.95426001 C12.1548218,0.358929519 10.8697537,-1.0256656e-05 9.58225184,0 C7.42501845,1.71879305e-05 5.08440994,0.79971407 3.3039484,2.25120663 C1.20415417,3.96303002 0,6.44028949 0,9.5197298 C0,14.9823865 4.31403847,19 9.58225672,19 C10.9327359,19 12.2326473,18.651967 13.4379245,18.0738252 C13.8579853,17.8723325 14.2370721,17.6562901 14.569835,17.4394571 C14.7729911,17.3070777 14.9182357,17.2016355 15,17.1367228 L14.2930672,16.2686973 C14.2821559,16.2773597 14.2550697,16.2979637 14.2125836,16.328807 C14.1381681,16.3828299 14.0498524,16.4437364 13.9484234,16.509829 C13.655203,16.7008955 13.3185536,16.8927527 12.9449396,17.0719661 C11.8825747,17.5815563 10.7448637,17.8861624 9.58225672,17.8861624 C4.9228297,17.8861624 1.12813653,14.3522092 1.12813653,9.5197298 C1.12813653,6.77558824 2.17974247,4.61216031 4.02223727,3.11009614 C5.59674909,1.82650078 7.68257719,1.11385266 9.58226096,1.11383753 C10.6759421,1.11382883 11.8002409,1.42786317 12.8863977,1.95416794 C13.2701324,2.14010927 13.6209469,2.33938345 13.9305317,2.53805499 C14.0379304,2.60697654 14.1321087,2.67058859 14.2120578,2.72713547 C14.2581307,2.75972221 14.2880364,2.78177513 14.3007794,2.79153584 L14.9922888,1.91148251 C14.9071514,1.84627013 14.7557227,1.73916673 14.5453355,1.60415384 L14.5453355,1.60415384 L14.5453355,1.60415384 Z" id="Shape"></path>
                        </g>
                    </g>
                </g>
            </g>
        </g>
    </g>
</svg>