<?xml version="1.0" encoding="UTF-8" standalone="no"?>
<svg width="95px" height="65px" viewBox="0 0 95 65" version="1.1" xmlns="http://www.w3.org/2000/svg" xmlns:xlink="http://www.w3.org/1999/xlink">
    <!-- Generator: Sketch 40.2 (33826) - http://www.bohemiancoding.com/sketch -->
    <title>message</title>
    <desc>Created with Sketch.</desc>
    <defs></defs>
    <g id="info-pages" stroke="none" stroke-width="1" fill="none" fill-rule="evenodd">
        <g id="template-/-help" transform="translate(-943.000000, -309.000000)" fill="#00427A">
            <g id="message" transform="translate(943.000000, 309.000000)">
                <path d="M69.4473713,1.99127695 C69.2906713,1.3239504 68.8759528,0.746663386 68.2948747,0.38607441 C67.7137967,0.0257008403 67.0135836,-0.0882487225 66.3487891,0.068997366 L1.9843566,15.3074358 C1.3193474,15.4646819 0.744279736,15.8808455 0.384942941,16.4639484 C0.0256061456,17.0470514 -0.0879477161,17.7497045 0.06875232,18.4168156 L10.5526287,63.0081444 C10.8325422,64.1978295 11.8901601,65 13.0576827,65 C13.2534504,65 13.452438,64.9773824 13.6514256,64.930424 L78.0156434,49.6924164 C78.6806526,49.5349549 79.2557203,49.1190067 79.6150571,48.5359037 C79.9743939,47.9528008 80.0879477,47.2501477 79.9312477,46.5830366 L69.4473713,1.99127695 L69.4473713,1.99127695 Z M69.7676404,25.868557 L58.7417536,19.4417155 L65.7866009,8.9355227 L69.7676404,25.868557 L69.7676404,25.868557 Z M6.43656954,22.98643 L17.4186662,29.225007 L10.4178237,39.9194643 L6.43656954,22.98643 L6.43656954,22.98643 Z M9.56670642,18.8239322 L61.1323951,6.61581979 L40.9799119,36.6687784 L9.56670642,18.8239322 L9.56670642,18.8239322 Z M14.9754336,59.3051067 L12.0464308,46.84777 L21.9118787,31.777348 L40.5171101,42.3462238 C40.9168025,42.5734767 41.3532014,42.6820411 41.7840192,42.6820411 C42.6158173,42.6820411 43.4282963,42.2777248 43.923082,41.5399606 L55.8589023,23.7401342 L71.3964622,32.7966473 L74.3252502,45.253984 L14.9754336,59.3051067 L14.9754336,59.3051067 Z" id="Shape"></path>
                <path d="M92.4646102,2 L76.5353898,2 C75.1350095,2 74,3.119375 74,4.5 C74,5.880625 75.1350095,7 76.5353898,7 L92.4646102,7 C93.8649905,7 95,5.880625 95,4.5 C95,3.119375 93.8649905,2 92.4646102,2 L92.4646102,2 Z" id="Shape"></path>
                <path d="M89.4071923,15 L78.5928077,15 C77.1607136,15 76,16.119375 76,17.5 C76,18.880625 77.1607136,20 78.5928077,20 L89.4071923,20 C90.8392864,20 92,18.880625 92,17.5 C92,16.119375 90.8392864,15 89.4071923,15 L89.4071923,15 Z" id="Shape"></path>
                <path d="M86.6011994,28 L81.3988006,28 C80.0738631,28 79,29.119375 79,30.5 C79,31.880625 80.0738631,33 81.3988006,33 L86.6011994,33 C87.9261369,33 89,31.880625 89,30.5 C89,29.119375 87.9261369,28 86.6011994,28 L86.6011994,28 Z" id="Shape"></path>
            </g>
        </g>
    </g>
</svg>