<?xml version="1.0" encoding="UTF-8" standalone="no"?>
<svg width="10px" height="18px" viewBox="0 0 10 18" version="1.1" xmlns="http://www.w3.org/2000/svg" xmlns:xlink="http://www.w3.org/1999/xlink">
    <!-- Generator: Sketch 39.1 (31720) - http://www.bohemiancoding.com/sketch -->
    <title>key-in-diagonal-position</title>
    <desc>Created with Sketch.</desc>
    <defs></defs>
    <g id="Page-1" stroke="none" stroke-width="1" fill="none" fill-rule="evenodd">
        <g id="1.6-Personal-Cabinet-settings" transform="translate(-532.000000, -630.000000)" fill="#B3C0CA">
            <g id="Group-2" transform="translate(517.000000, 177.000000)">
                <g id="field-/-normal-copy" transform="translate(0.000000, 417.000000)">
                    <g id="key-in-diagonal-position" transform="translate(15.000000, 36.000000)">
                        <g id="cellphone">
                            <g id="Capa_1">
                                <path d="M8.46153682,17.563319 C8.46153682,17.563319 10,17.563319 10,16.0049424 L10,1.97883847 C10,0.420461848 8.46153682,0.420461848 8.46153682,0.420461848 L1.53846318,0.420461848 C1.53846318,0.420461848 0,0.420461848 0,1.97883847 L0,16.0049424 C0,17.563319 1.53846318,17.563319 1.53846318,17.563319 L8.46153682,17.563319 L8.46153682,17.563319 Z M5,16.9144445 C4.57539195,16.9144445 4.23077911,16.5658731 4.23077911,16.1364359 C4.23077911,15.7069554 4.57539195,15.3584272 5,15.3584272 C5.42460805,15.3584272 5.76924229,15.706977 5.76924229,16.1364359 C5.76924229,16.5658947 5.42462945,16.9144445 5,16.9144445 L5,16.9144445 Z M3.07692637,1.37041856 C3.07692637,1.2739467 3.15309088,1.19847051 3.24693223,1.19847051 L6.75234015,1.19847051 C6.8461815,1.19847051 6.92309503,1.27550514 6.92309503,1.37041856 L6.92309503,1.41632765 C6.92309503,1.51357873 6.84693052,1.5882757 6.75311057,1.5882757 L3.24693223,1.5882757 C3.1538613,1.5882757 3.07692637,1.51124107 3.07692637,1.41632765 L3.07692637,1.37041856 L3.07692637,1.37041856 Z M0.769242293,2.36550514 L9.23077911,2.36550514 L9.23077911,14.8137952 L0.769242293,14.8137952 L0.769242293,2.36550514 L0.769242293,2.36550514 Z" id="Shape"></path>
                            </g>
                        </g>
                    </g>
                </g>
            </g>
        </g>
    </g>
</svg>