<?xml version="1.0" encoding="UTF-8" standalone="no"?>
<svg width="14px" height="17px" viewBox="0 0 14 17" version="1.1" xmlns="http://www.w3.org/2000/svg" xmlns:xlink="http://www.w3.org/1999/xlink">
    <!-- Generator: Sketch 39.1 (31720) - http://www.bohemiancoding.com/sketch -->
    <title>money-bag-icon</title>
    <desc>Created with Sketch.</desc>
    <defs></defs>
    <g id="Page-1" stroke="none" stroke-width="1" fill="none" fill-rule="evenodd">
        <g id="1.6-Personal-Cabinet-settings" transform="translate(-533.000000, -360.000000)" fill="#B3C0CA">
            <g id="Group-2" transform="translate(517.000000, 177.000000)">
                <g id="filter-/-normal-copy-2" transform="translate(0.000000, 147.000000)">
                    <g id="money-bag-icon" transform="translate(16.000000, 36.000000)">
                        <g id="Capa_1">
                            <path d="M8.61603559,3.36518689 L8.61603559,3.38880429 L4.43728683,3.40890109 L4.56559755,3.18600266 L4.56559755,3.18600266 L4.79883153,2.96024373 L8.15749695,2.94447435 L9.10276735,0 L4.05459728,0.025084325 L4.77768669,2.88865806 C4.25499269,2.35264564 2.97004326,1.21394931 1.80171082,1.6081106 L1.92849976,1.92914595 C2.92230718,1.59160776 4.13757475,2.73741865 4.56407576,3.18600266 C3.85276018,3.42606405 2.9301564,3.60092087 2.38319389,3.15307032 L2.13594344,3.41102813 C2.46072496,3.67764076 2.87232847,3.76932324 3.30579767,3.76792966 C3.55937555,3.76792966 3.82072255,3.72993644 4.07269854,3.67903433 C1.69846954,5.17169836 0.0410826156,8.4867166 0.0567810565,10.9983763 C0.074802226,14.331291 3.04292888,17.0178075 6.6777587,16.9999111 C10.318115,16.9841417 13.2510003,14.26748 13.2330592,10.9331718 C13.2157589,8.24592175 11.276601,4.64720126 8.61603559,3.36518689 L8.61603559,3.36518689 Z" id="Shape"></path>
                        </g>
                    </g>
                </g>
            </g>
        </g>
    </g>
</svg>