<?xml version="1.0" encoding="UTF-8" standalone="no"?>
<svg width="14px" height="17px" viewBox="0 0 14 17" version="1.1" xmlns="http://www.w3.org/2000/svg" xmlns:xlink="http://www.w3.org/1999/xlink">
    <!-- Generator: Sketch 39.1 (31720) - http://www.bohemiancoding.com/sketch -->
    <title>Group 6</title>
    <desc>Created with Sketch.</desc>
    <defs></defs>
    <g id="Page-1" stroke="none" stroke-width="1" fill="none" fill-rule="evenodd">
        <g id="1.6-Personal-Cabinet-settings" transform="translate(-533.000000, -270.000000)">
            <g id="Group-2" transform="translate(517.000000, 177.000000)">
                <g id="filter-/-normal" transform="translate(0.000000, 57.000000)">
                    <g id="Group-6" transform="translate(16.000000, 36.000000)">
                        <g id="money-bag-icon">
                            <g id="Capa_1">
                                <path d="M8.61603559,3.36518689 L8.61603559,3.38880429 L4.43728683,3.40890109 L4.56559755,3.18600266 L4.56559755,3.18600266 L4.79883153,2.96024373 L8.15749695,2.94447435 L9.10276735,0 L4.05459728,0.025084325 L4.77768669,2.88865806 C4.25499269,2.35264564 2.97004326,1.21394931 1.80171082,1.6081106 L1.92849976,1.92914595 C2.92230718,1.59160776 4.13757475,2.73741865 4.56407576,3.18600266 C3.85276018,3.42606405 2.9301564,3.60092087 2.38319389,3.15307032 L2.13594344,3.41102813 C2.46072496,3.67764076 2.87232847,3.76932324 3.30579767,3.76792966 C3.55937555,3.76792966 3.82072255,3.72993644 4.07269854,3.67903433 C1.69846954,5.17169836 0.0410826156,8.4867166 0.0567810565,10.9983763 C0.074802226,14.331291 3.04292888,17.0178075 6.6777587,16.9999111 C10.318115,16.9841417 13.2510003,14.26748 13.2330592,10.9331718 C13.2157589,8.24592175 11.276601,4.64720126 8.61603559,3.36518689 L8.61603559,3.36518689 Z" id="Shape" fill="#B3C0CA"></path>
                                <g id="noun_248779_cc-(1)" transform="translate(2.625000, 6.263158)" fill="#FFFFFF">
                                    <g id="Group">
                                        <g id="Shape">
                                            <path d="M3.74819712,1.99178041 L3.74819712,5.48540646 C3.74819712,5.58368533 3.83632944,5.66333709 3.94507212,5.66333709 C4.05381479,5.66333709 4.14194712,5.58368533 4.14194712,5.48540646 L4.14194712,1.99178041 C4.07673227,1.98861797 4.01113291,1.98684561 3.94507212,1.98684561 C3.87901132,1.98684561 3.81341196,1.98861797 3.74819712,1.99178041 L3.74819712,1.99178041 Z"></path>
                                            <path d="M4.14194712,1.63550214 L4.14194712,0.248129818 C4.14194712,0.149850949 4.05381479,0.0701991961 3.94507212,0.0701991961 C3.83632944,0.0701991961 3.74819712,0.149850949 3.74819712,0.248129818 L3.74819712,1.63550214 C3.81346003,1.63266984 3.87904977,1.63098436 3.94507212,1.63098436 C4.01109446,1.63098436 4.0766842,1.63266984 4.14194712,1.63550214 L4.14194712,1.63550214 Z"></path>
                                            <path d="M4.12680288,1.63550214 L4.12680288,1.99178041 C5.97887464,2.08455107 7.45528001,3.52990722 7.45528001,5.293436 C7.45528001,5.53531045 7.42644089,5.77871398 7.36979793,6.01725221 C7.34702243,6.11302893 7.41120678,6.20824962 7.51325402,6.22965689 C7.52715595,6.23257606 7.54105788,6.23396614 7.55466402,6.23396614 C7.64132924,6.23396614 7.71956458,6.17766778 7.73923433,6.09481883 C7.80208881,5.83098108 7.83388578,5.56130498 7.83388578,5.29343599 C7.83388578,3.33359276 6.18765318,1.72867245 4.12680288,1.63550214 L4.12680288,1.63550214 Z"></path>
                                            <path d="M0.0410402748,5.293436 C0.0410402748,5.56074896 0.0729111873,5.83042506 0.135765666,6.09481884 C0.158541166,6.19073457 0.259625953,6.2516202 0.361745985,6.22965689 C0.463791204,6.20824962 0.528051522,6.11316793 0.505202073,6.01725221 C0.448411208,5.77829695 0.419646044,5.53475441 0.419646044,5.293436 C0.419646044,3.52990722 1.89612536,2.08455107 3.74819712,1.99178041 L3.74819712,1.63550214 C1.68728213,1.72865507 0.0410402748,3.33359276 0.0410402748,5.293436 L0.0410402748,5.293436 Z"></path>
                                            <path d="M3.94507212,1.63098436 C3.87904977,1.63098436 3.81346003,1.63281303 3.74819712,1.63588594 L3.74819712,2.02243173 C3.81341196,2.01900063 3.87901132,2.0170777 3.94507212,2.0170777 C4.01113291,2.0170777 4.07673227,2.01900063 4.14194712,2.02243173 L4.14194712,1.63588594 C4.0766842,1.63281303 4.01109446,1.63098436 3.94507212,1.63098436 L3.94507212,1.63098436 Z"></path>
                                        </g>
                                    </g>
                                </g>
                            </g>
                        </g>
                    </g>
                </g>
            </g>
        </g>
    </g>
</svg>