<?xml version="1.0" encoding="UTF-8" standalone="no"?>
<svg width="71px" height="66px" viewBox="0 0 71 66" version="1.1" xmlns="http://www.w3.org/2000/svg" xmlns:xlink="http://www.w3.org/1999/xlink">
    <!-- Generator: Sketch 40.3 (33839) - http://www.bohemiancoding.com/sketch -->
    <title>payment_icon_6</title>
    <desc>Created with Sketch.</desc>
    <defs></defs>
    <g id="Page-1" stroke="none" stroke-width="1" fill="none" fill-rule="evenodd">
        <g id="payment_icon_6" transform="translate(1.000000, 2.000000)">
            <path d="M15.786,8.308 C21.329,3.157 28.758,0.006 36.923,0.006 C54.078,0.006 67.985,13.914 67.985,31.068 C67.985,48.222 54.079,62.13 36.923,62.13 C28.622,62.13 21.08,58.87 15.507,53.568" id="Shape" stroke="#114278" stroke-width="2.2346"></path>
            <g id="Group" transform="translate(0.000000, 12.000000)">
                <path d="M22.509,32.924 C22.509,35.391 20.489,37.41 18.02,37.41 L5.048,37.41 C2.581,37.41 0.564,35.39 0.564,32.924 L0.564,5.208 C0.564,2.741 2.582,0.721 5.048,0.721 L18.02,0.721 C20.49,0.721 22.509,2.741 22.509,5.208 L22.509,32.924 L22.509,32.924 Z" id="Shape" stroke="#114278" stroke-width="2.2346"></path>
                <path d="M0.563,6.397 L22.509,6.397" id="Shape" stroke="#114278" stroke-width="2.2346"></path>
                <path d="M0.563,30.623 L22.509,30.623" id="Shape" stroke="#114278" stroke-width="2.2346"></path>
                <circle id="Oval" fill="#114278" cx="11.662" cy="34.035" r="1.306"></circle>
            </g>
        </g>
    </g>
</svg>