<?xml version="1.0" encoding="UTF-8" standalone="no"?>
<svg width="86px" height="66px" viewBox="0 0 86 66" version="1.1" xmlns="http://www.w3.org/2000/svg" xmlns:xlink="http://www.w3.org/1999/xlink">
    <!-- Generator: Sketch 40.3 (33839) - http://www.bohemiancoding.com/sketch -->
    <title>payment_icon_4</title>
    <desc>Created with Sketch.</desc>
    <defs></defs>
    <g id="Page-1" stroke="none" stroke-width="1" fill="none" fill-rule="evenodd">
        <g id="payment_icon_4" transform="translate(2.000000, 2.000000)" stroke="#114278" stroke-width="2.235">
            <path d="M25.177,13.959 C30.739,5.564 40.271,0.026 51.096,0.026 C68.255,0.026 82.163,13.936 82.163,31.093 C82.163,48.25 68.255,62.161 51.096,62.161 C39.561,62.161 29.492,55.873 24.135,46.537" id="Shape"></path>
            <g id="Group" transform="translate(0.000000, 17.000000)">
                <polygon id="Shape" points="22.912 18.724 45.775 10.076 23.318 0.688 0.923 9.707"></polygon>
                <path d="M38.278,13.061 L38.278,23.92 C38.278,23.92 32.796,25.937 23.132,25.937 C13.099,25.937 8.719,23.92 8.719,23.92 L8.719,13.061" id="Shape"></path>
                <path d="M45.775,10.315 L45.775,17.873" id="Shape"></path>
            </g>
        </g>
    </g>
</svg>