<?xml version="1.0" encoding="UTF-8" standalone="no"?>
<svg width="82px" height="66px" viewBox="0 0 82 66" version="1.1" xmlns="http://www.w3.org/2000/svg" xmlns:xlink="http://www.w3.org/1999/xlink">
    <!-- Generator: Sketch 40.3 (33839) - http://www.bohemiancoding.com/sketch -->
    <title>payment_icon_9</title>
    <desc>Created with Sketch.</desc>
    <defs></defs>
    <g id="Page-1" stroke="none" stroke-width="1" fill="none" fill-rule="evenodd">
        <g id="payment_icon_9" transform="translate(1.000000, 2.000000)" stroke="#114278">
            <path d="M23.329,12.763 C28.953,5.068 38.049,0.07 48.309,0.07 C65.385,0.07 79.231,13.914 79.231,30.993 C79.231,48.067 65.385,61.913 48.309,61.913 C38.256,61.913 29.323,57.117 23.676,49.687" id="Shape" stroke-width="2.2275"></path>
            <g id="Group" transform="translate(0.000000, 17.000000)" stroke-width="2.4095">
                <path d="M21.832,24.251 L4.308,24.251 C2.113,24.251 0.316,22.453 0.316,20.256 L0.316,4.741 C0.316,2.544 2.113,0.748 4.308,0.748 L33.626,0.748 C35.824,0.748 37.62,2.543 37.62,4.741 L37.62,15.943" id="Shape"></path>
                <path d="M0.315,8.379 L37.62,8.379" id="Shape"></path>
                <polyline id="Shape" points="26.053 23.669 29.566 26.484 33.28 23.563"></polyline>
                <circle id="Oval" cx="29.763" cy="23.759" r="7.598"></circle>
            </g>
        </g>
    </g>
</svg>