<?xml version="1.0" encoding="UTF-8" standalone="no"?>
<svg width="78px" height="64px" viewBox="0 0 78 64" version="1.1" xmlns="http://www.w3.org/2000/svg" xmlns:xlink="http://www.w3.org/1999/xlink">
    <!-- Generator: Sketch 40.3 (33839) - http://www.bohemiancoding.com/sketch -->
    <title>payment_icon_8</title>
    <desc>Created with Sketch.</desc>
    <defs></defs>
    <g id="Page-1" stroke="none" stroke-width="1" fill="none" fill-rule="evenodd">
        <g id="payment_icon_8" transform="translate(2.000000, 1.000000)" stroke="#114278" stroke-width="2.2214">
            <path d="M18.046,12.975 C23.65,5.179 32.8,0.103 43.133,0.103 C60.187,0.103 74.011,13.928 74.011,30.981 C74.011,48.036 60.187,61.86 43.133,61.86 C32.474,61.86 23.079,56.461 17.53,48.246" id="Shape"></path>
            <g id="Group" transform="translate(0.000000, 13.000000)">
                <g id="Shape">
                    <polyline points="21.24 13.415 24.97 4.236 23.854 0.744 20.627 2.47 19.244 6.543"></polyline>
                    <polyline points="22.835 17.344 31.919 13.385 33.562 10.103 30.044 9.088 26.212 11.033"></polyline>
                    <polyline points="21.606 21.188 30.775 24.936 34.271 23.827 32.553 20.597 28.482 19.208"></polyline>
                    <polyline points="17.573 23.014 21.296 32.197 24.531 33.924 25.641 30.435 23.794 26.552"></polyline>
                    <polyline points="13.285 21.638 9.156 30.646 10.119 34.184 13.42 32.598 14.979 28.593"></polyline>
                    <polyline points="11.825 17.344 2.759 21.333 1.126 24.62 4.643 25.626 8.471 23.668"></polyline>
                    <polyline points="13.168 13.32 3.778 10.166 0.361 11.497 2.282 14.61 6.432 15.741"></polyline>
                    <polyline points="17.209 11.677 13.049 2.683 9.732 1.112 8.792 4.65 10.82 8.442"></polyline>
                </g>
                <path d="M19.359,17.529 C19.359,18.518 18.558,19.321 17.571,19.321 C16.578,19.321 15.779,18.518 15.779,17.529 C15.779,16.542 16.578,15.738 17.571,15.738 C18.559,15.738 19.359,16.542 19.359,17.529 L19.359,17.529 Z" id="Shape"></path>
            </g>
        </g>
    </g>
</svg>