<?xml version="1.0" encoding="UTF-8" standalone="no"?>
<svg width="75px" height="64px" viewBox="0 0 75 64" version="1.1" xmlns="http://www.w3.org/2000/svg" xmlns:xlink="http://www.w3.org/1999/xlink">
    <!-- Generator: Sketch 40.3 (33839) - http://www.bohemiancoding.com/sketch -->
    <title>payment_icon_7</title>
    <desc>Created with Sketch.</desc>
    <defs></defs>
    <g id="Page-1" stroke="none" stroke-width="1" fill="none" fill-rule="evenodd">
        <g id="payment_icon_7" transform="translate(1.000000, 1.000000)">
            <path d="M15.559,14.604 C20.995,5.94 30.632,0.182 41.615,0.182 C58.594,0.182 72.357,13.945 72.357,30.923 C72.357,47.902 58.594,61.665 41.615,61.665 C30.306,61.665 20.423,55.558 15.084,46.46" id="Shape" stroke="#114278" stroke-width="2.2116"></path>
            <g id="Group" transform="translate(0.000000, 18.000000)">
                <path d="M34.254,21.909 C34.254,23.644 32.834,25.066 31.099,25.066 L3.957,25.066 C2.222,25.066 0.799,23.644 0.799,21.909 L0.799,3.23 C0.799,1.494 2.222,0.073 3.957,0.073 L31.099,0.073 C32.834,0.073 34.254,1.494 34.254,3.23 L34.254,21.909 L34.254,21.909 Z" id="Shape" stroke="#114278" stroke-width="2.2116"></path>
                <path d="M34.254,21.909 C34.254,23.644 32.834,25.066 31.099,25.066 L3.957,25.066 C2.222,25.066 0.799,23.644 0.799,21.909 L0.799,3.23 C0.799,1.494 2.222,0.073 3.957,0.073 L31.099,0.073 C32.834,0.073 34.254,1.494 34.254,3.23 L34.254,21.909 L34.254,21.909 Z" id="Shape" stroke="#114278" stroke-width="2.2116"></path>
                <path d="M34.254,15.539 L26.596,15.539 C24.957,15.539 23.626,14.211 23.626,12.57 L23.626,12.57 C23.626,10.932 24.957,9.601 26.596,9.601 L34.254,9.601" id="Shape" stroke="#114278" stroke-width="2.2116"></path>
                <circle id="Oval" fill="#114278" cx="27.467" cy="12.57" r="1.163"></circle>
            </g>
        </g>
    </g>
</svg>