<?xml version="1.0" encoding="UTF-8" standalone="no"?>
<svg width="71px" height="64px" viewBox="0 0 71 64" version="1.1" xmlns="http://www.w3.org/2000/svg" xmlns:xlink="http://www.w3.org/1999/xlink">
    <!-- Generator: Sketch 40.3 (33839) - http://www.bohemiancoding.com/sketch -->
    <title>Group</title>
    <desc>Created with Sketch.</desc>
    <defs></defs>
    <g id="Page-1" stroke="none" stroke-width="1" fill="none" fill-rule="evenodd">
        <g id="payment_icon_1" transform="translate(0.000000, 1.000000)">
            <g id="Group">
                <g transform="translate(0.000000, 14.000000)" id="Shape" fill="#114278">
                    <path d="M27.153,8.046 L27.138,8.046 L1.443,8.046 C0.916,8.046 0.462,7.676 0.355,7.162 C0.249,6.646 0.516,6.126 0.997,5.915 L13.728,0.346 C14.01,0.222 14.33,0.222 14.612,0.343 L27.483,5.872 C27.936,6.012 28.264,6.434 28.264,6.934 C28.265,7.547 27.768,8.046 27.153,8.046 L27.153,8.046 Z M6.754,5.823 L21.737,5.823 L14.178,2.575 L6.754,5.823 L6.754,5.823 Z"></path>
                    <path d="M24.219,28.762 L4.405,28.762 C3.792,28.762 3.295,28.264 3.295,27.651 C3.295,27.037 3.792,26.54 4.405,26.54 L24.219,26.54 C24.832,26.54 25.33,27.037 25.33,27.651 C25.33,28.264 24.832,28.762 24.219,28.762 L24.219,28.762 Z"></path>
                    <path d="M25.932,33.714 L1.827,33.714 C1.213,33.714 0.715,33.215 0.715,32.601 C0.715,31.988 1.213,31.49 1.827,31.49 L25.932,31.49 C26.545,31.49 27.043,31.988 27.043,32.601 C27.043,33.215 26.545,33.714 25.932,33.714 L25.932,33.714 Z"></path>
                    <path d="M8.073,24.064 C7.46,24.064 6.962,23.567 6.962,22.953 L6.962,12.48 C6.962,11.866 7.461,11.369 8.073,11.369 C8.687,11.369 9.184,11.867 9.184,12.48 L9.184,22.953 C9.184,23.567 8.687,24.064 8.073,24.064 L8.073,24.064 Z"></path>
                    <path d="M14.209,24.064 C13.595,24.064 13.098,23.567 13.098,22.953 L13.098,12.48 C13.098,11.866 13.595,11.369 14.209,11.369 C14.823,11.369 15.32,11.867 15.32,12.48 L15.32,22.953 C15.32,23.567 14.823,24.064 14.209,24.064 L14.209,24.064 Z"></path>
                    <path d="M20.192,24.064 C19.578,24.064 19.08,23.567 19.08,22.953 L19.08,12.48 C19.08,11.866 19.578,11.369 20.192,11.369 C20.805,11.369 21.302,11.867 21.302,12.48 L21.302,22.953 C21.303,23.567 20.805,24.064 20.192,24.064 L20.192,24.064 Z"></path>
                </g>
                <path d="M16.416,10.003 C22.05,3.928 30.099,0.125 39.039,0.125 C56.079,0.125 69.891,13.939 69.891,30.977 C69.891,48.016 56.079,61.829 39.039,61.829 C30.054,61.829 21.966,57.988 16.329,51.856" id="Shape" stroke="#114278" stroke-width="2.2224"></path>
            </g>
        </g>
    </g>
</svg>