<?xml version="1.0" encoding="UTF-8" standalone="no"?>
<svg width="74px" height="66px" viewBox="0 0 74 66" version="1.1" xmlns="http://www.w3.org/2000/svg" xmlns:xlink="http://www.w3.org/1999/xlink">
    <!-- Generator: Sketch 40.3 (33839) - http://www.bohemiancoding.com/sketch -->
    <title>payment_icon_3</title>
    <desc>Created with Sketch.</desc>
    <defs></defs>
    <g id="Page-1" stroke="none" stroke-width="1" fill="none" fill-rule="evenodd">
        <g id="payment_icon_3" transform="translate(0.000000, 1.000000)" stroke="#114278" stroke-width="2.2326">
            <path d="M21.237,8.669 C26.709,3.84 33.896,0.911 41.764,0.912 C58.904,0.912 72.798,14.806 72.798,31.946 C72.798,49.085 58.903,62.978 41.764,62.978 C33.528,62.978 26.04,59.768 20.484,54.535" id="Shape"></path>
            <g id="Group" transform="translate(0.000000, 12.000000)">
                <polyline id="Shape" points="30.198 12.431 30.198 38.16 5.321 38.16 5.321 12.431"></polyline>
                <polyline id="Shape" points="0.829 15.804 17.67 0.833 34.938 15.804"></polyline>
                <path d="M21.122,33.639 L21.122,27.865 C21.122,26.008 19.616,24.502 17.761,24.502 C15.904,24.502 14.398,26.008 14.398,27.865 L14.398,38.16 L21.123,38.16" id="Shape"></path>
            </g>
        </g>
    </g>
</svg>