<?xml version="1.0" encoding="UTF-8" standalone="no"?>
<svg width="16px" height="16px" viewBox="0 0 16 16" version="1.1" xmlns="http://www.w3.org/2000/svg" xmlns:xlink="http://www.w3.org/1999/xlink">
    <!-- Generator: Sketch 39.1 (31720) - http://www.bohemiancoding.com/sketch -->
    <title>pdf icon</title>
    <desc>Created with Sketch.</desc>
    <defs></defs>
    <g id="Page-1" stroke="none" stroke-width="1" fill="none" fill-rule="evenodd">
        <g id="1.5-Personal-Cabinet-archive" transform="translate(-961.000000, -260.000000)">
            <g id="pdf" transform="translate(934.000000, 252.000000)">
                <g id="pdf-icon" transform="translate(27.000000, 8.000000)">
                    <path d="M5.03947368,0.973684211 C4.68881137,1.52333053 4.63157895,2.10109895 4.63157895,2.52631579 C4.63157895,3.29903158 4.97335032,3.91818947 5.32894737,4.5 C5.62734905,4.98822989 5.96309726,5.46563579 6.25,5.97368421 C5.74069768,7.56347663 5.15587705,9.28388926 4.44736842,10.6973684 C2.98858653,11.2488299 1.62671284,11.6238619 0.710526316,12.4078947 C0.236942316,12.8131158 0,13.3030947 0,13.9605263 C0,15.1342947 0.991264421,16 2.10526316,16 C2.75463453,16 3.24895453,15.6679579 3.57894737,15.2894737 C4.24166105,14.5293646 4.99956337,13.2505128 5.65789474,12.0263158 C7.04163705,11.4849739 8.50879032,10.9336286 9.88157895,10.5921053 C10.9864994,11.4796484 12.4512943,12.2105263 13.8947368,12.2105263 C15.0685069,12.2105263 16,11.2789895 16,10.1052632 C16,8.93153684 15.0685069,8 13.8947368,8 C12.8093962,8 11.4583154,8.34695537 10.3157895,8.72368421 C9.46738232,7.90151032 8.65856421,6.87504547 8.07894737,5.82894737 C8.27257726,5.30692042 8.50163621,4.83572547 8.72368421,4.36842105 C8.99037853,3.80715789 9.26315789,3.23141053 9.26315789,2.52631579 C9.26315789,2.00520842 9.11580463,1.45198316 8.76315789,0.947368421 C8.41051116,0.442753684 7.76016674,0 6.97368421,0 C6.10917937,0 5.390136,0.424037895 5.03947368,0.973684211 Z" id="Path" fill="#FFFFFF"></path>
                    <path d="M2.98684211,13.0921053 C2.75942105,13.4377053 2.47314905,14.0037053 2.31578947,14.1842105 C2.23874063,14.2725895 2.12420253,14.3157895 2.10526316,14.3157895 C1.90153558,14.3157895 1.68421053,14.1045263 1.68421053,13.9605263 C1.68421053,13.9689474 1.83223158,13.6701474 1.81578947,13.6842105 C1.99539537,13.5305263 2.44798274,13.3200632 2.98684211,13.0921053 L2.98684211,13.0921053 Z" id="Path" fill="#E44C51"></path>
                    <path d="M13.8947368,9.68421053 C14.0386931,9.68421053 14.3157895,9.96126316 14.3157895,10.1052632 C14.3157895,10.2492632 14.0386931,10.5263158 13.8947368,10.5263158 C13.4235541,10.5263158 12.7763958,10.2892211 12.1315789,9.97368421 C12.825112,9.80698947 13.4828779,9.68421053 13.8947368,9.68421053 L13.8947368,9.68421053 Z" id="Path" fill="#E44C51"></path>
                    <path d="M7.39473684,7.81578947 C7.75606695,8.3312 8.13597726,8.79442105 8.55263158,9.25 C7.89457137,9.44507368 7.25927116,9.64675789 6.61842105,9.88157895 C6.90136084,9.18469474 7.15917432,8.51482105 7.39473684,7.81578947 L7.39473684,7.81578947 Z" id="Path" fill="#E44C51"></path>
                    <path d="M6.97368421,1.68421053 C7.18090484,1.68421053 7.26084926,1.73513684 7.38157895,1.90789474 C7.50230863,2.08065263 7.57894737,2.38856 7.57894737,2.52631579 C7.57894737,2.75343579 7.45804337,3.12385263 7.21052632,3.64473684 C7.15991663,3.75126316 7.09645684,3.93465263 7.03947368,4.05263158 C6.95640253,3.92328421 6.84783116,3.73538947 6.77631579,3.61842105 C6.46545726,3.10978947 6.31578947,2.74087579 6.31578947,2.52631579 C6.31578947,2.29266947 6.37904126,2.00930526 6.46052632,1.88157895 C6.54201137,1.75385263 6.55925221,1.68421053 6.97368421,1.68421053 L6.97368421,1.68421053 Z" id="Path" fill="#E44C51"></path>
                </g>
            </g>
        </g>
    </g>
</svg>