<?xml version="1.0" encoding="UTF-8" standalone="no"?>
<svg width="22px" height="54px" viewBox="0 0 22 54" version="1.1" xmlns="http://www.w3.org/2000/svg" xmlns:xlink="http://www.w3.org/1999/xlink">
    <!-- Generator: Sketch 39.1 (31720) - http://www.bohemiancoding.com/sketch -->
    <title>pdf</title>
    <desc>Created with Sketch.</desc>
    <defs></defs>
    <g id="info-pages" stroke="none" stroke-width="1" fill="none" fill-rule="evenodd">
        <g id="template-/-list" transform="translate(-1024.000000, -433.000000)">
            <g id="Group-2-Copy" transform="translate(324.000000, 413.000000)">
                <g id="pdf" transform="translate(700.000000, 20.000000)">
                    <g id="Capa_1" fill="#00427A">
                        <g id="Group">
                            <path d="M1.93925123,0 L1.93925123,14.6081571 L0.0102413793,14.6081571 L0.0102413793,22.3012286 L0.0102955665,22.3012286 L1.93881773,24.2623653 L1.93925123,27 L21.9897586,27 L21.9897586,5.64366122 L16.4397438,0 L1.93925123,0 L1.93925123,0 Z M19.1710493,21.457451 L0.839955665,21.457451 L0.839955665,15.4518796 L19.1710493,15.4518796 L19.1710493,21.457451 L19.1710493,21.457451 Z M16.8534089,2.03668163 L19.9862956,5.2218 L16.8534089,5.2218 L16.8534089,2.03668163 L16.8534089,2.03668163 Z" id="Shape"></path>
                            <path d="M7.08871429,16.3468469 L6.88534975,16.3468469 L5.23963054,16.3468469 L5.23963054,20.4996673 L6.01466995,20.4996673 L6.01466995,19.1582633 L6.9274532,19.1582633 L7.10692118,19.1549571 C7.66521182,19.1549571 8.0363399,19.0634878 8.21987192,18.8813755 C8.40340394,18.6984367 8.4949803,18.3293082 8.4949803,17.7731082 C8.4949803,17.213602 8.39896059,16.8354367 8.20648768,16.6401551 C8.01406897,16.4440469 7.64131527,16.3468469 7.08871429,16.3468469 L7.08871429,16.3468469 Z M7.56599507,18.371351 C7.47116749,18.4537286 7.24834975,18.4949449 6.89748768,18.4949449 L6.01466995,18.4949449 L6.01466995,17.0101653 L6.97530049,17.0101653 C7.30633005,17.0101653 7.5113202,17.0522082 7.58989163,17.1362388 C7.66889655,17.2202694 7.70818227,17.4378122 7.70818227,17.7888122 C7.70818227,18.0952898 7.66076847,18.2889184 7.56599507,18.371351 L7.56599507,18.371351 Z" id="Shape"></path>
                            <path d="M10.9967488,16.3468469 L8.98884236,16.3468469 L8.98884236,20.4996673 L11.0206453,20.4996673 C11.6648227,20.4996673 12.0793005,20.3521592 12.262399,20.057198 C12.4454975,19.7622367 12.5378867,19.0956122 12.5378867,18.0590327 C12.5378867,17.4245878 12.4228473,16.9804653 12.1951527,16.7266653 C11.9666995,16.4729204 11.5671773,16.3468469 10.9967488,16.3468469 L10.9967488,16.3468469 Z M11.5874433,19.5759918 C11.4788522,19.7498388 11.2390197,19.836349 10.8678916,19.836349 L9.76388177,19.836349 L9.76388177,17.0101102 L10.9157389,17.0101102 C11.276734,17.0101102 11.5064335,17.0924878 11.6040788,17.258951 C11.7017241,17.4254143 11.7507635,17.815151 11.7507635,18.4273347 C11.7507094,19.0197918 11.696468,19.4029714 11.5874433,19.5759918 L11.5874433,19.5759918 Z" id="Shape"></path>
                            <polygon id="Shape" points="13.1035468 20.4996673 13.8781527 20.4996673 13.8781527 18.7923857 15.7094089 18.7923857 15.7094089 18.1290673 13.8781527 18.1290673 13.8781527 17.0101102 15.8083005 17.0101102 15.8083005 16.3468469 13.1035468 16.3468469"></polygon>
                        </g>
                    </g>
                    <g id="Capa_1-Copy" transform="translate(0.000000, 27.000000)">
                        <g id="Group">
                            <path d="M1.93925123,0 L1.93925123,14.6081571 L0.0102413793,14.6081571 L0.0102413793,22.3012286 L0.0102955665,22.3012286 L1.93881773,24.2623653 L1.93925123,27 L21.9897586,27 L21.9897586,5.64366122 L16.4397438,0 L1.93925123,0 L1.93925123,0 Z M19.1710493,21.457451 L0.839955665,21.457451 L0.839955665,15.4518796 L19.1710493,15.4518796 L19.1710493,21.457451 L19.1710493,21.457451 Z M16.8534089,2.03668163 L19.9862956,5.2218 L16.8534089,5.2218 L16.8534089,2.03668163 L16.8534089,2.03668163 Z" id="Shape" fill="#0083F3"></path>
                            <path d="M7.08871429,16.3468469 L6.88534975,16.3468469 L5.23963054,16.3468469 L5.23963054,20.4996673 L6.01466995,20.4996673 L6.01466995,19.1582633 L6.9274532,19.1582633 L7.10692118,19.1549571 C7.66521182,19.1549571 8.0363399,19.0634878 8.21987192,18.8813755 C8.40340394,18.6984367 8.4949803,18.3293082 8.4949803,17.7731082 C8.4949803,17.213602 8.39896059,16.8354367 8.20648768,16.6401551 C8.01406897,16.4440469 7.64131527,16.3468469 7.08871429,16.3468469 L7.08871429,16.3468469 Z M7.56599507,18.371351 C7.47116749,18.4537286 7.24834975,18.4949449 6.89748768,18.4949449 L6.01466995,18.4949449 L6.01466995,17.0101653 L6.97530049,17.0101653 C7.30633005,17.0101653 7.5113202,17.0522082 7.58989163,17.1362388 C7.66889655,17.2202694 7.70818227,17.4378122 7.70818227,17.7888122 C7.70818227,18.0952898 7.66076847,18.2889184 7.56599507,18.371351 L7.56599507,18.371351 Z" id="Shape" fill="#0083F2"></path>
                            <path d="M10.9967488,16.3468469 L8.98884236,16.3468469 L8.98884236,20.4996673 L11.0206453,20.4996673 C11.6648227,20.4996673 12.0793005,20.3521592 12.262399,20.057198 C12.4454975,19.7622367 12.5378867,19.0956122 12.5378867,18.0590327 C12.5378867,17.4245878 12.4228473,16.9804653 12.1951527,16.7266653 C11.9666995,16.4729204 11.5671773,16.3468469 10.9967488,16.3468469 L10.9967488,16.3468469 Z M11.5874433,19.5759918 C11.4788522,19.7498388 11.2390197,19.836349 10.8678916,19.836349 L9.76388177,19.836349 L9.76388177,17.0101102 L10.9157389,17.0101102 C11.276734,17.0101102 11.5064335,17.0924878 11.6040788,17.258951 C11.7017241,17.4254143 11.7507635,17.815151 11.7507635,18.4273347 C11.7507094,19.0197918 11.696468,19.4029714 11.5874433,19.5759918 L11.5874433,19.5759918 Z" id="Shape" fill="#0083F2"></path>
                            <polygon id="Shape" fill="#0083F2" points="13.1035468 20.4996673 13.8781527 20.4996673 13.8781527 18.7923857 15.7094089 18.7923857 15.7094089 18.1290673 13.8781527 18.1290673 13.8781527 17.0101102 15.8083005 17.0101102 15.8083005 16.3468469 13.1035468 16.3468469"></polygon>
                        </g>
                    </g>
                </g>
            </g>
        </g>
    </g>
</svg>