<?xml version="1.0" encoding="UTF-8" standalone="no"?>
<svg width="15px" height="25px" viewBox="0 0 15 25" version="1.1" xmlns="http://www.w3.org/2000/svg" xmlns:xlink="http://www.w3.org/1999/xlink">
    <!-- Generator: Sketch 40.3 (33839) - http://www.bohemiancoding.com/sketch -->
    <title>Page 1</title>
    <desc>Created with Sketch.</desc>
    <defs>
        <path d="M0.164666667,0.964 C0.164666667,1.466 0.570666667,1.874 1.07366667,1.874 C1.574,1.874 1.98266667,1.46633333 1.98266667,0.964 C1.98266667,0.463666667 1.574,0.0556666667 1.07366667,0.0556666667 C0.570666667,0.0556666667 0.164666667,0.463666667 0.164666667,0.964 L0.164666667,0.964 Z" id="path-1"></path>
    </defs>
    <g id="Page-1" stroke="none" stroke-width="1" fill="none" fill-rule="evenodd">
        <g>
            <g id="Group-7" fill="#074C7F">
                <path d="M14.35479,21.4746296 L13.73589,21.4746296 C13.73559,22.0934568 13.49109,22.6533333 13.09239,23.0644444 C12.69309,23.4746296 12.14889,23.7261728 11.54769,23.7264815 L3.42669,23.7264815 C2.82549,23.7261728 2.28129,23.4746296 1.88169,23.0644444 C1.48269,22.6533333 1.23819,22.0931481 1.23789,21.4746296 L1.23789,3.62555556 C1.23819,3.00703704 1.48269,2.44746914 1.88139,2.03635802 C2.28099,1.62617284 2.82549,1.37462963 3.42669,1.37432099 L11.54769,1.37432099 C12.14889,1.37462963 12.69309,1.62617284 13.09239,2.03635802 C13.49109,2.44746914 13.73559,3.00734568 13.73589,3.62555556 L13.73589,21.4746296 L14.35479,21.4746296 L14.97369,21.4746296 L14.97369,3.62555556 C14.97129,1.68296296 13.43619,0.103333333 11.54769,0.100864198 L3.42669,0.100864198 C1.53849,0.103333333 0.00249,1.68265432 9e-05,3.62555556 L9e-05,21.4746296 C0.00249,23.4178395 1.53819,24.9974691 3.42669,24.9999383 L11.54769,24.9999383 C13.43619,24.9974691 14.97129,23.4175309 14.97369,21.4746296 L14.35479,21.4746296 Z" id="Fill-1"></path>
                <polyline id="Fill-3" points="0.61869 5.02901235 14.35479 5.02901235 14.35479 3.75524691 0.61869 3.75524691"></polyline>
                <polyline id="Fill-5" points="0.61869 20.6308642 14.35479 20.6308642 14.35479 19.3570988 0.61869 19.3570988"></polyline>
            </g>
            <g id="Group-10" transform="translate(6.000000, 22.000000)">
                <mask id="mask-2" fill="white">
                    <use xlink:href="#path-1"></use>
                </mask>
                <g id="Clip-9"></g>
                <polygon id="Fill-8" fill="#074C7F" mask="url(#mask-2)" points="-1.50233333 3.54066667 3.649 3.54066667 3.649 -1.611 -1.50233333 -1.611"></polygon>
            </g>
        </g>
    </g>
</svg>