<?xml version="1.0" encoding="UTF-8" standalone="no"?>
<svg width="9px" height="6px" viewBox="0 0 9 6" version="1.1" xmlns="http://www.w3.org/2000/svg" xmlns:xlink="http://www.w3.org/1999/xlink">
    <!-- Generator: Sketch 39.1 (31720) - http://www.bohemiancoding.com/sketch -->
    <title>Shape</title>
    <desc>Created with Sketch.</desc>
    <defs>
        <path d="M53.6870093,8.1032144 C53.543811,7.9770813 53.2957038,7.96481466 53.1329317,8.07601445 C52.9703313,8.18708092 52.9548782,8.37974723 53.097733,8.50601367 L57.0832459,12.0226739 L53.0992784,15.4926676 C52.9557367,15.6184007 52.9694727,15.8109337 53.1315581,15.9229335 C53.2064195,15.9745334 53.2998246,16 53.3925429,16 C53.5005425,16 53.6081987,15.9658667 53.6856357,15.8982669 L57.9003687,12.2266735 C58.0325781,12.1114738 58.0332649,11.9377407 57.9020857,11.8224076 L53.6870093,8.1032144 Z" id="path-1"></path>
        <mask id="mask-2" maskContentUnits="userSpaceOnUse" maskUnits="objectBoundingBox" x="-0.3" y="-0.3" width="5.6" height="8.6">
            <rect x="52.7" y="7.7" width="5.6" height="8.6" fill="white"></rect>
            <use xlink:href="#path-1" fill="black"></use>
        </mask>
    </defs>
    <g id="Symbols" stroke="none" stroke-width="1" fill="none" fill-rule="evenodd">
        <g id="header-/-unregistered" transform="translate(-892.000000, -44.000000)">
            <g id="right">
                <g transform="translate(841.000000, 35.000000)">
                    <g id="currency">
                        <g id="Shape" transform="translate(55.500000, 12.000000) rotate(90.000000) translate(-55.500000, -12.000000) ">
                            <use fill="#00427A" fill-rule="evenodd" xlink:href="#path-1"></use>
                            <use stroke="#00427A" mask="url(#mask-2)" stroke-width="0.6" xlink:href="#path-1"></use>
                        </g>
                    </g>
                </g>
            </g>
        </g>
    </g>
</svg>