<?xml version="1.0" encoding="UTF-8" standalone="no"?>
<svg width="14px" height="14px" viewBox="0 0 14 14" version="1.1" xmlns="http://www.w3.org/2000/svg" xmlns:xlink="http://www.w3.org/1999/xlink">
    <!-- Generator: Sketch 39.1 (31720) - http://www.bohemiancoding.com/sketch -->
    <title>Group 4</title>
    <desc>Created with Sketch.</desc>
    <defs></defs>
    <g id="Page-1" stroke="none" stroke-width="1" fill="none" fill-rule="evenodd">
        <g id="1.6-Personal-Cabinet-settings" transform="translate(-367.000000, -199.000000)">
            <g id="button-/-ico" transform="translate(358.000000, 190.000000)">
                <g id="Group-4" transform="translate(4.000000, 4.000000)">
                    <g id="ico-/-add">
                        <g id="ico-/-small-bound">
                            <rect x="0" y="0" width="24" height="24"></rect>
                        </g>
                        <g id="refresh" transform="translate(5.000000, 5.000000)" fill="#FFFFFF">
                            <g id="Group">
                                <path d="M7.08,13.92 C8.86,13.92 10.62,13.24 11.98,11.9 C12.82,11.06 13.42,10.02 13.74,8.9 C13.86,8.48 13.62,8.04 13.18,7.92 C12.76,7.8 12.32,8.04 12.2,8.48 C11.96,9.34 11.48,10.14 10.84,10.78 C8.76,12.86 5.38,12.86 3.3,10.78 C1.22,8.7 1.22,5.32 3.3,3.24 C5.38,1.16 8.76,1.16 10.84,3.24 C10.92,3.32 11.02,3.42 11.1,3.52 L10.78,3.52 L10.78,3.52 C10.34,3.52 9.98,3.88 9.98,4.32 C9.98,4.76 10.34,5.12 10.78,5.12 L13.76,5.14 L13.88,2 C13.9,1.56 13.56,1.18 13.12,1.16 C12.68,1.14 12.3,1.48 12.28,1.92 L12.26,2.4 C12.16,2.3 12.06,2.18 11.96,2.08 C9.26,-0.62 4.86,-0.62 2.16,2.08 C-0.52,4.8 -0.52,9.2 2.18,11.9 C3.52,13.24 5.3,13.92 7.08,13.92 L7.08,13.92 Z" id="Shape"></path>
                            </g>
                        </g>
                    </g>
                </g>
            </g>
        </g>
    </g>
</svg>