<?xml version="1.0" encoding="UTF-8" standalone="no"?>
<svg width="12px" height="12px" viewBox="0 0 12 12" version="1.1" xmlns="http://www.w3.org/2000/svg" xmlns:xlink="http://www.w3.org/1999/xlink">
    <!-- Generator: Sketch 39.1 (31720) - http://www.bohemiancoding.com/sketch -->
    <title>Group</title>
    <desc>Created with Sketch.</desc>
    <defs></defs>
    <g id="Symbols" stroke="none" stroke-width="1" fill="none" fill-rule="evenodd">
        <g id="button-/-add" transform="translate(-10.000000, -10.000000)" fill="#FFFFFF">
            <g id="ico-/-add">
                <g transform="translate(4.000000, 4.000000)">
                    <g id="Group" transform="translate(2.000000, 2.000000)">
                        <path d="M11.4583333,8.83333333 C11.2833333,8.83333333 11.1666667,8.71666667 11.1666667,8.54166667 L11.1666667,3.58333333 C11.1666667,3.23333333 10.9333333,3 10.5833333,3 L9.41666667,3 C9.06666667,3 8.83333333,3.23333333 8.83333333,3.58333333 L8.83333333,8.54166667 C8.83333333,8.71666667 8.71666667,8.83333333 8.54166667,8.83333333 L3.58333333,8.83333333 C3.23333333,8.83333333 3,9.06666667 3,9.41666667 L3,10.5833333 C3,10.9333333 3.23333333,11.1666667 3.58333333,11.1666667 L8.54166667,11.1666667 C8.71666667,11.1666667 8.83333333,11.2833333 8.83333333,11.4583333 L8.83333333,16.4166667 C8.83333333,16.7666667 9.06666667,17 9.41666667,17 L10.5833333,17 C10.9333333,17 11.1666667,16.7666667 11.1666667,16.4166667 L11.1666667,11.4583333 C11.1666667,11.2833333 11.2833333,11.1666667 11.4583333,11.1666667 L16.4166667,11.1666667 C16.7666667,11.1666667 17,10.9333333 17,10.5833333 L17,9.41666667 C17,9.06666667 16.7666667,8.83333333 16.4166667,8.83333333 L11.4583333,8.83333333 Z" id="Shape" transform="translate(10.000000, 10.000000) rotate(45.000000) translate(-10.000000, -10.000000) "></path>
                    </g>
                </g>
            </g>
        </g>
    </g>
</svg>