<?xml version="1.0" encoding="UTF-8" standalone="no"?>
<svg width="10px" height="10px" viewBox="0 0 10 10" version="1.1" xmlns="http://www.w3.org/2000/svg" xmlns:xlink="http://www.w3.org/1999/xlink">
    <!-- Generator: Sketch 39.1 (31720) - http://www.bohemiancoding.com/sketch -->
    <title>Group</title>
    <desc>Created with Sketch.</desc>
    <defs></defs>
    <g id="Symbols" stroke="none" stroke-width="1" fill="none" fill-rule="evenodd">
        <g id="button-/-remove-all" transform="translate(-7.000000, -7.000000)" fill="#EB1D4C">
            <g id="ico-/-delete">
                <g>
                    <g id="Group" transform="translate(7.000000, 7.000000)">
                        <path d="M6.6134384,5.00811666 L9.7994615,1.82204067 C10.0668462,1.55476614 10.0668462,1.11961952 9.7994615,0.849085544 L9.15051284,0.200455896 C8.88308555,-0.0668186321 8.44776754,-0.0668186321 8.17710051,0.200455896 L4.99105609,3.38657449 L1.82293679,0.220012569 C1.55553081,-0.0472619593 1.12017017,-0.0472619593 0.849524457,0.220012569 L0.200554485,0.868642217 C-0.0668514949,1.13591675 -0.0668514949,1.57106337 0.200554485,1.84159734 L3.36867379,5.00813796 L0.203836847,8.16982137 C-0.0635691324,8.4370959 -0.0635691324,8.87222122 0.203836847,9.14275519 L0.852785506,9.79138484 C1.12019149,10.0586594 1.55555212,10.0586594 1.82619784,9.79138484 L4.99105609,6.62972273 L8.16241514,9.7995441 C8.42984243,10.0668186 8.86520307,10.0668186 9.13582747,9.7995441 L9.78477613,9.15091446 C10.0522034,8.88363993 10.0522034,8.44849331 9.78477613,8.17795933 L6.6134384,5.00811666 L6.6134384,5.00811666 Z" id="remove"></path>
                    </g>
                </g>
            </g>
        </g>
    </g>
</svg>