<?xml version="1.0" encoding="UTF-8" standalone="no"?>
<svg width="16px" height="16px" viewBox="0 0 16 16" version="1.1" xmlns="http://www.w3.org/2000/svg" xmlns:xlink="http://www.w3.org/1999/xlink">
    <!-- Generator: Sketch 39.1 (31720) - http://www.bohemiancoding.com/sketch -->
    <title>Group</title>
    <desc>Created with Sketch.</desc>
    <defs></defs>
    <g id="Symbols" stroke="none" stroke-width="1" fill="none" fill-rule="evenodd">
        <g id="toolbar-/-selected" transform="translate(-876.000000, -37.000000)">
            <g id="button-/-clear">
                <g transform="translate(862.000000, 23.000000)">
                    <g id="Group" transform="translate(10.000000, 10.000000)">
                        <g id="ico-/-remove">
                            <g id="ico-/-small-bound">
                                <rect x="0" y="0" width="24" height="24"></rect>
                            </g>
                            <path d="M14.5815014,12.0129867 L19.6791384,6.91526507 C20.1069539,6.48762582 20.1069539,5.79139123 19.6791384,5.35853687 L18.6408205,4.32072943 C18.2129369,3.89309019 17.5164281,3.89309019 17.0833608,4.32072943 L11.9856898,9.41851919 L6.91669886,4.35202011 C6.48884929,3.92438087 5.79227227,3.92438087 5.35923913,4.35202011 L4.32088718,5.38982755 C3.89303761,5.81746679 3.89303761,6.51370139 4.32088718,6.94655575 L9.38987807,12.0130207 L4.32613896,17.0717142 C3.89828939,17.4993534 3.89828939,18.1955539 4.32613896,18.6284083 L5.36445681,19.6662157 C5.79230638,20.093855 6.48888339,20.093855 6.92191654,19.6662157 L11.9856898,14.6075564 L17.0598642,19.6792706 C17.4877479,20.1069098 18.1843249,20.1069098 18.6173239,19.6792706 L19.6556418,18.6414631 C20.0835255,18.2138239 20.0835255,17.5175893 19.6556418,17.0847349 L14.5815014,12.0129867 L14.5815014,12.0129867 Z" id="Shape" fill="#FFFFFF"></path>
                        </g>
                    </g>
                </g>
            </g>
        </g>
    </g>
</svg>