<?xml version="1.0" encoding="UTF-8"?>
<!DOCTYPE svg PUBLIC "-//W3C//DTD SVG 1.1//EN" "http://www.w3.org/Graphics/SVG/1.1/DTD/svg11.dtd">
<!-- Creator: CorelDRAW 2018 (64-Bit) -->
<svg xmlns="http://www.w3.org/2000/svg" xml:space="preserve" width="19.5mm" height="17mm" version="1.1" style="shape-rendering:geometricPrecision; text-rendering:geometricPrecision; image-rendering:optimizeQuality; fill-rule:evenodd; clip-rule:evenodd"
viewBox="0 0 1950 1700"
 xmlns:xlink="http://www.w3.org/1999/xlink"
 enable-background="new 0 0 77.249 64">
 <defs>
  <style type="text/css">
   <![CDATA[
    .str0 {stroke:#114278;stroke-width:59.06;stroke-linecap:round;stroke-linejoin:round;stroke-miterlimit:22.9256}
    .fil0 {fill:none}
    .fil2 {fill:#114278}
    .fil1 {fill:#114278;fill-rule:nonzero}
   ]]>
  </style>
 </defs>
 <g id="Слой_x0020_1">
  <metadata id="CorelCorpID_0Corel-Layer"/>
  <path class="fil0 str0" d="M387.16 441.63c141.63,-246.51 407.59,-412.59 712.31,-412.59 453.42,0 821,367.56 821,821 0,453.39 -367.61,820.92 -821,820.92 -324.54,0 -605.08,-188.25 -738.35,-461.65"/>
  <g id="_1091784480">
   <g>
    <path class="fil1" d="M645.23 977.69c0,19.35 -7.94,36.98 -20.7,49.75 -12.8,12.81 -30.45,20.78 -49.8,20.78l-449.1 0c-19.36,0 -36.99,-7.94 -49.77,-20.71l-0.07 0c-12.78,-12.78 -20.72,-30.42 -20.72,-49.82l0 -309.08c0,-19.41 7.94,-37.05 20.71,-49.82l0.08 0c12.78,-12.78 30.41,-20.71 49.77,-20.71l449.1 0c19.4,0 37.03,7.93 49.8,20.7l0 0.08c12.77,12.77 20.7,30.4 20.7,49.75l0 309.08zm-46.58 24.02c6.15,-6.16 9.98,-14.67 9.98,-24.02l0 -309.08c0,-9.33 -3.82,-17.83 -9.94,-23.99 -6.19,-6.11 -14.67,-9.95 -23.96,-9.95l-449.1 0c-9.34,0 -17.84,3.82 -24.01,9.96 -6.11,6.19 -9.95,14.68 -9.95,23.98l0 309.08c0,9.29 3.84,17.78 10,23.94 6.13,6.18 14.62,10 23.96,10l449.1 0c9.34,0 17.81,-3.81 23.92,-9.92z"/>
    <path class="fil1" d="M645.23 977.69c0,19.35 -7.94,36.98 -20.7,49.75 -12.8,12.81 -30.45,20.78 -49.8,20.78l-449.1 0c-19.36,0 -36.99,-7.94 -49.77,-20.71l-0.07 0c-12.78,-12.78 -20.72,-30.42 -20.72,-49.82l0 -309.08c0,-19.41 7.94,-37.05 20.71,-49.82l0.08 0c12.78,-12.78 30.41,-20.71 49.77,-20.71l449.1 0c19.4,0 37.03,7.93 49.8,20.7l0 0.08c12.77,12.77 20.7,30.4 20.7,49.75l0 309.08zm-46.58 24.02c6.15,-6.16 9.98,-14.67 9.98,-24.02l0 -309.08c0,-9.33 -3.82,-17.83 -9.94,-23.99 -6.19,-6.11 -14.67,-9.95 -23.96,-9.95l-449.1 0c-9.34,0 -17.84,3.82 -24.01,9.96 -6.11,6.19 -9.95,14.68 -9.95,23.98l0 309.08c0,9.29 3.84,17.78 10,23.94 6.13,6.18 14.62,10 23.96,10l449.1 0c9.34,0 17.81,-3.81 23.92,-9.92z"/>
    <path class="fil1" d="M626.93 890.58l-126.71 0c-18.61,0 -35.49,-7.54 -47.69,-19.74 -12.2,-12.2 -19.75,-29.05 -19.75,-47.68 0,-18.54 7.57,-35.39 19.8,-47.63 12.16,-12.23 29.04,-19.8 47.64,-19.8l126.71 0 0 36.6 -126.71 0c-8.5,0 -16.22,3.46 -21.8,9.04l-0.08 0c-5.53,5.53 -8.96,13.24 -8.96,21.79 0,8.51 3.46,16.22 9.03,21.8 5.58,5.58 13.3,9.03 21.81,9.03l126.71 0 0 36.59z"/>
   </g>
   <path id="Oval" class="fil2" d="M533.87 823.16c0,-10.63 -8.62,-19.25 -19.24,-19.25 -10.63,0 -19.24,8.62 -19.24,19.25 0,10.62 8.61,19.24 19.24,19.24 10.62,0 19.24,-8.62 19.24,-19.24z"/>
  </g>
 </g>
</svg>
