<?xml version="1.0" encoding="UTF-8"?>
<!DOCTYPE svg PUBLIC "-//W3C//DTD SVG 1.1//EN" "http://www.w3.org/Graphics/SVG/1.1/DTD/svg11.dtd">
<!-- Creator: CorelDRAW 2018 (64-Bit) -->
<svg xmlns="http://www.w3.org/2000/svg" xml:space="preserve" width="19.5mm" height="17mm" version="1.1" style="shape-rendering:geometricPrecision; text-rendering:geometricPrecision; image-rendering:optimizeQuality; fill-rule:evenodd; clip-rule:evenodd"
viewBox="0 0 1950 1700"
 xmlns:xlink="http://www.w3.org/1999/xlink"
 enable-background="new 0 0 77.249 64">
 <defs>
  <style type="text/css">
   <![CDATA[
    .str0 {stroke:#114278;stroke-width:59.06;stroke-linecap:round;stroke-linejoin:round;stroke-miterlimit:22.9256}
    .fil0 {fill:none}
    .fil1 {fill:#114278;fill-rule:nonzero}
   ]]>
  </style>
 </defs>
 <g id="Слой_x0020_1">
  <metadata id="CorelCorpID_0Corel-Layer"/>
  <path class="fil0 str0" d="M387.16 441.63c141.63,-246.51 407.59,-412.59 712.31,-412.59 453.42,0 821,367.56 821,821 0,453.39 -367.61,820.92 -821,820.92 -324.54,0 -605.08,-188.25 -738.35,-461.65"/>
  <path class="fil1" d="M342.37 861.64l247.37 -97.12 -242.46 -105.19 -242.3 101.27 237.39 101.04zm307.2 -77.18l-307.73 120.81c-113.62,-48.26 -227.18,-96.68 -340.76,-145.02 115.5,-48.3 230.99,-96.64 346.53,-144.84 116.02,50.26 232,100.65 348,150.98l-46.04 18.07z"/>
  <path class="fil1" d="M563.73 806.18l0 188.41 -13.25 5.48c-0.22,0.09 -75.08,33.16 -205.49,33.16 -135.81,0 -196.89,-33.72 -197.06,-33.8l-12.03 -6.13 0 -187.12 39.24 0 0 155.27c22.21,8.6 76.12,24.62 169.85,24.62 92.23,0 153.98,-16.96 179.5,-25.62l0 -154.27 39.24 0z"/>
  <polygon class="fil1" points="662.29,768.71 662.29,871.84 623.05,871.84 623.05,768.71 "/>
 </g>
</svg>
