<?xml version="1.0" encoding="UTF-8"?>
<!DOCTYPE svg PUBLIC "-//W3C//DTD SVG 1.1//EN" "http://www.w3.org/Graphics/SVG/1.1/DTD/svg11.dtd">
<!-- Creator: CorelDRAW 2018 (64-Bit) -->
<svg xmlns="http://www.w3.org/2000/svg" xml:space="preserve" width="19.5mm" height="17mm" version="1.1" style="shape-rendering:geometricPrecision; text-rendering:geometricPrecision; image-rendering:optimizeQuality; fill-rule:evenodd; clip-rule:evenodd"
viewBox="0 0 1950 1700"
 xmlns:xlink="http://www.w3.org/1999/xlink"
 enable-background="new 0 0 77.249 64">
 <defs>
  <style type="text/css">
   <![CDATA[
    .str0 {stroke:#114278;stroke-width:59.06;stroke-linecap:round;stroke-linejoin:round;stroke-miterlimit:22.9256}
    .fil0 {fill:none}
    .fil1 {fill:#114278}
   ]]>
  </style>
 </defs>
 <g id="Слой_x0020_1">
  <metadata id="CorelCorpID_0Corel-Layer"/>
  <path class="fil0 str0" d="M387.16 441.63c141.63,-246.51 407.59,-412.59 712.31,-412.59 453.42,0 821,367.56 821,821 0,453.39 -367.61,820.92 -821,820.92 -324.54,0 -605.08,-188.25 -738.35,-461.65"/>
  <path class="fil1" d="M628.77 659.63l-0.28 0 -492.14 0c-10.1,0 -18.79,-7.08 -20.84,-16.93 -2.03,-9.88 3.08,-19.84 12.3,-23.88l243.83 -106.67c5.4,-2.37 11.53,-2.37 16.93,-0.05l246.52 105.89c8.68,2.69 14.96,10.77 14.96,20.35 0.02,11.74 -9.5,21.29 -21.28,21.29l0 0zm-390.7 -42.57l286.97 0 -144.78 -62.21 -142.19 62.21 0 0z"/>
  <path class="fil1" d="M562.57 1056.41l-379.49 0c-11.74,0 -21.26,-9.54 -21.26,-21.28 0,-11.76 9.52,-21.28 21.26,-21.28l379.49 0c11.75,0 21.29,9.52 21.29,21.28 0,11.74 -9.54,21.28 -21.29,21.28l0 0z"/>
  <path class="fil1" d="M605.39 1151.25l-461.69 0c-11.76,0 -21.29,-9.55 -21.29,-21.31 0,-11.74 9.53,-21.28 21.29,-21.28l461.69 0c11.74,0 21.27,9.54 21.27,21.28 0,11.76 -9.53,21.31 -21.27,21.31l0 0z"/>
  <path class="fil1" d="M233.33 966.43c-11.74,0 -21.28,-9.52 -21.28,-21.28l0 -200.59c0,-11.76 9.56,-21.28 21.28,-21.28 11.76,0 21.28,9.54 21.28,21.28l0 200.59c0,11.76 -9.52,21.28 -21.28,21.28l0 0z"/>
  <path class="fil1" d="M380.86 966.43c-11.77,0 -21.28,-9.52 -21.28,-21.28l0 -200.59c0,-11.76 9.51,-21.28 21.28,-21.28 11.75,0 21.27,9.54 21.27,21.28l0 200.59c0,11.76 -9.52,21.28 -21.27,21.28l0 0z"/>
  <path class="fil1" d="M520.45 966.43c-11.76,0 -21.3,-9.52 -21.3,-21.28l0 -200.59c0,-11.76 9.54,-21.28 21.3,-21.28 11.73,0 21.25,9.54 21.25,21.28l0 200.59c0.03,11.76 -9.52,21.28 -21.25,21.28l0 0z"/>
 </g>
</svg>
