<?xml version="1.0" encoding="UTF-8" standalone="no"?>
<svg width="24px" height="13px" viewBox="0 0 24 13" version="1.1" xmlns="http://www.w3.org/2000/svg" xmlns:xlink="http://www.w3.org/1999/xlink">
    <!-- Generator: Sketch 40.3 (33839) - http://www.bohemiancoding.com/sketch -->
    <title>Page 1</title>
    <desc>Created with Sketch.</desc>
    <defs></defs>
    <g id="Page-1" stroke="none" stroke-width="1" fill="none" fill-rule="evenodd">
        <g id="Merkezi_bank-icon-01" fill="#074C7F">
            <g id="Page-1">
                <path d="M11.974814,0 L0,4.99681011 L11.7724866,10 L11.9854481,9.91648301 L24,5.20792251 L11.974814,0 Z M3.06709265,5.00724974 L11.9666985,1.29335344 L20.8772183,5.15253451 L11.789837,8.7138963 L3.06709265,5.00724974 Z M11.7811618,9.35680316 L12.0002798,8.80321308 L11.7811618,9.35680316 Z" id="Fill-1"></path>
                <g id="Group-6" transform="translate(4.000000, 5.000000)">
                    <path d="M14.0753134,1.51470345 L14.0753134,6.50477241 L14.6603433,6.50477241 L14.4584328,5.97042759 L14.5040896,6.09125517 L14.459,5.97042759 L14.4584328,5.97042759 L14.5040896,6.09125517 L14.459,5.97042759 C14.431209,5.98035862 11.9186716,6.86173793 7.50698507,6.86173793 C5.17650746,6.86173793 3.51613433,6.63415172 2.44844776,6.41125517 C1.91446269,6.2998069 1.52850746,6.18973793 1.2809403,6.10946207 C1.15729851,6.06946207 1.06797015,6.03663448 1.01210448,6.0153931 C0.984313433,6.00463448 0.964746269,5.99663448 0.953119403,5.99194483 L0.942343284,5.98725517 L0.941208955,5.98670345 L0.801402985,6.28794483 L0.943477612,5.9878069 L0.941208955,5.98670345 L0.801402985,6.28794483 L0.943477612,5.9878069 L0.698746269,6.50477241 L1.28377612,6.50477241 L1.28377612,1.51470345 L0.113716418,1.51470345 L0.113716418,6.86946207 L0.454298507,7.02173793 C0.531149254,7.05677241 2.68949254,8.00049655 7.50698507,7.99994483 C12.1523433,7.99994483 14.8103582,7.0576 14.8622537,7.03911724 L15.2453731,6.90201379 L15.2453731,1.51470345 L14.0753134,1.51470345 L14.0753134,1.51470345 Z" id="Fill-2"></path>
                    <polyline id="Fill-4" points="17.6161194 0.252634483 17.6161194 3.72491034 18.7861791 3.72491034 18.7861791 0.252634483"></polyline>
                </g>
            </g>
        </g>
    </g>
</svg>