<?xml version="1.0" encoding="UTF-8"?>
<!DOCTYPE svg PUBLIC "-//W3C//DTD SVG 1.1//EN" "http://www.w3.org/Graphics/SVG/1.1/DTD/svg11.dtd">
<!-- Creator: CorelDRAW 2018 (64-Bit) -->
<svg xmlns="http://www.w3.org/2000/svg" xml:space="preserve" width="19.5mm" height="17mm" version="1.1" style="shape-rendering:geometricPrecision; text-rendering:geometricPrecision; image-rendering:optimizeQuality; fill-rule:evenodd; clip-rule:evenodd"
viewBox="0 0 1950 1700"
 xmlns:xlink="http://www.w3.org/1999/xlink"
 enable-background="new 0 0 77.249 64">
 <defs>
  <style type="text/css">
   <![CDATA[
    .str0 {stroke:#114278;stroke-width:59.06;stroke-linecap:round;stroke-linejoin:round;stroke-miterlimit:22.9256}
    .fil0 {fill:none}
    .fil1 {fill:#114278;fill-rule:nonzero}
   ]]>
  </style>
 </defs>
 <g id="Слой_x0020_1">
  <metadata id="CorelCorpID_0Corel-Layer"/>
  <path class="fil0 str0" d="M387.16 441.63c141.63,-246.51 407.59,-412.59 712.31,-412.59 453.42,0 821,367.56 821,821 0,453.39 -367.61,820.92 -821,820.92 -324.54,0 -605.08,-188.25 -738.35,-461.65"/>
  <g id="_1089902256">
   <path class="fil1" d="M325.73 861.26l0 198.59c0,18.93 7.71,36.11 20.14,48.55l0 0.07c12.44,12.44 29.63,20.14 48.61,20.14 19,0 36.19,-7.69 48.62,-20.13 12.44,-12.52 20.15,-29.71 20.15,-48.63l-35.08 0c0,9.35 -3.75,17.77 -9.8,23.83l-0.07 0c-6.09,6.08 -14.52,9.86 -23.82,9.86 -9.29,0 -17.71,-3.78 -23.8,-9.88 -6.1,-6.05 -9.87,-14.49 -9.87,-23.81l0 -198.59 -35.08 0z"/>
   <path class="fil1" d="M260.65 841.91c-13.97,-12.33 -30.16,-22.2 -47.85,-28.89 -17.11,-6.47 -35.6,-10.03 -54.81,-10.03 -20.72,0 -40.61,4.13 -58.87,11.61 -6.14,2.53 -12.09,5.43 -17.81,8.69 8.16,-60.15 36.05,-114.04 76.93,-154.93 49.07,-49.05 116.85,-79.4 191.7,-79.4 74.86,0 142.65,30.35 191.71,79.4 40.42,40.43 68.15,93.57 76.65,152.9 -5.84,-3.11 -11.9,-5.87 -18.16,-8.24 -17.11,-6.47 -35.59,-10.03 -54.79,-10.03 -20.74,0 -40.63,4.14 -58.87,11.61 -18.84,7.73 -35.83,19.07 -50.06,33.12l24.53 24.93c11.07,-10.92 24.24,-19.73 38.83,-25.71 13.93,-5.71 29.33,-8.87 45.57,-8.87 15.02,0 29.32,2.73 42.46,7.69 12.46,4.71 23.99,11.51 34.18,19.94l34.15 79.87 0 -85.52c0,-84.54 -34.28,-161.09 -89.68,-216.49 -55.42,-55.4 -131.97,-89.68 -216.52,-89.68 -84.53,0 -161.09,34.28 -216.5,89.68 -55.4,55.4 -89.69,131.95 -89.69,216.49l0 41.97 29.81 -29.37c11.08,-10.92 24.27,-19.73 38.86,-25.71 13.94,-5.71 29.34,-8.87 45.57,-8.87 15.02,0 29.34,2.73 42.48,7.69 13.73,5.2 26.27,12.83 37.03,22.33l23.15 -26.18z"/>
   <polygon class="fil1" points="367.48,571.42 367.48,527.95 332.41,527.95 332.41,571.42 "/>
  </g>
 </g>
</svg>
