<?xml version="1.0" encoding="UTF-8"?>
<!DOCTYPE svg PUBLIC "-//W3C//DTD SVG 1.1//EN" "http://www.w3.org/Graphics/SVG/1.1/DTD/svg11.dtd">
<!-- Creator: CorelDRAW 2018 (64-Bit) -->
<svg xmlns="http://www.w3.org/2000/svg" xml:space="preserve" width="19.5mm" height="17mm" version="1.1" style="shape-rendering:geometricPrecision; text-rendering:geometricPrecision; image-rendering:optimizeQuality; fill-rule:evenodd; clip-rule:evenodd"
viewBox="0 0 1950 1700"
 xmlns:xlink="http://www.w3.org/1999/xlink"
 enable-background="new 0 0 77.249 64">
 <defs>
  <style type="text/css">
   <![CDATA[
    .str0 {stroke:#114278;stroke-width:59.06;stroke-linecap:round;stroke-linejoin:round;stroke-miterlimit:22.9256}
    .fil0 {fill:none}
    .fil1 {fill:#114278;fill-rule:nonzero}
   ]]>
  </style>
 </defs>
 <g id="Слой_x0020_1">
  <metadata id="CorelCorpID_0Corel-Layer"/>
  <path class="fil0 str0" d="M387.16 441.63c141.63,-246.51 407.59,-412.59 712.31,-412.59 453.42,0 821,367.56 821,821 0,453.39 -367.61,820.92 -821,820.92 -324.54,0 -605.08,-188.25 -738.35,-461.65"/>
  <path class="fil1" d="M511.81 1033.15c0,23.76 -9.77,45.42 -25.49,61.13 -15.68,15.67 -37.32,25.41 -61.1,25.41l-200.38 0c-23.76,0 -45.41,-9.77 -61.11,-25.48 -15.67,-15.68 -25.41,-37.3 -25.41,-61.06l0 -428.12c0,-23.78 9.74,-45.41 25.4,-61.09 15.71,-15.71 37.36,-25.48 61.12,-25.48l200.38 0c23.83,0 45.49,9.73 61.17,25.41 15.68,15.68 25.42,37.33 25.42,61.16l0 428.12zm-49.76 36.73c9.4,-9.39 15.25,-22.41 15.25,-36.73l0 -428.12c0,-14.3 -5.87,-27.31 -15.31,-36.75 -9.44,-9.44 -22.46,-15.31 -36.77,-15.31l-200.38 0c-14.32,0 -27.33,5.84 -36.71,15.24 -9.43,9.44 -15.29,22.47 -15.29,36.82l0 428.12c0,14.32 5.86,27.36 15.29,36.8 9.39,9.39 22.39,15.23 36.71,15.23l200.38 0c14.35,0 27.4,-5.87 36.83,-15.3zm-306.49 -463.74l338.99 0 0 34.51 -338.99 0 0 -34.51zm0 374.2l338.99 0 0 34.52 -338.99 0 0 -34.52zm191.62 69.96c0,-11.14 -9.03,-20.18 -20.18,-20.18 -11.13,0 -20.16,9.04 -20.16,20.18 0,11.14 9.03,20.17 20.16,20.17 11.15,0 20.18,-9.03 20.18,-20.17z"/>
 </g>
</svg>
