<?xml version="1.0" encoding="UTF-8"?>
<!DOCTYPE svg PUBLIC "-//W3C//DTD SVG 1.1//EN" "http://www.w3.org/Graphics/SVG/1.1/DTD/svg11.dtd">
<!-- Creator: CorelDRAW 2018 (64-Bit) -->
<svg xmlns="http://www.w3.org/2000/svg" xml:space="preserve" width="19.5mm" height="17mm" version="1.1" style="shape-rendering:geometricPrecision; text-rendering:geometricPrecision; image-rendering:optimizeQuality; fill-rule:evenodd; clip-rule:evenodd"
viewBox="0 0 1950 1700"
 xmlns:xlink="http://www.w3.org/1999/xlink"
 enable-background="new 0 0 77.249 64">
 <defs>
  <style type="text/css">
   <![CDATA[
    .str0 {stroke:#114278;stroke-width:59.06;stroke-linecap:round;stroke-linejoin:round;stroke-miterlimit:22.9256}
    .fil0 {fill:none}
    .fil1 {fill:#114278;fill-rule:nonzero}
   ]]>
  </style>
 </defs>
 <g id="Слой_x0020_1">
  <metadata id="CorelCorpID_0Corel-Layer"/>
  <path class="fil0 str0" d="M387.16 441.63c141.63,-246.51 407.59,-412.59 712.31,-412.59 453.42,0 821,367.56 821,821 0,453.39 -367.61,820.92 -821,820.92 -324.54,0 -605.08,-188.25 -738.35,-461.65"/>
  <g id="_1095769120">
   <path class="fil1" d="M377.62 999.7l-288.65 0c-23.5,0 -44.92,-9.66 -60.47,-25.23 -15.51,-15.51 -25.13,-36.92 -25.13,-60.42l0 -255.56c0,-23.51 9.63,-44.9 25.13,-60.41l0 -0.08c15.5,-15.51 36.92,-25.13 60.47,-25.13l482.92 0c23.51,0 44.92,9.62 60.43,25.12 15.55,15.55 25.21,36.98 25.21,60.5l0 184.52 -39.69 0 0 -184.52c0,-12.67 -5.15,-24.16 -13.43,-32.43 -8.33,-8.33 -19.84,-13.5 -32.52,-13.5l-482.92 0c-12.6,0 -24.08,5.17 -32.41,13.5 -8.34,8.29 -13.5,19.78 -13.5,32.43l0 255.56c0,12.66 5.18,24.19 13.51,32.52 8.28,8.29 19.75,13.43 32.4,13.43l288.65 0 0 39.7z"/>
   <polygon class="fil1" points="23.2,698.57 637.68,698.57 637.68,738.26 23.2,738.26 "/>
   <polygon class="fil1" points="459.57,954.84 505.12,991.35 553.96,952.94 578.45,984.1 504.93,1041.93 434.77,985.7 "/>
   <path class="fil1" d="M613.57 971.75c0,-29.08 -11.79,-55.41 -30.84,-74.46 -19.05,-19.05 -45.38,-30.84 -74.46,-30.84 -29.08,0 -55.42,11.79 -74.47,30.84 -19.05,19.05 -30.84,45.38 -30.84,74.46 0,29.08 11.79,55.42 30.84,74.47 19.05,19.05 45.39,30.84 74.47,30.84 29.08,0 55.41,-11.79 74.46,-30.84 19.05,-19.05 30.84,-45.39 30.84,-74.47zm-2.78 -102.53c26.25,26.24 42.48,62.5 42.48,102.53 0,40.04 -16.23,76.29 -42.48,102.53 -26.24,26.24 -62.49,42.47 -102.52,42.47 -40.04,0 -76.29,-16.23 -102.53,-42.47 -26.24,-26.24 -42.47,-62.49 -42.47,-102.53 0,-40.03 16.23,-76.29 42.47,-102.53 26.24,-26.24 62.49,-42.47 102.53,-42.47 40.03,0 76.28,16.23 102.52,42.47z"/>
  </g>
 </g>
</svg>
