<?xml version="1.0" encoding="UTF-8"?>
<!DOCTYPE svg PUBLIC "-//W3C//DTD SVG 1.1//EN" "http://www.w3.org/Graphics/SVG/1.1/DTD/svg11.dtd">
<!-- Creator: CorelDRAW 2018 (64-Bit) -->
<svg xmlns="http://www.w3.org/2000/svg" xml:space="preserve" width="19.5mm" height="17mm" version="1.1" style="shape-rendering:geometricPrecision; text-rendering:geometricPrecision; image-rendering:optimizeQuality; fill-rule:evenodd; clip-rule:evenodd"
viewBox="0 0 1950 1700"
 xmlns:xlink="http://www.w3.org/1999/xlink"
 enable-background="new 0 0 77.249 64">
 <defs>
  <style type="text/css">
   <![CDATA[
    .str0 {stroke:#114278;stroke-width:59.06;stroke-linecap:round;stroke-linejoin:round;stroke-miterlimit:22.9256}
    .fil0 {fill:none}
    .fil1 {fill:#114278;fill-rule:nonzero}
   ]]>
  </style>
 </defs>
 <g id="Слой_x0020_1">
  <metadata id="CorelCorpID_0Corel-Layer"/>
  <path class="fil0 str0" d="M387.16 441.63c141.63,-246.51 407.59,-412.59 712.31,-412.59 453.42,0 821,367.56 821,821 0,453.39 -367.61,820.92 -821,820.92 -324.54,0 -605.08,-188.25 -738.35,-461.65"/>
  <g id="_1093666896">
   <polygon class="fil1" points="565.38,712.88 565.38,1107.18 105.42,1107.18 105.42,712.88 143.31,712.88 143.31,1069.3 527.49,1069.3 527.49,712.88 "/>
   <polygon class="fil1" points="36.68,747.06 333.77,519.98 638.18,746.91 615.54,777.24 334,567.36 59.62,777.09 "/>
   <path class="fil1" d="M373.51 1022.29l0 -84.24c0,-7.8 -3.84,-15 -10.04,-20.34 -7.02,-6.04 -16.93,-9.78 -28.04,-9.78 -11.13,0 -21.06,3.74 -28.08,9.78 -6.2,5.33 -10.05,12.54 -10.05,20.34l0 131.25 95.17 0 0 37.88 -133.05 0 0 -169.13c0,-19.3 8.94,-36.63 23.37,-49.04 13.63,-11.72 32.26,-18.97 52.64,-18.97 20.37,0 38.99,7.26 52.6,18.97 14.43,12.42 23.37,29.74 23.37,49.04l0 84.24 -37.89 0z"/>
  </g>
 </g>
</svg>
