<?xml version="1.0" encoding="UTF-8" standalone="no"?>
<svg width="15px" height="14px" viewBox="0 0 15 14" version="1.1" xmlns="http://www.w3.org/2000/svg" xmlns:xlink="http://www.w3.org/1999/xlink">
    <!-- Generator: Sketch 39.1 (31720) - http://www.bohemiancoding.com/sketch -->
    <title>095__search</title>
    <desc>Created with Sketch.</desc>
    <defs></defs>
    <g id="LAST" stroke="none" stroke-width="1" fill="none" fill-rule="evenodd">
        <g id="gpp-main" transform="translate(-356.000000, -452.000000)" fill="#00427A">
            <g id="Group-26" transform="translate(340.000000, 432.000000)">
                <g id="Group-14">
                    <g id="095__search" transform="translate(16.000000, 20.000000)">
                        <g id="图层_1">
                            <g id="Group">
                                <path d="M5.5,11 C2.5,11 0,8.5 0,5.5 C0,2.5 2.5,0 5.5,0 C8.5,0 11,2.5 11,5.5 C11,8.5 8.5,11 5.5,11 L5.5,11 Z M5.5,1 C3,1 1,3 1,5.5 C1,8 3,10 5.5,10 C8,10 10,8 10,5.5 C10,3 8,1 5.5,1 L5.5,1 Z" id="Shape"></path>
                                <path d="M9.5,8.8 L13.9,13.2 C14.1,13.4 14.1,13.7 13.9,13.9 C13.8,14 13.6,14 13.5,14 C13.4,14 13.2,14 13.1,13.9 L8.7,9.5 L9.5,8.8 L9.5,8.8 Z" id="Shape"></path>
                            </g>
                        </g>
                    </g>
                </g>
            </g>
        </g>
    </g>
</svg>