<?xml version="1.0" encoding="UTF-8" standalone="no"?>
<svg width="24px" height="23px" viewBox="0 0 24 23" version="1.1" xmlns="http://www.w3.org/2000/svg" xmlns:xlink="http://www.w3.org/1999/xlink">
    <!-- Generator: Sketch 40.3 (33839) - http://www.bohemiancoding.com/sketch -->
    <title>Page 1</title>
    <desc>Created with Sketch.</desc>
    <defs>
        <polygon id="path-1" points="0.3327 11 5.8837 11 5.8837 0.6734 0.3327 0.6734 0.3327 11"></polygon>
    </defs>
    <g id="Page-1" stroke="none" stroke-width="1" fill="none" fill-rule="evenodd">
        <g>
            <g id="Group-3" transform="translate(7.000000, 12.000000)">
                <mask id="mask-2" fill="white">
                    <use xlink:href="#path-1"></use>
                </mask>
                <g id="Clip-2"></g>
                <path d="M4.2277,0.6734 L4.2277,8.2244 C4.2277,8.5364 4.1037,8.8114 3.8997,9.0164 C3.6947,9.2204 3.4197,9.3444 3.1077,9.3444 C2.7957,9.3444 2.5217,9.2204 2.3157,9.0164 C2.1127,8.8114 1.9887,8.5364 1.9887,8.2244 L0.3327,8.2244 C0.3327,9.7574 1.5747,10.9994 3.1077,11.0004 C4.6407,10.9994 5.8827,9.7584 5.8837,8.2244 L5.8837,0.6734 L4.2277,0.6734 L4.2277,0.6734 Z" id="Fill-1" fill="#074C7F" mask="url(#mask-2)"></path>
            </g>
            <path d="M16.1853,13.0559 C16.9653,12.3689 17.9803,11.9539 19.1013,11.9529 C20.3093,11.9539 21.3973,12.4369 22.1963,13.2219 L23.6043,14.6079 L23.6043,12.6279 C23.6043,6.1089 18.3213,0.8259 11.8023,0.8259 C5.2843,0.8259 0.0003,6.1089 0.0003,12.6279 L0.0003,16.7099 L1.6713,12.7579 L0.9093,12.4349 L1.4573,13.0559 C2.2373,12.3689 3.2523,11.9539 4.3733,11.9529 C5.5803,11.9539 6.6693,12.4369 7.4673,13.2219 L8.6293,12.0419 C7.5373,10.9659 6.0293,10.2969 4.3733,10.2979 C2.8373,10.2969 1.4283,10.8729 0.3613,11.8139 L0.2203,11.9389 L0.0653,12.3049 L0.8283,12.6279 L1.6553,12.6279 C1.6563,9.8229 2.7903,7.2919 4.6273,5.4529 C6.4663,3.6159 8.9983,2.4819 11.8023,2.4809 C14.6073,2.4819 17.1383,3.6159 18.9773,5.4529 C20.8143,7.2919 21.9483,9.8229 21.9493,12.6279 L21.9493,12.6319 L22.7773,12.6319 L23.3573,12.0419 C22.2653,10.9659 20.7573,10.2969 19.1013,10.2979 C17.5653,10.2969 16.1563,10.8729 15.0903,11.8139 L16.1853,13.0559 L16.1853,13.0559 Z" id="Fill-4" fill="#074C7F"></path>
            <polyline id="Fill-6" fill="#074C7F" points="12.6302 1.6535 12.6302 0.0005 10.9742 0.0005 10.9742 1.6535"></polyline>
        </g>
    </g>
</svg>