<?xml version="1.0" encoding="UTF-8" standalone="no"?>
<svg width="98px" height="98px" viewBox="0 0 98 98" version="1.1" xmlns="http://www.w3.org/2000/svg" xmlns:xlink="http://www.w3.org/1999/xlink">
    <!-- Generator: Sketch 39.1 (31720) - http://www.bohemiancoding.com/sketch -->
    <title>work-done</title>
    <desc>Created with Sketch.</desc>
    <defs></defs>
    <g id="Page-1" stroke="none" stroke-width="1" fill="none" fill-rule="evenodd">
        <g id="3.2-payment---success" transform="translate(-551.000000, -337.000000)" fill="#04224E">
            <g id="work-done" transform="translate(551.000000, 337.000000)">
                <g id="Capa_1">
                    <g id="Group">
                        <path d="M48.9523939,97.9047877 C21.9595055,97.9047877 0,75.9452823 0,48.9523939 C0,21.9595055 21.9595055,0 48.9523939,0 C58.0964158,0 67.015488,2.53770678 74.7469803,7.33992123 C76.0981794,8.1783895 76.512267,9.95396937 75.6737987,11.3053829 C74.8338293,12.6565821 73.0582495,13.0736718 71.708337,12.2322013 C64.8903676,7.99675711 57.0212035,5.75926915 48.9523939,5.75926915 C25.1353917,5.75926915 5.7590547,25.1362495 5.7590547,48.9526083 C5.7590547,72.7689672 25.1353917,92.145733 48.9523939,92.145733 C72.7687527,92.145733 92.145733,72.7687527 92.145733,48.9523939 C92.145733,44.1651904 91.3688096,39.4648359 89.8361926,34.98214 C89.3217462,33.4778293 90.1256893,31.8401357 91.63,31.3256893 C93.1373129,30.8142451 94.7720044,31.615186 95.2864508,33.1194967 C97.0232166,38.2037024 97.9050022,43.5308709 97.9050022,48.9526083 C97.9047877,75.9452823 75.9452823,97.9047877 48.9523939,97.9047877 L48.9523939,97.9047877 Z" id="Shape"></path>
                        <path d="M48.9523939,65.5607133 C48.2220044,65.5607133 47.5156324,65.2832254 46.9810284,64.7792867 L23.9445952,43.1392998 C22.7853217,42.0505777 22.7282801,40.2282495 23.8172166,39.0689759 C24.9061532,37.9112035 26.728267,37.8511597 27.8875405,38.9430985 L48.7081444,58.5014967 L86.5410766,13.5894048 C87.563965,12.3730897 89.3815755,12.2171904 90.5978906,13.2428665 C91.8142057,14.267256 91.970105,16.0833654 90.9444289,17.2996805 L51.15407,64.5365383 C50.645628,65.1408359 49.9092341,65.5098906 49.120302,65.5564245 C49.0649759,65.5592123 49.0079344,65.5607133 48.9523939,65.5607133 L48.9523939,65.5607133 Z" id="Shape"></path>
                    </g>
                </g>
            </g>
        </g>
    </g>
</svg>