<?xml version="1.0" encoding="UTF-8" standalone="no"?>
<svg width="21px" height="23px" viewBox="0 0 21 23" version="1.1" xmlns="http://www.w3.org/2000/svg" xmlns:xlink="http://www.w3.org/1999/xlink">
    <!-- Generator: Sketch 40.3 (33839) - http://www.bohemiancoding.com/sketch -->
    <title>Page 1</title>
    <desc>Created with Sketch.</desc>
    <defs></defs>
    <g id="Page-1" stroke="none" stroke-width="1" fill="none" fill-rule="evenodd">
        <g fill="#114278">
            <polygon id="Fill-1" points="16.67178 7.5230125 16.67178 21.6749125 3.65148 21.6749125 3.65148 7.5230125 2.367505 7.5230125 2.367505 22.9588875 17.955755 22.9588875 17.955755 7.5230125"></polygon>
            <polygon id="Fill-2" points="10.104705 0.000115 0.00023 8.982765 0.852955 9.94244 10.11563 1.70844 19.618655 9.947615 20.459305 8.97759"></polygon>
            <path d="M12.736825,19.717555 L12.736825,16.397505 C12.73625,14.974955 11.58395,13.822655 10.16255,13.82208 C8.74,13.822655 7.587125,14.974955 7.58655,16.397505 L7.58655,22.95883 L12.0957,22.95883 L12.0957,21.67543 L8.870525,21.67543 L8.870525,16.397505 C8.871675,15.684505 9.44955,15.107205 10.16255,15.10548 C10.873825,15.107205 11.4517,15.684505 11.45285,16.397505 L11.45285,19.717555 L12.736825,19.717555 L12.736825,19.717555 Z" id="Fill-3"></path>
        </g>
    </g>
</svg>