<?xml version="1.0" encoding="UTF-8" standalone="no"?>
<svg width="102px" height="30px" viewBox="0 0 102 30" version="1.1" xmlns="http://www.w3.org/2000/svg" xmlns:xlink="http://www.w3.org/1999/xlink">
    <!-- Generator: Sketch 39.1 (31720) - http://www.bohemiancoding.com/sketch -->
    <title>Rectangle 1 + Google Play Icon + Imported Layers + Imported Layers</title>
    <desc>Created with Sketch.</desc>
    <defs>
        <rect id="path-1" x="0" y="0" width="102" height="30" rx="4"></rect>
        <mask id="mask-2" maskContentUnits="userSpaceOnUse" maskUnits="objectBoundingBox" x="0" y="0" width="102" height="30" fill="white">
            <use xlink:href="#path-1"></use>
        </mask>
    </defs>
    <g id="Symbols" stroke="none" stroke-width="1" fill="none" fill-rule="evenodd">
        <g id="footer" transform="translate(-246.000000, -92.000000)">
            <g id="Group-23">
                <g transform="translate(29.000000, 92.000000)">
                    <g id="Rectangle-1-+-Google-Play-Icon-+-Imported-Layers-+-Imported-Layers" transform="translate(217.000000, 0.000000)">
                        <g id="Rectangle-1-+-Google-Play-Icon-+-Imported-Layers" stroke="#94A0AE" stroke-width="2">
                            <use id="Rectangle-1" mask="url(#mask-2)" xlink:href="#path-1"></use>
                        </g>
                        <g id="Imported-Layers" transform="translate(9.000000, 7.000000)" fill="#94A0AF">
                            <path d="M6.56912888,2.057 C6.59532785,2.17653125 6.61052325,2.32103125 6.61314315,2.49209375 C6.01056692,2.756125 5.77844407,2.94525 5.78892366,3.85103125 L5.78892366,4.40565625 L5.37602795,4.490125 L5.37602795,3.8473125 C5.37602795,2.5128125 5.87957208,2.3024375 6.56912888,2.057 L6.56912888,2.057 Z M7.76956553,1.7711875 C7.79681246,1.90028125 7.81881959,2.04159375 7.83349101,2.1919375 C8.91288844,2.0346875 8.89192926,2.48678125 8.89192926,3.4286875 L8.89192926,3.77665625 L9.30063314,3.69165625 L9.30063314,3.4286875 C9.30063314,1.96509375 9.07532203,1.57303125 7.76956553,1.7711875 L7.76956553,1.7711875 Z M3.51590132,4.8673125 L3.51590132,2.94259375 C3.50280183,1.7499375 4.11009388,1.3844375 5.23140965,1.11828125 C6.92071902,0.71665625 7.02813478,1.82059375 7.02813478,2.5234375 L7.02813478,4.154375 L7.44155447,4.06990625 L7.44155447,2.55903125 C7.43736264,1.2293125 7.02865876,0.23375 5.14914489,0.6661875 C4.13629285,0.898875 3.1030056,1.16078125 3.1030056,2.90275 L3.1030056,4.9501875 L3.51590132,4.8673125 L3.51590132,4.8673125 Z M8.46436213,9.92640625 L5.28537952,9.92640625 L5.28537952,7.59421875 L8.46436213,7.1219375 L8.46436213,9.92640625 L8.46436213,9.92640625 Z M8.46436213,13.22175 L5.28537952,12.7505313 L5.28537952,10.2478125 L8.46436213,10.2478125 L8.46436213,13.22175 L8.46436213,13.22175 Z M4.968896,9.92640625 L2.44698348,9.92640625 L2.44698348,7.9740625 L4.968896,7.6128125 L4.968896,9.92640625 L4.968896,9.92640625 Z M4.968896,12.7303438 L2.44698348,12.3701563 L2.44698348,10.2478125 L4.968896,10.2478125 L4.968896,12.7303438 L4.968896,12.7303438 Z M11.3677316,3.780375 L0.00366785532,6.08440625 L0.00366785532,14.4643437 L11.3677316,16.7678437 L13.639182,15.9300625 L13.639182,4.61815625 L11.3677316,3.780375 L11.3677316,3.780375 Z" id="Fill-1"></path>
                            <path d="M21.8002928,2.74502135 C21.8002928,3.2256747 21.6964422,3.64922073 21.4887409,4.0162543 C21.2810397,4.38328786 20.9859162,4.66644504 20.6033704,4.86513095 C20.2202378,5.063222 19.7825398,5.16256496 19.2896893,5.16256496 L18.060497,5.16256496 L18.060497,0.446451334 L19.3448417,0.446451334 C20.9818091,0.446451334 21.8002928,1.21264134 21.8002928,2.74502135 L21.8002928,2.74502135 Z M21.228821,2.75870331 C21.228821,1.5499315 20.5969164,0.946140467 19.3313469,0.946140467 L18.6049793,0.946140467 L18.6049793,4.66287583 L19.2961433,4.66287583 C19.9104462,4.66287583 20.3856948,4.49631278 20.7230626,4.16437643 C21.0604304,3.83184521 21.228821,3.36308921 21.228821,2.75870331 L21.228821,2.75870331 Z M25.6633012,3.46540651 C25.6633012,4.00078773 25.5136859,4.43028243 25.2138686,4.75627011 C24.914638,5.08166291 24.5127302,5.24465675 24.0093187,5.24465675 C23.5182285,5.24465675 23.1262951,5.08642186 22.8335185,4.7693572 C22.5401551,4.45229255 22.3934734,4.03529007 22.3934734,3.5177549 C22.3934734,2.96095844 22.5442622,2.5207561 22.8446663,2.19774277 C23.1450703,1.87413457 23.5592993,1.71292534 24.0873534,1.71292534 C24.5802038,1.71292534 24.9662699,1.86818589 25.2449651,2.18108647 C25.5236603,2.49339218 25.6633012,2.92169715 25.6633012,3.46540651 L25.6633012,3.46540651 Z M25.1182321,3.48503716 C25.1182321,3.062086 25.026116,2.73728806 24.8412971,2.51183308 C24.6564782,2.28578324 24.3918645,2.17275832 24.0480427,2.17275832 C23.7065677,2.17275832 23.4360867,2.28875758 23.2371864,2.51956637 C23.0376993,2.75156489 22.9385425,3.07755257 22.9385425,3.49812425 C22.9385425,3.90144477 23.0388728,4.21672482 23.2389466,4.4439644 C23.4390204,4.67060911 23.7089147,4.7842289 24.0480427,4.7842289 C24.3942114,4.7842289 24.6588251,4.67179885 24.8430573,4.44872334 C25.0267028,4.22505297 25.1182321,3.90382424 25.1182321,3.48503716 L25.1182321,3.48503716 Z M30.6716001,1.79442226 L29.6753382,5.16256496 L29.1244018,5.16256496 L28.4396918,2.75156489 C28.4162228,2.66828337 28.398621,2.56537121 28.3880599,2.44223353 L28.3751519,2.44223353 C28.3681112,2.5189715 28.3458156,2.62009906 28.3065049,2.74502135 L27.5637089,5.16256496 L27.0321345,5.16256496 L26.0300054,1.79442226 L26.5873957,1.79442226 L27.2721057,4.3267754 C27.2938146,4.41481587 27.3090695,4.51594343 27.3172837,4.62956322 L27.3436864,4.62956322 C27.3477935,4.5462817 27.3683289,4.44336953 27.4052927,4.32082672 L28.1674506,1.79442226 L28.6538471,1.79442226 L29.3450111,4.33331895 C29.36672,4.41957481 29.3819749,4.5201075 29.390189,4.63610677 L29.416005,4.63610677 C29.4201121,4.53081513 29.4377139,4.43028243 29.4682237,4.33331895 L30.145893,1.79442226 L30.6716001,1.79442226 L30.6716001,1.79442226 Z M34.0482121,5.16256496 L33.516051,5.16256496 L33.516051,3.24173614 C33.516051,2.52908426 33.258478,2.17275832 32.7439187,2.17275832 C32.4822386,2.17275832 32.2633896,2.27329101 32.0873716,2.47376153 C31.9107668,2.67423205 31.8227578,2.93062017 31.8227578,3.24173614 L31.8227578,5.16256496 L31.2905967,5.16256496 L31.2905967,1.79442226 L31.8227578,1.79442226 L31.8227578,2.35359819 L31.8362525,2.35359819 C32.0844379,1.92588809 32.4482085,1.71292534 32.925804,1.71292534 C33.2913347,1.71292534 33.5694431,1.83308868 33.760716,2.07401023 C33.9519889,2.31552664 34.0482121,2.65757575 34.0482121,3.10015755 L34.0482121,5.16256496 L34.0482121,5.16256496 Z M35.0503413,0.176976123 L35.5825023,0.176976123 L35.5825023,5.16256496 L35.0503413,5.16256496 L35.0503413,0.176976123 Z M39.6755076,3.46540651 C39.6755076,4.00078773 39.5258923,4.43028243 39.2266617,4.75627011 C38.9268444,5.08166291 38.5249366,5.24465675 38.0215251,5.24465675 C37.5304349,5.24465675 37.1385015,5.08642186 36.8457249,4.7693572 C36.5529483,4.45229255 36.4062666,4.03529007 36.4062666,3.5177549 C36.4062666,2.96095844 36.5564686,2.5207561 36.8568727,2.19774277 C37.1578635,1.87413457 37.5715058,1.71292534 38.0995598,1.71292534 C38.5924102,1.71292534 38.9784763,1.86818589 39.2571715,2.18108647 C39.5364534,2.49339218 39.6755076,2.92169715 39.6755076,3.46540651 L39.6755076,3.46540651 Z M39.1310253,3.48503716 C39.1310253,3.062086 39.0383225,2.73728806 38.8535036,2.51183308 C38.6686846,2.28578324 38.4040709,2.17275832 38.0602491,2.17275832 C37.7187742,2.17275832 37.4482932,2.28875758 37.2493928,2.51956637 C37.0504925,2.75156489 36.9507489,3.07755257 36.9507489,3.49812425 C36.9507489,3.90144477 37.0510792,4.21672482 37.251153,4.4439644 C37.4512268,4.67060911 37.7211211,4.7842289 38.0602491,4.7842289 C38.4064178,4.7842289 38.6716183,4.67179885 38.854677,4.44872334 C39.0389092,4.22505297 39.1310253,3.90382424 39.1310253,3.48503716 L39.1310253,3.48503716 Z M42.8514591,5.16256496 L42.319298,5.16256496 L42.319298,4.63610677 L42.30639,4.63610677 C42.0752197,5.04121189 41.7343315,5.24465675 41.2848989,5.24465675 C40.9645461,5.24465675 40.7087333,5.15661628 40.5157002,4.97994048 C40.3232539,4.80326468 40.2270307,4.56591234 40.2270307,4.26788347 C40.2270307,3.64089258 40.5925614,3.27504875 41.3230361,3.16916224 L42.319298,3.02817852 C42.319298,2.45829496 42.0916481,2.17275832 41.6351747,2.17275832 C41.2350271,2.17275832 40.8741902,2.31017283 40.5520773,2.58440698 L40.5520773,2.0317746 C40.6488872,1.95682123 40.8155175,1.88543706 41.0513817,1.81643237 C41.2872458,1.74683282 41.4967072,1.71292534 41.6803527,1.71292534 C42.4612859,1.71292534 42.8514591,2.13230729 42.8514591,2.97226093 L42.8514591,5.16256496 L42.8514591,5.16256496 Z M42.319298,3.45886297 L41.5148957,3.57426736 C41.2403077,3.61352865 41.0478613,3.679559 40.9375567,3.77295328 C40.8272521,3.86634756 40.7726865,4.01684916 40.7726865,4.22505297 C40.7726865,4.39399549 40.8319459,4.52903053 40.9504647,4.63134782 C41.0695702,4.73307025 41.2221191,4.7842289 41.4081115,4.7842289 C41.6721385,4.7842289 41.8898141,4.69023976 42.061725,4.50107173 C42.2336359,4.31309344 42.319298,4.07693083 42.319298,3.79436853 L42.319298,3.45886297 L42.319298,3.45886297 Z M46.6628356,5.16256496 L46.1306745,5.16256496 L46.1306745,4.59030193 L46.1177665,4.59030193 C45.8713413,5.02634019 45.4905557,5.24465675 44.9759964,5.24465675 C44.5564868,5.24465675 44.2226393,5.09177567 43.9738672,4.78601351 C43.7250951,4.47965648 43.6007091,4.07157702 43.6007091,3.5605854 C43.6007091,3.00378893 43.7385898,2.55704305 44.0143514,2.21856315 C44.2901129,1.88127299 44.659164,1.71292534 45.1220913,1.71292534 C45.5762178,1.71292534 45.9083051,1.89436008 46.1177665,2.25841931 L46.1306745,2.25841931 L46.1306745,0.176976123 L46.6628356,0.176976123 L46.6628356,5.16256496 L46.6628356,5.16256496 Z M46.1306745,3.63970284 L46.1306745,3.14298805 C46.1306745,2.86458982 46.0397319,2.63378103 45.8566731,2.44937194 C45.6742011,2.26555773 45.4518317,2.17275832 45.1901516,2.17275832 C44.8697989,2.17275832 44.6157462,2.29292165 44.4279937,2.53324833 C44.2396544,2.77298014 44.1457781,3.10610623 44.1457781,3.530842 C44.1457781,3.91691134 44.2343739,4.2226735 44.4115653,4.44693874 C44.5887568,4.67179885 44.8281413,4.7842289 45.1285453,4.7842289 C45.4201485,4.7842289 45.6607064,4.67655779 45.848459,4.46181044 C46.0367982,4.24706309 46.1306745,3.9734238 46.1306745,3.63970284 L46.1306745,3.63970284 Z M50.9283385,0.650491064 C50.8244879,0.591004262 50.7065558,0.561260861 50.5745423,0.561260861 C50.2025576,0.561260861 50.0165652,0.799802936 50.0165652,1.27510248 L50.0165652,1.79442226 L50.7951515,1.79442226 L50.7951515,2.25187576 L50.0165652,2.25187576 L50.0165652,5.16256496 L49.4849909,5.16256496 L49.4849909,2.25187576 L48.9205598,2.25187576 L48.9205598,1.79442226 L49.4849909,1.79442226 L49.4849909,1.24892829 C49.4849909,0.906879178 49.5841477,0.630265551 49.783048,0.420277142 C49.9819484,0.209098996 50.2354143,0.104402225 50.5422723,0.104402225 C50.7042089,0.104402225 50.832702,0.12403287 50.9283385,0.163294159 L50.9283385,0.650491064 L50.9283385,0.650491064 Z M53.0980537,2.3405111 C53.003004,2.2679372 52.8680569,2.23224512 52.6920389,2.23224512 C52.4567615,2.23224512 52.2654886,2.3440803 52.1182202,2.56894041 C51.9715385,2.79380052 51.897611,3.08588072 51.897611,3.44577587 L51.897611,5.16256496 L51.3660366,5.16256496 L51.3660366,1.79442226 L51.897611,1.79442226 L51.897611,2.48863323 L51.9111057,2.48863323 C51.9844465,2.25663471 52.0976848,2.07222562 52.2514071,1.93778545 C52.4051295,1.80275041 52.5811475,1.73553032 52.7800479,1.73553032 C52.9185154,1.73553032 53.0247129,1.75099689 53.0980537,1.78133516 L53.0980537,2.3405111 L53.0980537,2.3405111 Z M56.6090261,3.46540651 C56.6090261,4.00078773 56.4594108,4.43028243 56.1601802,4.75627011 C55.8603629,5.08166291 55.4584551,5.24465675 54.9550437,5.24465675 C54.4639534,5.24465675 54.07202,5.08642186 53.7792434,4.7693572 C53.4858801,4.45229255 53.3397851,4.03529007 53.3397851,3.5177549 C53.3397851,2.96095844 53.4899872,2.5207561 53.7903912,2.19774277 C54.0907953,1.87413457 54.5050243,1.71292534 55.0330783,1.71292534 C55.5259287,1.71292534 55.9119949,1.86818589 56.19069,2.18108647 C56.4693852,2.49339218 56.6090261,2.92169715 56.6090261,3.46540651 L56.6090261,3.46540651 Z M56.0645438,3.48503716 C56.0645438,3.062086 55.971841,2.73728806 55.7870221,2.51183308 C55.6022032,2.28578324 55.3375894,2.17275832 54.9937676,2.17275832 C54.6522927,2.17275832 54.3818117,2.28875758 54.1829114,2.51956637 C53.984011,2.75156489 53.8842675,3.07755257 53.8842675,3.49812425 C53.8842675,3.90144477 53.9845977,4.21672482 54.1846715,4.4439644 C54.3847453,4.67060911 54.6546396,4.7842289 54.9937676,4.7842289 C55.3399364,4.7842289 55.6045501,4.67179885 55.7887823,4.44872334 C55.9724277,4.22505297 56.0645438,3.90382424 56.0645438,3.48503716 L56.0645438,3.48503716 Z M62.1494861,5.16256496 L61.617325,5.16256496 L61.617325,3.22864904 C61.617325,2.85150272 61.5604125,2.58143264 61.4471743,2.41784394 C61.3333493,2.2548501 61.1426632,2.17275832 60.8745291,2.17275832 C60.6474658,2.17275832 60.4544328,2.27804995 60.2954298,2.48863323 C60.1370136,2.69921651 60.0572188,2.95025081 60.0572188,3.24173614 L60.0572188,5.16256496 L59.5250577,5.16256496 L59.5250577,3.16261869 C59.5250577,2.50291006 59.273352,2.17275832 58.7693538,2.17275832 C58.5358365,2.17275832 58.3433902,2.27210127 58.1920147,2.47019232 C58.0406392,2.66887824 57.9649515,2.92586122 57.9649515,3.24173614 L57.9649515,5.16256496 L57.4327904,5.16256496 L57.4327904,1.79442226 L57.9649515,1.79442226 L57.9649515,2.327424 L57.9778595,2.327424 C58.2137236,1.91755994 58.556372,1.71292534 59.0063913,1.71292534 C59.2223068,1.71292534 59.4171,1.77360188 59.5901844,1.89673956 C59.7632687,2.01928237 59.882961,2.19179409 59.9498478,2.41308499 C60.196273,1.94551873 60.5635639,1.71292534 61.0523072,1.71292534 C61.7839554,1.71292534 62.1494861,2.17037884 62.1494861,3.08707046 L62.1494861,5.16256496 L62.1494861,5.16256496 Z" id="Fill-2"></path>
                            <path d="M26.5715541,8.19044316 L24.6142339,15.2140498 L23.66315,15.2140498 L22.2374042,10.0761748 C22.1828386,9.88343753 22.147635,9.64668006 22.1317934,9.36590236 L22.1124314,9.36590236 C22.0866154,9.60682391 22.0431976,9.8412019 21.9821781,10.0666569 L20.5470446,15.2140498 L19.6047616,15.2140498 L17.5805545,8.19044316 L18.4694455,8.19044316 L19.9433029,13.5781628 C20.0049092,13.81611 20.0442198,14.0516777 20.0641686,14.2836762 L20.0835305,14.2836762 C20.0987854,14.0843955 20.1480705,13.8494226 20.228452,13.5781628 L21.7645025,8.19044316 L22.5471958,8.19044316 L24.0104922,13.6174241 C24.0656445,13.8196792 24.1043684,14.0374009 24.1260773,14.2682097 L24.146026,14.2682097 C24.1612809,14.0986723 24.2058721,13.8755968 24.2762793,13.5977934 L25.6920508,8.19044316 L26.5715541,8.19044316 L26.5715541,8.19044316 Z M28.1433949,8.54855371 C28.1433949,8.69905531 28.0917629,8.8239776 27.988499,8.92272569 C27.8858218,9.02266351 27.7637827,9.07263243 27.6217948,9.07263243 C27.4768733,9.07263243 27.3548342,9.02444812 27.2545039,8.92867437 C27.1547604,8.83171088 27.1048886,8.70500399 27.1048886,8.54855371 C27.1048886,8.40875972 27.1541737,8.28681178 27.252157,8.18330474 C27.3507271,8.08098745 27.4739397,8.02863906 27.6217948,8.02863906 C27.76965,8.02863906 27.8934493,8.07979771 27.9937795,8.18152014 C28.0935231,8.28205284 28.1433949,8.40459565 28.1433949,8.54855371 L28.1433949,8.54855371 Z M27.21578,10.1981227 L28.007861,10.1981227 L28.007861,15.2140498 L27.21578,15.2140498 L27.21578,10.1981227 Z M33.314217,15.2140498 L32.5209626,15.2140498 L32.5209626,12.3539244 C32.5209626,11.292085 32.13783,10.7614627 31.3721517,10.7614627 C30.9819785,10.7614627 30.6557585,10.9113695 30.3934916,11.2099932 C30.1306381,11.508617 29.9992113,11.8893325 29.9992113,12.3539244 L29.9992113,15.2140498 L29.207717,15.2140498 L29.207717,10.1981227 L29.9992113,10.1981227 L29.9992113,11.0309379 L30.0185733,11.0309379 C30.3893846,10.395024 30.9297598,10.0761748 31.642046,10.0761748 C32.1871151,10.0761748 32.6013441,10.2558249 32.8859066,10.6151252 C33.1710557,10.9738306 33.314217,11.4836325 33.314217,12.1427463 L33.314217,15.2140498 L33.314217,15.2140498 Z M38.811846,15.2140498 L38.0197649,15.2140498 L38.0197649,14.361604 L38.000403,14.361604 C37.6331121,15.0117947 37.0663341,15.3365926 36.3000691,15.3365926 C35.6746184,15.3365926 35.1776609,15.1087582 34.8068497,14.6536842 C34.4372119,14.1974204 34.2518063,13.5900601 34.2518063,12.8292239 C34.2518063,11.9999779 34.4571606,11.3337258 34.8678693,10.8304674 C35.2779912,10.3278039 35.8283408,10.0761748 36.5171579,10.0761748 C37.1930671,10.0761748 37.6882644,10.3468397 38.000403,10.8893593 L38.0197649,10.8893593 L38.0197649,7.78831238 L38.811846,7.78831238 L38.811846,15.2140498 L38.811846,15.2140498 Z M38.0197649,12.9464129 L38.0197649,12.2063971 C38.0197649,11.7917741 37.8836444,11.4479404 37.6114032,11.1725165 C37.3385753,10.8982824 37.0082482,10.7614627 36.6186617,10.7614627 C36.1422396,10.7614627 35.7638009,10.940518 35.4839323,11.2980337 C35.2034769,11.6555494 35.0626625,12.1510744 35.0626625,12.7846088 C35.0626625,13.3592513 35.1952627,13.8137305 35.4592897,14.1486412 C35.7233167,14.4841468 36.0794598,14.6507098 36.5271323,14.6507098 C36.9618968,14.6507098 37.3198,14.4906903 37.5990819,14.1700565 C37.880124,13.8506123 38.0197649,13.4431277 38.0197649,12.9464129 L38.0197649,12.9464129 Z M44.6615109,12.6864556 C44.6615109,13.4835788 44.4391415,14.1242516 43.9920558,14.609069 C43.5461435,15.0944813 42.948269,15.3365926 42.1972589,15.3365926 C41.4667842,15.3365926 40.8824044,15.1010249 40.4464665,14.6292946 C40.0099418,14.1569694 39.7922662,13.5359271 39.7922662,12.7649782 C39.7922662,11.9357322 40.0158091,11.2801876 40.4634815,10.7983445 C40.911154,10.3170963 41.5278037,10.0761748 42.3134307,10.0761748 C43.0480125,10.0761748 43.6218312,10.3087682 44.0378204,10.773955 C44.4538097,11.2391417 44.6615109,11.8768403 44.6615109,12.6864556 L44.6615109,12.6864556 Z M43.8500679,12.716199 C43.8500679,12.0856389 43.7116004,11.603201 43.4370123,11.2659108 C43.1612508,10.9298104 42.7675572,10.7614627 42.2553448,10.7614627 C41.7466528,10.7614627 41.3435716,10.9339744 41.0478613,11.278403 C40.7515643,11.6228316 40.6031225,12.1082439 40.6031225,12.7352348 C40.6031225,13.3366464 40.7521511,13.8054024 41.0507949,14.1432874 C41.3476786,14.4817673 41.7495864,14.6507098 42.2553448,14.6507098 C42.7704908,14.6507098 43.1653579,14.4841468 43.4393592,14.1516155 C43.7127739,13.8178946 43.8500679,13.3396207 43.8500679,12.716199 L43.8500679,12.716199 Z M51.8729684,10.1981227 L50.3897234,15.2140498 L49.5688928,15.2140498 L48.5497486,11.6240213 C48.514545,11.4996939 48.4881423,11.346218 48.4723006,11.1635935 L48.4523519,11.1635935 C48.4429643,11.278403 48.4095209,11.4277149 48.3514349,11.6139086 L47.2448684,15.2140498 L46.4527874,15.2140498 L44.959568,10.1981227 L45.7909597,10.1981227 L46.810104,13.9695859 C46.8423739,14.1004569 46.8646696,14.2515534 46.8781643,14.4204959 L46.9163015,14.4204959 C46.9221688,14.2967633 46.9532653,14.1432874 47.0078309,13.960068 L48.1437337,10.1981227 L48.8683411,10.1981227 L49.8974597,13.9796987 C49.9285562,14.1070004 49.9520253,14.2575021 49.9649333,14.4306086 L50.0024838,14.4306086 C50.0101113,14.2735635 50.0359272,14.1230619 50.0811052,13.9796987 L51.0902751,10.1981227 L51.8729684,10.1981227 L51.8729684,10.1981227 Z M55.248407,13.8714327 C55.248407,14.3062812 55.0841235,14.6584431 54.7537964,14.9302978 C54.4234693,15.2009627 53.9845977,15.3365926 53.4377685,15.3365926 C52.970734,15.3365926 52.5611988,15.2348702 52.2103363,15.0326151 L52.2103363,14.1700565 C52.5999228,14.4906903 53.02882,14.6507098 53.4952677,14.6507098 C54.1224785,14.6507098 54.4375507,14.4175215 54.4375507,13.9505502 C54.4375507,13.7613821 54.3765312,13.6067164 54.2539053,13.4877428 C54.1312794,13.3687692 53.853171,13.20756 53.4178198,13.00471 C52.9801217,12.815542 52.67033,12.612692 52.4907916,12.3955652 C52.3100798,12.1784383 52.2197239,11.8893325 52.2197239,11.5306271 C52.2197239,11.1160041 52.3840074,10.7697909 52.7125743,10.4919875 C53.0411412,10.214779 53.4588906,10.0761748 53.9640623,10.0761748 C54.3536488,10.0761748 54.7062715,10.1541025 55.0225172,10.3117425 L55.0225172,11.1189784 C54.6998176,10.8810312 54.3266594,10.7614627 53.9012826,10.7614627 C53.6401892,10.7614627 53.4307278,10.8268982 53.2705514,10.9577692 C53.1109617,11.0886401 53.0311669,11.2569878 53.0311669,11.4622172 C53.0311669,11.6846979 53.0933599,11.8548301 53.2148123,11.9743986 C53.3374382,12.0927773 53.5909041,12.2343559 53.9740367,12.3973498 C54.443418,12.6001998 54.7743318,12.8119728 54.9632578,13.0344534 C55.1533573,13.2563392 55.248407,13.5359271 55.248407,13.8714327 L55.248407,13.8714327 Z" id="Fill-3"></path>
                            <path d="M62.2996882,13.441938 C62.2996882,14.0326419 62.0931604,14.4960441 61.6806915,14.8321446 C61.2688094,15.1688399 60.7084854,15.3371875 59.9997196,15.3371875 C59.7421466,15.3371875 59.4511302,15.2937621 59.1278438,15.2069114 C58.8033839,15.1206555 58.5745605,15.0296407 58.4390266,14.9350567 L58.4390266,13.9606629 C58.6355801,14.1403131 58.8937398,14.2902198 59.2146793,14.410978 C59.5350321,14.5323311 59.8336759,14.5924127 60.1106109,14.5924127 C61.0000886,14.5924127 61.4436539,14.2414406 61.4436539,13.5394964 C61.4436539,13.2450367 61.3491909,12.9934075 61.1590915,12.7822294 C60.9689921,12.572241 60.5794056,12.2950325 59.9897452,11.9523885 C59.4200336,11.625806 59.0204728,11.3152848 58.7922361,11.02142 C58.562826,10.7275552 58.449001,10.3706344 58.449001,9.94887302 C58.449001,9.39386116 58.6531819,8.94235633 59.0621304,8.59435854 C59.4716656,8.24636075 59.9997196,8.07265929 60.6468791,8.07265929 C61.2688094,8.07265929 61.7229358,8.15594082 62.0092585,8.32250386 L62.0092585,9.24335955 C61.6490083,8.95663317 61.1802137,8.81208024 60.6034613,8.81208024 C60.2203288,8.81208024 59.9070168,8.90963859 59.6641119,9.10416043 C59.4206204,9.29868227 59.2991679,9.55507039 59.2991679,9.87570425 C59.2991679,10.1071079 59.335545,10.2938965 59.4077124,10.4336904 C59.4804665,10.5740793 59.6025056,10.7132784 59.7750033,10.8500981 C59.9475009,10.9875126 60.2379306,11.1719217 60.6468791,11.4039202 C61.258835,11.7501334 61.6877322,12.0767159 61.9323973,12.3830729 C62.1764756,12.6906197 62.2996882,13.0433764 62.2996882,13.441938 L62.2996882,13.441938 Z M65.5730363,15.1658655 C65.3829368,15.2735366 65.1353382,15.3276696 64.8290668,15.3276696 C63.9659919,15.3276696 63.5341611,14.8339292 63.5341611,13.847638 L63.5341611,10.8798415 L62.6839941,10.8798415 L62.6839941,10.1987176 L63.5341611,10.1987176 L63.5341611,8.97447921 L64.3262421,8.71452188 L64.3262421,10.1987176 L65.5730363,10.1987176 L65.5730363,10.8798415 L64.3262421,10.8798415 L64.3262421,13.7108183 C64.3262421,14.0469188 64.3831546,14.2866506 64.4958061,14.428824 C64.6084576,14.5704026 64.7967969,14.6411919 65.0608239,14.6411919 C65.2567906,14.6411919 65.4281148,14.5876538 65.5730363,14.4799827 L65.5730363,15.1658655 L65.5730363,15.1658655 Z M71.0354616,12.6870505 C71.0354616,13.4841736 70.8119187,14.1248465 70.3660065,14.6096639 C69.9200942,15.0944813 69.321633,15.3371875 68.5712096,15.3371875 C67.8401481,15.3371875 67.2563551,15.1016198 66.8198305,14.6292946 C66.3833058,14.1575642 66.1650435,13.536522 66.1650435,12.7655731 C66.1650435,11.9357322 66.3891731,11.2807825 66.8368455,10.7989394 C67.284518,10.3170963 67.9011677,10.0761748 68.6873815,10.0761748 C69.4213765,10.0761748 69.9963687,10.3087682 70.4123579,10.773955 C70.8277604,11.2391417 71.0354616,11.8774351 71.0354616,12.6870505 L71.0354616,12.6870505 Z M70.2234319,12.7167939 C70.2234319,12.0862338 70.0861378,11.603201 69.8103763,11.2665057 C69.5352015,10.9304052 69.1415079,10.7620576 68.6292955,10.7620576 C68.1200168,10.7620576 67.7175223,10.9345693 67.421812,11.2789979 C67.1249283,11.6234265 66.9770732,12.1088388 66.9770732,12.7358297 C66.9770732,13.3372412 67.1261018,13.8065921 67.4235722,14.1444771 C67.7216293,14.4823622 68.1235371,14.6513047 68.6292955,14.6513047 C69.1444415,14.6513047 69.5393086,14.4853365 69.8127232,14.1516155 C70.0867246,13.8184895 70.2234319,13.3402156 70.2234319,12.7167939 L70.2234319,12.7167939 Z M74.4466905,11.0119022 C74.3047026,10.904231 74.1034554,10.8500981 73.842362,10.8500981 C73.4914995,10.8500981 73.2063503,11.017256 72.9875012,11.3521667 C72.7680655,11.6870774 72.6589343,12.1225207 72.6589343,12.6573071 L72.6589343,15.2146447 L71.8662666,15.2146447 L71.8662666,10.1987176 L72.6589343,10.1987176 L72.6589343,11.2325982 L72.6782963,11.2325982 C72.7880142,10.886385 72.9569915,10.6127457 73.1852281,10.4116803 C73.4140515,10.2112098 73.6769051,10.1106771 73.9726153,10.1106771 C74.1791431,10.1106771 74.3369726,10.1332821 74.4466905,10.1790869 L74.4466905,11.0119022 L74.4466905,11.0119022 Z M79.2191252,12.9077465 L75.7263414,12.9077465 C75.7392493,13.4722763 75.8865177,13.9041505 76.1681465,14.2033691 C76.4503621,14.5019928 76.8405353,14.6513047 77.3398397,14.6513047 C77.9001637,14.6513047 78.4106159,14.4686802 78.8711963,14.1028364 L78.8711963,14.8523701 C78.4399522,15.1759783 77.8667203,15.3371875 77.1515004,15.3371875 C76.446255,15.3371875 75.8953186,15.1057838 75.4986914,14.6441663 C75.1026509,14.1819538 74.904924,13.5430656 74.904924,12.7263118 C74.904924,12.2301919 75.0040808,11.7769024 75.2018077,11.3670384 C75.4001213,10.9571743 75.6729492,10.6395148 76.0208781,10.4146547 C76.3688071,10.1891997 76.7554599,10.0761748 77.1802501,10.0761748 C77.8215423,10.0761748 78.3214334,10.2879478 78.6805102,10.7108989 C79.0395869,11.1338501 79.2191252,11.7257438 79.2191252,12.4859851 L79.2191252,12.9077465 L79.2191252,12.9077465 Z M78.4076823,12.2266226 C78.4012283,11.7626256 78.2909236,11.4033253 78.0767684,11.1463423 C77.8626132,10.8905491 77.5604489,10.7620576 77.1708624,10.7620576 C76.8035715,10.7620576 76.489086,10.8959029 76.2285794,11.1635935 C75.967486,11.431879 75.8037893,11.7858254 75.735729,12.2266226 L78.4076823,12.2266226 L78.4076823,12.2266226 Z" id="Fill-4"></path>
                        </g>
                    </g>
                </g>
            </g>
        </g>
    </g>
</svg>